G04 #@! TF.GenerationSoftware,KiCad,Pcbnew,(6.0.2)*
G04 #@! TF.CreationDate,2022-04-10T20:08:41+05:30*
G04 #@! TF.ProjectId,discipline-pcb,64697363-6970-46c6-996e-652d7063622e,rev?*
G04 #@! TF.SameCoordinates,Original*
G04 #@! TF.FileFunction,Soldermask,Top*
G04 #@! TF.FilePolarity,Negative*
%FSLAX46Y46*%
G04 Gerber Fmt 4.6, Leading zero omitted, Abs format (unit mm)*
G04 Created by KiCad (PCBNEW (6.0.2)) date 2022-04-10 20:08:41*
%MOMM*%
%LPD*%
G01*
G04 APERTURE LIST*
G04 Aperture macros list*
%AMRoundRect*
0 Rectangle with rounded corners*
0 $1 Rounding radius*
0 $2 $3 $4 $5 $6 $7 $8 $9 X,Y pos of 4 corners*
0 Add a 4 corners polygon primitive as box body*
4,1,4,$2,$3,$4,$5,$6,$7,$8,$9,$2,$3,0*
0 Add four circle primitives for the rounded corners*
1,1,$1+$1,$2,$3*
1,1,$1+$1,$4,$5*
1,1,$1+$1,$6,$7*
1,1,$1+$1,$8,$9*
0 Add four rect primitives between the rounded corners*
20,1,$1+$1,$2,$3,$4,$5,0*
20,1,$1+$1,$4,$5,$6,$7,0*
20,1,$1+$1,$6,$7,$8,$9,0*
20,1,$1+$1,$8,$9,$2,$3,0*%
G04 Aperture macros list end*
%ADD10C,1.500000*%
%ADD11C,0.010000*%
%ADD12C,0.400000*%
%ADD13C,3.150000*%
%ADD14C,4.089800*%
%ADD15RoundRect,0.051000X0.800000X-0.800000X0.800000X0.800000X-0.800000X0.800000X-0.800000X-0.800000X0*%
%ADD16O,1.702000X1.702000*%
%ADD17C,4.502000*%
%ADD18RoundRect,0.051000X1.000000X-1.000000X1.000000X1.000000X-1.000000X1.000000X-1.000000X-1.000000X0*%
%ADD19C,2.102000*%
%ADD20O,3.102000X3.102000*%
%ADD21O,2.602000X3.102000*%
%ADD22C,1.852000*%
%ADD23C,3.102000*%
%ADD24C,1.702000*%
%ADD25RoundRect,0.051000X0.600000X-0.600000X0.600000X0.600000X-0.600000X0.600000X-0.600000X-0.600000X0*%
%ADD26C,1.302000*%
%ADD27O,1.502000X1.502000*%
%ADD28C,1.502000*%
%ADD29RoundRect,0.051000X0.850000X0.850000X-0.850000X0.850000X-0.850000X-0.850000X0.850000X-0.850000X0*%
%ADD30C,1.802000*%
%ADD31C,1.602000*%
%ADD32C,1.902000*%
%ADD33RoundRect,0.051000X-0.900000X-0.900000X0.900000X-0.900000X0.900000X0.900000X-0.900000X0.900000X0*%
%ADD34O,0.752000X1.102000*%
%ADD35O,1.002000X2.502000*%
%ADD36O,1.002000X1.802000*%
%ADD37RoundRect,0.051000X-0.800000X0.800000X-0.800000X-0.800000X0.800000X-0.800000X0.800000X0.800000X0*%
G04 APERTURE END LIST*
D10*
X223254308Y-59503020D02*
X62883004Y-59503020D01*
X223254308Y-61986290D02*
X62883004Y-61986290D01*
X223254308Y-64469560D02*
X62883004Y-64469560D01*
D11*
X354287356Y-69739610D02*
X354856739Y-69741787D01*
X354856739Y-69741787D02*
X355426122Y-69743963D01*
X355426122Y-69743963D02*
X355426122Y-70150363D01*
X355426122Y-70150363D02*
X354287356Y-70154715D01*
X354287356Y-70154715D02*
X354287356Y-70814996D01*
X354287356Y-70814996D02*
X355007023Y-70814996D01*
X355007023Y-70814996D02*
X355007023Y-71246796D01*
X355007023Y-71246796D02*
X354287356Y-71246796D01*
X354287356Y-71246796D02*
X354287356Y-71924010D01*
X354287356Y-71924010D02*
X354856739Y-71926187D01*
X354856739Y-71926187D02*
X355426122Y-71928363D01*
X355426122Y-71928363D02*
X355428385Y-72142146D01*
X355428385Y-72142146D02*
X355430647Y-72355929D01*
X355430647Y-72355929D02*
X354287356Y-72355929D01*
X354287356Y-72355929D02*
X354287356Y-72973996D01*
X354287356Y-72973996D02*
X353847089Y-72973996D01*
X353847089Y-72973996D02*
X353847089Y-72355929D01*
X353847089Y-72355929D02*
X352712556Y-72355929D01*
X352712556Y-72355929D02*
X352712556Y-71924130D01*
X352712556Y-71924130D02*
X353847089Y-71924130D01*
X353847089Y-71924130D02*
X353847089Y-71246796D01*
X353847089Y-71246796D02*
X353135889Y-71246796D01*
X353135889Y-71246796D02*
X353135889Y-70814996D01*
X353135889Y-70814996D02*
X353847089Y-70814996D01*
X353847089Y-70814996D02*
X353847089Y-70154596D01*
X353847089Y-70154596D02*
X352712556Y-70154596D01*
X352712556Y-70154596D02*
X352712556Y-69739730D01*
X352712556Y-69739730D02*
X353846870Y-69739730D01*
X353846870Y-69739730D02*
X353851322Y-69151296D01*
X353851322Y-69151296D02*
X354069339Y-69149037D01*
X354069339Y-69149037D02*
X354287356Y-69146777D01*
X354287356Y-69146777D02*
X354287356Y-69739610D01*
X354287356Y-69739610D02*
X354287356Y-69739610D01*
G36*
X354287356Y-69739610D02*
G01*
X354856739Y-69741787D01*
X355426122Y-69743963D01*
X355426122Y-70150363D01*
X354287356Y-70154715D01*
X354287356Y-70814996D01*
X355007023Y-70814996D01*
X355007023Y-71246796D01*
X354287356Y-71246796D01*
X354287356Y-71924010D01*
X354856739Y-71926187D01*
X355426122Y-71928363D01*
X355428385Y-72142146D01*
X355430647Y-72355929D01*
X354287356Y-72355929D01*
X354287356Y-72973996D01*
X353847089Y-72973996D01*
X353847089Y-72355929D01*
X352712556Y-72355929D01*
X352712556Y-71924130D01*
X353847089Y-71924130D01*
X353847089Y-71246796D01*
X353135889Y-71246796D01*
X353135889Y-70814996D01*
X353847089Y-70814996D01*
X353847089Y-70154596D01*
X352712556Y-70154596D01*
X352712556Y-69739730D01*
X353846870Y-69739730D01*
X353851322Y-69151296D01*
X354069339Y-69149037D01*
X354287356Y-69146777D01*
X354287356Y-69739610D01*
G37*
X354287356Y-69739610D02*
X354856739Y-69741787D01*
X355426122Y-69743963D01*
X355426122Y-70150363D01*
X354287356Y-70154715D01*
X354287356Y-70814996D01*
X355007023Y-70814996D01*
X355007023Y-71246796D01*
X354287356Y-71246796D01*
X354287356Y-71924010D01*
X354856739Y-71926187D01*
X355426122Y-71928363D01*
X355428385Y-72142146D01*
X355430647Y-72355929D01*
X354287356Y-72355929D01*
X354287356Y-72973996D01*
X353847089Y-72973996D01*
X353847089Y-72355929D01*
X352712556Y-72355929D01*
X352712556Y-71924130D01*
X353847089Y-71924130D01*
X353847089Y-71246796D01*
X353135889Y-71246796D01*
X353135889Y-70814996D01*
X353847089Y-70814996D01*
X353847089Y-70154596D01*
X352712556Y-70154596D01*
X352712556Y-69739730D01*
X353846870Y-69739730D01*
X353851322Y-69151296D01*
X354069339Y-69149037D01*
X354287356Y-69146777D01*
X354287356Y-69739610D01*
X58671725Y-69739610D02*
X59241108Y-69741787D01*
X59241108Y-69741787D02*
X59810491Y-69743963D01*
X59810491Y-69743963D02*
X59810491Y-70150363D01*
X59810491Y-70150363D02*
X58671725Y-70154715D01*
X58671725Y-70154715D02*
X58671725Y-70814996D01*
X58671725Y-70814996D02*
X59391392Y-70814996D01*
X59391392Y-70814996D02*
X59391392Y-71246796D01*
X59391392Y-71246796D02*
X58671725Y-71246796D01*
X58671725Y-71246796D02*
X58671725Y-71924010D01*
X58671725Y-71924010D02*
X59241108Y-71926187D01*
X59241108Y-71926187D02*
X59810491Y-71928363D01*
X59810491Y-71928363D02*
X59812754Y-72142146D01*
X59812754Y-72142146D02*
X59815016Y-72355929D01*
X59815016Y-72355929D02*
X58671725Y-72355929D01*
X58671725Y-72355929D02*
X58671725Y-72973996D01*
X58671725Y-72973996D02*
X58231458Y-72973996D01*
X58231458Y-72973996D02*
X58231458Y-72355929D01*
X58231458Y-72355929D02*
X57096925Y-72355929D01*
X57096925Y-72355929D02*
X57096925Y-71924130D01*
X57096925Y-71924130D02*
X58231458Y-71924130D01*
X58231458Y-71924130D02*
X58231458Y-71246796D01*
X58231458Y-71246796D02*
X57520258Y-71246796D01*
X57520258Y-71246796D02*
X57520258Y-70814996D01*
X57520258Y-70814996D02*
X58231458Y-70814996D01*
X58231458Y-70814996D02*
X58231458Y-70154596D01*
X58231458Y-70154596D02*
X57096925Y-70154596D01*
X57096925Y-70154596D02*
X57096925Y-69739730D01*
X57096925Y-69739730D02*
X58231239Y-69739730D01*
X58231239Y-69739730D02*
X58235691Y-69151296D01*
X58235691Y-69151296D02*
X58453708Y-69149037D01*
X58453708Y-69149037D02*
X58671725Y-69146777D01*
X58671725Y-69146777D02*
X58671725Y-69739610D01*
X58671725Y-69739610D02*
X58671725Y-69739610D01*
G36*
X58671725Y-69739610D02*
G01*
X59241108Y-69741787D01*
X59810491Y-69743963D01*
X59810491Y-70150363D01*
X58671725Y-70154715D01*
X58671725Y-70814996D01*
X59391392Y-70814996D01*
X59391392Y-71246796D01*
X58671725Y-71246796D01*
X58671725Y-71924010D01*
X59241108Y-71926187D01*
X59810491Y-71928363D01*
X59812754Y-72142146D01*
X59815016Y-72355929D01*
X58671725Y-72355929D01*
X58671725Y-72973996D01*
X58231458Y-72973996D01*
X58231458Y-72355929D01*
X57096925Y-72355929D01*
X57096925Y-71924130D01*
X58231458Y-71924130D01*
X58231458Y-71246796D01*
X57520258Y-71246796D01*
X57520258Y-70814996D01*
X58231458Y-70814996D01*
X58231458Y-70154596D01*
X57096925Y-70154596D01*
X57096925Y-69739730D01*
X58231239Y-69739730D01*
X58235691Y-69151296D01*
X58453708Y-69149037D01*
X58671725Y-69146777D01*
X58671725Y-69739610D01*
G37*
X58671725Y-69739610D02*
X59241108Y-69741787D01*
X59810491Y-69743963D01*
X59810491Y-70150363D01*
X58671725Y-70154715D01*
X58671725Y-70814996D01*
X59391392Y-70814996D01*
X59391392Y-71246796D01*
X58671725Y-71246796D01*
X58671725Y-71924010D01*
X59241108Y-71926187D01*
X59810491Y-71928363D01*
X59812754Y-72142146D01*
X59815016Y-72355929D01*
X58671725Y-72355929D01*
X58671725Y-72973996D01*
X58231458Y-72973996D01*
X58231458Y-72355929D01*
X57096925Y-72355929D01*
X57096925Y-71924130D01*
X58231458Y-71924130D01*
X58231458Y-71246796D01*
X57520258Y-71246796D01*
X57520258Y-70814996D01*
X58231458Y-70814996D01*
X58231458Y-70154596D01*
X57096925Y-70154596D01*
X57096925Y-69739730D01*
X58231239Y-69739730D01*
X58235691Y-69151296D01*
X58453708Y-69149037D01*
X58671725Y-69146777D01*
X58671725Y-69739610D01*
D12*
X144037456Y-167154210D02*
X166337456Y-167154210D01*
X144057456Y-160474210D02*
X166337456Y-160474210D01*
D11*
X164749072Y-162655368D02*
X164884771Y-162657925D01*
X164884771Y-162657925D02*
X164975079Y-162663614D01*
X164975079Y-162663614D02*
X165029945Y-162673607D01*
X165029945Y-162673607D02*
X165059319Y-162689070D01*
X165059319Y-162689070D02*
X165073151Y-162711174D01*
X165073151Y-162711174D02*
X165074608Y-162715472D01*
X165074608Y-162715472D02*
X165081021Y-162794519D01*
X165081021Y-162794519D02*
X165073315Y-162829739D01*
X165073315Y-162829739D02*
X165056010Y-162852466D01*
X165056010Y-162852466D02*
X165017542Y-162867835D01*
X165017542Y-162867835D02*
X164947162Y-162877197D01*
X164947162Y-162877197D02*
X164834122Y-162881902D01*
X164834122Y-162881902D02*
X164667674Y-162883300D01*
X164667674Y-162883300D02*
X164646928Y-162883310D01*
X164646928Y-162883310D02*
X164241098Y-162883310D01*
X164241098Y-162883310D02*
X164250485Y-163185303D01*
X164250485Y-163185303D02*
X164259872Y-163487295D01*
X164259872Y-163487295D02*
X164610836Y-163496561D01*
X164610836Y-163496561D02*
X164961800Y-163505828D01*
X164961800Y-163505828D02*
X164961800Y-163699506D01*
X164961800Y-163699506D02*
X164243548Y-163699506D01*
X164243548Y-163699506D02*
X164243548Y-164415807D01*
X164243548Y-164415807D02*
X165076068Y-164434081D01*
X165076068Y-164434081D02*
X165076068Y-164629968D01*
X165076068Y-164629968D02*
X164569186Y-164638922D01*
X164569186Y-164638922D02*
X164353731Y-164640947D01*
X164353731Y-164640947D02*
X164197101Y-164638059D01*
X164197101Y-164638059D02*
X164092985Y-164629900D01*
X164092985Y-164629900D02*
X164035072Y-164616111D01*
X164035072Y-164616111D02*
X164022335Y-164607907D01*
X164022335Y-164607907D02*
X164009968Y-164563582D01*
X164009968Y-164563582D02*
X163999695Y-164464305D01*
X163999695Y-164464305D02*
X163991522Y-164320384D01*
X163991522Y-164320384D02*
X163985452Y-164142124D01*
X163985452Y-164142124D02*
X163981490Y-163939834D01*
X163981490Y-163939834D02*
X163979639Y-163723818D01*
X163979639Y-163723818D02*
X163979905Y-163504386D01*
X163979905Y-163504386D02*
X163982291Y-163291842D01*
X163982291Y-163291842D02*
X163986802Y-163096495D01*
X163986802Y-163096495D02*
X163993442Y-162928651D01*
X163993442Y-162928651D02*
X164002214Y-162798616D01*
X164002214Y-162798616D02*
X164013125Y-162716699D01*
X164013125Y-162716699D02*
X164021543Y-162693953D01*
X164021543Y-162693953D02*
X164067798Y-162676565D01*
X164067798Y-162676565D02*
X164168692Y-162664409D01*
X164168692Y-162664409D02*
X164327682Y-162657231D01*
X164327682Y-162657231D02*
X164548224Y-162654779D01*
X164548224Y-162654779D02*
X164558032Y-162654776D01*
X164558032Y-162654776D02*
X164749072Y-162655368D01*
X164749072Y-162655368D02*
X164749072Y-162655368D01*
G36*
X164749072Y-162655368D02*
G01*
X164884771Y-162657925D01*
X164975079Y-162663614D01*
X165029945Y-162673607D01*
X165059319Y-162689070D01*
X165073151Y-162711174D01*
X165074608Y-162715472D01*
X165081021Y-162794519D01*
X165073315Y-162829739D01*
X165056010Y-162852466D01*
X165017542Y-162867835D01*
X164947162Y-162877197D01*
X164834122Y-162881902D01*
X164667674Y-162883300D01*
X164646928Y-162883310D01*
X164241098Y-162883310D01*
X164250485Y-163185303D01*
X164259872Y-163487295D01*
X164610836Y-163496561D01*
X164961800Y-163505828D01*
X164961800Y-163699506D01*
X164243548Y-163699506D01*
X164243548Y-164415807D01*
X165076068Y-164434081D01*
X165076068Y-164629968D01*
X164569186Y-164638922D01*
X164353731Y-164640947D01*
X164197101Y-164638059D01*
X164092985Y-164629900D01*
X164035072Y-164616111D01*
X164022335Y-164607907D01*
X164009968Y-164563582D01*
X163999695Y-164464305D01*
X163991522Y-164320384D01*
X163985452Y-164142124D01*
X163981490Y-163939834D01*
X163979639Y-163723818D01*
X163979905Y-163504386D01*
X163982291Y-163291842D01*
X163986802Y-163096495D01*
X163993442Y-162928651D01*
X164002214Y-162798616D01*
X164013125Y-162716699D01*
X164021543Y-162693953D01*
X164067798Y-162676565D01*
X164168692Y-162664409D01*
X164327682Y-162657231D01*
X164548224Y-162654779D01*
X164558032Y-162654776D01*
X164749072Y-162655368D01*
G37*
X164749072Y-162655368D02*
X164884771Y-162657925D01*
X164975079Y-162663614D01*
X165029945Y-162673607D01*
X165059319Y-162689070D01*
X165073151Y-162711174D01*
X165074608Y-162715472D01*
X165081021Y-162794519D01*
X165073315Y-162829739D01*
X165056010Y-162852466D01*
X165017542Y-162867835D01*
X164947162Y-162877197D01*
X164834122Y-162881902D01*
X164667674Y-162883300D01*
X164646928Y-162883310D01*
X164241098Y-162883310D01*
X164250485Y-163185303D01*
X164259872Y-163487295D01*
X164610836Y-163496561D01*
X164961800Y-163505828D01*
X164961800Y-163699506D01*
X164243548Y-163699506D01*
X164243548Y-164415807D01*
X165076068Y-164434081D01*
X165076068Y-164629968D01*
X164569186Y-164638922D01*
X164353731Y-164640947D01*
X164197101Y-164638059D01*
X164092985Y-164629900D01*
X164035072Y-164616111D01*
X164022335Y-164607907D01*
X164009968Y-164563582D01*
X163999695Y-164464305D01*
X163991522Y-164320384D01*
X163985452Y-164142124D01*
X163981490Y-163939834D01*
X163979639Y-163723818D01*
X163979905Y-163504386D01*
X163982291Y-163291842D01*
X163986802Y-163096495D01*
X163993442Y-162928651D01*
X164002214Y-162798616D01*
X164013125Y-162716699D01*
X164021543Y-162693953D01*
X164067798Y-162676565D01*
X164168692Y-162664409D01*
X164327682Y-162657231D01*
X164548224Y-162654779D01*
X164558032Y-162654776D01*
X164749072Y-162655368D01*
X162734069Y-163640268D02*
X162725425Y-164629968D01*
X162725425Y-164629968D02*
X162611158Y-164639583D01*
X162611158Y-164639583D02*
X162517601Y-164634566D01*
X162517601Y-164634566D02*
X162445477Y-164609338D01*
X162445477Y-164609338D02*
X162442159Y-164606936D01*
X162442159Y-164606936D02*
X162412497Y-164568132D01*
X162412497Y-164568132D02*
X162356197Y-164479783D01*
X162356197Y-164479783D02*
X162277860Y-164349678D01*
X162277860Y-164349678D02*
X162182092Y-164185608D01*
X162182092Y-164185608D02*
X162073495Y-163995362D01*
X162073495Y-163995362D02*
X161956674Y-163786732D01*
X161956674Y-163786732D02*
X161944856Y-163765409D01*
X161944856Y-163765409D02*
X161502285Y-162966146D01*
X161502285Y-162966146D02*
X161493546Y-163798057D01*
X161493546Y-163798057D02*
X161484808Y-164629968D01*
X161484808Y-164629968D02*
X161378221Y-164640235D01*
X161378221Y-164640235D02*
X161271634Y-164650501D01*
X161271634Y-164650501D02*
X161280277Y-163660800D01*
X161280277Y-163660800D02*
X161288921Y-162671099D01*
X161288921Y-162671099D02*
X161440339Y-162661298D01*
X161440339Y-162661298D02*
X161541129Y-162660739D01*
X161541129Y-162660739D02*
X161603506Y-162681279D01*
X161603506Y-162681279D02*
X161652550Y-162730572D01*
X161652550Y-162730572D02*
X161684699Y-162780561D01*
X161684699Y-162780561D02*
X161742835Y-162879148D01*
X161742835Y-162879148D02*
X161821926Y-163017470D01*
X161821926Y-163017470D02*
X161916944Y-163186666D01*
X161916944Y-163186666D02*
X162022859Y-163377872D01*
X162022859Y-163377872D02*
X162105117Y-163527999D01*
X162105117Y-163527999D02*
X162496890Y-164246351D01*
X162496890Y-164246351D02*
X162529538Y-162671099D01*
X162529538Y-162671099D02*
X162636125Y-162660833D01*
X162636125Y-162660833D02*
X162742713Y-162650567D01*
X162742713Y-162650567D02*
X162734069Y-163640268D01*
X162734069Y-163640268D02*
X162734069Y-163640268D01*
G36*
X162734069Y-163640268D02*
G01*
X162725425Y-164629968D01*
X162611158Y-164639583D01*
X162517601Y-164634566D01*
X162445477Y-164609338D01*
X162442159Y-164606936D01*
X162412497Y-164568132D01*
X162356197Y-164479783D01*
X162277860Y-164349678D01*
X162182092Y-164185608D01*
X162073495Y-163995362D01*
X161956674Y-163786732D01*
X161944856Y-163765409D01*
X161502285Y-162966146D01*
X161493546Y-163798057D01*
X161484808Y-164629968D01*
X161378221Y-164640235D01*
X161271634Y-164650501D01*
X161280277Y-163660800D01*
X161288921Y-162671099D01*
X161440339Y-162661298D01*
X161541129Y-162660739D01*
X161603506Y-162681279D01*
X161652550Y-162730572D01*
X161684699Y-162780561D01*
X161742835Y-162879148D01*
X161821926Y-163017470D01*
X161916944Y-163186666D01*
X162022859Y-163377872D01*
X162105117Y-163527999D01*
X162496890Y-164246351D01*
X162529538Y-162671099D01*
X162636125Y-162660833D01*
X162742713Y-162650567D01*
X162734069Y-163640268D01*
G37*
X162734069Y-163640268D02*
X162725425Y-164629968D01*
X162611158Y-164639583D01*
X162517601Y-164634566D01*
X162445477Y-164609338D01*
X162442159Y-164606936D01*
X162412497Y-164568132D01*
X162356197Y-164479783D01*
X162277860Y-164349678D01*
X162182092Y-164185608D01*
X162073495Y-163995362D01*
X161956674Y-163786732D01*
X161944856Y-163765409D01*
X161502285Y-162966146D01*
X161493546Y-163798057D01*
X161484808Y-164629968D01*
X161378221Y-164640235D01*
X161271634Y-164650501D01*
X161280277Y-163660800D01*
X161288921Y-162671099D01*
X161440339Y-162661298D01*
X161541129Y-162660739D01*
X161603506Y-162681279D01*
X161652550Y-162730572D01*
X161684699Y-162780561D01*
X161742835Y-162879148D01*
X161821926Y-163017470D01*
X161916944Y-163186666D01*
X162022859Y-163377872D01*
X162105117Y-163527999D01*
X162496890Y-164246351D01*
X162529538Y-162671099D01*
X162636125Y-162660833D01*
X162742713Y-162650567D01*
X162734069Y-163640268D01*
X159893227Y-162660967D02*
X160015656Y-162671099D01*
X160015656Y-162671099D02*
X160015656Y-164629968D01*
X160015656Y-164629968D02*
X159770798Y-164650234D01*
X159770798Y-164650234D02*
X159770798Y-162650834D01*
X159770798Y-162650834D02*
X159893227Y-162660967D01*
X159893227Y-162660967D02*
X159893227Y-162660967D01*
G36*
X159893227Y-162660967D02*
G01*
X160015656Y-162671099D01*
X160015656Y-164629968D01*
X159770798Y-164650234D01*
X159770798Y-162650834D01*
X159893227Y-162660967D01*
G37*
X159893227Y-162660967D02*
X160015656Y-162671099D01*
X160015656Y-164629968D01*
X159770798Y-164650234D01*
X159770798Y-162650834D01*
X159893227Y-162660967D01*
X157869063Y-162660967D02*
X157991492Y-162671099D01*
X157991492Y-162671099D02*
X158008878Y-164415629D01*
X158008878Y-164415629D02*
X158742392Y-164434081D01*
X158742392Y-164434081D02*
X158742392Y-164629968D01*
X158742392Y-164629968D02*
X158267114Y-164638967D01*
X158267114Y-164638967D02*
X158097108Y-164640682D01*
X158097108Y-164640682D02*
X157950808Y-164639315D01*
X157950808Y-164639315D02*
X157840400Y-164635199D01*
X157840400Y-164635199D02*
X157778070Y-164628668D01*
X157778070Y-164628668D02*
X157769235Y-164625364D01*
X157769235Y-164625364D02*
X157763550Y-164588205D01*
X157763550Y-164588205D02*
X157758388Y-164493994D01*
X157758388Y-164493994D02*
X157753938Y-164350974D01*
X157753938Y-164350974D02*
X157750385Y-164167387D01*
X157750385Y-164167387D02*
X157747916Y-163951478D01*
X157747916Y-163951478D02*
X157746718Y-163711488D01*
X157746718Y-163711488D02*
X157746633Y-163626798D01*
X157746633Y-163626798D02*
X157746633Y-162650834D01*
X157746633Y-162650834D02*
X157869063Y-162660967D01*
X157869063Y-162660967D02*
X157869063Y-162660967D01*
G36*
X157869063Y-162660967D02*
G01*
X157991492Y-162671099D01*
X158008878Y-164415629D01*
X158742392Y-164434081D01*
X158742392Y-164629968D01*
X158267114Y-164638967D01*
X158097108Y-164640682D01*
X157950808Y-164639315D01*
X157840400Y-164635199D01*
X157778070Y-164628668D01*
X157769235Y-164625364D01*
X157763550Y-164588205D01*
X157758388Y-164493994D01*
X157753938Y-164350974D01*
X157750385Y-164167387D01*
X157747916Y-163951478D01*
X157746718Y-163711488D01*
X157746633Y-163626798D01*
X157746633Y-162650834D01*
X157869063Y-162660967D01*
G37*
X157869063Y-162660967D02*
X157991492Y-162671099D01*
X158008878Y-164415629D01*
X158742392Y-164434081D01*
X158742392Y-164629968D01*
X158267114Y-164638967D01*
X158097108Y-164640682D01*
X157950808Y-164639315D01*
X157840400Y-164635199D01*
X157778070Y-164628668D01*
X157769235Y-164625364D01*
X157763550Y-164588205D01*
X157758388Y-164493994D01*
X157753938Y-164350974D01*
X157750385Y-164167387D01*
X157747916Y-163951478D01*
X157746718Y-163711488D01*
X157746633Y-163626798D01*
X157746633Y-162650834D01*
X157869063Y-162660967D01*
X155863650Y-162660711D02*
X156033793Y-162669015D01*
X156033793Y-162669015D02*
X156154340Y-162680525D01*
X156154340Y-162680525D02*
X156240993Y-162698121D01*
X156240993Y-162698121D02*
X156309451Y-162724684D01*
X156309451Y-162724684D02*
X156356603Y-162751175D01*
X156356603Y-162751175D02*
X156483192Y-162851186D01*
X156483192Y-162851186D02*
X156561203Y-162971445D01*
X156561203Y-162971445D02*
X156597976Y-163126571D01*
X156597976Y-163126571D02*
X156603301Y-163242436D01*
X156603301Y-163242436D02*
X156579591Y-163453977D01*
X156579591Y-163453977D02*
X156508446Y-163622394D01*
X156508446Y-163622394D02*
X156388472Y-163748994D01*
X156388472Y-163748994D02*
X156218272Y-163835080D01*
X156218272Y-163835080D02*
X155996453Y-163881960D01*
X155996453Y-163881960D02*
X155912375Y-163889009D01*
X155912375Y-163889009D02*
X155657173Y-163903782D01*
X155657173Y-163903782D02*
X155657173Y-164646292D01*
X155657173Y-164646292D02*
X155548347Y-164646292D01*
X155548347Y-164646292D02*
X155467677Y-164640319D01*
X155467677Y-164640319D02*
X155419230Y-164625812D01*
X155419230Y-164625812D02*
X155417756Y-164624527D01*
X155417756Y-164624527D02*
X155412174Y-164587498D01*
X155412174Y-164587498D02*
X155407121Y-164493586D01*
X155407121Y-164493586D02*
X155402789Y-164351203D01*
X155402789Y-164351203D02*
X155399368Y-164168760D01*
X155399368Y-164168760D02*
X155397049Y-163954668D01*
X155397049Y-163954668D02*
X155396024Y-163717340D01*
X155396024Y-163717340D02*
X155395991Y-163665414D01*
X155395991Y-163665414D02*
X155396428Y-163387409D01*
X155396428Y-163387409D02*
X155397972Y-163167721D01*
X155397972Y-163167721D02*
X155400974Y-162999379D01*
X155400974Y-162999379D02*
X155405476Y-162883310D01*
X155405476Y-162883310D02*
X155657173Y-162883310D01*
X155657173Y-162883310D02*
X155657173Y-163269643D01*
X155657173Y-163269643D02*
X155658914Y-163422368D01*
X155658914Y-163422368D02*
X155663650Y-163550448D01*
X155663650Y-163550448D02*
X155670653Y-163640207D01*
X155670653Y-163640207D02*
X155678938Y-163677740D01*
X155678938Y-163677740D02*
X155730938Y-163694686D01*
X155730938Y-163694686D02*
X155824375Y-163698293D01*
X155824375Y-163698293D02*
X155936910Y-163689223D01*
X155936910Y-163689223D02*
X156046201Y-163668137D01*
X156046201Y-163668137D02*
X156051371Y-163666725D01*
X156051371Y-163666725D02*
X156190303Y-163602535D01*
X156190303Y-163602535D02*
X156281681Y-163497595D01*
X156281681Y-163497595D02*
X156329504Y-163346643D01*
X156329504Y-163346643D02*
X156335892Y-163292377D01*
X156335892Y-163292377D02*
X156341468Y-163185561D01*
X156341468Y-163185561D02*
X156329626Y-163116034D01*
X156329626Y-163116034D02*
X156290997Y-163056290D01*
X156290997Y-163056290D02*
X156235758Y-162998296D01*
X156235758Y-162998296D02*
X156171379Y-162937956D01*
X156171379Y-162937956D02*
X156115104Y-162903537D01*
X156115104Y-162903537D02*
X156045070Y-162887790D01*
X156045070Y-162887790D02*
X155939416Y-162883466D01*
X155939416Y-162883466D02*
X155888973Y-162883310D01*
X155888973Y-162883310D02*
X155657173Y-162883310D01*
X155657173Y-162883310D02*
X155405476Y-162883310D01*
X155405476Y-162883310D02*
X155405783Y-162875408D01*
X155405783Y-162875408D02*
X155412749Y-162788836D01*
X155412749Y-162788836D02*
X155422223Y-162732690D01*
X155422223Y-162732690D02*
X155434555Y-162699996D01*
X155434555Y-162699996D02*
X155445090Y-162687318D01*
X155445090Y-162687318D02*
X155493218Y-162668250D01*
X155493218Y-162668250D02*
X155585445Y-162658270D01*
X155585445Y-162658270D02*
X155729471Y-162656887D01*
X155729471Y-162656887D02*
X155863650Y-162660711D01*
X155863650Y-162660711D02*
X155863650Y-162660711D01*
G36*
X155863650Y-162660711D02*
G01*
X156033793Y-162669015D01*
X156154340Y-162680525D01*
X156240993Y-162698121D01*
X156309451Y-162724684D01*
X156356603Y-162751175D01*
X156483192Y-162851186D01*
X156561203Y-162971445D01*
X156597976Y-163126571D01*
X156603301Y-163242436D01*
X156579591Y-163453977D01*
X156508446Y-163622394D01*
X156388472Y-163748994D01*
X156218272Y-163835080D01*
X155996453Y-163881960D01*
X155912375Y-163889009D01*
X155657173Y-163903782D01*
X155657173Y-164646292D01*
X155548347Y-164646292D01*
X155467677Y-164640319D01*
X155419230Y-164625812D01*
X155417756Y-164624527D01*
X155412174Y-164587498D01*
X155407121Y-164493586D01*
X155402789Y-164351203D01*
X155399368Y-164168760D01*
X155397049Y-163954668D01*
X155396024Y-163717340D01*
X155395991Y-163665414D01*
X155396428Y-163387409D01*
X155397256Y-163269643D01*
X155657173Y-163269643D01*
X155658914Y-163422368D01*
X155663650Y-163550448D01*
X155670653Y-163640207D01*
X155678938Y-163677740D01*
X155730938Y-163694686D01*
X155824375Y-163698293D01*
X155936910Y-163689223D01*
X156046201Y-163668137D01*
X156051371Y-163666725D01*
X156190303Y-163602535D01*
X156281681Y-163497595D01*
X156329504Y-163346643D01*
X156335892Y-163292377D01*
X156341468Y-163185561D01*
X156329626Y-163116034D01*
X156290997Y-163056290D01*
X156235758Y-162998296D01*
X156171379Y-162937956D01*
X156115104Y-162903537D01*
X156045070Y-162887790D01*
X155939416Y-162883466D01*
X155888973Y-162883310D01*
X155657173Y-162883310D01*
X155657173Y-163269643D01*
X155397256Y-163269643D01*
X155397972Y-163167721D01*
X155400974Y-162999379D01*
X155405476Y-162883310D01*
X155405783Y-162875408D01*
X155412749Y-162788836D01*
X155422223Y-162732690D01*
X155434555Y-162699996D01*
X155445090Y-162687318D01*
X155493218Y-162668250D01*
X155585445Y-162658270D01*
X155729471Y-162656887D01*
X155863650Y-162660711D01*
G37*
X155863650Y-162660711D02*
X156033793Y-162669015D01*
X156154340Y-162680525D01*
X156240993Y-162698121D01*
X156309451Y-162724684D01*
X156356603Y-162751175D01*
X156483192Y-162851186D01*
X156561203Y-162971445D01*
X156597976Y-163126571D01*
X156603301Y-163242436D01*
X156579591Y-163453977D01*
X156508446Y-163622394D01*
X156388472Y-163748994D01*
X156218272Y-163835080D01*
X155996453Y-163881960D01*
X155912375Y-163889009D01*
X155657173Y-163903782D01*
X155657173Y-164646292D01*
X155548347Y-164646292D01*
X155467677Y-164640319D01*
X155419230Y-164625812D01*
X155417756Y-164624527D01*
X155412174Y-164587498D01*
X155407121Y-164493586D01*
X155402789Y-164351203D01*
X155399368Y-164168760D01*
X155397049Y-163954668D01*
X155396024Y-163717340D01*
X155395991Y-163665414D01*
X155396428Y-163387409D01*
X155397256Y-163269643D01*
X155657173Y-163269643D01*
X155658914Y-163422368D01*
X155663650Y-163550448D01*
X155670653Y-163640207D01*
X155678938Y-163677740D01*
X155730938Y-163694686D01*
X155824375Y-163698293D01*
X155936910Y-163689223D01*
X156046201Y-163668137D01*
X156051371Y-163666725D01*
X156190303Y-163602535D01*
X156281681Y-163497595D01*
X156329504Y-163346643D01*
X156335892Y-163292377D01*
X156341468Y-163185561D01*
X156329626Y-163116034D01*
X156290997Y-163056290D01*
X156235758Y-162998296D01*
X156171379Y-162937956D01*
X156115104Y-162903537D01*
X156045070Y-162887790D01*
X155939416Y-162883466D01*
X155888973Y-162883310D01*
X155657173Y-162883310D01*
X155657173Y-163269643D01*
X155397256Y-163269643D01*
X155397972Y-163167721D01*
X155400974Y-162999379D01*
X155405476Y-162883310D01*
X155405783Y-162875408D01*
X155412749Y-162788836D01*
X155422223Y-162732690D01*
X155434555Y-162699996D01*
X155445090Y-162687318D01*
X155493218Y-162668250D01*
X155585445Y-162658270D01*
X155729471Y-162656887D01*
X155863650Y-162660711D01*
X154155374Y-164646292D02*
X154040082Y-164646292D01*
X154040082Y-164646292D02*
X153959195Y-164635741D01*
X153959195Y-164635741D02*
X153911587Y-164609863D01*
X153911587Y-164609863D02*
X153908977Y-164605085D01*
X153908977Y-164605085D02*
X153905221Y-164562951D01*
X153905221Y-164562951D02*
X153902376Y-164464122D01*
X153902376Y-164464122D02*
X153900505Y-164317194D01*
X153900505Y-164317194D02*
X153899669Y-164130761D01*
X153899669Y-164130761D02*
X153899931Y-163913418D01*
X153899931Y-163913418D02*
X153901352Y-163673761D01*
X153901352Y-163673761D02*
X153901840Y-163617489D01*
X153901840Y-163617489D02*
X153910515Y-162671099D01*
X153910515Y-162671099D02*
X154032944Y-162660967D01*
X154032944Y-162660967D02*
X154155374Y-162650834D01*
X154155374Y-162650834D02*
X154155374Y-164646292D01*
X154155374Y-164646292D02*
X154155374Y-164646292D01*
G36*
X154155374Y-164646292D02*
G01*
X154040082Y-164646292D01*
X153959195Y-164635741D01*
X153911587Y-164609863D01*
X153908977Y-164605085D01*
X153905221Y-164562951D01*
X153902376Y-164464122D01*
X153900505Y-164317194D01*
X153899669Y-164130761D01*
X153899931Y-163913418D01*
X153901352Y-163673761D01*
X153901840Y-163617489D01*
X153910515Y-162671099D01*
X154032944Y-162660967D01*
X154155374Y-162650834D01*
X154155374Y-164646292D01*
G37*
X154155374Y-164646292D02*
X154040082Y-164646292D01*
X153959195Y-164635741D01*
X153911587Y-164609863D01*
X153908977Y-164605085D01*
X153905221Y-164562951D01*
X153902376Y-164464122D01*
X153900505Y-164317194D01*
X153899669Y-164130761D01*
X153899931Y-163913418D01*
X153901352Y-163673761D01*
X153901840Y-163617489D01*
X153910515Y-162671099D01*
X154032944Y-162660967D01*
X154155374Y-162650834D01*
X154155374Y-164646292D01*
X148131852Y-164629968D02*
X148025522Y-164640216D01*
X148025522Y-164640216D02*
X147939522Y-164635155D01*
X147939522Y-164635155D02*
X147902579Y-164607170D01*
X147902579Y-164607170D02*
X147898618Y-164564485D01*
X147898618Y-164564485D02*
X147895587Y-164465130D01*
X147895587Y-164465130D02*
X147893557Y-164317724D01*
X147893557Y-164317724D02*
X147892596Y-164130887D01*
X147892596Y-164130887D02*
X147892773Y-163913238D01*
X147892773Y-163913238D02*
X147894159Y-163673398D01*
X147894159Y-163673398D02*
X147894642Y-163617489D01*
X147894642Y-163617489D02*
X147903317Y-162671099D01*
X147903317Y-162671099D02*
X148131852Y-162671099D01*
X148131852Y-162671099D02*
X148131852Y-164629968D01*
X148131852Y-164629968D02*
X148131852Y-164629968D01*
G36*
X148131852Y-164629968D02*
G01*
X148025522Y-164640216D01*
X147939522Y-164635155D01*
X147902579Y-164607170D01*
X147898618Y-164564485D01*
X147895587Y-164465130D01*
X147893557Y-164317724D01*
X147892596Y-164130887D01*
X147892773Y-163913238D01*
X147894159Y-163673398D01*
X147894642Y-163617489D01*
X147903317Y-162671099D01*
X148131852Y-162671099D01*
X148131852Y-164629968D01*
G37*
X148131852Y-164629968D02*
X148025522Y-164640216D01*
X147939522Y-164635155D01*
X147902579Y-164607170D01*
X147898618Y-164564485D01*
X147895587Y-164465130D01*
X147893557Y-164317724D01*
X147892596Y-164130887D01*
X147892773Y-163913238D01*
X147894159Y-163673398D01*
X147894642Y-163617489D01*
X147903317Y-162671099D01*
X148131852Y-162671099D01*
X148131852Y-164629968D01*
X145844792Y-162663531D02*
X146057901Y-162687634D01*
X146057901Y-162687634D02*
X146234495Y-162736457D01*
X146234495Y-162736457D02*
X146387427Y-162812457D01*
X146387427Y-162812457D02*
X146394580Y-162816950D01*
X146394580Y-162816950D02*
X146546193Y-162950535D01*
X146546193Y-162950535D02*
X146660045Y-163130150D01*
X146660045Y-163130150D02*
X146732980Y-163346453D01*
X146732980Y-163346453D02*
X146761840Y-163590101D01*
X146761840Y-163590101D02*
X146743731Y-163850102D01*
X146743731Y-163850102D02*
X146681412Y-164098167D01*
X146681412Y-164098167D02*
X146579948Y-164296471D01*
X146579948Y-164296471D02*
X146436000Y-164449859D01*
X146436000Y-164449859D02*
X146254602Y-164559414D01*
X146254602Y-164559414D02*
X146163426Y-164588215D01*
X146163426Y-164588215D02*
X146035359Y-164612240D01*
X146035359Y-164612240D02*
X145884217Y-164630801D01*
X145884217Y-164630801D02*
X145723819Y-164643212D01*
X145723819Y-164643212D02*
X145567982Y-164648785D01*
X145567982Y-164648785D02*
X145430523Y-164646834D01*
X145430523Y-164646834D02*
X145325259Y-164636671D01*
X145325259Y-164636671D02*
X145266009Y-164617610D01*
X145266009Y-164617610D02*
X145258782Y-164608931D01*
X145258782Y-164608931D02*
X145254647Y-164565780D01*
X145254647Y-164565780D02*
X145251459Y-164465980D01*
X145251459Y-164465980D02*
X145249295Y-164318171D01*
X145249295Y-164318171D02*
X145248228Y-164130992D01*
X145248228Y-164130992D02*
X145248335Y-163913086D01*
X145248335Y-163913086D02*
X145249689Y-163673092D01*
X145249689Y-163673092D02*
X145250169Y-163617489D01*
X145250169Y-163617489D02*
X145256898Y-162883310D01*
X145256898Y-162883310D02*
X145503703Y-162883310D01*
X145503703Y-162883310D02*
X145503703Y-164417758D01*
X145503703Y-164417758D02*
X145757967Y-164417758D01*
X145757967Y-164417758D02*
X145915175Y-164412346D01*
X145915175Y-164412346D02*
X146032635Y-164393063D01*
X146032635Y-164393063D02*
X146135227Y-164355341D01*
X146135227Y-164355341D02*
X146157903Y-164344300D01*
X146157903Y-164344300D02*
X146295793Y-164246591D01*
X146295793Y-164246591D02*
X146392863Y-164109937D01*
X146392863Y-164109937D02*
X146452488Y-163927864D01*
X146452488Y-163927864D02*
X146476152Y-163734335D01*
X146476152Y-163734335D02*
X146474971Y-163502917D01*
X146474971Y-163502917D02*
X146439735Y-163316878D01*
X146439735Y-163316878D02*
X146367335Y-163164100D01*
X146367335Y-163164100D02*
X146310872Y-163090229D01*
X146310872Y-163090229D02*
X146204191Y-162989823D01*
X146204191Y-162989823D02*
X146084972Y-162926035D01*
X146084972Y-162926035D02*
X145936269Y-162892618D01*
X145936269Y-162892618D02*
X145749610Y-162883310D01*
X145749610Y-162883310D02*
X145503703Y-162883310D01*
X145503703Y-162883310D02*
X145256898Y-162883310D01*
X145256898Y-162883310D02*
X145258844Y-162671099D01*
X145258844Y-162671099D02*
X145582316Y-162661693D01*
X145582316Y-162661693D02*
X145844792Y-162663531D01*
X145844792Y-162663531D02*
X145844792Y-162663531D01*
G36*
X145844792Y-162663531D02*
G01*
X146057901Y-162687634D01*
X146234495Y-162736457D01*
X146387427Y-162812457D01*
X146394580Y-162816950D01*
X146546193Y-162950535D01*
X146660045Y-163130150D01*
X146732980Y-163346453D01*
X146761840Y-163590101D01*
X146743731Y-163850102D01*
X146681412Y-164098167D01*
X146579948Y-164296471D01*
X146436000Y-164449859D01*
X146254602Y-164559414D01*
X146163426Y-164588215D01*
X146035359Y-164612240D01*
X145884217Y-164630801D01*
X145723819Y-164643212D01*
X145567982Y-164648785D01*
X145430523Y-164646834D01*
X145325259Y-164636671D01*
X145266009Y-164617610D01*
X145258782Y-164608931D01*
X145254647Y-164565780D01*
X145251459Y-164465980D01*
X145250753Y-164417758D01*
X145503703Y-164417758D01*
X145757967Y-164417758D01*
X145915175Y-164412346D01*
X146032635Y-164393063D01*
X146135227Y-164355341D01*
X146157903Y-164344300D01*
X146295793Y-164246591D01*
X146392863Y-164109937D01*
X146452488Y-163927864D01*
X146476152Y-163734335D01*
X146474971Y-163502917D01*
X146439735Y-163316878D01*
X146367335Y-163164100D01*
X146310872Y-163090229D01*
X146204191Y-162989823D01*
X146084972Y-162926035D01*
X145936269Y-162892618D01*
X145749610Y-162883310D01*
X145503703Y-162883310D01*
X145503703Y-164417758D01*
X145250753Y-164417758D01*
X145249295Y-164318171D01*
X145248228Y-164130992D01*
X145248335Y-163913086D01*
X145249689Y-163673092D01*
X145250169Y-163617489D01*
X145256898Y-162883310D01*
X145258844Y-162671099D01*
X145582316Y-162661693D01*
X145844792Y-162663531D01*
G37*
X145844792Y-162663531D02*
X146057901Y-162687634D01*
X146234495Y-162736457D01*
X146387427Y-162812457D01*
X146394580Y-162816950D01*
X146546193Y-162950535D01*
X146660045Y-163130150D01*
X146732980Y-163346453D01*
X146761840Y-163590101D01*
X146743731Y-163850102D01*
X146681412Y-164098167D01*
X146579948Y-164296471D01*
X146436000Y-164449859D01*
X146254602Y-164559414D01*
X146163426Y-164588215D01*
X146035359Y-164612240D01*
X145884217Y-164630801D01*
X145723819Y-164643212D01*
X145567982Y-164648785D01*
X145430523Y-164646834D01*
X145325259Y-164636671D01*
X145266009Y-164617610D01*
X145258782Y-164608931D01*
X145254647Y-164565780D01*
X145251459Y-164465980D01*
X145250753Y-164417758D01*
X145503703Y-164417758D01*
X145757967Y-164417758D01*
X145915175Y-164412346D01*
X146032635Y-164393063D01*
X146135227Y-164355341D01*
X146157903Y-164344300D01*
X146295793Y-164246591D01*
X146392863Y-164109937D01*
X146452488Y-163927864D01*
X146476152Y-163734335D01*
X146474971Y-163502917D01*
X146439735Y-163316878D01*
X146367335Y-163164100D01*
X146310872Y-163090229D01*
X146204191Y-162989823D01*
X146084972Y-162926035D01*
X145936269Y-162892618D01*
X145749610Y-162883310D01*
X145503703Y-162883310D01*
X145503703Y-164417758D01*
X145250753Y-164417758D01*
X145249295Y-164318171D01*
X145248228Y-164130992D01*
X145248335Y-163913086D01*
X145249689Y-163673092D01*
X145250169Y-163617489D01*
X145256898Y-162883310D01*
X145258844Y-162671099D01*
X145582316Y-162661693D01*
X145844792Y-162663531D01*
X152408386Y-162635959D02*
X152621244Y-162690119D01*
X152621244Y-162690119D02*
X152679962Y-162716878D01*
X152679962Y-162716878D02*
X152784487Y-162784344D01*
X152784487Y-162784344D02*
X152836756Y-162860616D01*
X152836756Y-162860616D02*
X152849461Y-162949349D01*
X152849461Y-162949349D02*
X152834489Y-163012693D01*
X152834489Y-163012693D02*
X152786729Y-163026512D01*
X152786729Y-163026512D02*
X152701921Y-162991031D01*
X152701921Y-162991031D02*
X152651765Y-162959858D01*
X152651765Y-162959858D02*
X152513590Y-162891158D01*
X152513590Y-162891158D02*
X152352941Y-162860803D01*
X152352941Y-162860803D02*
X152332306Y-162859344D01*
X152332306Y-162859344D02*
X152143062Y-162872186D01*
X152143062Y-162872186D02*
X151989583Y-162938547D01*
X151989583Y-162938547D02*
X151866387Y-163061565D01*
X151866387Y-163061565D02*
X151806649Y-163160111D01*
X151806649Y-163160111D02*
X151768065Y-163242415D01*
X151768065Y-163242415D02*
X151743490Y-163320306D01*
X151743490Y-163320306D02*
X151729877Y-163412270D01*
X151729877Y-163412270D02*
X151724181Y-163536793D01*
X151724181Y-163536793D02*
X151723274Y-163666152D01*
X151723274Y-163666152D02*
X151725317Y-163830258D01*
X151725317Y-163830258D02*
X151733073Y-163946696D01*
X151733073Y-163946696D02*
X151749257Y-164033021D01*
X151749257Y-164033021D02*
X151776585Y-164106793D01*
X151776585Y-164106793D02*
X151798048Y-164149694D01*
X151798048Y-164149694D02*
X151908533Y-164293309D01*
X151908533Y-164293309D02*
X152054800Y-164390362D01*
X152054800Y-164390362D02*
X152224605Y-164438527D01*
X152224605Y-164438527D02*
X152405703Y-164435479D01*
X152405703Y-164435479D02*
X152585849Y-164378891D01*
X152585849Y-164378891D02*
X152687818Y-164318677D01*
X152687818Y-164318677D02*
X152759436Y-164274662D01*
X152759436Y-164274662D02*
X152811380Y-164254634D01*
X152811380Y-164254634D02*
X152813691Y-164254519D01*
X152813691Y-164254519D02*
X152844489Y-164280286D01*
X152844489Y-164280286D02*
X152849916Y-164343086D01*
X152849916Y-164343086D02*
X152833021Y-164421166D01*
X152833021Y-164421166D02*
X152796856Y-164492776D01*
X152796856Y-164492776D02*
X152777122Y-164515256D01*
X152777122Y-164515256D02*
X152656447Y-164591254D01*
X152656447Y-164591254D02*
X152493250Y-164643959D01*
X152493250Y-164643959D02*
X152307205Y-164669959D01*
X152307205Y-164669959D02*
X152117982Y-164665847D01*
X152117982Y-164665847D02*
X152012312Y-164647796D01*
X152012312Y-164647796D02*
X151824801Y-164571180D01*
X151824801Y-164571180D02*
X151668871Y-164441890D01*
X151668871Y-164441890D02*
X151547844Y-164266117D01*
X151547844Y-164266117D02*
X151465039Y-164050050D01*
X151465039Y-164050050D02*
X151423778Y-163799878D01*
X151423778Y-163799878D02*
X151424759Y-163552590D01*
X151424759Y-163552590D02*
X151466364Y-163300088D01*
X151466364Y-163300088D02*
X151547477Y-163078068D01*
X151547477Y-163078068D02*
X151663241Y-162897078D01*
X151663241Y-162897078D02*
X151776084Y-162789979D01*
X151776084Y-162789979D02*
X151967945Y-162687333D01*
X151967945Y-162687333D02*
X152184666Y-162635512D01*
X152184666Y-162635512D02*
X152408386Y-162635959D01*
X152408386Y-162635959D02*
X152408386Y-162635959D01*
G36*
X152408386Y-162635959D02*
G01*
X152621244Y-162690119D01*
X152679962Y-162716878D01*
X152784487Y-162784344D01*
X152836756Y-162860616D01*
X152849461Y-162949349D01*
X152834489Y-163012693D01*
X152786729Y-163026512D01*
X152701921Y-162991031D01*
X152651765Y-162959858D01*
X152513590Y-162891158D01*
X152352941Y-162860803D01*
X152332306Y-162859344D01*
X152143062Y-162872186D01*
X151989583Y-162938547D01*
X151866387Y-163061565D01*
X151806649Y-163160111D01*
X151768065Y-163242415D01*
X151743490Y-163320306D01*
X151729877Y-163412270D01*
X151724181Y-163536793D01*
X151723274Y-163666152D01*
X151725317Y-163830258D01*
X151733073Y-163946696D01*
X151749257Y-164033021D01*
X151776585Y-164106793D01*
X151798048Y-164149694D01*
X151908533Y-164293309D01*
X152054800Y-164390362D01*
X152224605Y-164438527D01*
X152405703Y-164435479D01*
X152585849Y-164378891D01*
X152687818Y-164318677D01*
X152759436Y-164274662D01*
X152811380Y-164254634D01*
X152813691Y-164254519D01*
X152844489Y-164280286D01*
X152849916Y-164343086D01*
X152833021Y-164421166D01*
X152796856Y-164492776D01*
X152777122Y-164515256D01*
X152656447Y-164591254D01*
X152493250Y-164643959D01*
X152307205Y-164669959D01*
X152117982Y-164665847D01*
X152012312Y-164647796D01*
X151824801Y-164571180D01*
X151668871Y-164441890D01*
X151547844Y-164266117D01*
X151465039Y-164050050D01*
X151423778Y-163799878D01*
X151424759Y-163552590D01*
X151466364Y-163300088D01*
X151547477Y-163078068D01*
X151663241Y-162897078D01*
X151776084Y-162789979D01*
X151967945Y-162687333D01*
X152184666Y-162635512D01*
X152408386Y-162635959D01*
G37*
X152408386Y-162635959D02*
X152621244Y-162690119D01*
X152679962Y-162716878D01*
X152784487Y-162784344D01*
X152836756Y-162860616D01*
X152849461Y-162949349D01*
X152834489Y-163012693D01*
X152786729Y-163026512D01*
X152701921Y-162991031D01*
X152651765Y-162959858D01*
X152513590Y-162891158D01*
X152352941Y-162860803D01*
X152332306Y-162859344D01*
X152143062Y-162872186D01*
X151989583Y-162938547D01*
X151866387Y-163061565D01*
X151806649Y-163160111D01*
X151768065Y-163242415D01*
X151743490Y-163320306D01*
X151729877Y-163412270D01*
X151724181Y-163536793D01*
X151723274Y-163666152D01*
X151725317Y-163830258D01*
X151733073Y-163946696D01*
X151749257Y-164033021D01*
X151776585Y-164106793D01*
X151798048Y-164149694D01*
X151908533Y-164293309D01*
X152054800Y-164390362D01*
X152224605Y-164438527D01*
X152405703Y-164435479D01*
X152585849Y-164378891D01*
X152687818Y-164318677D01*
X152759436Y-164274662D01*
X152811380Y-164254634D01*
X152813691Y-164254519D01*
X152844489Y-164280286D01*
X152849916Y-164343086D01*
X152833021Y-164421166D01*
X152796856Y-164492776D01*
X152777122Y-164515256D01*
X152656447Y-164591254D01*
X152493250Y-164643959D01*
X152307205Y-164669959D01*
X152117982Y-164665847D01*
X152012312Y-164647796D01*
X151824801Y-164571180D01*
X151668871Y-164441890D01*
X151547844Y-164266117D01*
X151465039Y-164050050D01*
X151423778Y-163799878D01*
X151424759Y-163552590D01*
X151466364Y-163300088D01*
X151547477Y-163078068D01*
X151663241Y-162897078D01*
X151776084Y-162789979D01*
X151967945Y-162687333D01*
X152184666Y-162635512D01*
X152408386Y-162635959D01*
X150058620Y-162650150D02*
X150181691Y-162684296D01*
X150181691Y-162684296D02*
X150274180Y-162728554D01*
X150274180Y-162728554D02*
X150316406Y-162773391D01*
X150316406Y-162773391D02*
X150334272Y-162857763D01*
X150334272Y-162857763D02*
X150327489Y-162931595D01*
X150327489Y-162931595D02*
X150307760Y-162961945D01*
X150307760Y-162961945D02*
X150264101Y-162958916D01*
X150264101Y-162958916D02*
X150187416Y-162930900D01*
X150187416Y-162930900D02*
X150153942Y-162914901D01*
X150153942Y-162914901D02*
X149996013Y-162858251D01*
X149996013Y-162858251D02*
X149846929Y-162847564D01*
X149846929Y-162847564D02*
X149717597Y-162878974D01*
X149717597Y-162878974D02*
X149618923Y-162948617D01*
X149618923Y-162948617D02*
X149561814Y-163052629D01*
X149561814Y-163052629D02*
X149552032Y-163128169D01*
X149552032Y-163128169D02*
X149575421Y-163240997D01*
X149575421Y-163240997D02*
X149649293Y-163340158D01*
X149649293Y-163340158D02*
X149779204Y-163431459D01*
X149779204Y-163431459D02*
X149898620Y-163490354D01*
X149898620Y-163490354D02*
X150125834Y-163606298D01*
X150125834Y-163606298D02*
X150289152Y-163724770D01*
X150289152Y-163724770D02*
X150372520Y-163819849D01*
X150372520Y-163819849D02*
X150414719Y-163927832D01*
X150414719Y-163927832D02*
X150432425Y-164068767D01*
X150432425Y-164068767D02*
X150424946Y-164214800D01*
X150424946Y-164214800D02*
X150391589Y-164338078D01*
X150391589Y-164338078D02*
X150385724Y-164350194D01*
X150385724Y-164350194D02*
X150276350Y-164493769D01*
X150276350Y-164493769D02*
X150122757Y-164598390D01*
X150122757Y-164598390D02*
X149935744Y-164660265D01*
X149935744Y-164660265D02*
X149726111Y-164675603D01*
X149726111Y-164675603D02*
X149535708Y-164648620D01*
X149535708Y-164648620D02*
X149419119Y-164610095D01*
X149419119Y-164610095D02*
X149316971Y-164558593D01*
X149316971Y-164558593D02*
X149253173Y-164506351D01*
X149253173Y-164506351D02*
X149250539Y-164502652D01*
X149250539Y-164502652D02*
X149229230Y-164437173D01*
X149229230Y-164437173D02*
X149229852Y-164361057D01*
X149229852Y-164361057D02*
X149251456Y-164308359D01*
X149251456Y-164308359D02*
X149256050Y-164304820D01*
X149256050Y-164304820D02*
X149300715Y-164307535D01*
X149300715Y-164307535D02*
X149379113Y-164335935D01*
X149379113Y-164335935D02*
X149422808Y-164356995D01*
X149422808Y-164356995D02*
X149596979Y-164424087D01*
X149596979Y-164424087D02*
X149764628Y-164446056D01*
X149764628Y-164446056D02*
X149915771Y-164426186D01*
X149915771Y-164426186D02*
X150040425Y-164367761D01*
X150040425Y-164367761D02*
X150128607Y-164274064D01*
X150128607Y-164274064D02*
X150170333Y-164148378D01*
X150170333Y-164148378D02*
X150172340Y-164110470D01*
X150172340Y-164110470D02*
X150150853Y-164021260D01*
X150150853Y-164021260D02*
X150082869Y-163932090D01*
X150082869Y-163932090D02*
X149963105Y-163838044D01*
X149963105Y-163838044D02*
X149786278Y-163734206D01*
X149786278Y-163734206D02*
X149744317Y-163712201D01*
X149744317Y-163712201D02*
X149560379Y-163608427D01*
X149560379Y-163608427D02*
X149431276Y-163511457D01*
X149431276Y-163511457D02*
X149348801Y-163411095D01*
X149348801Y-163411095D02*
X149304745Y-163297144D01*
X149304745Y-163297144D02*
X149290899Y-163159409D01*
X149290899Y-163159409D02*
X149290849Y-163148930D01*
X149290849Y-163148930D02*
X149316523Y-162961799D01*
X149316523Y-162961799D02*
X149393178Y-162815336D01*
X149393178Y-162815336D02*
X149520261Y-162710107D01*
X149520261Y-162710107D02*
X149697220Y-162646681D01*
X149697220Y-162646681D02*
X149793478Y-162631877D01*
X149793478Y-162631877D02*
X149923154Y-162631036D01*
X149923154Y-162631036D02*
X150058620Y-162650150D01*
X150058620Y-162650150D02*
X150058620Y-162650150D01*
G36*
X150058620Y-162650150D02*
G01*
X150181691Y-162684296D01*
X150274180Y-162728554D01*
X150316406Y-162773391D01*
X150334272Y-162857763D01*
X150327489Y-162931595D01*
X150307760Y-162961945D01*
X150264101Y-162958916D01*
X150187416Y-162930900D01*
X150153942Y-162914901D01*
X149996013Y-162858251D01*
X149846929Y-162847564D01*
X149717597Y-162878974D01*
X149618923Y-162948617D01*
X149561814Y-163052629D01*
X149552032Y-163128169D01*
X149575421Y-163240997D01*
X149649293Y-163340158D01*
X149779204Y-163431459D01*
X149898620Y-163490354D01*
X150125834Y-163606298D01*
X150289152Y-163724770D01*
X150372520Y-163819849D01*
X150414719Y-163927832D01*
X150432425Y-164068767D01*
X150424946Y-164214800D01*
X150391589Y-164338078D01*
X150385724Y-164350194D01*
X150276350Y-164493769D01*
X150122757Y-164598390D01*
X149935744Y-164660265D01*
X149726111Y-164675603D01*
X149535708Y-164648620D01*
X149419119Y-164610095D01*
X149316971Y-164558593D01*
X149253173Y-164506351D01*
X149250539Y-164502652D01*
X149229230Y-164437173D01*
X149229852Y-164361057D01*
X149251456Y-164308359D01*
X149256050Y-164304820D01*
X149300715Y-164307535D01*
X149379113Y-164335935D01*
X149422808Y-164356995D01*
X149596979Y-164424087D01*
X149764628Y-164446056D01*
X149915771Y-164426186D01*
X150040425Y-164367761D01*
X150128607Y-164274064D01*
X150170333Y-164148378D01*
X150172340Y-164110470D01*
X150150853Y-164021260D01*
X150082869Y-163932090D01*
X149963105Y-163838044D01*
X149786278Y-163734206D01*
X149744317Y-163712201D01*
X149560379Y-163608427D01*
X149431276Y-163511457D01*
X149348801Y-163411095D01*
X149304745Y-163297144D01*
X149290899Y-163159409D01*
X149290849Y-163148930D01*
X149316523Y-162961799D01*
X149393178Y-162815336D01*
X149520261Y-162710107D01*
X149697220Y-162646681D01*
X149793478Y-162631877D01*
X149923154Y-162631036D01*
X150058620Y-162650150D01*
G37*
X150058620Y-162650150D02*
X150181691Y-162684296D01*
X150274180Y-162728554D01*
X150316406Y-162773391D01*
X150334272Y-162857763D01*
X150327489Y-162931595D01*
X150307760Y-162961945D01*
X150264101Y-162958916D01*
X150187416Y-162930900D01*
X150153942Y-162914901D01*
X149996013Y-162858251D01*
X149846929Y-162847564D01*
X149717597Y-162878974D01*
X149618923Y-162948617D01*
X149561814Y-163052629D01*
X149552032Y-163128169D01*
X149575421Y-163240997D01*
X149649293Y-163340158D01*
X149779204Y-163431459D01*
X149898620Y-163490354D01*
X150125834Y-163606298D01*
X150289152Y-163724770D01*
X150372520Y-163819849D01*
X150414719Y-163927832D01*
X150432425Y-164068767D01*
X150424946Y-164214800D01*
X150391589Y-164338078D01*
X150385724Y-164350194D01*
X150276350Y-164493769D01*
X150122757Y-164598390D01*
X149935744Y-164660265D01*
X149726111Y-164675603D01*
X149535708Y-164648620D01*
X149419119Y-164610095D01*
X149316971Y-164558593D01*
X149253173Y-164506351D01*
X149250539Y-164502652D01*
X149229230Y-164437173D01*
X149229852Y-164361057D01*
X149251456Y-164308359D01*
X149256050Y-164304820D01*
X149300715Y-164307535D01*
X149379113Y-164335935D01*
X149422808Y-164356995D01*
X149596979Y-164424087D01*
X149764628Y-164446056D01*
X149915771Y-164426186D01*
X150040425Y-164367761D01*
X150128607Y-164274064D01*
X150170333Y-164148378D01*
X150172340Y-164110470D01*
X150150853Y-164021260D01*
X150082869Y-163932090D01*
X149963105Y-163838044D01*
X149786278Y-163734206D01*
X149744317Y-163712201D01*
X149560379Y-163608427D01*
X149431276Y-163511457D01*
X149348801Y-163411095D01*
X149304745Y-163297144D01*
X149290899Y-163159409D01*
X149290849Y-163148930D01*
X149316523Y-162961799D01*
X149393178Y-162815336D01*
X149520261Y-162710107D01*
X149697220Y-162646681D01*
X149793478Y-162631877D01*
X149923154Y-162631036D01*
X150058620Y-162650150D01*
D12*
X144027456Y-160474210D02*
G75*
G03*
X144027456Y-167154210I0J-3340000D01*
G01*
X166327456Y-167154210D02*
G75*
G03*
X166327456Y-160474210I0J3340000D01*
G01*
D10*
X223254308Y-59503020D02*
X62883004Y-59503020D01*
X223254308Y-61986290D02*
X62883004Y-61986290D01*
X223254308Y-64469560D02*
X62883004Y-64469560D01*
D11*
X354287356Y-69739610D02*
X354856739Y-69741787D01*
X354856739Y-69741787D02*
X355426122Y-69743963D01*
X355426122Y-69743963D02*
X355426122Y-70150363D01*
X355426122Y-70150363D02*
X354287356Y-70154715D01*
X354287356Y-70154715D02*
X354287356Y-70814996D01*
X354287356Y-70814996D02*
X355007023Y-70814996D01*
X355007023Y-70814996D02*
X355007023Y-71246796D01*
X355007023Y-71246796D02*
X354287356Y-71246796D01*
X354287356Y-71246796D02*
X354287356Y-71924010D01*
X354287356Y-71924010D02*
X354856739Y-71926187D01*
X354856739Y-71926187D02*
X355426122Y-71928363D01*
X355426122Y-71928363D02*
X355428385Y-72142146D01*
X355428385Y-72142146D02*
X355430647Y-72355929D01*
X355430647Y-72355929D02*
X354287356Y-72355929D01*
X354287356Y-72355929D02*
X354287356Y-72973996D01*
X354287356Y-72973996D02*
X353847089Y-72973996D01*
X353847089Y-72973996D02*
X353847089Y-72355929D01*
X353847089Y-72355929D02*
X352712556Y-72355929D01*
X352712556Y-72355929D02*
X352712556Y-71924130D01*
X352712556Y-71924130D02*
X353847089Y-71924130D01*
X353847089Y-71924130D02*
X353847089Y-71246796D01*
X353847089Y-71246796D02*
X353135889Y-71246796D01*
X353135889Y-71246796D02*
X353135889Y-70814996D01*
X353135889Y-70814996D02*
X353847089Y-70814996D01*
X353847089Y-70814996D02*
X353847089Y-70154596D01*
X353847089Y-70154596D02*
X352712556Y-70154596D01*
X352712556Y-70154596D02*
X352712556Y-69739730D01*
X352712556Y-69739730D02*
X353846870Y-69739730D01*
X353846870Y-69739730D02*
X353851322Y-69151296D01*
X353851322Y-69151296D02*
X354069339Y-69149037D01*
X354069339Y-69149037D02*
X354287356Y-69146777D01*
X354287356Y-69146777D02*
X354287356Y-69739610D01*
X354287356Y-69739610D02*
X354287356Y-69739610D01*
G36*
X354287356Y-69739610D02*
G01*
X354856739Y-69741787D01*
X355426122Y-69743963D01*
X355426122Y-70150363D01*
X354287356Y-70154715D01*
X354287356Y-70814996D01*
X355007023Y-70814996D01*
X355007023Y-71246796D01*
X354287356Y-71246796D01*
X354287356Y-71924010D01*
X354856739Y-71926187D01*
X355426122Y-71928363D01*
X355428385Y-72142146D01*
X355430647Y-72355929D01*
X354287356Y-72355929D01*
X354287356Y-72973996D01*
X353847089Y-72973996D01*
X353847089Y-72355929D01*
X352712556Y-72355929D01*
X352712556Y-71924130D01*
X353847089Y-71924130D01*
X353847089Y-71246796D01*
X353135889Y-71246796D01*
X353135889Y-70814996D01*
X353847089Y-70814996D01*
X353847089Y-70154596D01*
X352712556Y-70154596D01*
X352712556Y-69739730D01*
X353846870Y-69739730D01*
X353851322Y-69151296D01*
X354069339Y-69149037D01*
X354287356Y-69146777D01*
X354287356Y-69739610D01*
G37*
X354287356Y-69739610D02*
X354856739Y-69741787D01*
X355426122Y-69743963D01*
X355426122Y-70150363D01*
X354287356Y-70154715D01*
X354287356Y-70814996D01*
X355007023Y-70814996D01*
X355007023Y-71246796D01*
X354287356Y-71246796D01*
X354287356Y-71924010D01*
X354856739Y-71926187D01*
X355426122Y-71928363D01*
X355428385Y-72142146D01*
X355430647Y-72355929D01*
X354287356Y-72355929D01*
X354287356Y-72973996D01*
X353847089Y-72973996D01*
X353847089Y-72355929D01*
X352712556Y-72355929D01*
X352712556Y-71924130D01*
X353847089Y-71924130D01*
X353847089Y-71246796D01*
X353135889Y-71246796D01*
X353135889Y-70814996D01*
X353847089Y-70814996D01*
X353847089Y-70154596D01*
X352712556Y-70154596D01*
X352712556Y-69739730D01*
X353846870Y-69739730D01*
X353851322Y-69151296D01*
X354069339Y-69149037D01*
X354287356Y-69146777D01*
X354287356Y-69739610D01*
X58671725Y-69739610D02*
X59241108Y-69741787D01*
X59241108Y-69741787D02*
X59810491Y-69743963D01*
X59810491Y-69743963D02*
X59810491Y-70150363D01*
X59810491Y-70150363D02*
X58671725Y-70154715D01*
X58671725Y-70154715D02*
X58671725Y-70814996D01*
X58671725Y-70814996D02*
X59391392Y-70814996D01*
X59391392Y-70814996D02*
X59391392Y-71246796D01*
X59391392Y-71246796D02*
X58671725Y-71246796D01*
X58671725Y-71246796D02*
X58671725Y-71924010D01*
X58671725Y-71924010D02*
X59241108Y-71926187D01*
X59241108Y-71926187D02*
X59810491Y-71928363D01*
X59810491Y-71928363D02*
X59812754Y-72142146D01*
X59812754Y-72142146D02*
X59815016Y-72355929D01*
X59815016Y-72355929D02*
X58671725Y-72355929D01*
X58671725Y-72355929D02*
X58671725Y-72973996D01*
X58671725Y-72973996D02*
X58231458Y-72973996D01*
X58231458Y-72973996D02*
X58231458Y-72355929D01*
X58231458Y-72355929D02*
X57096925Y-72355929D01*
X57096925Y-72355929D02*
X57096925Y-71924130D01*
X57096925Y-71924130D02*
X58231458Y-71924130D01*
X58231458Y-71924130D02*
X58231458Y-71246796D01*
X58231458Y-71246796D02*
X57520258Y-71246796D01*
X57520258Y-71246796D02*
X57520258Y-70814996D01*
X57520258Y-70814996D02*
X58231458Y-70814996D01*
X58231458Y-70814996D02*
X58231458Y-70154596D01*
X58231458Y-70154596D02*
X57096925Y-70154596D01*
X57096925Y-70154596D02*
X57096925Y-69739730D01*
X57096925Y-69739730D02*
X58231239Y-69739730D01*
X58231239Y-69739730D02*
X58235691Y-69151296D01*
X58235691Y-69151296D02*
X58453708Y-69149037D01*
X58453708Y-69149037D02*
X58671725Y-69146777D01*
X58671725Y-69146777D02*
X58671725Y-69739610D01*
X58671725Y-69739610D02*
X58671725Y-69739610D01*
G36*
X58671725Y-69739610D02*
G01*
X59241108Y-69741787D01*
X59810491Y-69743963D01*
X59810491Y-70150363D01*
X58671725Y-70154715D01*
X58671725Y-70814996D01*
X59391392Y-70814996D01*
X59391392Y-71246796D01*
X58671725Y-71246796D01*
X58671725Y-71924010D01*
X59241108Y-71926187D01*
X59810491Y-71928363D01*
X59812754Y-72142146D01*
X59815016Y-72355929D01*
X58671725Y-72355929D01*
X58671725Y-72973996D01*
X58231458Y-72973996D01*
X58231458Y-72355929D01*
X57096925Y-72355929D01*
X57096925Y-71924130D01*
X58231458Y-71924130D01*
X58231458Y-71246796D01*
X57520258Y-71246796D01*
X57520258Y-70814996D01*
X58231458Y-70814996D01*
X58231458Y-70154596D01*
X57096925Y-70154596D01*
X57096925Y-69739730D01*
X58231239Y-69739730D01*
X58235691Y-69151296D01*
X58453708Y-69149037D01*
X58671725Y-69146777D01*
X58671725Y-69739610D01*
G37*
X58671725Y-69739610D02*
X59241108Y-69741787D01*
X59810491Y-69743963D01*
X59810491Y-70150363D01*
X58671725Y-70154715D01*
X58671725Y-70814996D01*
X59391392Y-70814996D01*
X59391392Y-71246796D01*
X58671725Y-71246796D01*
X58671725Y-71924010D01*
X59241108Y-71926187D01*
X59810491Y-71928363D01*
X59812754Y-72142146D01*
X59815016Y-72355929D01*
X58671725Y-72355929D01*
X58671725Y-72973996D01*
X58231458Y-72973996D01*
X58231458Y-72355929D01*
X57096925Y-72355929D01*
X57096925Y-71924130D01*
X58231458Y-71924130D01*
X58231458Y-71246796D01*
X57520258Y-71246796D01*
X57520258Y-70814996D01*
X58231458Y-70814996D01*
X58231458Y-70154596D01*
X57096925Y-70154596D01*
X57096925Y-69739730D01*
X58231239Y-69739730D01*
X58235691Y-69151296D01*
X58453708Y-69149037D01*
X58671725Y-69146777D01*
X58671725Y-69739610D01*
D12*
X144037456Y-167154210D02*
X166337456Y-167154210D01*
X144057456Y-160474210D02*
X166337456Y-160474210D01*
D11*
X164749072Y-162655368D02*
X164884771Y-162657925D01*
X164884771Y-162657925D02*
X164975079Y-162663614D01*
X164975079Y-162663614D02*
X165029945Y-162673607D01*
X165029945Y-162673607D02*
X165059319Y-162689070D01*
X165059319Y-162689070D02*
X165073151Y-162711174D01*
X165073151Y-162711174D02*
X165074608Y-162715472D01*
X165074608Y-162715472D02*
X165081021Y-162794519D01*
X165081021Y-162794519D02*
X165073315Y-162829739D01*
X165073315Y-162829739D02*
X165056010Y-162852466D01*
X165056010Y-162852466D02*
X165017542Y-162867835D01*
X165017542Y-162867835D02*
X164947162Y-162877197D01*
X164947162Y-162877197D02*
X164834122Y-162881902D01*
X164834122Y-162881902D02*
X164667674Y-162883300D01*
X164667674Y-162883300D02*
X164646928Y-162883310D01*
X164646928Y-162883310D02*
X164241098Y-162883310D01*
X164241098Y-162883310D02*
X164250485Y-163185303D01*
X164250485Y-163185303D02*
X164259872Y-163487295D01*
X164259872Y-163487295D02*
X164610836Y-163496561D01*
X164610836Y-163496561D02*
X164961800Y-163505828D01*
X164961800Y-163505828D02*
X164961800Y-163699506D01*
X164961800Y-163699506D02*
X164243548Y-163699506D01*
X164243548Y-163699506D02*
X164243548Y-164415807D01*
X164243548Y-164415807D02*
X165076068Y-164434081D01*
X165076068Y-164434081D02*
X165076068Y-164629968D01*
X165076068Y-164629968D02*
X164569186Y-164638922D01*
X164569186Y-164638922D02*
X164353731Y-164640947D01*
X164353731Y-164640947D02*
X164197101Y-164638059D01*
X164197101Y-164638059D02*
X164092985Y-164629900D01*
X164092985Y-164629900D02*
X164035072Y-164616111D01*
X164035072Y-164616111D02*
X164022335Y-164607907D01*
X164022335Y-164607907D02*
X164009968Y-164563582D01*
X164009968Y-164563582D02*
X163999695Y-164464305D01*
X163999695Y-164464305D02*
X163991522Y-164320384D01*
X163991522Y-164320384D02*
X163985452Y-164142124D01*
X163985452Y-164142124D02*
X163981490Y-163939834D01*
X163981490Y-163939834D02*
X163979639Y-163723818D01*
X163979639Y-163723818D02*
X163979905Y-163504386D01*
X163979905Y-163504386D02*
X163982291Y-163291842D01*
X163982291Y-163291842D02*
X163986802Y-163096495D01*
X163986802Y-163096495D02*
X163993442Y-162928651D01*
X163993442Y-162928651D02*
X164002214Y-162798616D01*
X164002214Y-162798616D02*
X164013125Y-162716699D01*
X164013125Y-162716699D02*
X164021543Y-162693953D01*
X164021543Y-162693953D02*
X164067798Y-162676565D01*
X164067798Y-162676565D02*
X164168692Y-162664409D01*
X164168692Y-162664409D02*
X164327682Y-162657231D01*
X164327682Y-162657231D02*
X164548224Y-162654779D01*
X164548224Y-162654779D02*
X164558032Y-162654776D01*
X164558032Y-162654776D02*
X164749072Y-162655368D01*
X164749072Y-162655368D02*
X164749072Y-162655368D01*
G36*
X164749072Y-162655368D02*
G01*
X164884771Y-162657925D01*
X164975079Y-162663614D01*
X165029945Y-162673607D01*
X165059319Y-162689070D01*
X165073151Y-162711174D01*
X165074608Y-162715472D01*
X165081021Y-162794519D01*
X165073315Y-162829739D01*
X165056010Y-162852466D01*
X165017542Y-162867835D01*
X164947162Y-162877197D01*
X164834122Y-162881902D01*
X164667674Y-162883300D01*
X164646928Y-162883310D01*
X164241098Y-162883310D01*
X164250485Y-163185303D01*
X164259872Y-163487295D01*
X164610836Y-163496561D01*
X164961800Y-163505828D01*
X164961800Y-163699506D01*
X164243548Y-163699506D01*
X164243548Y-164415807D01*
X165076068Y-164434081D01*
X165076068Y-164629968D01*
X164569186Y-164638922D01*
X164353731Y-164640947D01*
X164197101Y-164638059D01*
X164092985Y-164629900D01*
X164035072Y-164616111D01*
X164022335Y-164607907D01*
X164009968Y-164563582D01*
X163999695Y-164464305D01*
X163991522Y-164320384D01*
X163985452Y-164142124D01*
X163981490Y-163939834D01*
X163979639Y-163723818D01*
X163979905Y-163504386D01*
X163982291Y-163291842D01*
X163986802Y-163096495D01*
X163993442Y-162928651D01*
X164002214Y-162798616D01*
X164013125Y-162716699D01*
X164021543Y-162693953D01*
X164067798Y-162676565D01*
X164168692Y-162664409D01*
X164327682Y-162657231D01*
X164548224Y-162654779D01*
X164558032Y-162654776D01*
X164749072Y-162655368D01*
G37*
X164749072Y-162655368D02*
X164884771Y-162657925D01*
X164975079Y-162663614D01*
X165029945Y-162673607D01*
X165059319Y-162689070D01*
X165073151Y-162711174D01*
X165074608Y-162715472D01*
X165081021Y-162794519D01*
X165073315Y-162829739D01*
X165056010Y-162852466D01*
X165017542Y-162867835D01*
X164947162Y-162877197D01*
X164834122Y-162881902D01*
X164667674Y-162883300D01*
X164646928Y-162883310D01*
X164241098Y-162883310D01*
X164250485Y-163185303D01*
X164259872Y-163487295D01*
X164610836Y-163496561D01*
X164961800Y-163505828D01*
X164961800Y-163699506D01*
X164243548Y-163699506D01*
X164243548Y-164415807D01*
X165076068Y-164434081D01*
X165076068Y-164629968D01*
X164569186Y-164638922D01*
X164353731Y-164640947D01*
X164197101Y-164638059D01*
X164092985Y-164629900D01*
X164035072Y-164616111D01*
X164022335Y-164607907D01*
X164009968Y-164563582D01*
X163999695Y-164464305D01*
X163991522Y-164320384D01*
X163985452Y-164142124D01*
X163981490Y-163939834D01*
X163979639Y-163723818D01*
X163979905Y-163504386D01*
X163982291Y-163291842D01*
X163986802Y-163096495D01*
X163993442Y-162928651D01*
X164002214Y-162798616D01*
X164013125Y-162716699D01*
X164021543Y-162693953D01*
X164067798Y-162676565D01*
X164168692Y-162664409D01*
X164327682Y-162657231D01*
X164548224Y-162654779D01*
X164558032Y-162654776D01*
X164749072Y-162655368D01*
X162734069Y-163640268D02*
X162725425Y-164629968D01*
X162725425Y-164629968D02*
X162611158Y-164639583D01*
X162611158Y-164639583D02*
X162517601Y-164634566D01*
X162517601Y-164634566D02*
X162445477Y-164609338D01*
X162445477Y-164609338D02*
X162442159Y-164606936D01*
X162442159Y-164606936D02*
X162412497Y-164568132D01*
X162412497Y-164568132D02*
X162356197Y-164479783D01*
X162356197Y-164479783D02*
X162277860Y-164349678D01*
X162277860Y-164349678D02*
X162182092Y-164185608D01*
X162182092Y-164185608D02*
X162073495Y-163995362D01*
X162073495Y-163995362D02*
X161956674Y-163786732D01*
X161956674Y-163786732D02*
X161944856Y-163765409D01*
X161944856Y-163765409D02*
X161502285Y-162966146D01*
X161502285Y-162966146D02*
X161493546Y-163798057D01*
X161493546Y-163798057D02*
X161484808Y-164629968D01*
X161484808Y-164629968D02*
X161378221Y-164640235D01*
X161378221Y-164640235D02*
X161271634Y-164650501D01*
X161271634Y-164650501D02*
X161280277Y-163660800D01*
X161280277Y-163660800D02*
X161288921Y-162671099D01*
X161288921Y-162671099D02*
X161440339Y-162661298D01*
X161440339Y-162661298D02*
X161541129Y-162660739D01*
X161541129Y-162660739D02*
X161603506Y-162681279D01*
X161603506Y-162681279D02*
X161652550Y-162730572D01*
X161652550Y-162730572D02*
X161684699Y-162780561D01*
X161684699Y-162780561D02*
X161742835Y-162879148D01*
X161742835Y-162879148D02*
X161821926Y-163017470D01*
X161821926Y-163017470D02*
X161916944Y-163186666D01*
X161916944Y-163186666D02*
X162022859Y-163377872D01*
X162022859Y-163377872D02*
X162105117Y-163527999D01*
X162105117Y-163527999D02*
X162496890Y-164246351D01*
X162496890Y-164246351D02*
X162529538Y-162671099D01*
X162529538Y-162671099D02*
X162636125Y-162660833D01*
X162636125Y-162660833D02*
X162742713Y-162650567D01*
X162742713Y-162650567D02*
X162734069Y-163640268D01*
X162734069Y-163640268D02*
X162734069Y-163640268D01*
G36*
X162734069Y-163640268D02*
G01*
X162725425Y-164629968D01*
X162611158Y-164639583D01*
X162517601Y-164634566D01*
X162445477Y-164609338D01*
X162442159Y-164606936D01*
X162412497Y-164568132D01*
X162356197Y-164479783D01*
X162277860Y-164349678D01*
X162182092Y-164185608D01*
X162073495Y-163995362D01*
X161956674Y-163786732D01*
X161944856Y-163765409D01*
X161502285Y-162966146D01*
X161493546Y-163798057D01*
X161484808Y-164629968D01*
X161378221Y-164640235D01*
X161271634Y-164650501D01*
X161280277Y-163660800D01*
X161288921Y-162671099D01*
X161440339Y-162661298D01*
X161541129Y-162660739D01*
X161603506Y-162681279D01*
X161652550Y-162730572D01*
X161684699Y-162780561D01*
X161742835Y-162879148D01*
X161821926Y-163017470D01*
X161916944Y-163186666D01*
X162022859Y-163377872D01*
X162105117Y-163527999D01*
X162496890Y-164246351D01*
X162529538Y-162671099D01*
X162636125Y-162660833D01*
X162742713Y-162650567D01*
X162734069Y-163640268D01*
G37*
X162734069Y-163640268D02*
X162725425Y-164629968D01*
X162611158Y-164639583D01*
X162517601Y-164634566D01*
X162445477Y-164609338D01*
X162442159Y-164606936D01*
X162412497Y-164568132D01*
X162356197Y-164479783D01*
X162277860Y-164349678D01*
X162182092Y-164185608D01*
X162073495Y-163995362D01*
X161956674Y-163786732D01*
X161944856Y-163765409D01*
X161502285Y-162966146D01*
X161493546Y-163798057D01*
X161484808Y-164629968D01*
X161378221Y-164640235D01*
X161271634Y-164650501D01*
X161280277Y-163660800D01*
X161288921Y-162671099D01*
X161440339Y-162661298D01*
X161541129Y-162660739D01*
X161603506Y-162681279D01*
X161652550Y-162730572D01*
X161684699Y-162780561D01*
X161742835Y-162879148D01*
X161821926Y-163017470D01*
X161916944Y-163186666D01*
X162022859Y-163377872D01*
X162105117Y-163527999D01*
X162496890Y-164246351D01*
X162529538Y-162671099D01*
X162636125Y-162660833D01*
X162742713Y-162650567D01*
X162734069Y-163640268D01*
X159893227Y-162660967D02*
X160015656Y-162671099D01*
X160015656Y-162671099D02*
X160015656Y-164629968D01*
X160015656Y-164629968D02*
X159770798Y-164650234D01*
X159770798Y-164650234D02*
X159770798Y-162650834D01*
X159770798Y-162650834D02*
X159893227Y-162660967D01*
X159893227Y-162660967D02*
X159893227Y-162660967D01*
G36*
X159893227Y-162660967D02*
G01*
X160015656Y-162671099D01*
X160015656Y-164629968D01*
X159770798Y-164650234D01*
X159770798Y-162650834D01*
X159893227Y-162660967D01*
G37*
X159893227Y-162660967D02*
X160015656Y-162671099D01*
X160015656Y-164629968D01*
X159770798Y-164650234D01*
X159770798Y-162650834D01*
X159893227Y-162660967D01*
X157869063Y-162660967D02*
X157991492Y-162671099D01*
X157991492Y-162671099D02*
X158008878Y-164415629D01*
X158008878Y-164415629D02*
X158742392Y-164434081D01*
X158742392Y-164434081D02*
X158742392Y-164629968D01*
X158742392Y-164629968D02*
X158267114Y-164638967D01*
X158267114Y-164638967D02*
X158097108Y-164640682D01*
X158097108Y-164640682D02*
X157950808Y-164639315D01*
X157950808Y-164639315D02*
X157840400Y-164635199D01*
X157840400Y-164635199D02*
X157778070Y-164628668D01*
X157778070Y-164628668D02*
X157769235Y-164625364D01*
X157769235Y-164625364D02*
X157763550Y-164588205D01*
X157763550Y-164588205D02*
X157758388Y-164493994D01*
X157758388Y-164493994D02*
X157753938Y-164350974D01*
X157753938Y-164350974D02*
X157750385Y-164167387D01*
X157750385Y-164167387D02*
X157747916Y-163951478D01*
X157747916Y-163951478D02*
X157746718Y-163711488D01*
X157746718Y-163711488D02*
X157746633Y-163626798D01*
X157746633Y-163626798D02*
X157746633Y-162650834D01*
X157746633Y-162650834D02*
X157869063Y-162660967D01*
X157869063Y-162660967D02*
X157869063Y-162660967D01*
G36*
X157869063Y-162660967D02*
G01*
X157991492Y-162671099D01*
X158008878Y-164415629D01*
X158742392Y-164434081D01*
X158742392Y-164629968D01*
X158267114Y-164638967D01*
X158097108Y-164640682D01*
X157950808Y-164639315D01*
X157840400Y-164635199D01*
X157778070Y-164628668D01*
X157769235Y-164625364D01*
X157763550Y-164588205D01*
X157758388Y-164493994D01*
X157753938Y-164350974D01*
X157750385Y-164167387D01*
X157747916Y-163951478D01*
X157746718Y-163711488D01*
X157746633Y-163626798D01*
X157746633Y-162650834D01*
X157869063Y-162660967D01*
G37*
X157869063Y-162660967D02*
X157991492Y-162671099D01*
X158008878Y-164415629D01*
X158742392Y-164434081D01*
X158742392Y-164629968D01*
X158267114Y-164638967D01*
X158097108Y-164640682D01*
X157950808Y-164639315D01*
X157840400Y-164635199D01*
X157778070Y-164628668D01*
X157769235Y-164625364D01*
X157763550Y-164588205D01*
X157758388Y-164493994D01*
X157753938Y-164350974D01*
X157750385Y-164167387D01*
X157747916Y-163951478D01*
X157746718Y-163711488D01*
X157746633Y-163626798D01*
X157746633Y-162650834D01*
X157869063Y-162660967D01*
X155863650Y-162660711D02*
X156033793Y-162669015D01*
X156033793Y-162669015D02*
X156154340Y-162680525D01*
X156154340Y-162680525D02*
X156240993Y-162698121D01*
X156240993Y-162698121D02*
X156309451Y-162724684D01*
X156309451Y-162724684D02*
X156356603Y-162751175D01*
X156356603Y-162751175D02*
X156483192Y-162851186D01*
X156483192Y-162851186D02*
X156561203Y-162971445D01*
X156561203Y-162971445D02*
X156597976Y-163126571D01*
X156597976Y-163126571D02*
X156603301Y-163242436D01*
X156603301Y-163242436D02*
X156579591Y-163453977D01*
X156579591Y-163453977D02*
X156508446Y-163622394D01*
X156508446Y-163622394D02*
X156388472Y-163748994D01*
X156388472Y-163748994D02*
X156218272Y-163835080D01*
X156218272Y-163835080D02*
X155996453Y-163881960D01*
X155996453Y-163881960D02*
X155912375Y-163889009D01*
X155912375Y-163889009D02*
X155657173Y-163903782D01*
X155657173Y-163903782D02*
X155657173Y-164646292D01*
X155657173Y-164646292D02*
X155548347Y-164646292D01*
X155548347Y-164646292D02*
X155467677Y-164640319D01*
X155467677Y-164640319D02*
X155419230Y-164625812D01*
X155419230Y-164625812D02*
X155417756Y-164624527D01*
X155417756Y-164624527D02*
X155412174Y-164587498D01*
X155412174Y-164587498D02*
X155407121Y-164493586D01*
X155407121Y-164493586D02*
X155402789Y-164351203D01*
X155402789Y-164351203D02*
X155399368Y-164168760D01*
X155399368Y-164168760D02*
X155397049Y-163954668D01*
X155397049Y-163954668D02*
X155396024Y-163717340D01*
X155396024Y-163717340D02*
X155395991Y-163665414D01*
X155395991Y-163665414D02*
X155396428Y-163387409D01*
X155396428Y-163387409D02*
X155397972Y-163167721D01*
X155397972Y-163167721D02*
X155400974Y-162999379D01*
X155400974Y-162999379D02*
X155405476Y-162883310D01*
X155405476Y-162883310D02*
X155657173Y-162883310D01*
X155657173Y-162883310D02*
X155657173Y-163269643D01*
X155657173Y-163269643D02*
X155658914Y-163422368D01*
X155658914Y-163422368D02*
X155663650Y-163550448D01*
X155663650Y-163550448D02*
X155670653Y-163640207D01*
X155670653Y-163640207D02*
X155678938Y-163677740D01*
X155678938Y-163677740D02*
X155730938Y-163694686D01*
X155730938Y-163694686D02*
X155824375Y-163698293D01*
X155824375Y-163698293D02*
X155936910Y-163689223D01*
X155936910Y-163689223D02*
X156046201Y-163668137D01*
X156046201Y-163668137D02*
X156051371Y-163666725D01*
X156051371Y-163666725D02*
X156190303Y-163602535D01*
X156190303Y-163602535D02*
X156281681Y-163497595D01*
X156281681Y-163497595D02*
X156329504Y-163346643D01*
X156329504Y-163346643D02*
X156335892Y-163292377D01*
X156335892Y-163292377D02*
X156341468Y-163185561D01*
X156341468Y-163185561D02*
X156329626Y-163116034D01*
X156329626Y-163116034D02*
X156290997Y-163056290D01*
X156290997Y-163056290D02*
X156235758Y-162998296D01*
X156235758Y-162998296D02*
X156171379Y-162937956D01*
X156171379Y-162937956D02*
X156115104Y-162903537D01*
X156115104Y-162903537D02*
X156045070Y-162887790D01*
X156045070Y-162887790D02*
X155939416Y-162883466D01*
X155939416Y-162883466D02*
X155888973Y-162883310D01*
X155888973Y-162883310D02*
X155657173Y-162883310D01*
X155657173Y-162883310D02*
X155405476Y-162883310D01*
X155405476Y-162883310D02*
X155405783Y-162875408D01*
X155405783Y-162875408D02*
X155412749Y-162788836D01*
X155412749Y-162788836D02*
X155422223Y-162732690D01*
X155422223Y-162732690D02*
X155434555Y-162699996D01*
X155434555Y-162699996D02*
X155445090Y-162687318D01*
X155445090Y-162687318D02*
X155493218Y-162668250D01*
X155493218Y-162668250D02*
X155585445Y-162658270D01*
X155585445Y-162658270D02*
X155729471Y-162656887D01*
X155729471Y-162656887D02*
X155863650Y-162660711D01*
X155863650Y-162660711D02*
X155863650Y-162660711D01*
G36*
X155863650Y-162660711D02*
G01*
X156033793Y-162669015D01*
X156154340Y-162680525D01*
X156240993Y-162698121D01*
X156309451Y-162724684D01*
X156356603Y-162751175D01*
X156483192Y-162851186D01*
X156561203Y-162971445D01*
X156597976Y-163126571D01*
X156603301Y-163242436D01*
X156579591Y-163453977D01*
X156508446Y-163622394D01*
X156388472Y-163748994D01*
X156218272Y-163835080D01*
X155996453Y-163881960D01*
X155912375Y-163889009D01*
X155657173Y-163903782D01*
X155657173Y-164646292D01*
X155548347Y-164646292D01*
X155467677Y-164640319D01*
X155419230Y-164625812D01*
X155417756Y-164624527D01*
X155412174Y-164587498D01*
X155407121Y-164493586D01*
X155402789Y-164351203D01*
X155399368Y-164168760D01*
X155397049Y-163954668D01*
X155396024Y-163717340D01*
X155395991Y-163665414D01*
X155396428Y-163387409D01*
X155397256Y-163269643D01*
X155657173Y-163269643D01*
X155658914Y-163422368D01*
X155663650Y-163550448D01*
X155670653Y-163640207D01*
X155678938Y-163677740D01*
X155730938Y-163694686D01*
X155824375Y-163698293D01*
X155936910Y-163689223D01*
X156046201Y-163668137D01*
X156051371Y-163666725D01*
X156190303Y-163602535D01*
X156281681Y-163497595D01*
X156329504Y-163346643D01*
X156335892Y-163292377D01*
X156341468Y-163185561D01*
X156329626Y-163116034D01*
X156290997Y-163056290D01*
X156235758Y-162998296D01*
X156171379Y-162937956D01*
X156115104Y-162903537D01*
X156045070Y-162887790D01*
X155939416Y-162883466D01*
X155888973Y-162883310D01*
X155657173Y-162883310D01*
X155657173Y-163269643D01*
X155397256Y-163269643D01*
X155397972Y-163167721D01*
X155400974Y-162999379D01*
X155405476Y-162883310D01*
X155405783Y-162875408D01*
X155412749Y-162788836D01*
X155422223Y-162732690D01*
X155434555Y-162699996D01*
X155445090Y-162687318D01*
X155493218Y-162668250D01*
X155585445Y-162658270D01*
X155729471Y-162656887D01*
X155863650Y-162660711D01*
G37*
X155863650Y-162660711D02*
X156033793Y-162669015D01*
X156154340Y-162680525D01*
X156240993Y-162698121D01*
X156309451Y-162724684D01*
X156356603Y-162751175D01*
X156483192Y-162851186D01*
X156561203Y-162971445D01*
X156597976Y-163126571D01*
X156603301Y-163242436D01*
X156579591Y-163453977D01*
X156508446Y-163622394D01*
X156388472Y-163748994D01*
X156218272Y-163835080D01*
X155996453Y-163881960D01*
X155912375Y-163889009D01*
X155657173Y-163903782D01*
X155657173Y-164646292D01*
X155548347Y-164646292D01*
X155467677Y-164640319D01*
X155419230Y-164625812D01*
X155417756Y-164624527D01*
X155412174Y-164587498D01*
X155407121Y-164493586D01*
X155402789Y-164351203D01*
X155399368Y-164168760D01*
X155397049Y-163954668D01*
X155396024Y-163717340D01*
X155395991Y-163665414D01*
X155396428Y-163387409D01*
X155397256Y-163269643D01*
X155657173Y-163269643D01*
X155658914Y-163422368D01*
X155663650Y-163550448D01*
X155670653Y-163640207D01*
X155678938Y-163677740D01*
X155730938Y-163694686D01*
X155824375Y-163698293D01*
X155936910Y-163689223D01*
X156046201Y-163668137D01*
X156051371Y-163666725D01*
X156190303Y-163602535D01*
X156281681Y-163497595D01*
X156329504Y-163346643D01*
X156335892Y-163292377D01*
X156341468Y-163185561D01*
X156329626Y-163116034D01*
X156290997Y-163056290D01*
X156235758Y-162998296D01*
X156171379Y-162937956D01*
X156115104Y-162903537D01*
X156045070Y-162887790D01*
X155939416Y-162883466D01*
X155888973Y-162883310D01*
X155657173Y-162883310D01*
X155657173Y-163269643D01*
X155397256Y-163269643D01*
X155397972Y-163167721D01*
X155400974Y-162999379D01*
X155405476Y-162883310D01*
X155405783Y-162875408D01*
X155412749Y-162788836D01*
X155422223Y-162732690D01*
X155434555Y-162699996D01*
X155445090Y-162687318D01*
X155493218Y-162668250D01*
X155585445Y-162658270D01*
X155729471Y-162656887D01*
X155863650Y-162660711D01*
X154155374Y-164646292D02*
X154040082Y-164646292D01*
X154040082Y-164646292D02*
X153959195Y-164635741D01*
X153959195Y-164635741D02*
X153911587Y-164609863D01*
X153911587Y-164609863D02*
X153908977Y-164605085D01*
X153908977Y-164605085D02*
X153905221Y-164562951D01*
X153905221Y-164562951D02*
X153902376Y-164464122D01*
X153902376Y-164464122D02*
X153900505Y-164317194D01*
X153900505Y-164317194D02*
X153899669Y-164130761D01*
X153899669Y-164130761D02*
X153899931Y-163913418D01*
X153899931Y-163913418D02*
X153901352Y-163673761D01*
X153901352Y-163673761D02*
X153901840Y-163617489D01*
X153901840Y-163617489D02*
X153910515Y-162671099D01*
X153910515Y-162671099D02*
X154032944Y-162660967D01*
X154032944Y-162660967D02*
X154155374Y-162650834D01*
X154155374Y-162650834D02*
X154155374Y-164646292D01*
X154155374Y-164646292D02*
X154155374Y-164646292D01*
G36*
X154155374Y-164646292D02*
G01*
X154040082Y-164646292D01*
X153959195Y-164635741D01*
X153911587Y-164609863D01*
X153908977Y-164605085D01*
X153905221Y-164562951D01*
X153902376Y-164464122D01*
X153900505Y-164317194D01*
X153899669Y-164130761D01*
X153899931Y-163913418D01*
X153901352Y-163673761D01*
X153901840Y-163617489D01*
X153910515Y-162671099D01*
X154032944Y-162660967D01*
X154155374Y-162650834D01*
X154155374Y-164646292D01*
G37*
X154155374Y-164646292D02*
X154040082Y-164646292D01*
X153959195Y-164635741D01*
X153911587Y-164609863D01*
X153908977Y-164605085D01*
X153905221Y-164562951D01*
X153902376Y-164464122D01*
X153900505Y-164317194D01*
X153899669Y-164130761D01*
X153899931Y-163913418D01*
X153901352Y-163673761D01*
X153901840Y-163617489D01*
X153910515Y-162671099D01*
X154032944Y-162660967D01*
X154155374Y-162650834D01*
X154155374Y-164646292D01*
X148131852Y-164629968D02*
X148025522Y-164640216D01*
X148025522Y-164640216D02*
X147939522Y-164635155D01*
X147939522Y-164635155D02*
X147902579Y-164607170D01*
X147902579Y-164607170D02*
X147898618Y-164564485D01*
X147898618Y-164564485D02*
X147895587Y-164465130D01*
X147895587Y-164465130D02*
X147893557Y-164317724D01*
X147893557Y-164317724D02*
X147892596Y-164130887D01*
X147892596Y-164130887D02*
X147892773Y-163913238D01*
X147892773Y-163913238D02*
X147894159Y-163673398D01*
X147894159Y-163673398D02*
X147894642Y-163617489D01*
X147894642Y-163617489D02*
X147903317Y-162671099D01*
X147903317Y-162671099D02*
X148131852Y-162671099D01*
X148131852Y-162671099D02*
X148131852Y-164629968D01*
X148131852Y-164629968D02*
X148131852Y-164629968D01*
G36*
X148131852Y-164629968D02*
G01*
X148025522Y-164640216D01*
X147939522Y-164635155D01*
X147902579Y-164607170D01*
X147898618Y-164564485D01*
X147895587Y-164465130D01*
X147893557Y-164317724D01*
X147892596Y-164130887D01*
X147892773Y-163913238D01*
X147894159Y-163673398D01*
X147894642Y-163617489D01*
X147903317Y-162671099D01*
X148131852Y-162671099D01*
X148131852Y-164629968D01*
G37*
X148131852Y-164629968D02*
X148025522Y-164640216D01*
X147939522Y-164635155D01*
X147902579Y-164607170D01*
X147898618Y-164564485D01*
X147895587Y-164465130D01*
X147893557Y-164317724D01*
X147892596Y-164130887D01*
X147892773Y-163913238D01*
X147894159Y-163673398D01*
X147894642Y-163617489D01*
X147903317Y-162671099D01*
X148131852Y-162671099D01*
X148131852Y-164629968D01*
X145844792Y-162663531D02*
X146057901Y-162687634D01*
X146057901Y-162687634D02*
X146234495Y-162736457D01*
X146234495Y-162736457D02*
X146387427Y-162812457D01*
X146387427Y-162812457D02*
X146394580Y-162816950D01*
X146394580Y-162816950D02*
X146546193Y-162950535D01*
X146546193Y-162950535D02*
X146660045Y-163130150D01*
X146660045Y-163130150D02*
X146732980Y-163346453D01*
X146732980Y-163346453D02*
X146761840Y-163590101D01*
X146761840Y-163590101D02*
X146743731Y-163850102D01*
X146743731Y-163850102D02*
X146681412Y-164098167D01*
X146681412Y-164098167D02*
X146579948Y-164296471D01*
X146579948Y-164296471D02*
X146436000Y-164449859D01*
X146436000Y-164449859D02*
X146254602Y-164559414D01*
X146254602Y-164559414D02*
X146163426Y-164588215D01*
X146163426Y-164588215D02*
X146035359Y-164612240D01*
X146035359Y-164612240D02*
X145884217Y-164630801D01*
X145884217Y-164630801D02*
X145723819Y-164643212D01*
X145723819Y-164643212D02*
X145567982Y-164648785D01*
X145567982Y-164648785D02*
X145430523Y-164646834D01*
X145430523Y-164646834D02*
X145325259Y-164636671D01*
X145325259Y-164636671D02*
X145266009Y-164617610D01*
X145266009Y-164617610D02*
X145258782Y-164608931D01*
X145258782Y-164608931D02*
X145254647Y-164565780D01*
X145254647Y-164565780D02*
X145251459Y-164465980D01*
X145251459Y-164465980D02*
X145249295Y-164318171D01*
X145249295Y-164318171D02*
X145248228Y-164130992D01*
X145248228Y-164130992D02*
X145248335Y-163913086D01*
X145248335Y-163913086D02*
X145249689Y-163673092D01*
X145249689Y-163673092D02*
X145250169Y-163617489D01*
X145250169Y-163617489D02*
X145256898Y-162883310D01*
X145256898Y-162883310D02*
X145503703Y-162883310D01*
X145503703Y-162883310D02*
X145503703Y-164417758D01*
X145503703Y-164417758D02*
X145757967Y-164417758D01*
X145757967Y-164417758D02*
X145915175Y-164412346D01*
X145915175Y-164412346D02*
X146032635Y-164393063D01*
X146032635Y-164393063D02*
X146135227Y-164355341D01*
X146135227Y-164355341D02*
X146157903Y-164344300D01*
X146157903Y-164344300D02*
X146295793Y-164246591D01*
X146295793Y-164246591D02*
X146392863Y-164109937D01*
X146392863Y-164109937D02*
X146452488Y-163927864D01*
X146452488Y-163927864D02*
X146476152Y-163734335D01*
X146476152Y-163734335D02*
X146474971Y-163502917D01*
X146474971Y-163502917D02*
X146439735Y-163316878D01*
X146439735Y-163316878D02*
X146367335Y-163164100D01*
X146367335Y-163164100D02*
X146310872Y-163090229D01*
X146310872Y-163090229D02*
X146204191Y-162989823D01*
X146204191Y-162989823D02*
X146084972Y-162926035D01*
X146084972Y-162926035D02*
X145936269Y-162892618D01*
X145936269Y-162892618D02*
X145749610Y-162883310D01*
X145749610Y-162883310D02*
X145503703Y-162883310D01*
X145503703Y-162883310D02*
X145256898Y-162883310D01*
X145256898Y-162883310D02*
X145258844Y-162671099D01*
X145258844Y-162671099D02*
X145582316Y-162661693D01*
X145582316Y-162661693D02*
X145844792Y-162663531D01*
X145844792Y-162663531D02*
X145844792Y-162663531D01*
G36*
X145844792Y-162663531D02*
G01*
X146057901Y-162687634D01*
X146234495Y-162736457D01*
X146387427Y-162812457D01*
X146394580Y-162816950D01*
X146546193Y-162950535D01*
X146660045Y-163130150D01*
X146732980Y-163346453D01*
X146761840Y-163590101D01*
X146743731Y-163850102D01*
X146681412Y-164098167D01*
X146579948Y-164296471D01*
X146436000Y-164449859D01*
X146254602Y-164559414D01*
X146163426Y-164588215D01*
X146035359Y-164612240D01*
X145884217Y-164630801D01*
X145723819Y-164643212D01*
X145567982Y-164648785D01*
X145430523Y-164646834D01*
X145325259Y-164636671D01*
X145266009Y-164617610D01*
X145258782Y-164608931D01*
X145254647Y-164565780D01*
X145251459Y-164465980D01*
X145250753Y-164417758D01*
X145503703Y-164417758D01*
X145757967Y-164417758D01*
X145915175Y-164412346D01*
X146032635Y-164393063D01*
X146135227Y-164355341D01*
X146157903Y-164344300D01*
X146295793Y-164246591D01*
X146392863Y-164109937D01*
X146452488Y-163927864D01*
X146476152Y-163734335D01*
X146474971Y-163502917D01*
X146439735Y-163316878D01*
X146367335Y-163164100D01*
X146310872Y-163090229D01*
X146204191Y-162989823D01*
X146084972Y-162926035D01*
X145936269Y-162892618D01*
X145749610Y-162883310D01*
X145503703Y-162883310D01*
X145503703Y-164417758D01*
X145250753Y-164417758D01*
X145249295Y-164318171D01*
X145248228Y-164130992D01*
X145248335Y-163913086D01*
X145249689Y-163673092D01*
X145250169Y-163617489D01*
X145256898Y-162883310D01*
X145258844Y-162671099D01*
X145582316Y-162661693D01*
X145844792Y-162663531D01*
G37*
X145844792Y-162663531D02*
X146057901Y-162687634D01*
X146234495Y-162736457D01*
X146387427Y-162812457D01*
X146394580Y-162816950D01*
X146546193Y-162950535D01*
X146660045Y-163130150D01*
X146732980Y-163346453D01*
X146761840Y-163590101D01*
X146743731Y-163850102D01*
X146681412Y-164098167D01*
X146579948Y-164296471D01*
X146436000Y-164449859D01*
X146254602Y-164559414D01*
X146163426Y-164588215D01*
X146035359Y-164612240D01*
X145884217Y-164630801D01*
X145723819Y-164643212D01*
X145567982Y-164648785D01*
X145430523Y-164646834D01*
X145325259Y-164636671D01*
X145266009Y-164617610D01*
X145258782Y-164608931D01*
X145254647Y-164565780D01*
X145251459Y-164465980D01*
X145250753Y-164417758D01*
X145503703Y-164417758D01*
X145757967Y-164417758D01*
X145915175Y-164412346D01*
X146032635Y-164393063D01*
X146135227Y-164355341D01*
X146157903Y-164344300D01*
X146295793Y-164246591D01*
X146392863Y-164109937D01*
X146452488Y-163927864D01*
X146476152Y-163734335D01*
X146474971Y-163502917D01*
X146439735Y-163316878D01*
X146367335Y-163164100D01*
X146310872Y-163090229D01*
X146204191Y-162989823D01*
X146084972Y-162926035D01*
X145936269Y-162892618D01*
X145749610Y-162883310D01*
X145503703Y-162883310D01*
X145503703Y-164417758D01*
X145250753Y-164417758D01*
X145249295Y-164318171D01*
X145248228Y-164130992D01*
X145248335Y-163913086D01*
X145249689Y-163673092D01*
X145250169Y-163617489D01*
X145256898Y-162883310D01*
X145258844Y-162671099D01*
X145582316Y-162661693D01*
X145844792Y-162663531D01*
X152408386Y-162635959D02*
X152621244Y-162690119D01*
X152621244Y-162690119D02*
X152679962Y-162716878D01*
X152679962Y-162716878D02*
X152784487Y-162784344D01*
X152784487Y-162784344D02*
X152836756Y-162860616D01*
X152836756Y-162860616D02*
X152849461Y-162949349D01*
X152849461Y-162949349D02*
X152834489Y-163012693D01*
X152834489Y-163012693D02*
X152786729Y-163026512D01*
X152786729Y-163026512D02*
X152701921Y-162991031D01*
X152701921Y-162991031D02*
X152651765Y-162959858D01*
X152651765Y-162959858D02*
X152513590Y-162891158D01*
X152513590Y-162891158D02*
X152352941Y-162860803D01*
X152352941Y-162860803D02*
X152332306Y-162859344D01*
X152332306Y-162859344D02*
X152143062Y-162872186D01*
X152143062Y-162872186D02*
X151989583Y-162938547D01*
X151989583Y-162938547D02*
X151866387Y-163061565D01*
X151866387Y-163061565D02*
X151806649Y-163160111D01*
X151806649Y-163160111D02*
X151768065Y-163242415D01*
X151768065Y-163242415D02*
X151743490Y-163320306D01*
X151743490Y-163320306D02*
X151729877Y-163412270D01*
X151729877Y-163412270D02*
X151724181Y-163536793D01*
X151724181Y-163536793D02*
X151723274Y-163666152D01*
X151723274Y-163666152D02*
X151725317Y-163830258D01*
X151725317Y-163830258D02*
X151733073Y-163946696D01*
X151733073Y-163946696D02*
X151749257Y-164033021D01*
X151749257Y-164033021D02*
X151776585Y-164106793D01*
X151776585Y-164106793D02*
X151798048Y-164149694D01*
X151798048Y-164149694D02*
X151908533Y-164293309D01*
X151908533Y-164293309D02*
X152054800Y-164390362D01*
X152054800Y-164390362D02*
X152224605Y-164438527D01*
X152224605Y-164438527D02*
X152405703Y-164435479D01*
X152405703Y-164435479D02*
X152585849Y-164378891D01*
X152585849Y-164378891D02*
X152687818Y-164318677D01*
X152687818Y-164318677D02*
X152759436Y-164274662D01*
X152759436Y-164274662D02*
X152811380Y-164254634D01*
X152811380Y-164254634D02*
X152813691Y-164254519D01*
X152813691Y-164254519D02*
X152844489Y-164280286D01*
X152844489Y-164280286D02*
X152849916Y-164343086D01*
X152849916Y-164343086D02*
X152833021Y-164421166D01*
X152833021Y-164421166D02*
X152796856Y-164492776D01*
X152796856Y-164492776D02*
X152777122Y-164515256D01*
X152777122Y-164515256D02*
X152656447Y-164591254D01*
X152656447Y-164591254D02*
X152493250Y-164643959D01*
X152493250Y-164643959D02*
X152307205Y-164669959D01*
X152307205Y-164669959D02*
X152117982Y-164665847D01*
X152117982Y-164665847D02*
X152012312Y-164647796D01*
X152012312Y-164647796D02*
X151824801Y-164571180D01*
X151824801Y-164571180D02*
X151668871Y-164441890D01*
X151668871Y-164441890D02*
X151547844Y-164266117D01*
X151547844Y-164266117D02*
X151465039Y-164050050D01*
X151465039Y-164050050D02*
X151423778Y-163799878D01*
X151423778Y-163799878D02*
X151424759Y-163552590D01*
X151424759Y-163552590D02*
X151466364Y-163300088D01*
X151466364Y-163300088D02*
X151547477Y-163078068D01*
X151547477Y-163078068D02*
X151663241Y-162897078D01*
X151663241Y-162897078D02*
X151776084Y-162789979D01*
X151776084Y-162789979D02*
X151967945Y-162687333D01*
X151967945Y-162687333D02*
X152184666Y-162635512D01*
X152184666Y-162635512D02*
X152408386Y-162635959D01*
X152408386Y-162635959D02*
X152408386Y-162635959D01*
G36*
X152408386Y-162635959D02*
G01*
X152621244Y-162690119D01*
X152679962Y-162716878D01*
X152784487Y-162784344D01*
X152836756Y-162860616D01*
X152849461Y-162949349D01*
X152834489Y-163012693D01*
X152786729Y-163026512D01*
X152701921Y-162991031D01*
X152651765Y-162959858D01*
X152513590Y-162891158D01*
X152352941Y-162860803D01*
X152332306Y-162859344D01*
X152143062Y-162872186D01*
X151989583Y-162938547D01*
X151866387Y-163061565D01*
X151806649Y-163160111D01*
X151768065Y-163242415D01*
X151743490Y-163320306D01*
X151729877Y-163412270D01*
X151724181Y-163536793D01*
X151723274Y-163666152D01*
X151725317Y-163830258D01*
X151733073Y-163946696D01*
X151749257Y-164033021D01*
X151776585Y-164106793D01*
X151798048Y-164149694D01*
X151908533Y-164293309D01*
X152054800Y-164390362D01*
X152224605Y-164438527D01*
X152405703Y-164435479D01*
X152585849Y-164378891D01*
X152687818Y-164318677D01*
X152759436Y-164274662D01*
X152811380Y-164254634D01*
X152813691Y-164254519D01*
X152844489Y-164280286D01*
X152849916Y-164343086D01*
X152833021Y-164421166D01*
X152796856Y-164492776D01*
X152777122Y-164515256D01*
X152656447Y-164591254D01*
X152493250Y-164643959D01*
X152307205Y-164669959D01*
X152117982Y-164665847D01*
X152012312Y-164647796D01*
X151824801Y-164571180D01*
X151668871Y-164441890D01*
X151547844Y-164266117D01*
X151465039Y-164050050D01*
X151423778Y-163799878D01*
X151424759Y-163552590D01*
X151466364Y-163300088D01*
X151547477Y-163078068D01*
X151663241Y-162897078D01*
X151776084Y-162789979D01*
X151967945Y-162687333D01*
X152184666Y-162635512D01*
X152408386Y-162635959D01*
G37*
X152408386Y-162635959D02*
X152621244Y-162690119D01*
X152679962Y-162716878D01*
X152784487Y-162784344D01*
X152836756Y-162860616D01*
X152849461Y-162949349D01*
X152834489Y-163012693D01*
X152786729Y-163026512D01*
X152701921Y-162991031D01*
X152651765Y-162959858D01*
X152513590Y-162891158D01*
X152352941Y-162860803D01*
X152332306Y-162859344D01*
X152143062Y-162872186D01*
X151989583Y-162938547D01*
X151866387Y-163061565D01*
X151806649Y-163160111D01*
X151768065Y-163242415D01*
X151743490Y-163320306D01*
X151729877Y-163412270D01*
X151724181Y-163536793D01*
X151723274Y-163666152D01*
X151725317Y-163830258D01*
X151733073Y-163946696D01*
X151749257Y-164033021D01*
X151776585Y-164106793D01*
X151798048Y-164149694D01*
X151908533Y-164293309D01*
X152054800Y-164390362D01*
X152224605Y-164438527D01*
X152405703Y-164435479D01*
X152585849Y-164378891D01*
X152687818Y-164318677D01*
X152759436Y-164274662D01*
X152811380Y-164254634D01*
X152813691Y-164254519D01*
X152844489Y-164280286D01*
X152849916Y-164343086D01*
X152833021Y-164421166D01*
X152796856Y-164492776D01*
X152777122Y-164515256D01*
X152656447Y-164591254D01*
X152493250Y-164643959D01*
X152307205Y-164669959D01*
X152117982Y-164665847D01*
X152012312Y-164647796D01*
X151824801Y-164571180D01*
X151668871Y-164441890D01*
X151547844Y-164266117D01*
X151465039Y-164050050D01*
X151423778Y-163799878D01*
X151424759Y-163552590D01*
X151466364Y-163300088D01*
X151547477Y-163078068D01*
X151663241Y-162897078D01*
X151776084Y-162789979D01*
X151967945Y-162687333D01*
X152184666Y-162635512D01*
X152408386Y-162635959D01*
X150058620Y-162650150D02*
X150181691Y-162684296D01*
X150181691Y-162684296D02*
X150274180Y-162728554D01*
X150274180Y-162728554D02*
X150316406Y-162773391D01*
X150316406Y-162773391D02*
X150334272Y-162857763D01*
X150334272Y-162857763D02*
X150327489Y-162931595D01*
X150327489Y-162931595D02*
X150307760Y-162961945D01*
X150307760Y-162961945D02*
X150264101Y-162958916D01*
X150264101Y-162958916D02*
X150187416Y-162930900D01*
X150187416Y-162930900D02*
X150153942Y-162914901D01*
X150153942Y-162914901D02*
X149996013Y-162858251D01*
X149996013Y-162858251D02*
X149846929Y-162847564D01*
X149846929Y-162847564D02*
X149717597Y-162878974D01*
X149717597Y-162878974D02*
X149618923Y-162948617D01*
X149618923Y-162948617D02*
X149561814Y-163052629D01*
X149561814Y-163052629D02*
X149552032Y-163128169D01*
X149552032Y-163128169D02*
X149575421Y-163240997D01*
X149575421Y-163240997D02*
X149649293Y-163340158D01*
X149649293Y-163340158D02*
X149779204Y-163431459D01*
X149779204Y-163431459D02*
X149898620Y-163490354D01*
X149898620Y-163490354D02*
X150125834Y-163606298D01*
X150125834Y-163606298D02*
X150289152Y-163724770D01*
X150289152Y-163724770D02*
X150372520Y-163819849D01*
X150372520Y-163819849D02*
X150414719Y-163927832D01*
X150414719Y-163927832D02*
X150432425Y-164068767D01*
X150432425Y-164068767D02*
X150424946Y-164214800D01*
X150424946Y-164214800D02*
X150391589Y-164338078D01*
X150391589Y-164338078D02*
X150385724Y-164350194D01*
X150385724Y-164350194D02*
X150276350Y-164493769D01*
X150276350Y-164493769D02*
X150122757Y-164598390D01*
X150122757Y-164598390D02*
X149935744Y-164660265D01*
X149935744Y-164660265D02*
X149726111Y-164675603D01*
X149726111Y-164675603D02*
X149535708Y-164648620D01*
X149535708Y-164648620D02*
X149419119Y-164610095D01*
X149419119Y-164610095D02*
X149316971Y-164558593D01*
X149316971Y-164558593D02*
X149253173Y-164506351D01*
X149253173Y-164506351D02*
X149250539Y-164502652D01*
X149250539Y-164502652D02*
X149229230Y-164437173D01*
X149229230Y-164437173D02*
X149229852Y-164361057D01*
X149229852Y-164361057D02*
X149251456Y-164308359D01*
X149251456Y-164308359D02*
X149256050Y-164304820D01*
X149256050Y-164304820D02*
X149300715Y-164307535D01*
X149300715Y-164307535D02*
X149379113Y-164335935D01*
X149379113Y-164335935D02*
X149422808Y-164356995D01*
X149422808Y-164356995D02*
X149596979Y-164424087D01*
X149596979Y-164424087D02*
X149764628Y-164446056D01*
X149764628Y-164446056D02*
X149915771Y-164426186D01*
X149915771Y-164426186D02*
X150040425Y-164367761D01*
X150040425Y-164367761D02*
X150128607Y-164274064D01*
X150128607Y-164274064D02*
X150170333Y-164148378D01*
X150170333Y-164148378D02*
X150172340Y-164110470D01*
X150172340Y-164110470D02*
X150150853Y-164021260D01*
X150150853Y-164021260D02*
X150082869Y-163932090D01*
X150082869Y-163932090D02*
X149963105Y-163838044D01*
X149963105Y-163838044D02*
X149786278Y-163734206D01*
X149786278Y-163734206D02*
X149744317Y-163712201D01*
X149744317Y-163712201D02*
X149560379Y-163608427D01*
X149560379Y-163608427D02*
X149431276Y-163511457D01*
X149431276Y-163511457D02*
X149348801Y-163411095D01*
X149348801Y-163411095D02*
X149304745Y-163297144D01*
X149304745Y-163297144D02*
X149290899Y-163159409D01*
X149290899Y-163159409D02*
X149290849Y-163148930D01*
X149290849Y-163148930D02*
X149316523Y-162961799D01*
X149316523Y-162961799D02*
X149393178Y-162815336D01*
X149393178Y-162815336D02*
X149520261Y-162710107D01*
X149520261Y-162710107D02*
X149697220Y-162646681D01*
X149697220Y-162646681D02*
X149793478Y-162631877D01*
X149793478Y-162631877D02*
X149923154Y-162631036D01*
X149923154Y-162631036D02*
X150058620Y-162650150D01*
X150058620Y-162650150D02*
X150058620Y-162650150D01*
G36*
X150058620Y-162650150D02*
G01*
X150181691Y-162684296D01*
X150274180Y-162728554D01*
X150316406Y-162773391D01*
X150334272Y-162857763D01*
X150327489Y-162931595D01*
X150307760Y-162961945D01*
X150264101Y-162958916D01*
X150187416Y-162930900D01*
X150153942Y-162914901D01*
X149996013Y-162858251D01*
X149846929Y-162847564D01*
X149717597Y-162878974D01*
X149618923Y-162948617D01*
X149561814Y-163052629D01*
X149552032Y-163128169D01*
X149575421Y-163240997D01*
X149649293Y-163340158D01*
X149779204Y-163431459D01*
X149898620Y-163490354D01*
X150125834Y-163606298D01*
X150289152Y-163724770D01*
X150372520Y-163819849D01*
X150414719Y-163927832D01*
X150432425Y-164068767D01*
X150424946Y-164214800D01*
X150391589Y-164338078D01*
X150385724Y-164350194D01*
X150276350Y-164493769D01*
X150122757Y-164598390D01*
X149935744Y-164660265D01*
X149726111Y-164675603D01*
X149535708Y-164648620D01*
X149419119Y-164610095D01*
X149316971Y-164558593D01*
X149253173Y-164506351D01*
X149250539Y-164502652D01*
X149229230Y-164437173D01*
X149229852Y-164361057D01*
X149251456Y-164308359D01*
X149256050Y-164304820D01*
X149300715Y-164307535D01*
X149379113Y-164335935D01*
X149422808Y-164356995D01*
X149596979Y-164424087D01*
X149764628Y-164446056D01*
X149915771Y-164426186D01*
X150040425Y-164367761D01*
X150128607Y-164274064D01*
X150170333Y-164148378D01*
X150172340Y-164110470D01*
X150150853Y-164021260D01*
X150082869Y-163932090D01*
X149963105Y-163838044D01*
X149786278Y-163734206D01*
X149744317Y-163712201D01*
X149560379Y-163608427D01*
X149431276Y-163511457D01*
X149348801Y-163411095D01*
X149304745Y-163297144D01*
X149290899Y-163159409D01*
X149290849Y-163148930D01*
X149316523Y-162961799D01*
X149393178Y-162815336D01*
X149520261Y-162710107D01*
X149697220Y-162646681D01*
X149793478Y-162631877D01*
X149923154Y-162631036D01*
X150058620Y-162650150D01*
G37*
X150058620Y-162650150D02*
X150181691Y-162684296D01*
X150274180Y-162728554D01*
X150316406Y-162773391D01*
X150334272Y-162857763D01*
X150327489Y-162931595D01*
X150307760Y-162961945D01*
X150264101Y-162958916D01*
X150187416Y-162930900D01*
X150153942Y-162914901D01*
X149996013Y-162858251D01*
X149846929Y-162847564D01*
X149717597Y-162878974D01*
X149618923Y-162948617D01*
X149561814Y-163052629D01*
X149552032Y-163128169D01*
X149575421Y-163240997D01*
X149649293Y-163340158D01*
X149779204Y-163431459D01*
X149898620Y-163490354D01*
X150125834Y-163606298D01*
X150289152Y-163724770D01*
X150372520Y-163819849D01*
X150414719Y-163927832D01*
X150432425Y-164068767D01*
X150424946Y-164214800D01*
X150391589Y-164338078D01*
X150385724Y-164350194D01*
X150276350Y-164493769D01*
X150122757Y-164598390D01*
X149935744Y-164660265D01*
X149726111Y-164675603D01*
X149535708Y-164648620D01*
X149419119Y-164610095D01*
X149316971Y-164558593D01*
X149253173Y-164506351D01*
X149250539Y-164502652D01*
X149229230Y-164437173D01*
X149229852Y-164361057D01*
X149251456Y-164308359D01*
X149256050Y-164304820D01*
X149300715Y-164307535D01*
X149379113Y-164335935D01*
X149422808Y-164356995D01*
X149596979Y-164424087D01*
X149764628Y-164446056D01*
X149915771Y-164426186D01*
X150040425Y-164367761D01*
X150128607Y-164274064D01*
X150170333Y-164148378D01*
X150172340Y-164110470D01*
X150150853Y-164021260D01*
X150082869Y-163932090D01*
X149963105Y-163838044D01*
X149786278Y-163734206D01*
X149744317Y-163712201D01*
X149560379Y-163608427D01*
X149431276Y-163511457D01*
X149348801Y-163411095D01*
X149304745Y-163297144D01*
X149290899Y-163159409D01*
X149290849Y-163148930D01*
X149316523Y-162961799D01*
X149393178Y-162815336D01*
X149520261Y-162710107D01*
X149697220Y-162646681D01*
X149793478Y-162631877D01*
X149923154Y-162631036D01*
X150058620Y-162650150D01*
D12*
X144027456Y-160474210D02*
G75*
G03*
X144027456Y-167154210I0J-3340000D01*
G01*
X166327456Y-167154210D02*
G75*
G03*
X166327456Y-160474210I0J3340000D01*
G01*
D13*
X134811423Y-177966640D03*
X234811223Y-177966640D03*
D14*
X134811423Y-162726640D03*
X234811223Y-162726640D03*
D15*
X299753430Y-76389182D03*
D16*
X348013430Y-61149182D03*
X302293430Y-76389182D03*
X345473430Y-61149182D03*
X304833430Y-76389182D03*
X342933430Y-61149182D03*
X307373430Y-76389182D03*
X340393430Y-61149182D03*
X309913430Y-76389182D03*
X337853430Y-61149182D03*
X312453430Y-76389182D03*
X335313430Y-61149182D03*
X314993430Y-76389182D03*
X332773430Y-61149182D03*
X317533430Y-76389182D03*
X330233430Y-61149182D03*
X320073430Y-76389182D03*
X327693430Y-61149182D03*
X322613430Y-76389182D03*
X325153430Y-61149182D03*
X325153430Y-76389182D03*
X322613430Y-61149182D03*
X327693430Y-76389182D03*
X320073430Y-61149182D03*
X330233430Y-76389182D03*
X317533430Y-61149182D03*
X332773430Y-76389182D03*
X314993430Y-61149182D03*
X335313430Y-76389182D03*
X312453430Y-61149182D03*
X337853430Y-76389182D03*
X309913430Y-61149182D03*
X340393430Y-76389182D03*
X307373430Y-61149182D03*
X342933430Y-76389182D03*
X304833430Y-61149182D03*
X345473430Y-76389182D03*
X302293430Y-61149182D03*
X348013430Y-76389182D03*
X299753430Y-61149182D03*
D17*
X205511400Y-101219000D03*
X81762600Y-104013000D03*
D18*
X346575280Y-102303120D03*
D19*
X349075280Y-102303120D03*
X351575280Y-102303120D03*
D20*
X343475280Y-94803120D03*
D21*
X354675280Y-94803120D03*
D19*
X346575280Y-87803120D03*
X351575280Y-87803120D03*
D22*
X316068710Y-170971210D03*
X305908710Y-170971210D03*
D23*
X307178710Y-168431210D03*
D14*
X310988710Y-170971210D03*
D23*
X313528710Y-165891210D03*
D14*
X306194710Y-141126210D03*
X330070710Y-141126210D03*
D13*
X306194710Y-125886210D03*
X330070710Y-125886210D03*
D22*
X323212710Y-132871210D03*
X313052710Y-132871210D03*
D23*
X314322710Y-130331210D03*
D14*
X318132710Y-132871210D03*
D23*
X320672710Y-127791210D03*
X289737588Y-165891210D03*
D14*
X287197588Y-170971210D03*
D23*
X283387588Y-168431210D03*
D22*
X282117588Y-170971210D03*
X292277588Y-170971210D03*
D23*
X261181396Y-165891210D03*
D14*
X258641396Y-170971210D03*
D23*
X254831396Y-168431210D03*
D22*
X253561396Y-170971210D03*
X263721396Y-170971210D03*
X172585033Y-170979100D03*
X182745033Y-170979100D03*
D23*
X181475033Y-173519100D03*
D14*
X177665033Y-170979100D03*
D23*
X175125033Y-176059100D03*
X94160491Y-176047279D03*
D14*
X96700491Y-170967279D03*
D23*
X100510491Y-173507279D03*
D22*
X101780491Y-170967279D03*
X91620491Y-170967279D03*
D23*
X65561160Y-176041080D03*
D14*
X68101160Y-170961080D03*
D23*
X71911160Y-173501080D03*
D22*
X73181160Y-170961080D03*
X63021160Y-170961080D03*
X60639960Y-132861080D03*
X70799960Y-132861080D03*
D23*
X69529960Y-135401080D03*
D14*
X65719960Y-132861080D03*
D23*
X63179960Y-137941080D03*
D22*
X286898988Y-170961080D03*
X297058988Y-170961080D03*
D23*
X295788988Y-173501080D03*
D14*
X291978988Y-170961080D03*
D23*
X289438988Y-176041080D03*
D22*
X354168710Y-170971210D03*
X344008710Y-170971210D03*
D23*
X345278710Y-168431210D03*
D14*
X349088710Y-170971210D03*
D23*
X351628710Y-165891210D03*
D22*
X335118710Y-170971210D03*
X324958710Y-170971210D03*
D23*
X326228710Y-168431210D03*
D14*
X330038710Y-170971210D03*
D23*
X332578710Y-165891210D03*
D22*
X278003666Y-170971210D03*
X267843666Y-170971210D03*
D23*
X269113666Y-168431210D03*
D14*
X272923666Y-170971210D03*
D23*
X275463666Y-165891210D03*
D22*
X248788344Y-170961080D03*
X258948344Y-170961080D03*
D23*
X257678344Y-173501080D03*
D14*
X253868344Y-170961080D03*
D23*
X251328344Y-176041080D03*
D22*
X189862710Y-170971210D03*
X179702710Y-170971210D03*
D23*
X180972710Y-168431210D03*
D14*
X184782710Y-170971210D03*
D23*
X187322710Y-165891210D03*
D22*
X118424910Y-170961080D03*
X108264910Y-170961080D03*
D23*
X109534910Y-168421080D03*
D14*
X113344910Y-170961080D03*
D23*
X115884910Y-165881080D03*
D22*
X94612510Y-170971210D03*
X84452510Y-170971210D03*
D23*
X85722510Y-168431210D03*
D14*
X89532510Y-170971210D03*
D23*
X92072510Y-165891210D03*
D22*
X70799910Y-170961080D03*
X60639910Y-170961080D03*
D23*
X61909910Y-168421080D03*
D14*
X65719910Y-170961080D03*
D23*
X68259910Y-165881080D03*
D22*
X354168710Y-151921210D03*
X344008710Y-151921210D03*
D23*
X345278710Y-149381210D03*
D14*
X349088710Y-151921210D03*
D23*
X351628710Y-146841210D03*
D22*
X335118710Y-151921210D03*
X324958710Y-151921210D03*
D23*
X326228710Y-149381210D03*
D14*
X330038710Y-151921210D03*
D23*
X332578710Y-146841210D03*
D22*
X308924710Y-151921210D03*
X298764710Y-151921210D03*
D23*
X300034710Y-149381210D03*
D14*
X303844710Y-151921210D03*
D23*
X306384710Y-146841210D03*
D22*
X282731710Y-151921210D03*
X272571710Y-151921210D03*
D23*
X273841710Y-149381210D03*
D14*
X277651710Y-151921210D03*
D23*
X280191710Y-146841210D03*
D22*
X263681710Y-151921210D03*
X253521710Y-151921210D03*
D23*
X254791710Y-149381210D03*
D14*
X258601710Y-151921210D03*
D23*
X261141710Y-146841210D03*
D22*
X244631710Y-151921210D03*
X234471710Y-151921210D03*
D23*
X235741710Y-149381210D03*
D14*
X239551710Y-151921210D03*
D23*
X242091710Y-146841210D03*
D22*
X225581710Y-151921210D03*
X215421710Y-151921210D03*
D23*
X216691710Y-149381210D03*
D14*
X220501710Y-151921210D03*
D23*
X223041710Y-146841210D03*
D22*
X206531710Y-151921210D03*
X196371710Y-151921210D03*
D23*
X197641710Y-149381210D03*
D14*
X201451710Y-151921210D03*
D23*
X203991710Y-146841210D03*
D22*
X187481710Y-151921210D03*
X177321710Y-151921210D03*
D23*
X178591710Y-149381210D03*
D14*
X182401710Y-151921210D03*
D23*
X184941710Y-146841210D03*
D22*
X168431710Y-151921210D03*
X158271710Y-151921210D03*
D23*
X159541710Y-149381210D03*
D14*
X163351710Y-151921210D03*
D23*
X165891710Y-146841210D03*
D22*
X149381210Y-151921210D03*
X139221210Y-151921210D03*
D23*
X140491210Y-149381210D03*
D14*
X144301210Y-151921210D03*
D23*
X146841210Y-146841210D03*
D22*
X130331210Y-151921210D03*
X120171210Y-151921210D03*
D23*
X121441210Y-149381210D03*
D14*
X125251210Y-151921210D03*
D23*
X127791210Y-146841210D03*
D22*
X111281210Y-151921210D03*
X101121210Y-151921210D03*
D23*
X102391210Y-149381210D03*
D14*
X106201210Y-151921210D03*
D23*
X108741210Y-146841210D03*
D14*
X63306910Y-160176210D03*
X87182910Y-160176210D03*
D13*
X63306910Y-144936210D03*
X87182910Y-144936210D03*
D22*
X80324910Y-151921210D03*
X70164910Y-151921210D03*
D23*
X71434910Y-149381210D03*
D14*
X75244910Y-151921210D03*
D23*
X77784910Y-146841210D03*
D22*
X354168710Y-132871210D03*
X344008710Y-132871210D03*
D23*
X345278710Y-130331210D03*
D14*
X349088710Y-132871210D03*
D23*
X351628710Y-127791210D03*
D22*
X292255710Y-132871210D03*
X282095710Y-132871210D03*
D23*
X283365710Y-130331210D03*
D14*
X287175710Y-132871210D03*
D23*
X289715710Y-127791210D03*
D22*
X273205710Y-132871210D03*
X263045710Y-132871210D03*
D23*
X264315710Y-130331210D03*
D14*
X268125710Y-132871210D03*
D23*
X270665710Y-127791210D03*
D22*
X254155710Y-132871210D03*
X243995710Y-132871210D03*
D23*
X245265710Y-130331210D03*
D14*
X249075710Y-132871210D03*
D23*
X251615710Y-127791210D03*
D22*
X235105710Y-132871210D03*
X224945710Y-132871210D03*
D23*
X226215710Y-130331210D03*
D14*
X230025710Y-132871210D03*
D23*
X232565710Y-127791210D03*
D22*
X216055710Y-132871210D03*
X205895710Y-132871210D03*
D23*
X207165710Y-130331210D03*
D14*
X210975710Y-132871210D03*
D23*
X213515710Y-127791210D03*
D22*
X197005710Y-132871210D03*
X186845710Y-132871210D03*
D23*
X188115710Y-130331210D03*
D14*
X191925710Y-132871210D03*
D23*
X194465710Y-127791210D03*
D22*
X177955710Y-132871210D03*
X167795710Y-132871210D03*
D23*
X169065710Y-130331210D03*
D14*
X172875710Y-132871210D03*
D23*
X175415710Y-127791210D03*
D22*
X158905710Y-132871210D03*
X148745710Y-132871210D03*
D23*
X150015710Y-130331210D03*
D14*
X153825710Y-132871210D03*
D23*
X156365710Y-127791210D03*
D22*
X139856210Y-132871210D03*
X129696210Y-132871210D03*
D23*
X130966210Y-130331210D03*
D14*
X134776210Y-132871210D03*
D23*
X137316210Y-127791210D03*
D22*
X120806210Y-132871210D03*
X110646210Y-132871210D03*
D23*
X111916210Y-130331210D03*
D14*
X115726210Y-132871210D03*
D23*
X118266210Y-127791210D03*
D22*
X101756210Y-132871210D03*
X91596210Y-132871210D03*
D23*
X92866210Y-130331210D03*
D14*
X96676210Y-132871210D03*
D23*
X99216210Y-127791210D03*
D22*
X75562510Y-132861080D03*
X65402510Y-132861080D03*
D23*
X66672510Y-130321080D03*
D14*
X70482510Y-132861080D03*
D23*
X73022510Y-127781080D03*
D22*
X354168710Y-113821210D03*
X344008710Y-113821210D03*
D23*
X345278710Y-111281210D03*
D14*
X349088710Y-113821210D03*
D23*
X351628710Y-108741210D03*
X327815710Y-108741210D03*
D14*
X325275710Y-113821210D03*
D23*
X321465710Y-111281210D03*
D22*
X320195710Y-113821210D03*
X330355710Y-113821210D03*
X306543710Y-113821210D03*
X296383710Y-113821210D03*
D23*
X297653710Y-111281210D03*
D14*
X301463710Y-113821210D03*
D23*
X304003710Y-108741210D03*
D22*
X287493710Y-113821210D03*
X277333710Y-113821210D03*
D23*
X278603710Y-111281210D03*
D14*
X282413710Y-113821210D03*
D23*
X284953710Y-108741210D03*
D22*
X268443710Y-113821210D03*
X258283710Y-113821210D03*
D23*
X259553710Y-111281210D03*
D14*
X263363710Y-113821210D03*
D23*
X265903710Y-108741210D03*
D22*
X249393710Y-113821210D03*
X239233710Y-113821210D03*
D23*
X240503710Y-111281210D03*
D14*
X244313710Y-113821210D03*
D23*
X246853710Y-108741210D03*
D22*
X230343710Y-113821210D03*
X220183710Y-113821210D03*
D23*
X221453710Y-111281210D03*
D14*
X225263710Y-113821210D03*
D23*
X227803710Y-108741210D03*
D22*
X211293710Y-113821210D03*
X201133710Y-113821210D03*
D23*
X202403710Y-111281210D03*
D14*
X206213710Y-113821210D03*
D23*
X208753710Y-108741210D03*
D22*
X192243710Y-113821210D03*
X182083710Y-113821210D03*
D23*
X183353710Y-111281210D03*
D14*
X187163710Y-113821210D03*
D23*
X189703710Y-108741210D03*
D22*
X173193710Y-113821210D03*
X163033710Y-113821210D03*
D23*
X164303710Y-111281210D03*
D14*
X168113710Y-113821210D03*
D23*
X170653710Y-108741210D03*
D22*
X154143710Y-113821210D03*
X143983710Y-113821210D03*
D23*
X145253710Y-111281210D03*
D14*
X149063710Y-113821210D03*
D23*
X151603710Y-108741210D03*
D22*
X135093710Y-113821210D03*
X124933710Y-113821210D03*
D23*
X126203710Y-111281210D03*
D14*
X130013710Y-113821210D03*
D23*
X132553710Y-108741210D03*
D22*
X116043710Y-113821210D03*
X105883710Y-113821210D03*
D23*
X107153710Y-111281210D03*
D14*
X110963710Y-113821210D03*
D23*
X113503710Y-108741210D03*
D22*
X96993710Y-113821210D03*
X86833710Y-113821210D03*
D23*
X88103710Y-111281210D03*
D14*
X91913710Y-113821210D03*
D23*
X94453710Y-108741210D03*
X70641210Y-108741210D03*
D14*
X68101210Y-113821210D03*
D23*
X64291210Y-111281210D03*
D22*
X63021210Y-113821210D03*
X73181210Y-113821210D03*
X354168710Y-94771210D03*
X344008710Y-94771210D03*
D23*
X345278710Y-92231210D03*
D14*
X349088710Y-94771210D03*
D23*
X351628710Y-89691210D03*
D14*
X308575710Y-103026210D03*
X332451710Y-103026210D03*
D13*
X308575710Y-87786210D03*
X332451710Y-87786210D03*
D22*
X325593710Y-94771210D03*
X315433710Y-94771210D03*
D23*
X316703710Y-92231210D03*
D14*
X320513710Y-94771210D03*
D23*
X323053710Y-89691210D03*
D22*
X297018710Y-94771210D03*
X286858710Y-94771210D03*
D23*
X288128710Y-92231210D03*
D14*
X291938710Y-94771210D03*
D23*
X294478710Y-89691210D03*
D22*
X277968710Y-94771210D03*
X267808710Y-94771210D03*
D23*
X269078710Y-92231210D03*
D14*
X272888710Y-94771210D03*
D23*
X275428710Y-89691210D03*
D22*
X258918710Y-94771210D03*
X248758710Y-94771210D03*
D23*
X250028710Y-92231210D03*
D14*
X253838710Y-94771210D03*
D23*
X256378710Y-89691210D03*
D22*
X239868710Y-94771210D03*
X229708710Y-94771210D03*
D23*
X230978710Y-92231210D03*
D14*
X234788710Y-94771210D03*
D23*
X237328710Y-89691210D03*
D22*
X220818710Y-94771210D03*
X210658710Y-94771210D03*
D23*
X211928710Y-92231210D03*
D14*
X215738710Y-94771210D03*
D23*
X218278710Y-89691210D03*
D22*
X201768710Y-94771210D03*
X191608710Y-94771210D03*
D23*
X192878710Y-92231210D03*
D14*
X196688710Y-94771210D03*
D23*
X199228710Y-89691210D03*
D22*
X182718710Y-94771210D03*
X172558710Y-94771210D03*
D23*
X173828710Y-92231210D03*
D14*
X177638710Y-94771210D03*
D23*
X180178710Y-89691210D03*
D22*
X163668710Y-94771210D03*
X153508710Y-94771210D03*
D23*
X154778710Y-92231210D03*
D14*
X158588710Y-94771210D03*
D23*
X161128710Y-89691210D03*
D22*
X144618710Y-94771210D03*
X134458710Y-94771210D03*
D23*
X135728710Y-92231210D03*
D14*
X139538710Y-94771210D03*
D23*
X142078710Y-89691210D03*
D22*
X125568710Y-94771210D03*
X115408710Y-94771210D03*
D23*
X116678710Y-92231210D03*
D14*
X120488710Y-94771210D03*
D23*
X123028710Y-89691210D03*
D22*
X106518710Y-94771210D03*
X96358710Y-94771210D03*
D23*
X97628710Y-92231210D03*
D14*
X101438710Y-94771210D03*
D23*
X103978710Y-89691210D03*
D22*
X87468710Y-94771210D03*
X77308710Y-94771210D03*
D23*
X78578710Y-92231210D03*
D14*
X82388710Y-94771210D03*
D23*
X84928710Y-89691210D03*
D22*
X68418710Y-94771210D03*
X58258710Y-94771210D03*
D23*
X59528710Y-92231210D03*
D14*
X63338710Y-94771210D03*
D23*
X65878710Y-89691210D03*
D24*
X325471062Y-78716416D03*
X320471062Y-78716416D03*
X330125530Y-58926178D03*
X325125530Y-58926178D03*
D25*
X284477676Y-70404866D03*
D26*
X284477676Y-68904866D03*
D24*
X327680238Y-79506040D03*
X327680238Y-82006040D03*
X341906112Y-79506040D03*
X341906112Y-82006040D03*
D27*
X290026316Y-78138982D03*
D28*
X295106316Y-78138982D03*
D27*
X290026316Y-75645517D03*
D28*
X295106316Y-75645517D03*
D27*
X290026316Y-73152052D03*
D28*
X295106316Y-73152052D03*
D27*
X295106316Y-70580211D03*
D28*
X290026316Y-70580211D03*
D27*
X295106316Y-68060499D03*
D28*
X290026316Y-68060499D03*
D27*
X295106316Y-65567034D03*
D28*
X290026316Y-65567034D03*
D27*
X290026316Y-63073204D03*
D28*
X295106316Y-63073204D03*
D17*
X206213345Y-61694750D03*
X206213345Y-80444750D03*
D29*
X255293830Y-60350870D03*
D30*
X255293830Y-62890870D03*
X252753830Y-60350870D03*
X252753830Y-62890870D03*
X250213830Y-60350870D03*
X250213830Y-62890870D03*
D31*
X337251644Y-80256240D03*
X332371644Y-80256240D03*
D32*
X286667716Y-61970830D03*
D33*
X284127716Y-61970830D03*
D34*
X278823468Y-66391022D03*
X280523468Y-66391022D03*
X279673468Y-66391022D03*
X277973468Y-66391022D03*
X277123468Y-66391022D03*
X276273468Y-66391022D03*
X275423468Y-66391022D03*
X274573468Y-66391022D03*
X280523468Y-65066022D03*
X279668468Y-65066022D03*
X278818468Y-65066022D03*
X277968468Y-65066022D03*
X277118468Y-65066022D03*
X276268468Y-65066022D03*
X275418468Y-65066022D03*
X274568468Y-65066022D03*
D35*
X281873468Y-65411022D03*
X273223468Y-65411022D03*
D36*
X281873468Y-62031022D03*
X273223468Y-62031022D03*
D28*
X270047614Y-59350838D03*
X270047614Y-64450838D03*
D19*
X244985732Y-59836074D03*
X244985732Y-64336074D03*
X238485732Y-59836074D03*
X238485732Y-64336074D03*
X232985732Y-59836074D03*
X232985732Y-64336074D03*
X226485732Y-59836074D03*
X226485732Y-64336074D03*
D16*
X63600284Y-72555612D03*
D37*
X63600284Y-67475612D03*
D16*
X73108673Y-77516199D03*
D37*
X73108673Y-72436199D03*
D16*
X85786525Y-77516199D03*
D37*
X85786525Y-72436199D03*
D16*
X88955988Y-72555612D03*
D37*
X88955988Y-67475612D03*
D16*
X101633840Y-72555612D03*
D37*
X101633840Y-67475612D03*
D16*
X114311692Y-72555612D03*
D37*
X114311692Y-67475612D03*
D16*
X126989544Y-72555612D03*
D37*
X126989544Y-67475612D03*
D16*
X139667396Y-72555612D03*
D37*
X139667396Y-67475612D03*
D16*
X152345248Y-72555612D03*
D37*
X152345248Y-67475612D03*
D16*
X165023100Y-72555612D03*
D37*
X165023100Y-67475612D03*
D16*
X177700952Y-72555612D03*
D37*
X177700952Y-67475612D03*
D16*
X190378804Y-72555612D03*
D37*
X190378804Y-67475612D03*
D16*
X203056656Y-72555612D03*
D37*
X203056656Y-67475612D03*
D16*
X215734508Y-72555612D03*
D37*
X215734508Y-67475612D03*
D16*
X228342376Y-72555612D03*
D37*
X228342376Y-67475612D03*
D16*
X275541929Y-77516199D03*
D37*
X275541929Y-72436199D03*
D16*
X66769747Y-74209141D03*
D37*
X66769747Y-69129141D03*
D16*
X82617062Y-75862670D03*
D37*
X82617062Y-70782670D03*
D16*
X92125451Y-74209141D03*
D37*
X92125451Y-69129141D03*
D16*
X104803303Y-74209141D03*
D37*
X104803303Y-69129141D03*
D16*
X117481155Y-74209141D03*
D37*
X117481155Y-69129141D03*
D16*
X130159007Y-74209141D03*
D37*
X130159007Y-69129141D03*
D16*
X142836859Y-74209141D03*
D37*
X142836859Y-69129141D03*
D16*
X155514711Y-74209141D03*
D37*
X155514711Y-69129141D03*
D16*
X168192563Y-74209141D03*
D37*
X168192563Y-69129141D03*
D16*
X180870415Y-74209141D03*
D37*
X180870415Y-69129141D03*
D16*
X193548267Y-74209141D03*
D37*
X193548267Y-69129141D03*
D16*
X206226119Y-74209141D03*
D37*
X206226119Y-69129141D03*
D16*
X218886475Y-74209141D03*
D37*
X218886475Y-69129141D03*
D16*
X231493149Y-74209141D03*
D37*
X231493149Y-69129141D03*
D16*
X272453205Y-75862670D03*
D37*
X272453205Y-70782670D03*
D16*
X69939210Y-75862670D03*
D37*
X69939210Y-70782670D03*
D16*
X79447599Y-74209141D03*
D37*
X79447599Y-69129141D03*
D16*
X95294914Y-75862670D03*
D37*
X95294914Y-70782670D03*
D16*
X107972766Y-75862670D03*
D37*
X107972766Y-70782670D03*
D16*
X120650618Y-75862670D03*
D37*
X120650618Y-70782670D03*
D16*
X133328470Y-75862670D03*
D37*
X133328470Y-70782670D03*
D16*
X146006322Y-75862670D03*
D37*
X146006322Y-70782670D03*
D16*
X158684174Y-75862670D03*
D37*
X158684174Y-70782670D03*
D16*
X171362026Y-75862670D03*
D37*
X171362026Y-70782670D03*
D16*
X184039878Y-75862670D03*
D37*
X184039878Y-70782670D03*
D16*
X196717730Y-75862670D03*
D37*
X196717730Y-70782670D03*
D16*
X209395582Y-75862670D03*
D37*
X209395582Y-70782670D03*
D16*
X234643922Y-75862670D03*
D37*
X234643922Y-70782670D03*
D16*
X269364481Y-74209141D03*
D37*
X269364481Y-69129141D03*
D16*
X98464377Y-77516199D03*
D37*
X98464377Y-72436199D03*
D16*
X111142229Y-77516199D03*
D37*
X111142229Y-72436199D03*
D16*
X123820081Y-77516199D03*
D37*
X123820081Y-72436199D03*
D16*
X136497933Y-77516199D03*
D37*
X136497933Y-72436199D03*
D16*
X149175785Y-77516199D03*
D37*
X149175785Y-72436199D03*
D16*
X161853637Y-77516199D03*
D37*
X161853637Y-72436199D03*
D16*
X174531489Y-77516199D03*
D37*
X174531489Y-72436199D03*
D16*
X187209341Y-77516199D03*
D37*
X187209341Y-72436199D03*
D16*
X199887193Y-77516199D03*
D37*
X199887193Y-72436199D03*
D16*
X212565045Y-77516199D03*
D37*
X212565045Y-72436199D03*
D16*
X222038442Y-75862670D03*
D37*
X222038442Y-70782670D03*
D16*
X237794695Y-77516199D03*
D37*
X237794695Y-72436199D03*
D16*
X266089606Y-72555612D03*
D37*
X266089606Y-67475612D03*
D16*
X259788058Y-75862670D03*
D37*
X259788058Y-70782670D03*
D16*
X76278136Y-72555612D03*
D37*
X76278136Y-67475612D03*
D16*
X256637284Y-74209141D03*
D37*
X256637284Y-69129141D03*
D16*
X253486511Y-72555612D03*
D37*
X253486511Y-67475612D03*
D16*
X250335738Y-77516199D03*
D37*
X250335738Y-72436199D03*
D16*
X225190409Y-77516199D03*
D37*
X225190409Y-72436199D03*
D16*
X244096241Y-74209141D03*
D37*
X244096241Y-69129141D03*
D16*
X240945468Y-72555612D03*
D37*
X240945468Y-67475612D03*
D16*
X262938832Y-77516199D03*
D37*
X262938832Y-72436199D03*
D16*
X247184965Y-75862670D03*
D37*
X247184965Y-70782670D03*
D16*
X286174982Y-78242196D03*
D37*
X286174982Y-73162196D03*
D16*
X283305310Y-78242196D03*
D37*
X283305310Y-73162196D03*
D14*
X234817573Y-162726640D03*
X120517573Y-162726640D03*
D13*
X234817573Y-177966640D03*
X120517573Y-177966640D03*
D17*
X90144600Y-152984200D03*
X316382400Y-152120600D03*
X322478400Y-103327200D03*
X203200000Y-168452800D03*
X354660309Y-80444750D03*
X354660309Y-61694750D03*
X57766382Y-61694750D03*
X57766382Y-80444750D03*
G36*
X63757367Y-171521197D02*
G01*
X63823141Y-171713307D01*
X63822756Y-171715270D01*
X63820864Y-171715918D01*
X63819616Y-171715110D01*
X63779886Y-171658921D01*
X63715675Y-171632965D01*
X63647427Y-171645883D01*
X63644976Y-171647447D01*
X63642978Y-171647536D01*
X63641902Y-171645850D01*
X63642414Y-171644423D01*
X63753989Y-171520507D01*
X63755891Y-171519889D01*
X63757367Y-171521197D01*
G37*
G36*
X70067178Y-171520615D02*
G01*
X70181638Y-171647736D01*
X70184222Y-171649613D01*
X70185035Y-171651440D01*
X70183859Y-171653058D01*
X70182231Y-171653058D01*
X70132689Y-171630962D01*
X70064227Y-171641427D01*
X70012143Y-171687374D01*
X70002422Y-171706908D01*
X70000755Y-171708013D01*
X69998964Y-171707122D01*
X69998760Y-171705310D01*
X70056863Y-171551543D01*
X70063742Y-171521507D01*
X70065104Y-171520041D01*
X70067178Y-171520615D01*
G37*
G36*
X70001333Y-170209443D02*
G01*
X70041653Y-170265217D01*
X70106131Y-170290498D01*
X70174618Y-170276789D01*
X70174655Y-170276974D01*
X70176012Y-170276896D01*
X70177110Y-170278568D01*
X70176599Y-170280021D01*
X70068009Y-170400622D01*
X70066107Y-170401240D01*
X70064638Y-170399952D01*
X69997827Y-170211283D01*
X69998191Y-170209316D01*
X70000076Y-170208648D01*
X70001333Y-170209443D01*
G37*
G36*
X63822290Y-170213378D02*
G01*
X63822515Y-170215190D01*
X63758130Y-170391129D01*
X63756306Y-170399494D01*
X63754960Y-170400973D01*
X63752866Y-170400406D01*
X63639430Y-170274422D01*
X63636635Y-170272392D01*
X63635821Y-170270565D01*
X63636996Y-170268947D01*
X63638599Y-170268936D01*
X63689820Y-170290928D01*
X63758132Y-170279508D01*
X63809569Y-170232836D01*
X63818836Y-170213634D01*
X63820489Y-170212508D01*
X63822290Y-170213378D01*
G37*
G36*
X344022419Y-93136580D02*
G01*
X344025546Y-93141684D01*
X344183406Y-93326514D01*
X344368237Y-93484374D01*
X344575480Y-93611373D01*
X344800044Y-93704390D01*
X344957796Y-93742264D01*
X344959247Y-93743641D01*
X344958780Y-93745586D01*
X344956956Y-93746174D01*
X344876798Y-93730955D01*
X344807576Y-93737758D01*
X344753254Y-93780724D01*
X344730784Y-93846235D01*
X344747353Y-93913715D01*
X344757020Y-93927939D01*
X344762402Y-93934766D01*
X344762567Y-93935012D01*
X344810678Y-94019189D01*
X344810670Y-94021189D01*
X344808933Y-94022181D01*
X344807237Y-94021226D01*
X344728444Y-93892647D01*
X344570584Y-93707816D01*
X344385753Y-93549956D01*
X344178510Y-93422957D01*
X343953946Y-93329940D01*
X343777726Y-93287633D01*
X343776275Y-93286256D01*
X343776742Y-93284311D01*
X343778514Y-93283714D01*
X343837598Y-93293336D01*
X343837887Y-93293405D01*
X343867918Y-93303019D01*
X343937453Y-93304703D01*
X343996605Y-93268680D01*
X344026893Y-93206395D01*
X344018728Y-93137862D01*
X344019516Y-93136023D01*
X344021502Y-93135787D01*
X344022419Y-93136580D01*
G37*
G36*
X284389600Y-69547847D02*
G01*
X284545512Y-69550296D01*
X284693736Y-69516348D01*
X284695648Y-69516937D01*
X284696095Y-69518886D01*
X284695312Y-69519949D01*
X284649812Y-69551060D01*
X284622852Y-69614854D01*
X284634661Y-69683100D01*
X284681501Y-69734135D01*
X284745501Y-69751939D01*
X284746902Y-69753367D01*
X284746366Y-69755294D01*
X284744965Y-69755866D01*
X284212111Y-69755866D01*
X284210379Y-69754866D01*
X284210379Y-69752866D01*
X284211548Y-69751947D01*
X284278560Y-69732271D01*
X284323915Y-69679928D01*
X284333772Y-69611375D01*
X284304985Y-69548341D01*
X284261663Y-69518293D01*
X284260810Y-69516485D01*
X284261950Y-69514841D01*
X284263311Y-69514715D01*
X284389600Y-69547847D01*
G37*
G36*
X278540976Y-65977034D02*
G01*
X278540651Y-65978908D01*
X278495754Y-66035860D01*
X278455038Y-66151800D01*
X278449468Y-66216114D01*
X278449468Y-66565856D01*
X278469658Y-66687158D01*
X278518042Y-66776829D01*
X278517985Y-66778828D01*
X278516224Y-66779778D01*
X278514767Y-66779085D01*
X278495885Y-66757171D01*
X278495284Y-66757689D01*
X278493319Y-66758062D01*
X278492465Y-66757481D01*
X278464693Y-66725320D01*
X278398274Y-66705693D01*
X278331783Y-66725094D01*
X278300832Y-66760373D01*
X278298938Y-66761015D01*
X278298855Y-66760974D01*
X278259355Y-66805698D01*
X278257459Y-66806334D01*
X278255960Y-66805010D01*
X278256285Y-66803136D01*
X278301182Y-66746184D01*
X278341898Y-66630244D01*
X278347468Y-66565930D01*
X278347468Y-66216188D01*
X278327278Y-66094886D01*
X278278894Y-66005215D01*
X278278951Y-66003216D01*
X278280712Y-66002266D01*
X278282169Y-66002959D01*
X278301051Y-66024873D01*
X278301652Y-66024355D01*
X278303617Y-66023982D01*
X278304471Y-66024563D01*
X278332243Y-66056724D01*
X278398662Y-66076351D01*
X278465153Y-66056950D01*
X278496104Y-66021671D01*
X278497998Y-66021029D01*
X278498081Y-66021070D01*
X278537581Y-65976346D01*
X278539477Y-65975710D01*
X278540976Y-65977034D01*
G37*
G36*
X275990976Y-65977034D02*
G01*
X275990651Y-65978908D01*
X275945754Y-66035860D01*
X275905038Y-66151800D01*
X275899468Y-66216114D01*
X275899468Y-66565856D01*
X275919658Y-66687158D01*
X275968042Y-66776829D01*
X275967985Y-66778828D01*
X275966224Y-66779778D01*
X275964767Y-66779085D01*
X275945885Y-66757171D01*
X275945284Y-66757689D01*
X275943319Y-66758062D01*
X275942465Y-66757481D01*
X275914693Y-66725320D01*
X275848274Y-66705693D01*
X275781783Y-66725094D01*
X275750832Y-66760373D01*
X275748938Y-66761015D01*
X275748855Y-66760974D01*
X275709355Y-66805698D01*
X275707459Y-66806334D01*
X275705960Y-66805010D01*
X275706285Y-66803136D01*
X275751182Y-66746184D01*
X275791898Y-66630244D01*
X275797468Y-66565930D01*
X275797468Y-66216188D01*
X275777278Y-66094886D01*
X275728894Y-66005215D01*
X275728951Y-66003216D01*
X275730712Y-66002266D01*
X275732169Y-66002959D01*
X275751051Y-66024873D01*
X275751652Y-66024355D01*
X275753617Y-66023982D01*
X275754471Y-66024563D01*
X275782243Y-66056724D01*
X275848662Y-66076351D01*
X275915153Y-66056950D01*
X275946104Y-66021671D01*
X275947998Y-66021029D01*
X275948081Y-66021070D01*
X275987581Y-65976346D01*
X275989477Y-65975710D01*
X275990976Y-65977034D01*
G37*
G36*
X275140976Y-65977034D02*
G01*
X275140651Y-65978908D01*
X275095754Y-66035860D01*
X275055038Y-66151800D01*
X275049468Y-66216114D01*
X275049468Y-66565856D01*
X275069658Y-66687158D01*
X275118042Y-66776829D01*
X275117985Y-66778828D01*
X275116224Y-66779778D01*
X275114767Y-66779085D01*
X275095885Y-66757171D01*
X275095284Y-66757689D01*
X275093319Y-66758062D01*
X275092465Y-66757481D01*
X275064693Y-66725320D01*
X274998274Y-66705693D01*
X274931783Y-66725094D01*
X274900832Y-66760373D01*
X274898938Y-66761015D01*
X274898855Y-66760974D01*
X274859355Y-66805698D01*
X274857459Y-66806334D01*
X274855960Y-66805010D01*
X274856285Y-66803136D01*
X274901182Y-66746184D01*
X274941898Y-66630244D01*
X274947468Y-66565930D01*
X274947468Y-66216188D01*
X274927278Y-66094886D01*
X274878894Y-66005215D01*
X274878951Y-66003216D01*
X274880712Y-66002266D01*
X274882169Y-66002959D01*
X274901051Y-66024873D01*
X274901652Y-66024355D01*
X274903617Y-66023982D01*
X274904471Y-66024563D01*
X274932243Y-66056724D01*
X274998662Y-66076351D01*
X275065153Y-66056950D01*
X275096104Y-66021671D01*
X275097998Y-66021029D01*
X275098081Y-66021070D01*
X275137581Y-65976346D01*
X275139477Y-65975710D01*
X275140976Y-65977034D01*
G37*
G36*
X279390976Y-65977034D02*
G01*
X279390651Y-65978908D01*
X279345754Y-66035860D01*
X279305038Y-66151800D01*
X279299468Y-66216114D01*
X279299468Y-66565856D01*
X279319658Y-66687158D01*
X279368042Y-66776829D01*
X279367985Y-66778828D01*
X279366224Y-66779778D01*
X279364767Y-66779085D01*
X279345885Y-66757171D01*
X279345284Y-66757689D01*
X279343319Y-66758062D01*
X279342465Y-66757481D01*
X279314693Y-66725320D01*
X279248274Y-66705693D01*
X279181783Y-66725094D01*
X279150832Y-66760373D01*
X279148938Y-66761015D01*
X279148855Y-66760974D01*
X279109355Y-66805698D01*
X279107459Y-66806334D01*
X279105960Y-66805010D01*
X279106285Y-66803136D01*
X279151182Y-66746184D01*
X279191898Y-66630244D01*
X279197468Y-66565930D01*
X279197468Y-66216188D01*
X279177278Y-66094886D01*
X279128894Y-66005215D01*
X279128951Y-66003216D01*
X279130712Y-66002266D01*
X279132169Y-66002959D01*
X279151051Y-66024873D01*
X279151652Y-66024355D01*
X279153617Y-66023982D01*
X279154471Y-66024563D01*
X279182243Y-66056724D01*
X279248662Y-66076351D01*
X279315153Y-66056950D01*
X279346104Y-66021671D01*
X279347998Y-66021029D01*
X279348081Y-66021070D01*
X279387581Y-65976346D01*
X279389477Y-65975710D01*
X279390976Y-65977034D01*
G37*
G36*
X280240976Y-65977034D02*
G01*
X280240651Y-65978908D01*
X280195754Y-66035860D01*
X280155038Y-66151800D01*
X280149468Y-66216114D01*
X280149468Y-66565856D01*
X280169658Y-66687158D01*
X280218042Y-66776829D01*
X280217985Y-66778828D01*
X280216224Y-66779778D01*
X280214767Y-66779085D01*
X280195885Y-66757171D01*
X280195284Y-66757689D01*
X280193319Y-66758062D01*
X280192465Y-66757481D01*
X280164693Y-66725320D01*
X280098274Y-66705693D01*
X280031783Y-66725094D01*
X280000832Y-66760373D01*
X279998938Y-66761015D01*
X279998855Y-66760974D01*
X279959355Y-66805698D01*
X279957459Y-66806334D01*
X279955960Y-66805010D01*
X279956285Y-66803136D01*
X280001182Y-66746184D01*
X280041898Y-66630244D01*
X280047468Y-66565930D01*
X280047468Y-66216188D01*
X280027278Y-66094886D01*
X279978894Y-66005215D01*
X279978951Y-66003216D01*
X279980712Y-66002266D01*
X279982169Y-66002959D01*
X280001051Y-66024873D01*
X280001652Y-66024355D01*
X280003617Y-66023982D01*
X280004471Y-66024563D01*
X280032243Y-66056724D01*
X280098662Y-66076351D01*
X280165153Y-66056950D01*
X280196104Y-66021671D01*
X280197998Y-66021029D01*
X280198081Y-66021070D01*
X280237581Y-65976346D01*
X280239477Y-65975710D01*
X280240976Y-65977034D01*
G37*
G36*
X276840976Y-65977034D02*
G01*
X276840651Y-65978908D01*
X276795754Y-66035860D01*
X276755038Y-66151800D01*
X276749468Y-66216114D01*
X276749468Y-66565856D01*
X276769658Y-66687158D01*
X276818042Y-66776829D01*
X276817985Y-66778828D01*
X276816224Y-66779778D01*
X276814767Y-66779085D01*
X276795885Y-66757171D01*
X276795284Y-66757689D01*
X276793319Y-66758062D01*
X276792465Y-66757481D01*
X276764693Y-66725320D01*
X276698274Y-66705693D01*
X276631783Y-66725094D01*
X276600832Y-66760373D01*
X276598938Y-66761015D01*
X276598855Y-66760974D01*
X276559355Y-66805698D01*
X276557459Y-66806334D01*
X276555960Y-66805010D01*
X276556285Y-66803136D01*
X276601182Y-66746184D01*
X276641898Y-66630244D01*
X276647468Y-66565930D01*
X276647468Y-66216188D01*
X276627278Y-66094886D01*
X276578894Y-66005215D01*
X276578951Y-66003216D01*
X276580712Y-66002266D01*
X276582169Y-66002959D01*
X276601051Y-66024873D01*
X276601652Y-66024355D01*
X276603617Y-66023982D01*
X276604471Y-66024563D01*
X276632243Y-66056724D01*
X276698662Y-66076351D01*
X276765153Y-66056950D01*
X276796104Y-66021671D01*
X276797998Y-66021029D01*
X276798081Y-66021070D01*
X276837581Y-65976346D01*
X276839477Y-65975710D01*
X276840976Y-65977034D01*
G37*
G36*
X277690976Y-65977034D02*
G01*
X277690651Y-65978908D01*
X277645754Y-66035860D01*
X277605038Y-66151800D01*
X277599468Y-66216114D01*
X277599468Y-66565856D01*
X277619658Y-66687158D01*
X277668042Y-66776829D01*
X277667985Y-66778828D01*
X277666224Y-66779778D01*
X277664767Y-66779085D01*
X277645885Y-66757171D01*
X277645284Y-66757689D01*
X277643319Y-66758062D01*
X277642465Y-66757481D01*
X277614693Y-66725320D01*
X277548274Y-66705693D01*
X277481783Y-66725094D01*
X277450832Y-66760373D01*
X277448938Y-66761015D01*
X277448855Y-66760974D01*
X277409355Y-66805698D01*
X277407459Y-66806334D01*
X277405960Y-66805010D01*
X277406285Y-66803136D01*
X277451182Y-66746184D01*
X277491898Y-66630244D01*
X277497468Y-66565930D01*
X277497468Y-66216188D01*
X277477278Y-66094886D01*
X277428894Y-66005215D01*
X277428951Y-66003216D01*
X277430712Y-66002266D01*
X277432169Y-66002959D01*
X277451051Y-66024873D01*
X277451652Y-66024355D01*
X277453617Y-66023982D01*
X277454471Y-66024563D01*
X277482243Y-66056724D01*
X277548662Y-66076351D01*
X277615153Y-66056950D01*
X277646104Y-66021671D01*
X277647998Y-66021029D01*
X277648081Y-66021070D01*
X277687581Y-65976346D01*
X277689477Y-65975710D01*
X277690976Y-65977034D01*
G37*
G36*
X276835976Y-64652034D02*
G01*
X276835651Y-64653908D01*
X276790754Y-64710860D01*
X276750038Y-64826800D01*
X276744468Y-64891114D01*
X276744468Y-65240856D01*
X276764658Y-65362158D01*
X276813042Y-65451829D01*
X276812985Y-65453828D01*
X276811224Y-65454778D01*
X276809767Y-65454085D01*
X276790885Y-65432171D01*
X276790284Y-65432689D01*
X276788319Y-65433062D01*
X276787465Y-65432481D01*
X276759693Y-65400320D01*
X276693274Y-65380693D01*
X276626783Y-65400094D01*
X276595832Y-65435373D01*
X276593938Y-65436015D01*
X276593855Y-65435974D01*
X276554355Y-65480698D01*
X276552459Y-65481334D01*
X276550960Y-65480010D01*
X276551285Y-65478136D01*
X276596182Y-65421184D01*
X276636898Y-65305244D01*
X276642468Y-65240930D01*
X276642468Y-64891188D01*
X276622278Y-64769886D01*
X276573894Y-64680215D01*
X276573951Y-64678216D01*
X276575712Y-64677266D01*
X276577169Y-64677959D01*
X276596051Y-64699873D01*
X276596652Y-64699355D01*
X276598617Y-64698982D01*
X276599471Y-64699563D01*
X276627243Y-64731724D01*
X276693662Y-64751351D01*
X276760153Y-64731950D01*
X276791104Y-64696671D01*
X276792998Y-64696029D01*
X276793081Y-64696070D01*
X276832581Y-64651346D01*
X276834477Y-64650710D01*
X276835976Y-64652034D01*
G37*
G36*
X275135976Y-64652034D02*
G01*
X275135651Y-64653908D01*
X275090754Y-64710860D01*
X275050038Y-64826800D01*
X275044468Y-64891114D01*
X275044468Y-65240856D01*
X275064658Y-65362158D01*
X275113042Y-65451829D01*
X275112985Y-65453828D01*
X275111224Y-65454778D01*
X275109767Y-65454085D01*
X275090885Y-65432171D01*
X275090284Y-65432689D01*
X275088319Y-65433062D01*
X275087465Y-65432481D01*
X275059693Y-65400320D01*
X274993274Y-65380693D01*
X274926783Y-65400094D01*
X274895832Y-65435373D01*
X274893938Y-65436015D01*
X274893855Y-65435974D01*
X274854355Y-65480698D01*
X274852459Y-65481334D01*
X274850960Y-65480010D01*
X274851285Y-65478136D01*
X274896182Y-65421184D01*
X274936898Y-65305244D01*
X274942468Y-65240930D01*
X274942468Y-64891188D01*
X274922278Y-64769886D01*
X274873894Y-64680215D01*
X274873951Y-64678216D01*
X274875712Y-64677266D01*
X274877169Y-64677959D01*
X274896051Y-64699873D01*
X274896652Y-64699355D01*
X274898617Y-64698982D01*
X274899471Y-64699563D01*
X274927243Y-64731724D01*
X274993662Y-64751351D01*
X275060153Y-64731950D01*
X275091104Y-64696671D01*
X275092998Y-64696029D01*
X275093081Y-64696070D01*
X275132581Y-64651346D01*
X275134477Y-64650710D01*
X275135976Y-64652034D01*
G37*
G36*
X279385976Y-64652034D02*
G01*
X279385651Y-64653908D01*
X279340754Y-64710860D01*
X279300038Y-64826800D01*
X279294468Y-64891114D01*
X279294468Y-65240856D01*
X279314658Y-65362158D01*
X279363042Y-65451829D01*
X279362985Y-65453828D01*
X279361224Y-65454778D01*
X279359767Y-65454085D01*
X279340885Y-65432171D01*
X279340284Y-65432689D01*
X279338319Y-65433062D01*
X279337465Y-65432481D01*
X279309693Y-65400320D01*
X279243274Y-65380693D01*
X279176783Y-65400094D01*
X279145832Y-65435373D01*
X279143938Y-65436015D01*
X279143855Y-65435974D01*
X279104355Y-65480698D01*
X279102459Y-65481334D01*
X279100960Y-65480010D01*
X279101285Y-65478136D01*
X279146182Y-65421184D01*
X279186898Y-65305244D01*
X279192468Y-65240930D01*
X279192468Y-64891188D01*
X279172278Y-64769886D01*
X279123894Y-64680215D01*
X279123951Y-64678216D01*
X279125712Y-64677266D01*
X279127169Y-64677959D01*
X279146051Y-64699873D01*
X279146652Y-64699355D01*
X279148617Y-64698982D01*
X279149471Y-64699563D01*
X279177243Y-64731724D01*
X279243662Y-64751351D01*
X279310153Y-64731950D01*
X279341104Y-64696671D01*
X279342998Y-64696029D01*
X279343081Y-64696070D01*
X279382581Y-64651346D01*
X279384477Y-64650710D01*
X279385976Y-64652034D01*
G37*
G36*
X277685976Y-64652034D02*
G01*
X277685651Y-64653908D01*
X277640754Y-64710860D01*
X277600038Y-64826800D01*
X277594468Y-64891114D01*
X277594468Y-65240856D01*
X277614658Y-65362158D01*
X277663042Y-65451829D01*
X277662985Y-65453828D01*
X277661224Y-65454778D01*
X277659767Y-65454085D01*
X277640885Y-65432171D01*
X277640284Y-65432689D01*
X277638319Y-65433062D01*
X277637465Y-65432481D01*
X277609693Y-65400320D01*
X277543274Y-65380693D01*
X277476783Y-65400094D01*
X277445832Y-65435373D01*
X277443938Y-65436015D01*
X277443855Y-65435974D01*
X277404355Y-65480698D01*
X277402459Y-65481334D01*
X277400960Y-65480010D01*
X277401285Y-65478136D01*
X277446182Y-65421184D01*
X277486898Y-65305244D01*
X277492468Y-65240930D01*
X277492468Y-64891188D01*
X277472278Y-64769886D01*
X277423894Y-64680215D01*
X277423951Y-64678216D01*
X277425712Y-64677266D01*
X277427169Y-64677959D01*
X277446051Y-64699873D01*
X277446652Y-64699355D01*
X277448617Y-64698982D01*
X277449471Y-64699563D01*
X277477243Y-64731724D01*
X277543662Y-64751351D01*
X277610153Y-64731950D01*
X277641104Y-64696671D01*
X277642998Y-64696029D01*
X277643081Y-64696070D01*
X277682581Y-64651346D01*
X277684477Y-64650710D01*
X277685976Y-64652034D01*
G37*
G36*
X275985976Y-64652034D02*
G01*
X275985651Y-64653908D01*
X275940754Y-64710860D01*
X275900038Y-64826800D01*
X275894468Y-64891114D01*
X275894468Y-65240856D01*
X275914658Y-65362158D01*
X275963042Y-65451829D01*
X275962985Y-65453828D01*
X275961224Y-65454778D01*
X275959767Y-65454085D01*
X275940885Y-65432171D01*
X275940284Y-65432689D01*
X275938319Y-65433062D01*
X275937465Y-65432481D01*
X275909693Y-65400320D01*
X275843274Y-65380693D01*
X275776783Y-65400094D01*
X275745832Y-65435373D01*
X275743938Y-65436015D01*
X275743855Y-65435974D01*
X275704355Y-65480698D01*
X275702459Y-65481334D01*
X275700960Y-65480010D01*
X275701285Y-65478136D01*
X275746182Y-65421184D01*
X275786898Y-65305244D01*
X275792468Y-65240930D01*
X275792468Y-64891188D01*
X275772278Y-64769886D01*
X275723894Y-64680215D01*
X275723951Y-64678216D01*
X275725712Y-64677266D01*
X275727169Y-64677959D01*
X275746051Y-64699873D01*
X275746652Y-64699355D01*
X275748617Y-64698982D01*
X275749471Y-64699563D01*
X275777243Y-64731724D01*
X275843662Y-64751351D01*
X275910153Y-64731950D01*
X275941104Y-64696671D01*
X275942998Y-64696029D01*
X275943081Y-64696070D01*
X275982581Y-64651346D01*
X275984477Y-64650710D01*
X275985976Y-64652034D01*
G37*
G36*
X278535976Y-64652034D02*
G01*
X278535651Y-64653908D01*
X278490754Y-64710860D01*
X278450038Y-64826800D01*
X278444468Y-64891114D01*
X278444468Y-65240856D01*
X278464658Y-65362158D01*
X278513042Y-65451829D01*
X278512985Y-65453828D01*
X278511224Y-65454778D01*
X278509767Y-65454085D01*
X278490885Y-65432171D01*
X278490284Y-65432689D01*
X278488319Y-65433062D01*
X278487465Y-65432481D01*
X278459693Y-65400320D01*
X278393274Y-65380693D01*
X278326783Y-65400094D01*
X278295832Y-65435373D01*
X278293938Y-65436015D01*
X278293855Y-65435974D01*
X278254355Y-65480698D01*
X278252459Y-65481334D01*
X278250960Y-65480010D01*
X278251285Y-65478136D01*
X278296182Y-65421184D01*
X278336898Y-65305244D01*
X278342468Y-65240930D01*
X278342468Y-64891188D01*
X278322278Y-64769886D01*
X278273894Y-64680215D01*
X278273951Y-64678216D01*
X278275712Y-64677266D01*
X278277169Y-64677959D01*
X278296051Y-64699873D01*
X278296652Y-64699355D01*
X278298617Y-64698982D01*
X278299471Y-64699563D01*
X278327243Y-64731724D01*
X278393662Y-64751351D01*
X278460153Y-64731950D01*
X278491104Y-64696671D01*
X278492998Y-64696029D01*
X278493081Y-64696070D01*
X278532581Y-64651346D01*
X278534477Y-64650710D01*
X278535976Y-64652034D01*
G37*
G36*
X280240974Y-64652036D02*
G01*
X280240649Y-64653910D01*
X280195754Y-64710860D01*
X280155038Y-64826800D01*
X280149468Y-64891114D01*
X280149468Y-65240856D01*
X280169658Y-65362158D01*
X280218042Y-65451829D01*
X280217985Y-65453828D01*
X280216224Y-65454778D01*
X280214767Y-65454085D01*
X280195553Y-65431786D01*
X280194589Y-65431969D01*
X280193734Y-65431388D01*
X280162230Y-65394908D01*
X280095810Y-65375283D01*
X280029320Y-65394686D01*
X279984146Y-65446178D01*
X279983477Y-65447602D01*
X279983166Y-65448076D01*
X279954357Y-65480696D01*
X279952461Y-65481332D01*
X279950962Y-65480008D01*
X279951287Y-65478134D01*
X279996182Y-65421184D01*
X280036898Y-65305244D01*
X280042468Y-65240930D01*
X280042468Y-64891188D01*
X280022278Y-64769886D01*
X279973894Y-64680215D01*
X279973951Y-64678216D01*
X279975712Y-64677266D01*
X279977169Y-64677959D01*
X279996383Y-64700258D01*
X279997347Y-64700075D01*
X279998202Y-64700656D01*
X280029706Y-64737136D01*
X280096126Y-64756761D01*
X280162616Y-64737358D01*
X280207790Y-64685866D01*
X280208459Y-64684442D01*
X280208770Y-64683968D01*
X280237579Y-64651348D01*
X280239475Y-64650712D01*
X280240974Y-64652036D01*
G37*
M02*
