G04 #@! TF.GenerationSoftware,KiCad,Pcbnew,(6.0.2)*
G04 #@! TF.CreationDate,2022-04-10T20:08:41+05:30*
G04 #@! TF.ProjectId,discipline-pcb,64697363-6970-46c6-996e-652d7063622e,rev?*
G04 #@! TF.SameCoordinates,Original*
G04 #@! TF.FileFunction,Legend,Bot*
G04 #@! TF.FilePolarity,Positive*
%FSLAX46Y46*%
G04 Gerber Fmt 4.6, Leading zero omitted, Abs format (unit mm)*
G04 Created by KiCad (PCBNEW (6.0.2)) date 2022-04-10 20:08:41*
%MOMM*%
%LPD*%
G01*
G04 APERTURE LIST*
%ADD10C,0.200000*%
%ADD11C,0.300000*%
G04 APERTURE END LIST*
D10*
X163872654Y-169715570D02*
X163996463Y-169777475D01*
X164244082Y-169777475D01*
X164367892Y-169715570D01*
X164429797Y-169653665D01*
X164491701Y-169529856D01*
X164491701Y-169158427D01*
X164429797Y-169034618D01*
X164367892Y-168972713D01*
X164244082Y-168910808D01*
X163996463Y-168910808D01*
X163872654Y-168972713D01*
X163129797Y-169777475D02*
X163253606Y-169715570D01*
X163315511Y-169653665D01*
X163377416Y-169529856D01*
X163377416Y-169158427D01*
X163315511Y-169034618D01*
X163253606Y-168972713D01*
X163129797Y-168910808D01*
X162944082Y-168910808D01*
X162820273Y-168972713D01*
X162758368Y-169034618D01*
X162696463Y-169158427D01*
X162696463Y-169529856D01*
X162758368Y-169653665D01*
X162820273Y-169715570D01*
X162944082Y-169777475D01*
X163129797Y-169777475D01*
X162201225Y-169715570D02*
X162077416Y-169777475D01*
X161829797Y-169777475D01*
X161705987Y-169715570D01*
X161644082Y-169591760D01*
X161644082Y-169529856D01*
X161705987Y-169406046D01*
X161829797Y-169344141D01*
X162015511Y-169344141D01*
X162139320Y-169282237D01*
X162201225Y-169158427D01*
X162201225Y-169096522D01*
X162139320Y-168972713D01*
X162015511Y-168910808D01*
X161829797Y-168910808D01*
X161705987Y-168972713D01*
X160591701Y-169715570D02*
X160715511Y-169777475D01*
X160963130Y-169777475D01*
X161086940Y-169715570D01*
X161148844Y-169591760D01*
X161148844Y-169096522D01*
X161086940Y-168972713D01*
X160963130Y-168910808D01*
X160715511Y-168910808D01*
X160591701Y-168972713D01*
X160529797Y-169096522D01*
X160529797Y-169220332D01*
X161148844Y-169344141D01*
X160096463Y-168910808D02*
X159786940Y-169777475D01*
X159477416Y-168910808D02*
X159786940Y-169777475D01*
X159910749Y-170086999D01*
X159972654Y-170148903D01*
X160096463Y-170210808D01*
X159167892Y-168910808D02*
X158672654Y-168910808D01*
X158982178Y-169777475D02*
X158982178Y-168663189D01*
X158920273Y-168539380D01*
X158796463Y-168477475D01*
X158672654Y-168477475D01*
X157682178Y-169777475D02*
X157682178Y-169096522D01*
X157744082Y-168972713D01*
X157867892Y-168910808D01*
X158115511Y-168910808D01*
X158239320Y-168972713D01*
X157682178Y-169715570D02*
X157805987Y-169777475D01*
X158115511Y-169777475D01*
X158239320Y-169715570D01*
X158301225Y-169591760D01*
X158301225Y-169467951D01*
X158239320Y-169344141D01*
X158115511Y-169282237D01*
X157805987Y-169282237D01*
X157682178Y-169220332D01*
X157063130Y-168910808D02*
X157063130Y-169777475D01*
X157063130Y-169034618D02*
X157001225Y-168972713D01*
X156877416Y-168910808D01*
X156691701Y-168910808D01*
X156567892Y-168972713D01*
X156505987Y-169096522D01*
X156505987Y-169777475D01*
X155886940Y-168910808D02*
X155886940Y-169777475D01*
X155886940Y-169034618D02*
X155825035Y-168972713D01*
X155701225Y-168910808D01*
X155515511Y-168910808D01*
X155391701Y-168972713D01*
X155329797Y-169096522D01*
X155329797Y-169777475D01*
X154710749Y-169777475D02*
X154710749Y-168910808D01*
X154710749Y-168477475D02*
X154772654Y-168539380D01*
X154710749Y-168601284D01*
X154648844Y-168539380D01*
X154710749Y-168477475D01*
X154710749Y-168601284D01*
X154277416Y-168910808D02*
X153782178Y-168910808D01*
X154091701Y-168477475D02*
X154091701Y-169591760D01*
X154029797Y-169715570D01*
X153905987Y-169777475D01*
X153782178Y-169777475D01*
X152791701Y-168910808D02*
X152791701Y-169777475D01*
X153348844Y-168910808D02*
X153348844Y-169591760D01*
X153286940Y-169715570D01*
X153163130Y-169777475D01*
X152977416Y-169777475D01*
X152853606Y-169715570D01*
X152791701Y-169653665D01*
X152358368Y-168910808D02*
X151863130Y-168910808D01*
X152172654Y-168477475D02*
X152172654Y-169591760D01*
X152110749Y-169715570D01*
X151986940Y-169777475D01*
X151863130Y-169777475D01*
X151615511Y-168910808D02*
X151120273Y-168910808D01*
X151429797Y-168477475D02*
X151429797Y-169591760D01*
X151367892Y-169715570D01*
X151244082Y-169777475D01*
X151120273Y-169777475D01*
X150686940Y-169777475D02*
X150686940Y-168910808D01*
X150686940Y-168477475D02*
X150748844Y-168539380D01*
X150686940Y-168601284D01*
X150625035Y-168539380D01*
X150686940Y-168477475D01*
X150686940Y-168601284D01*
X149139320Y-168601284D02*
X149077416Y-168539380D01*
X148953606Y-168477475D01*
X148644082Y-168477475D01*
X148520273Y-168539380D01*
X148458368Y-168601284D01*
X148396463Y-168725094D01*
X148396463Y-168848903D01*
X148458368Y-169034618D01*
X149201225Y-169777475D01*
X148396463Y-169777475D01*
X147591701Y-168477475D02*
X147467892Y-168477475D01*
X147344082Y-168539380D01*
X147282178Y-168601284D01*
X147220273Y-168725094D01*
X147158368Y-168972713D01*
X147158368Y-169282237D01*
X147220273Y-169529856D01*
X147282178Y-169653665D01*
X147344082Y-169715570D01*
X147467892Y-169777475D01*
X147591701Y-169777475D01*
X147715511Y-169715570D01*
X147777416Y-169653665D01*
X147839320Y-169529856D01*
X147901225Y-169282237D01*
X147901225Y-168972713D01*
X147839320Y-168725094D01*
X147777416Y-168601284D01*
X147715511Y-168539380D01*
X147591701Y-168477475D01*
X145920273Y-169777475D02*
X146663130Y-169777475D01*
X146291701Y-169777475D02*
X146291701Y-168477475D01*
X146415511Y-168663189D01*
X146539320Y-168786999D01*
X146663130Y-168848903D01*
X145301225Y-169777475D02*
X145053606Y-169777475D01*
X144929797Y-169715570D01*
X144867892Y-169653665D01*
X144744082Y-169467951D01*
X144682178Y-169220332D01*
X144682178Y-168725094D01*
X144744082Y-168601284D01*
X144805987Y-168539380D01*
X144929797Y-168477475D01*
X145177416Y-168477475D01*
X145301225Y-168539380D01*
X145363130Y-168601284D01*
X145425035Y-168725094D01*
X145425035Y-169034618D01*
X145363130Y-169158427D01*
X145301225Y-169220332D01*
X145177416Y-169282237D01*
X144929797Y-169282237D01*
X144805987Y-169220332D01*
X144744082Y-169158427D01*
X144682178Y-169034618D01*
X169258368Y-170570475D02*
X168825035Y-171870475D01*
X168391701Y-170570475D01*
X167277416Y-171870475D02*
X168020273Y-171870475D01*
X167648844Y-171870475D02*
X167648844Y-170570475D01*
X167772654Y-170756189D01*
X167896463Y-170879999D01*
X168020273Y-170941903D01*
X166720273Y-171746665D02*
X166658368Y-171808570D01*
X166720273Y-171870475D01*
X166782178Y-171808570D01*
X166720273Y-171746665D01*
X166720273Y-171870475D01*
X166163130Y-170694284D02*
X166101225Y-170632380D01*
X165977416Y-170570475D01*
X165667892Y-170570475D01*
X165544082Y-170632380D01*
X165482178Y-170694284D01*
X165420273Y-170818094D01*
X165420273Y-170941903D01*
X165482178Y-171127618D01*
X166225035Y-171870475D01*
X165420273Y-171870475D01*
X164305987Y-171870475D02*
X164305987Y-170570475D01*
X164305987Y-171808570D02*
X164429797Y-171870475D01*
X164677416Y-171870475D01*
X164801225Y-171808570D01*
X164863130Y-171746665D01*
X164925035Y-171622856D01*
X164925035Y-171251427D01*
X164863130Y-171127618D01*
X164801225Y-171065713D01*
X164677416Y-171003808D01*
X164429797Y-171003808D01*
X164305987Y-171065713D01*
X163686940Y-171003808D02*
X163686940Y-171870475D01*
X163686940Y-171127618D02*
X163625035Y-171065713D01*
X163501225Y-171003808D01*
X163315511Y-171003808D01*
X163191701Y-171065713D01*
X163129797Y-171189522D01*
X163129797Y-171870475D01*
X161520273Y-171870475D02*
X161520273Y-170570475D01*
X161520273Y-171065713D02*
X161396463Y-171003808D01*
X161148844Y-171003808D01*
X161025035Y-171065713D01*
X160963130Y-171127618D01*
X160901225Y-171251427D01*
X160901225Y-171622856D01*
X160963130Y-171746665D01*
X161025035Y-171808570D01*
X161148844Y-171870475D01*
X161396463Y-171870475D01*
X161520273Y-171808570D01*
X160467892Y-171003808D02*
X160158368Y-171870475D01*
X159848844Y-171003808D02*
X160158368Y-171870475D01*
X160282178Y-172179999D01*
X160344082Y-172241903D01*
X160467892Y-172303808D01*
X159539320Y-170570475D02*
X158796463Y-170570475D01*
X159167892Y-171870475D02*
X159167892Y-170570475D01*
X158363130Y-171870475D02*
X158363130Y-170570475D01*
X158363130Y-171189522D02*
X157620273Y-171189522D01*
X157620273Y-171870475D02*
X157620273Y-170570475D01*
X157001225Y-171189522D02*
X156567892Y-171189522D01*
X156382178Y-171870475D02*
X157001225Y-171870475D01*
X157001225Y-170570475D01*
X156382178Y-170570475D01*
X154834559Y-171189522D02*
X154401225Y-171189522D01*
X154215511Y-171870475D02*
X154834559Y-171870475D01*
X154834559Y-170570475D01*
X154215511Y-170570475D01*
X153658368Y-171870475D02*
X153658368Y-170570475D01*
X153225035Y-171499046D01*
X152791701Y-170570475D01*
X152791701Y-171870475D01*
X152172654Y-171870475D02*
X152172654Y-170570475D01*
X151677416Y-170570475D01*
X151553606Y-170632380D01*
X151491701Y-170694284D01*
X151429797Y-170818094D01*
X151429797Y-171003808D01*
X151491701Y-171127618D01*
X151553606Y-171189522D01*
X151677416Y-171251427D01*
X152172654Y-171251427D01*
X150872654Y-171189522D02*
X150439320Y-171189522D01*
X150253606Y-171870475D02*
X150872654Y-171870475D01*
X150872654Y-170570475D01*
X150253606Y-170570475D01*
X148953606Y-171870475D02*
X149386940Y-171251427D01*
X149696463Y-171870475D02*
X149696463Y-170570475D01*
X149201225Y-170570475D01*
X149077416Y-170632380D01*
X149015511Y-170694284D01*
X148953606Y-170818094D01*
X148953606Y-171003808D01*
X149015511Y-171127618D01*
X149077416Y-171189522D01*
X149201225Y-171251427D01*
X149696463Y-171251427D01*
X148148844Y-170570475D02*
X147901225Y-170570475D01*
X147777416Y-170632380D01*
X147653606Y-170756189D01*
X147591701Y-171003808D01*
X147591701Y-171437141D01*
X147653606Y-171684760D01*
X147777416Y-171808570D01*
X147901225Y-171870475D01*
X148148844Y-171870475D01*
X148272654Y-171808570D01*
X148396463Y-171684760D01*
X148458368Y-171437141D01*
X148458368Y-171003808D01*
X148396463Y-170756189D01*
X148272654Y-170632380D01*
X148148844Y-170570475D01*
X146291701Y-171870475D02*
X146725035Y-171251427D01*
X147034559Y-171870475D02*
X147034559Y-170570475D01*
X146539320Y-170570475D01*
X146415511Y-170632380D01*
X146353606Y-170694284D01*
X146291701Y-170818094D01*
X146291701Y-171003808D01*
X146353606Y-171127618D01*
X146415511Y-171189522D01*
X146539320Y-171251427D01*
X147034559Y-171251427D01*
X145796463Y-171003808D02*
X144867892Y-171003808D01*
X145425035Y-170446665D02*
X145796463Y-172118094D01*
X144991701Y-171560951D02*
X145920273Y-171560951D01*
X145363130Y-172118094D02*
X144991701Y-170446665D01*
X144558368Y-170570475D02*
X143691701Y-170570475D01*
X144248844Y-171870475D01*
X143134559Y-171870475D02*
X142886940Y-171870475D01*
X142763130Y-171808570D01*
X142701225Y-171746665D01*
X142577416Y-171560951D01*
X142515511Y-171313332D01*
X142515511Y-170818094D01*
X142577416Y-170694284D01*
X142639320Y-170632380D01*
X142763130Y-170570475D01*
X143010749Y-170570475D01*
X143134559Y-170632380D01*
X143196463Y-170694284D01*
X143258368Y-170818094D01*
X143258368Y-171127618D01*
X143196463Y-171251427D01*
X143134559Y-171313332D01*
X143010749Y-171375237D01*
X142763130Y-171375237D01*
X142639320Y-171313332D01*
X142577416Y-171251427D01*
X142515511Y-171127618D01*
X141772654Y-171127618D02*
X141896463Y-171065713D01*
X141958368Y-171003808D01*
X142020273Y-170879999D01*
X142020273Y-170818094D01*
X141958368Y-170694284D01*
X141896463Y-170632380D01*
X141772654Y-170570475D01*
X141525035Y-170570475D01*
X141401225Y-170632380D01*
X141339320Y-170694284D01*
X141277416Y-170818094D01*
X141277416Y-170879999D01*
X141339320Y-171003808D01*
X141401225Y-171065713D01*
X141525035Y-171127618D01*
X141772654Y-171127618D01*
X141896463Y-171189522D01*
X141958368Y-171251427D01*
X142020273Y-171375237D01*
X142020273Y-171622856D01*
X141958368Y-171746665D01*
X141896463Y-171808570D01*
X141772654Y-171870475D01*
X141525035Y-171870475D01*
X141401225Y-171808570D01*
X141339320Y-171746665D01*
X141277416Y-171622856D01*
X141277416Y-171375237D01*
X141339320Y-171251427D01*
X141401225Y-171189522D01*
X141525035Y-171127618D01*
X140163130Y-171003808D02*
X140163130Y-171870475D01*
X140472654Y-170508570D02*
X140782178Y-171437141D01*
X139977416Y-171437141D01*
D11*
X342660937Y-157500471D02*
X342089508Y-157500471D01*
X342446651Y-158500471D02*
X342446651Y-157214757D01*
X342375222Y-157071900D01*
X342232365Y-157000471D01*
X342089508Y-157000471D01*
X341375222Y-158500471D02*
X341518080Y-158429042D01*
X341589508Y-158357614D01*
X341660937Y-158214757D01*
X341660937Y-157786185D01*
X341589508Y-157643328D01*
X341518080Y-157571900D01*
X341375222Y-157500471D01*
X341160937Y-157500471D01*
X341018080Y-157571900D01*
X340946651Y-157643328D01*
X340875222Y-157786185D01*
X340875222Y-158214757D01*
X340946651Y-158357614D01*
X341018080Y-158429042D01*
X341160937Y-158500471D01*
X341375222Y-158500471D01*
X340018080Y-158500471D02*
X340160937Y-158429042D01*
X340232365Y-158286185D01*
X340232365Y-157000471D01*
X339232365Y-158500471D02*
X339375222Y-158429042D01*
X339446651Y-158286185D01*
X339446651Y-157000471D01*
X338446651Y-158500471D02*
X338589508Y-158429042D01*
X338660937Y-158357614D01*
X338732365Y-158214757D01*
X338732365Y-157786185D01*
X338660937Y-157643328D01*
X338589508Y-157571900D01*
X338446651Y-157500471D01*
X338232365Y-157500471D01*
X338089508Y-157571900D01*
X338018080Y-157643328D01*
X337946651Y-157786185D01*
X337946651Y-158214757D01*
X338018080Y-158357614D01*
X338089508Y-158429042D01*
X338232365Y-158500471D01*
X338446651Y-158500471D01*
X337446651Y-157500471D02*
X337160937Y-158500471D01*
X336875222Y-157786185D01*
X336589508Y-158500471D01*
X336303794Y-157500471D01*
X334803794Y-157500471D02*
X334232365Y-157500471D01*
X334589508Y-157000471D02*
X334589508Y-158286185D01*
X334518080Y-158429042D01*
X334375222Y-158500471D01*
X334232365Y-158500471D01*
X333732365Y-158500471D02*
X333732365Y-157000471D01*
X333089508Y-158500471D02*
X333089508Y-157714757D01*
X333160937Y-157571900D01*
X333303794Y-157500471D01*
X333518080Y-157500471D01*
X333660937Y-157571900D01*
X333732365Y-157643328D01*
X331803794Y-158429042D02*
X331946651Y-158500471D01*
X332232365Y-158500471D01*
X332375222Y-158429042D01*
X332446651Y-158286185D01*
X332446651Y-157714757D01*
X332375222Y-157571900D01*
X332232365Y-157500471D01*
X331946651Y-157500471D01*
X331803794Y-157571900D01*
X331732365Y-157714757D01*
X331732365Y-157857614D01*
X332446651Y-158000471D01*
X329303794Y-158500471D02*
X329303794Y-157714757D01*
X329375222Y-157571900D01*
X329518080Y-157500471D01*
X329803794Y-157500471D01*
X329946651Y-157571900D01*
X329303794Y-158429042D02*
X329446651Y-158500471D01*
X329803794Y-158500471D01*
X329946651Y-158429042D01*
X330018080Y-158286185D01*
X330018080Y-158143328D01*
X329946651Y-158000471D01*
X329803794Y-157929042D01*
X329446651Y-157929042D01*
X329303794Y-157857614D01*
X328589508Y-158500471D02*
X328589508Y-157500471D01*
X328589508Y-157786185D02*
X328518080Y-157643328D01*
X328446651Y-157571900D01*
X328303794Y-157500471D01*
X328160937Y-157500471D01*
X327660937Y-158500471D02*
X327660937Y-157500471D01*
X327660937Y-157786185D02*
X327589508Y-157643328D01*
X327518080Y-157571900D01*
X327375222Y-157500471D01*
X327232365Y-157500471D01*
X326518080Y-158500471D02*
X326660937Y-158429042D01*
X326732365Y-158357614D01*
X326803794Y-158214757D01*
X326803794Y-157786185D01*
X326732365Y-157643328D01*
X326660937Y-157571900D01*
X326518080Y-157500471D01*
X326303794Y-157500471D01*
X326160937Y-157571900D01*
X326089508Y-157643328D01*
X326018080Y-157786185D01*
X326018080Y-158214757D01*
X326089508Y-158357614D01*
X326160937Y-158429042D01*
X326303794Y-158500471D01*
X326518080Y-158500471D01*
X325518080Y-157500471D02*
X325232365Y-158500471D01*
X324946651Y-157786185D01*
X324660937Y-158500471D01*
X324375222Y-157500471D01*
X322446651Y-158500471D02*
X322589508Y-158429042D01*
X322660937Y-158357614D01*
X322732365Y-158214757D01*
X322732365Y-157786185D01*
X322660937Y-157643328D01*
X322589508Y-157571900D01*
X322446651Y-157500471D01*
X322232365Y-157500471D01*
X322089508Y-157571900D01*
X322018080Y-157643328D01*
X321946651Y-157786185D01*
X321946651Y-158214757D01*
X322018080Y-158357614D01*
X322089508Y-158429042D01*
X322232365Y-158500471D01*
X322446651Y-158500471D01*
X321303794Y-158500471D02*
X321303794Y-157500471D01*
X321303794Y-157786185D02*
X321232365Y-157643328D01*
X321160937Y-157571900D01*
X321018080Y-157500471D01*
X320875222Y-157500471D01*
X320375222Y-158500471D02*
X320375222Y-157500471D01*
X320375222Y-157000471D02*
X320446651Y-157071900D01*
X320375222Y-157143328D01*
X320303794Y-157071900D01*
X320375222Y-157000471D01*
X320375222Y-157143328D01*
X319089508Y-158429042D02*
X319232365Y-158500471D01*
X319518080Y-158500471D01*
X319660937Y-158429042D01*
X319732365Y-158286185D01*
X319732365Y-157714757D01*
X319660937Y-157571900D01*
X319518080Y-157500471D01*
X319232365Y-157500471D01*
X319089508Y-157571900D01*
X319018080Y-157714757D01*
X319018080Y-157857614D01*
X319732365Y-158000471D01*
X318375222Y-157500471D02*
X318375222Y-158500471D01*
X318375222Y-157643328D02*
X318303794Y-157571900D01*
X318160937Y-157500471D01*
X317946651Y-157500471D01*
X317803794Y-157571900D01*
X317732365Y-157714757D01*
X317732365Y-158500471D01*
X317232365Y-157500471D02*
X316660937Y-157500471D01*
X317018080Y-157000471D02*
X317018080Y-158286185D01*
X316946651Y-158429042D01*
X316803794Y-158500471D01*
X316660937Y-158500471D01*
X315518080Y-158500471D02*
X315518080Y-157714757D01*
X315589508Y-157571900D01*
X315732365Y-157500471D01*
X316018080Y-157500471D01*
X316160937Y-157571900D01*
X315518080Y-158429042D02*
X315660937Y-158500471D01*
X316018080Y-158500471D01*
X316160937Y-158429042D01*
X316232365Y-158286185D01*
X316232365Y-158143328D01*
X316160937Y-158000471D01*
X316018080Y-157929042D01*
X315660937Y-157929042D01*
X315518080Y-157857614D01*
X315018080Y-157500471D02*
X314446651Y-157500471D01*
X314803794Y-157000471D02*
X314803794Y-158286185D01*
X314732365Y-158429042D01*
X314589508Y-158500471D01*
X314446651Y-158500471D01*
X313946651Y-158500471D02*
X313946651Y-157500471D01*
X313946651Y-157000471D02*
X314018080Y-157071900D01*
X313946651Y-157143328D01*
X313875222Y-157071900D01*
X313946651Y-157000471D01*
X313946651Y-157143328D01*
X313018080Y-158500471D02*
X313160937Y-158429042D01*
X313232365Y-158357614D01*
X313303794Y-158214757D01*
X313303794Y-157786185D01*
X313232365Y-157643328D01*
X313160937Y-157571900D01*
X313018080Y-157500471D01*
X312803794Y-157500471D01*
X312660937Y-157571900D01*
X312589508Y-157643328D01*
X312518080Y-157786185D01*
X312518080Y-158214757D01*
X312589508Y-158357614D01*
X312660937Y-158429042D01*
X312803794Y-158500471D01*
X313018080Y-158500471D01*
X311875222Y-157500471D02*
X311875222Y-158500471D01*
X311875222Y-157643328D02*
X311803794Y-157571900D01*
X311660937Y-157500471D01*
X311446651Y-157500471D01*
X311303794Y-157571900D01*
X311232365Y-157714757D01*
X311232365Y-158500471D01*
X340089508Y-160915471D02*
X340089508Y-160129757D01*
X340160937Y-159986900D01*
X340303794Y-159915471D01*
X340589508Y-159915471D01*
X340732365Y-159986900D01*
X340089508Y-160844042D02*
X340232365Y-160915471D01*
X340589508Y-160915471D01*
X340732365Y-160844042D01*
X340803794Y-160701185D01*
X340803794Y-160558328D01*
X340732365Y-160415471D01*
X340589508Y-160344042D01*
X340232365Y-160344042D01*
X340089508Y-160272614D01*
X339375222Y-159915471D02*
X339375222Y-160915471D01*
X339375222Y-160058328D02*
X339303794Y-159986900D01*
X339160937Y-159915471D01*
X338946651Y-159915471D01*
X338803794Y-159986900D01*
X338732365Y-160129757D01*
X338732365Y-160915471D01*
X337375222Y-160915471D02*
X337375222Y-159415471D01*
X337375222Y-160844042D02*
X337518080Y-160915471D01*
X337803794Y-160915471D01*
X337946651Y-160844042D01*
X338018080Y-160772614D01*
X338089508Y-160629757D01*
X338089508Y-160201185D01*
X338018080Y-160058328D01*
X337946651Y-159986900D01*
X337803794Y-159915471D01*
X337518080Y-159915471D01*
X337375222Y-159986900D01*
X335518080Y-160915471D02*
X335518080Y-159915471D01*
X335518080Y-160058328D02*
X335446651Y-159986900D01*
X335303794Y-159915471D01*
X335089508Y-159915471D01*
X334946651Y-159986900D01*
X334875222Y-160129757D01*
X334875222Y-160915471D01*
X334875222Y-160129757D02*
X334803794Y-159986900D01*
X334660937Y-159915471D01*
X334446651Y-159915471D01*
X334303794Y-159986900D01*
X334232365Y-160129757D01*
X334232365Y-160915471D01*
X332875222Y-160915471D02*
X332875222Y-160129757D01*
X332946651Y-159986900D01*
X333089508Y-159915471D01*
X333375222Y-159915471D01*
X333518080Y-159986900D01*
X332875222Y-160844042D02*
X333018080Y-160915471D01*
X333375222Y-160915471D01*
X333518080Y-160844042D01*
X333589508Y-160701185D01*
X333589508Y-160558328D01*
X333518080Y-160415471D01*
X333375222Y-160344042D01*
X333018080Y-160344042D01*
X332875222Y-160272614D01*
X332375222Y-159915471D02*
X331803794Y-159915471D01*
X332160937Y-159415471D02*
X332160937Y-160701185D01*
X332089508Y-160844042D01*
X331946651Y-160915471D01*
X331803794Y-160915471D01*
X330660937Y-160844042D02*
X330803794Y-160915471D01*
X331089508Y-160915471D01*
X331232365Y-160844042D01*
X331303794Y-160772614D01*
X331375222Y-160629757D01*
X331375222Y-160201185D01*
X331303794Y-160058328D01*
X331232365Y-159986900D01*
X331089508Y-159915471D01*
X330803794Y-159915471D01*
X330660937Y-159986900D01*
X330018080Y-160915471D02*
X330018080Y-159415471D01*
X329375222Y-160915471D02*
X329375222Y-160129757D01*
X329446651Y-159986900D01*
X329589508Y-159915471D01*
X329803794Y-159915471D01*
X329946651Y-159986900D01*
X330018080Y-160058328D01*
X327660937Y-159915471D02*
X327375222Y-160915471D01*
X327089508Y-160201185D01*
X326803794Y-160915471D01*
X326518080Y-159915471D01*
X325946651Y-160915471D02*
X325946651Y-159915471D01*
X325946651Y-159415471D02*
X326018080Y-159486900D01*
X325946651Y-159558328D01*
X325875222Y-159486900D01*
X325946651Y-159415471D01*
X325946651Y-159558328D01*
X325446651Y-159915471D02*
X324875222Y-159915471D01*
X325232365Y-159415471D02*
X325232365Y-160701185D01*
X325160937Y-160844042D01*
X325018080Y-160915471D01*
X324875222Y-160915471D01*
X324375222Y-160915471D02*
X324375222Y-159415471D01*
X323732365Y-160915471D02*
X323732365Y-160129757D01*
X323803794Y-159986900D01*
X323946651Y-159915471D01*
X324160937Y-159915471D01*
X324303794Y-159986900D01*
X324375222Y-160058328D01*
X321660937Y-160915471D02*
X321803794Y-160844042D01*
X321875222Y-160701185D01*
X321875222Y-159415471D01*
X320518080Y-160844042D02*
X320660937Y-160915471D01*
X320946651Y-160915471D01*
X321089508Y-160844042D01*
X321160937Y-160701185D01*
X321160937Y-160129757D01*
X321089508Y-159986900D01*
X320946651Y-159915471D01*
X320660937Y-159915471D01*
X320518080Y-159986900D01*
X320446651Y-160129757D01*
X320446651Y-160272614D01*
X321160937Y-160415471D01*
X319160937Y-160915471D02*
X319160937Y-159415471D01*
X319160937Y-160844042D02*
X319303794Y-160915471D01*
X319589508Y-160915471D01*
X319732365Y-160844042D01*
X319803794Y-160772614D01*
X319875222Y-160629757D01*
X319875222Y-160201185D01*
X319803794Y-160058328D01*
X319732365Y-159986900D01*
X319589508Y-159915471D01*
X319303794Y-159915471D01*
X319160937Y-159986900D01*
X317375222Y-160844042D02*
X317232365Y-160915471D01*
X316946651Y-160915471D01*
X316803794Y-160844042D01*
X316732365Y-160701185D01*
X316732365Y-160629757D01*
X316803794Y-160486900D01*
X316946651Y-160415471D01*
X317160937Y-160415471D01*
X317303794Y-160344042D01*
X317375222Y-160201185D01*
X317375222Y-160129757D01*
X317303794Y-159986900D01*
X317160937Y-159915471D01*
X316946651Y-159915471D01*
X316803794Y-159986900D01*
X316303794Y-159915471D02*
X315732365Y-159915471D01*
X316089508Y-159415471D02*
X316089508Y-160701185D01*
X316018080Y-160844042D01*
X315875222Y-160915471D01*
X315732365Y-160915471D01*
X315232365Y-160915471D02*
X315232365Y-159915471D01*
X315232365Y-160201185D02*
X315160937Y-160058328D01*
X315089508Y-159986900D01*
X314946651Y-159915471D01*
X314803794Y-159915471D01*
X314303794Y-160915471D02*
X314303794Y-159915471D01*
X314303794Y-159415471D02*
X314375222Y-159486900D01*
X314303794Y-159558328D01*
X314232365Y-159486900D01*
X314303794Y-159415471D01*
X314303794Y-159558328D01*
X313589508Y-159915471D02*
X313589508Y-161415471D01*
X313589508Y-159986900D02*
X313446651Y-159915471D01*
X313160937Y-159915471D01*
X313018080Y-159986900D01*
X312946651Y-160058328D01*
X312875222Y-160201185D01*
X312875222Y-160629757D01*
X312946651Y-160772614D01*
X313018080Y-160844042D01*
X313160937Y-160915471D01*
X313446651Y-160915471D01*
X313589508Y-160844042D01*
X59411620Y-101575751D02*
X60554477Y-102004322D01*
X59411620Y-102432894D01*
X58697334Y-102004322D02*
X57554477Y-102004322D01*
X56840191Y-102004322D02*
X55697334Y-102004322D01*
X54268762Y-101075751D02*
X54983048Y-101075751D01*
X55054477Y-101790037D01*
X54983048Y-101718608D01*
X54840191Y-101647180D01*
X54483048Y-101647180D01*
X54340191Y-101718608D01*
X54268762Y-101790037D01*
X54197334Y-101932894D01*
X54197334Y-102290037D01*
X54268762Y-102432894D01*
X54340191Y-102504322D01*
X54483048Y-102575751D01*
X54840191Y-102575751D01*
X54983048Y-102504322D01*
X55054477Y-102432894D01*
X96035500Y-120811171D02*
X96035500Y-121811171D01*
X96392642Y-120239742D02*
X96749785Y-121311171D01*
X95821214Y-121311171D01*
X95249785Y-121239742D02*
X94106928Y-121239742D01*
X93392642Y-121239742D02*
X92249785Y-121239742D01*
X91535500Y-120811171D02*
X90392642Y-121239742D01*
X91535500Y-121668314D01*
X101929154Y-140422891D02*
X101000582Y-140422891D01*
X101500582Y-140994320D01*
X101286297Y-140994320D01*
X101143440Y-141065748D01*
X101072011Y-141137177D01*
X101000582Y-141280034D01*
X101000582Y-141637177D01*
X101072011Y-141780034D01*
X101143440Y-141851462D01*
X101286297Y-141922891D01*
X101714868Y-141922891D01*
X101857725Y-141851462D01*
X101929154Y-141780034D01*
X100357725Y-141351462D02*
X99214868Y-141351462D01*
X98500582Y-141351462D02*
X97357725Y-141351462D01*
X96643440Y-140922891D02*
X95500582Y-141351462D01*
X96643440Y-141780034D01*
X352243305Y-158155248D02*
X352171877Y-158083820D01*
X352029020Y-158012391D01*
X351671877Y-158012391D01*
X351529020Y-158083820D01*
X351457591Y-158155248D01*
X351386162Y-158298105D01*
X351386162Y-158440962D01*
X351457591Y-158655248D01*
X352314734Y-159512391D01*
X351386162Y-159512391D01*
X350743305Y-158940962D02*
X349600448Y-158940962D01*
X348886162Y-158940962D02*
X347743305Y-158940962D01*
X347029020Y-158512391D02*
X345886162Y-158940962D01*
X347029020Y-159369534D01*
X331849480Y-94524711D02*
X332992337Y-94953282D01*
X331849480Y-95381854D01*
X331135194Y-94953282D02*
X329992337Y-94953282D01*
X329278051Y-94953282D02*
X328135194Y-94953282D01*
X326635194Y-95524711D02*
X327492337Y-95524711D01*
X327063765Y-95524711D02*
X327063765Y-94024711D01*
X327206622Y-94238997D01*
X327349480Y-94381854D01*
X327492337Y-94453282D01*
X344062865Y-98027842D02*
X343920008Y-98099271D01*
X343634294Y-98099271D01*
X343491437Y-98027842D01*
X343420008Y-97884985D01*
X343420008Y-97813557D01*
X343491437Y-97670700D01*
X343634294Y-97599271D01*
X343848580Y-97599271D01*
X343991437Y-97527842D01*
X344062865Y-97384985D01*
X344062865Y-97313557D01*
X343991437Y-97170700D01*
X343848580Y-97099271D01*
X343634294Y-97099271D01*
X343491437Y-97170700D01*
X342991437Y-97099271D02*
X342420008Y-97099271D01*
X342777151Y-96599271D02*
X342777151Y-97884985D01*
X342705722Y-98027842D01*
X342562865Y-98099271D01*
X342420008Y-98099271D01*
X341277151Y-98099271D02*
X341277151Y-97313557D01*
X341348580Y-97170700D01*
X341491437Y-97099271D01*
X341777151Y-97099271D01*
X341920008Y-97170700D01*
X341277151Y-98027842D02*
X341420008Y-98099271D01*
X341777151Y-98099271D01*
X341920008Y-98027842D01*
X341991437Y-97884985D01*
X341991437Y-97742128D01*
X341920008Y-97599271D01*
X341777151Y-97527842D01*
X341420008Y-97527842D01*
X341277151Y-97456414D01*
X340562865Y-98099271D02*
X340562865Y-97099271D01*
X340562865Y-97384985D02*
X340491437Y-97242128D01*
X340420008Y-97170700D01*
X340277151Y-97099271D01*
X340134294Y-97099271D01*
X339848580Y-97099271D02*
X339277151Y-97099271D01*
X339634294Y-96599271D02*
X339634294Y-97884985D01*
X339562865Y-98027842D01*
X339420008Y-98099271D01*
X339277151Y-98099271D01*
X337634294Y-98099271D02*
X337634294Y-96599271D01*
X336991437Y-98099271D02*
X336991437Y-97313557D01*
X337062865Y-97170700D01*
X337205722Y-97099271D01*
X337420008Y-97099271D01*
X337562865Y-97170700D01*
X337634294Y-97242128D01*
X335705722Y-98027842D02*
X335848580Y-98099271D01*
X336134294Y-98099271D01*
X336277151Y-98027842D01*
X336348580Y-97884985D01*
X336348580Y-97313557D01*
X336277151Y-97170700D01*
X336134294Y-97099271D01*
X335848580Y-97099271D01*
X335705722Y-97170700D01*
X335634294Y-97313557D01*
X335634294Y-97456414D01*
X336348580Y-97599271D01*
X334991437Y-98099271D02*
X334991437Y-97099271D01*
X334991437Y-97384985D02*
X334920008Y-97242128D01*
X334848580Y-97170700D01*
X334705722Y-97099271D01*
X334562865Y-97099271D01*
X333491437Y-98027842D02*
X333634294Y-98099271D01*
X333920008Y-98099271D01*
X334062865Y-98027842D01*
X334134294Y-97884985D01*
X334134294Y-97313557D01*
X334062865Y-97170700D01*
X333920008Y-97099271D01*
X333634294Y-97099271D01*
X333491437Y-97170700D01*
X333420008Y-97313557D01*
X333420008Y-97456414D01*
X334134294Y-97599271D01*
X331777151Y-97099271D02*
X331491437Y-98099271D01*
X331205722Y-97384985D01*
X330920008Y-98099271D01*
X330634294Y-97099271D01*
X330062865Y-98099271D02*
X330062865Y-97099271D01*
X330062865Y-96599271D02*
X330134294Y-96670700D01*
X330062865Y-96742128D01*
X329991437Y-96670700D01*
X330062865Y-96599271D01*
X330062865Y-96742128D01*
X329562865Y-97099271D02*
X328991437Y-97099271D01*
X329348580Y-96599271D02*
X329348580Y-97884985D01*
X329277151Y-98027842D01*
X329134294Y-98099271D01*
X328991437Y-98099271D01*
X328491437Y-98099271D02*
X328491437Y-96599271D01*
X327848580Y-98099271D02*
X327848580Y-97313557D01*
X327920008Y-97170700D01*
X328062865Y-97099271D01*
X328277151Y-97099271D01*
X328420008Y-97170700D01*
X328491437Y-97242128D01*
X349705722Y-100514271D02*
X349705722Y-99728557D01*
X349777151Y-99585700D01*
X349920008Y-99514271D01*
X350205722Y-99514271D01*
X350348580Y-99585700D01*
X349705722Y-100442842D02*
X349848580Y-100514271D01*
X350205722Y-100514271D01*
X350348580Y-100442842D01*
X350420008Y-100299985D01*
X350420008Y-100157128D01*
X350348580Y-100014271D01*
X350205722Y-99942842D01*
X349848580Y-99942842D01*
X349705722Y-99871414D01*
X348991437Y-100514271D02*
X348991437Y-99514271D01*
X348991437Y-99799985D02*
X348920008Y-99657128D01*
X348848580Y-99585700D01*
X348705722Y-99514271D01*
X348562865Y-99514271D01*
X348062865Y-100514271D02*
X348062865Y-99514271D01*
X348062865Y-99799985D02*
X347991437Y-99657128D01*
X347920008Y-99585700D01*
X347777151Y-99514271D01*
X347634294Y-99514271D01*
X346920008Y-100514271D02*
X347062865Y-100442842D01*
X347134294Y-100371414D01*
X347205722Y-100228557D01*
X347205722Y-99799985D01*
X347134294Y-99657128D01*
X347062865Y-99585700D01*
X346920008Y-99514271D01*
X346705722Y-99514271D01*
X346562865Y-99585700D01*
X346491437Y-99657128D01*
X346420008Y-99799985D01*
X346420008Y-100228557D01*
X346491437Y-100371414D01*
X346562865Y-100442842D01*
X346705722Y-100514271D01*
X346920008Y-100514271D01*
X345920008Y-99514271D02*
X345634294Y-100514271D01*
X345348580Y-99799985D01*
X345062865Y-100514271D01*
X344777151Y-99514271D01*
X343062865Y-99514271D02*
X343062865Y-101014271D01*
X343062865Y-99585700D02*
X342920008Y-99514271D01*
X342634294Y-99514271D01*
X342491437Y-99585700D01*
X342420008Y-99657128D01*
X342348580Y-99799985D01*
X342348580Y-100228557D01*
X342420008Y-100371414D01*
X342491437Y-100442842D01*
X342634294Y-100514271D01*
X342920008Y-100514271D01*
X343062865Y-100442842D01*
X341491437Y-100514271D02*
X341634294Y-100442842D01*
X341705722Y-100371414D01*
X341777151Y-100228557D01*
X341777151Y-99799985D01*
X341705722Y-99657128D01*
X341634294Y-99585700D01*
X341491437Y-99514271D01*
X341277151Y-99514271D01*
X341134294Y-99585700D01*
X341062865Y-99657128D01*
X340991437Y-99799985D01*
X340991437Y-100228557D01*
X341062865Y-100371414D01*
X341134294Y-100442842D01*
X341277151Y-100514271D01*
X341491437Y-100514271D01*
X340348580Y-100514271D02*
X340348580Y-99514271D01*
X340348580Y-99014271D02*
X340420008Y-99085700D01*
X340348580Y-99157128D01*
X340277151Y-99085700D01*
X340348580Y-99014271D01*
X340348580Y-99157128D01*
X339634294Y-99514271D02*
X339634294Y-100514271D01*
X339634294Y-99657128D02*
X339562865Y-99585700D01*
X339420008Y-99514271D01*
X339205722Y-99514271D01*
X339062865Y-99585700D01*
X338991437Y-99728557D01*
X338991437Y-100514271D01*
X338491437Y-99514271D02*
X337920008Y-99514271D01*
X338277151Y-99014271D02*
X338277151Y-100299985D01*
X338205722Y-100442842D01*
X338062865Y-100514271D01*
X337920008Y-100514271D01*
X337420008Y-100514271D02*
X337420008Y-99514271D01*
X337420008Y-99014271D02*
X337491437Y-99085700D01*
X337420008Y-99157128D01*
X337348580Y-99085700D01*
X337420008Y-99014271D01*
X337420008Y-99157128D01*
X336705722Y-99514271D02*
X336705722Y-100514271D01*
X336705722Y-99657128D02*
X336634294Y-99585700D01*
X336491437Y-99514271D01*
X336277151Y-99514271D01*
X336134294Y-99585700D01*
X336062865Y-99728557D01*
X336062865Y-100514271D01*
X334705722Y-99514271D02*
X334705722Y-100728557D01*
X334777151Y-100871414D01*
X334848580Y-100942842D01*
X334991437Y-101014271D01*
X335205722Y-101014271D01*
X335348580Y-100942842D01*
X334705722Y-100442842D02*
X334848580Y-100514271D01*
X335134294Y-100514271D01*
X335277151Y-100442842D01*
X335348580Y-100371414D01*
X335420008Y-100228557D01*
X335420008Y-99799985D01*
X335348580Y-99657128D01*
X335277151Y-99585700D01*
X335134294Y-99514271D01*
X334848580Y-99514271D01*
X334705722Y-99585700D01*
X332205722Y-100514271D02*
X332205722Y-99014271D01*
X332205722Y-100442842D02*
X332348580Y-100514271D01*
X332634294Y-100514271D01*
X332777151Y-100442842D01*
X332848580Y-100371414D01*
X332920008Y-100228557D01*
X332920008Y-99799985D01*
X332848580Y-99657128D01*
X332777151Y-99585700D01*
X332634294Y-99514271D01*
X332348580Y-99514271D01*
X332205722Y-99585700D01*
X331277151Y-100514271D02*
X331420008Y-100442842D01*
X331491437Y-100371414D01*
X331562865Y-100228557D01*
X331562865Y-99799985D01*
X331491437Y-99657128D01*
X331420008Y-99585700D01*
X331277151Y-99514271D01*
X331062865Y-99514271D01*
X330920008Y-99585700D01*
X330848580Y-99657128D01*
X330777151Y-99799985D01*
X330777151Y-100228557D01*
X330848580Y-100371414D01*
X330920008Y-100442842D01*
X331062865Y-100514271D01*
X331277151Y-100514271D01*
X330277151Y-99514271D02*
X329991437Y-100514271D01*
X329705722Y-99799985D01*
X329420008Y-100514271D01*
X329134294Y-99514271D01*
X328562865Y-99514271D02*
X328562865Y-100514271D01*
X328562865Y-99657128D02*
X328491437Y-99585700D01*
X328348580Y-99514271D01*
X328134294Y-99514271D01*
X327991437Y-99585700D01*
X327920008Y-99728557D01*
X327920008Y-100514271D01*
X327348580Y-99514271D02*
X327062865Y-100514271D01*
X326777151Y-99799985D01*
X326491437Y-100514271D01*
X326205722Y-99514271D01*
X324991437Y-100514271D02*
X324991437Y-99728557D01*
X325062865Y-99585700D01*
X325205722Y-99514271D01*
X325491437Y-99514271D01*
X325634294Y-99585700D01*
X324991437Y-100442842D02*
X325134294Y-100514271D01*
X325491437Y-100514271D01*
X325634294Y-100442842D01*
X325705722Y-100299985D01*
X325705722Y-100157128D01*
X325634294Y-100014271D01*
X325491437Y-99942842D01*
X325134294Y-99942842D01*
X324991437Y-99871414D01*
X324277151Y-100514271D02*
X324277151Y-99514271D01*
X324277151Y-99799985D02*
X324205722Y-99657128D01*
X324134294Y-99585700D01*
X323991437Y-99514271D01*
X323848580Y-99514271D01*
X322705722Y-100514271D02*
X322705722Y-99014271D01*
X322705722Y-100442842D02*
X322848580Y-100514271D01*
X323134294Y-100514271D01*
X323277151Y-100442842D01*
X323348580Y-100371414D01*
X323420008Y-100228557D01*
X323420008Y-99799985D01*
X323348580Y-99657128D01*
X323277151Y-99585700D01*
X323134294Y-99514271D01*
X322848580Y-99514271D01*
X322705722Y-99585700D01*
X322062865Y-100442842D02*
X321920008Y-100514271D01*
X321634294Y-100514271D01*
X321491437Y-100442842D01*
X321420008Y-100299985D01*
X321420008Y-100228557D01*
X321491437Y-100085700D01*
X321634294Y-100014271D01*
X321848580Y-100014271D01*
X321991437Y-99942842D01*
X322062865Y-99799985D01*
X322062865Y-99728557D01*
X321991437Y-99585700D01*
X321848580Y-99514271D01*
X321634294Y-99514271D01*
X321491437Y-99585700D01*
M02*
