%TF.GenerationSoftware,KiCad,Pcbnew,(6.0.6)*%
%TF.CreationDate,2023-05-08T18:10:17+05:30*%
%TF.ProjectId,discipline-pcb,64697363-6970-46c6-996e-652d7063622e,rev?*%
%TF.SameCoordinates,Original*%
%TF.FileFunction,Legend,Bot*%
%TF.FilePolarity,Positive*%
%FSLAX46Y46*%
G04 Gerber Fmt 4.6, Leading zero omitted, Abs format (unit mm)*
G04 Created by KiCad (PCBNEW (6.0.6)) date 2023-05-08 18:10:17*
%MOMM*%
%LPD*%
G01*
G04 APERTURE LIST*
%ADD10C,0.300000*%
%ADD11C,0.200000*%
G04 APERTURE END LIST*
D10*
X338091428Y-106840000D02*
X337662857Y-107982857D01*
X337234285Y-106840000D01*
X337662857Y-106125714D02*
X337662857Y-104982857D01*
X337662857Y-104268571D02*
X337662857Y-103125714D01*
X337091428Y-101625714D02*
X337091428Y-102482857D01*
X337091428Y-102054285D02*
X338591428Y-102054285D01*
X338377142Y-102197142D01*
X338234285Y-102340000D01*
X338162857Y-102482857D01*
X309734285Y-158361428D02*
X309662857Y-158290000D01*
X309520000Y-158218571D01*
X309162857Y-158218571D01*
X309020000Y-158290000D01*
X308948571Y-158361428D01*
X308877142Y-158504285D01*
X308877142Y-158647142D01*
X308948571Y-158861428D01*
X309805714Y-159718571D01*
X308877142Y-159718571D01*
X308234285Y-159147142D02*
X307091428Y-159147142D01*
X306377142Y-159147142D02*
X305234285Y-159147142D01*
X304520000Y-158718571D02*
X303377142Y-159147142D01*
X304520000Y-159575714D01*
X91445714Y-139308571D02*
X90517142Y-139308571D01*
X91017142Y-139880000D01*
X90802857Y-139880000D01*
X90660000Y-139951428D01*
X90588571Y-140022857D01*
X90517142Y-140165714D01*
X90517142Y-140522857D01*
X90588571Y-140665714D01*
X90660000Y-140737142D01*
X90802857Y-140808571D01*
X91231428Y-140808571D01*
X91374285Y-140737142D01*
X91445714Y-140665714D01*
X89874285Y-140237142D02*
X88731428Y-140237142D01*
X88017142Y-140237142D02*
X86874285Y-140237142D01*
X86160000Y-139808571D02*
X85017142Y-140237142D01*
X86160000Y-140665714D01*
X83190000Y-120368571D02*
X83190000Y-121368571D01*
X83547142Y-119797142D02*
X83904285Y-120868571D01*
X82975714Y-120868571D01*
X82404285Y-120797142D02*
X81261428Y-120797142D01*
X80547142Y-120797142D02*
X79404285Y-120797142D01*
X78690000Y-120368571D02*
X77547142Y-120797142D01*
X78690000Y-121225714D01*
X68980000Y-101568571D02*
X70122857Y-101997142D01*
X68980000Y-102425714D01*
X68265714Y-101997142D02*
X67122857Y-101997142D01*
X66408571Y-101997142D02*
X65265714Y-101997142D01*
X63837142Y-101068571D02*
X64551428Y-101068571D01*
X64622857Y-101782857D01*
X64551428Y-101711428D01*
X64408571Y-101640000D01*
X64051428Y-101640000D01*
X63908571Y-101711428D01*
X63837142Y-101782857D01*
X63765714Y-101925714D01*
X63765714Y-102282857D01*
X63837142Y-102425714D01*
X63908571Y-102497142D01*
X64051428Y-102568571D01*
X64408571Y-102568571D01*
X64551428Y-102497142D01*
X64622857Y-102425714D01*
X342660937Y-157500471D02*
X342089508Y-157500471D01*
X342446651Y-158500471D02*
X342446651Y-157214757D01*
X342375222Y-157071900D01*
X342232365Y-157000471D01*
X342089508Y-157000471D01*
X341375222Y-158500471D02*
X341518080Y-158429042D01*
X341589508Y-158357614D01*
X341660937Y-158214757D01*
X341660937Y-157786185D01*
X341589508Y-157643328D01*
X341518080Y-157571900D01*
X341375222Y-157500471D01*
X341160937Y-157500471D01*
X341018080Y-157571900D01*
X340946651Y-157643328D01*
X340875222Y-157786185D01*
X340875222Y-158214757D01*
X340946651Y-158357614D01*
X341018080Y-158429042D01*
X341160937Y-158500471D01*
X341375222Y-158500471D01*
X340018080Y-158500471D02*
X340160937Y-158429042D01*
X340232365Y-158286185D01*
X340232365Y-157000471D01*
X339232365Y-158500471D02*
X339375222Y-158429042D01*
X339446651Y-158286185D01*
X339446651Y-157000471D01*
X338446651Y-158500471D02*
X338589508Y-158429042D01*
X338660937Y-158357614D01*
X338732365Y-158214757D01*
X338732365Y-157786185D01*
X338660937Y-157643328D01*
X338589508Y-157571900D01*
X338446651Y-157500471D01*
X338232365Y-157500471D01*
X338089508Y-157571900D01*
X338018080Y-157643328D01*
X337946651Y-157786185D01*
X337946651Y-158214757D01*
X338018080Y-158357614D01*
X338089508Y-158429042D01*
X338232365Y-158500471D01*
X338446651Y-158500471D01*
X337446651Y-157500471D02*
X337160937Y-158500471D01*
X336875222Y-157786185D01*
X336589508Y-158500471D01*
X336303794Y-157500471D01*
X334803794Y-157500471D02*
X334232365Y-157500471D01*
X334589508Y-157000471D02*
X334589508Y-158286185D01*
X334518080Y-158429042D01*
X334375222Y-158500471D01*
X334232365Y-158500471D01*
X333732365Y-158500471D02*
X333732365Y-157000471D01*
X333089508Y-158500471D02*
X333089508Y-157714757D01*
X333160937Y-157571900D01*
X333303794Y-157500471D01*
X333518080Y-157500471D01*
X333660937Y-157571900D01*
X333732365Y-157643328D01*
X331803794Y-158429042D02*
X331946651Y-158500471D01*
X332232365Y-158500471D01*
X332375222Y-158429042D01*
X332446651Y-158286185D01*
X332446651Y-157714757D01*
X332375222Y-157571900D01*
X332232365Y-157500471D01*
X331946651Y-157500471D01*
X331803794Y-157571900D01*
X331732365Y-157714757D01*
X331732365Y-157857614D01*
X332446651Y-158000471D01*
X329303794Y-158500471D02*
X329303794Y-157714757D01*
X329375222Y-157571900D01*
X329518080Y-157500471D01*
X329803794Y-157500471D01*
X329946651Y-157571900D01*
X329303794Y-158429042D02*
X329446651Y-158500471D01*
X329803794Y-158500471D01*
X329946651Y-158429042D01*
X330018080Y-158286185D01*
X330018080Y-158143328D01*
X329946651Y-158000471D01*
X329803794Y-157929042D01*
X329446651Y-157929042D01*
X329303794Y-157857614D01*
X328589508Y-158500471D02*
X328589508Y-157500471D01*
X328589508Y-157786185D02*
X328518080Y-157643328D01*
X328446651Y-157571900D01*
X328303794Y-157500471D01*
X328160937Y-157500471D01*
X327660937Y-158500471D02*
X327660937Y-157500471D01*
X327660937Y-157786185D02*
X327589508Y-157643328D01*
X327518080Y-157571900D01*
X327375222Y-157500471D01*
X327232365Y-157500471D01*
X326518080Y-158500471D02*
X326660937Y-158429042D01*
X326732365Y-158357614D01*
X326803794Y-158214757D01*
X326803794Y-157786185D01*
X326732365Y-157643328D01*
X326660937Y-157571900D01*
X326518080Y-157500471D01*
X326303794Y-157500471D01*
X326160937Y-157571900D01*
X326089508Y-157643328D01*
X326018080Y-157786185D01*
X326018080Y-158214757D01*
X326089508Y-158357614D01*
X326160937Y-158429042D01*
X326303794Y-158500471D01*
X326518080Y-158500471D01*
X325518080Y-157500471D02*
X325232365Y-158500471D01*
X324946651Y-157786185D01*
X324660937Y-158500471D01*
X324375222Y-157500471D01*
X322446651Y-158500471D02*
X322589508Y-158429042D01*
X322660937Y-158357614D01*
X322732365Y-158214757D01*
X322732365Y-157786185D01*
X322660937Y-157643328D01*
X322589508Y-157571900D01*
X322446651Y-157500471D01*
X322232365Y-157500471D01*
X322089508Y-157571900D01*
X322018080Y-157643328D01*
X321946651Y-157786185D01*
X321946651Y-158214757D01*
X322018080Y-158357614D01*
X322089508Y-158429042D01*
X322232365Y-158500471D01*
X322446651Y-158500471D01*
X321303794Y-158500471D02*
X321303794Y-157500471D01*
X321303794Y-157786185D02*
X321232365Y-157643328D01*
X321160937Y-157571900D01*
X321018080Y-157500471D01*
X320875222Y-157500471D01*
X320375222Y-158500471D02*
X320375222Y-157500471D01*
X320375222Y-157000471D02*
X320446651Y-157071900D01*
X320375222Y-157143328D01*
X320303794Y-157071900D01*
X320375222Y-157000471D01*
X320375222Y-157143328D01*
X319089508Y-158429042D02*
X319232365Y-158500471D01*
X319518080Y-158500471D01*
X319660937Y-158429042D01*
X319732365Y-158286185D01*
X319732365Y-157714757D01*
X319660937Y-157571900D01*
X319518080Y-157500471D01*
X319232365Y-157500471D01*
X319089508Y-157571900D01*
X319018080Y-157714757D01*
X319018080Y-157857614D01*
X319732365Y-158000471D01*
X318375222Y-157500471D02*
X318375222Y-158500471D01*
X318375222Y-157643328D02*
X318303794Y-157571900D01*
X318160937Y-157500471D01*
X317946651Y-157500471D01*
X317803794Y-157571900D01*
X317732365Y-157714757D01*
X317732365Y-158500471D01*
X317232365Y-157500471D02*
X316660937Y-157500471D01*
X317018080Y-157000471D02*
X317018080Y-158286185D01*
X316946651Y-158429042D01*
X316803794Y-158500471D01*
X316660937Y-158500471D01*
X315518080Y-158500471D02*
X315518080Y-157714757D01*
X315589508Y-157571900D01*
X315732365Y-157500471D01*
X316018080Y-157500471D01*
X316160937Y-157571900D01*
X315518080Y-158429042D02*
X315660937Y-158500471D01*
X316018080Y-158500471D01*
X316160937Y-158429042D01*
X316232365Y-158286185D01*
X316232365Y-158143328D01*
X316160937Y-158000471D01*
X316018080Y-157929042D01*
X315660937Y-157929042D01*
X315518080Y-157857614D01*
X315018080Y-157500471D02*
X314446651Y-157500471D01*
X314803794Y-157000471D02*
X314803794Y-158286185D01*
X314732365Y-158429042D01*
X314589508Y-158500471D01*
X314446651Y-158500471D01*
X313946651Y-158500471D02*
X313946651Y-157500471D01*
X313946651Y-157000471D02*
X314018080Y-157071900D01*
X313946651Y-157143328D01*
X313875222Y-157071900D01*
X313946651Y-157000471D01*
X313946651Y-157143328D01*
X313018080Y-158500471D02*
X313160937Y-158429042D01*
X313232365Y-158357614D01*
X313303794Y-158214757D01*
X313303794Y-157786185D01*
X313232365Y-157643328D01*
X313160937Y-157571900D01*
X313018080Y-157500471D01*
X312803794Y-157500471D01*
X312660937Y-157571900D01*
X312589508Y-157643328D01*
X312518080Y-157786185D01*
X312518080Y-158214757D01*
X312589508Y-158357614D01*
X312660937Y-158429042D01*
X312803794Y-158500471D01*
X313018080Y-158500471D01*
X311875222Y-157500471D02*
X311875222Y-158500471D01*
X311875222Y-157643328D02*
X311803794Y-157571900D01*
X311660937Y-157500471D01*
X311446651Y-157500471D01*
X311303794Y-157571900D01*
X311232365Y-157714757D01*
X311232365Y-158500471D01*
X340089508Y-160915471D02*
X340089508Y-160129757D01*
X340160937Y-159986900D01*
X340303794Y-159915471D01*
X340589508Y-159915471D01*
X340732365Y-159986900D01*
X340089508Y-160844042D02*
X340232365Y-160915471D01*
X340589508Y-160915471D01*
X340732365Y-160844042D01*
X340803794Y-160701185D01*
X340803794Y-160558328D01*
X340732365Y-160415471D01*
X340589508Y-160344042D01*
X340232365Y-160344042D01*
X340089508Y-160272614D01*
X339375222Y-159915471D02*
X339375222Y-160915471D01*
X339375222Y-160058328D02*
X339303794Y-159986900D01*
X339160937Y-159915471D01*
X338946651Y-159915471D01*
X338803794Y-159986900D01*
X338732365Y-160129757D01*
X338732365Y-160915471D01*
X337375222Y-160915471D02*
X337375222Y-159415471D01*
X337375222Y-160844042D02*
X337518080Y-160915471D01*
X337803794Y-160915471D01*
X337946651Y-160844042D01*
X338018080Y-160772614D01*
X338089508Y-160629757D01*
X338089508Y-160201185D01*
X338018080Y-160058328D01*
X337946651Y-159986900D01*
X337803794Y-159915471D01*
X337518080Y-159915471D01*
X337375222Y-159986900D01*
X335518080Y-160915471D02*
X335518080Y-159915471D01*
X335518080Y-160058328D02*
X335446651Y-159986900D01*
X335303794Y-159915471D01*
X335089508Y-159915471D01*
X334946651Y-159986900D01*
X334875222Y-160129757D01*
X334875222Y-160915471D01*
X334875222Y-160129757D02*
X334803794Y-159986900D01*
X334660937Y-159915471D01*
X334446651Y-159915471D01*
X334303794Y-159986900D01*
X334232365Y-160129757D01*
X334232365Y-160915471D01*
X332875222Y-160915471D02*
X332875222Y-160129757D01*
X332946651Y-159986900D01*
X333089508Y-159915471D01*
X333375222Y-159915471D01*
X333518080Y-159986900D01*
X332875222Y-160844042D02*
X333018080Y-160915471D01*
X333375222Y-160915471D01*
X333518080Y-160844042D01*
X333589508Y-160701185D01*
X333589508Y-160558328D01*
X333518080Y-160415471D01*
X333375222Y-160344042D01*
X333018080Y-160344042D01*
X332875222Y-160272614D01*
X332375222Y-159915471D02*
X331803794Y-159915471D01*
X332160937Y-159415471D02*
X332160937Y-160701185D01*
X332089508Y-160844042D01*
X331946651Y-160915471D01*
X331803794Y-160915471D01*
X330660937Y-160844042D02*
X330803794Y-160915471D01*
X331089508Y-160915471D01*
X331232365Y-160844042D01*
X331303794Y-160772614D01*
X331375222Y-160629757D01*
X331375222Y-160201185D01*
X331303794Y-160058328D01*
X331232365Y-159986900D01*
X331089508Y-159915471D01*
X330803794Y-159915471D01*
X330660937Y-159986900D01*
X330018080Y-160915471D02*
X330018080Y-159415471D01*
X329375222Y-160915471D02*
X329375222Y-160129757D01*
X329446651Y-159986900D01*
X329589508Y-159915471D01*
X329803794Y-159915471D01*
X329946651Y-159986900D01*
X330018080Y-160058328D01*
X327660937Y-159915471D02*
X327375222Y-160915471D01*
X327089508Y-160201185D01*
X326803794Y-160915471D01*
X326518080Y-159915471D01*
X325946651Y-160915471D02*
X325946651Y-159915471D01*
X325946651Y-159415471D02*
X326018080Y-159486900D01*
X325946651Y-159558328D01*
X325875222Y-159486900D01*
X325946651Y-159415471D01*
X325946651Y-159558328D01*
X325446651Y-159915471D02*
X324875222Y-159915471D01*
X325232365Y-159415471D02*
X325232365Y-160701185D01*
X325160937Y-160844042D01*
X325018080Y-160915471D01*
X324875222Y-160915471D01*
X324375222Y-160915471D02*
X324375222Y-159415471D01*
X323732365Y-160915471D02*
X323732365Y-160129757D01*
X323803794Y-159986900D01*
X323946651Y-159915471D01*
X324160937Y-159915471D01*
X324303794Y-159986900D01*
X324375222Y-160058328D01*
X321660937Y-160915471D02*
X321803794Y-160844042D01*
X321875222Y-160701185D01*
X321875222Y-159415471D01*
X320518080Y-160844042D02*
X320660937Y-160915471D01*
X320946651Y-160915471D01*
X321089508Y-160844042D01*
X321160937Y-160701185D01*
X321160937Y-160129757D01*
X321089508Y-159986900D01*
X320946651Y-159915471D01*
X320660937Y-159915471D01*
X320518080Y-159986900D01*
X320446651Y-160129757D01*
X320446651Y-160272614D01*
X321160937Y-160415471D01*
X319160937Y-160915471D02*
X319160937Y-159415471D01*
X319160937Y-160844042D02*
X319303794Y-160915471D01*
X319589508Y-160915471D01*
X319732365Y-160844042D01*
X319803794Y-160772614D01*
X319875222Y-160629757D01*
X319875222Y-160201185D01*
X319803794Y-160058328D01*
X319732365Y-159986900D01*
X319589508Y-159915471D01*
X319303794Y-159915471D01*
X319160937Y-159986900D01*
X317375222Y-160844042D02*
X317232365Y-160915471D01*
X316946651Y-160915471D01*
X316803794Y-160844042D01*
X316732365Y-160701185D01*
X316732365Y-160629757D01*
X316803794Y-160486900D01*
X316946651Y-160415471D01*
X317160937Y-160415471D01*
X317303794Y-160344042D01*
X317375222Y-160201185D01*
X317375222Y-160129757D01*
X317303794Y-159986900D01*
X317160937Y-159915471D01*
X316946651Y-159915471D01*
X316803794Y-159986900D01*
X316303794Y-159915471D02*
X315732365Y-159915471D01*
X316089508Y-159415471D02*
X316089508Y-160701185D01*
X316018080Y-160844042D01*
X315875222Y-160915471D01*
X315732365Y-160915471D01*
X315232365Y-160915471D02*
X315232365Y-159915471D01*
X315232365Y-160201185D02*
X315160937Y-160058328D01*
X315089508Y-159986900D01*
X314946651Y-159915471D01*
X314803794Y-159915471D01*
X314303794Y-160915471D02*
X314303794Y-159915471D01*
X314303794Y-159415471D02*
X314375222Y-159486900D01*
X314303794Y-159558328D01*
X314232365Y-159486900D01*
X314303794Y-159415471D01*
X314303794Y-159558328D01*
X313589508Y-159915471D02*
X313589508Y-161415471D01*
X313589508Y-159986900D02*
X313446651Y-159915471D01*
X313160937Y-159915471D01*
X313018080Y-159986900D01*
X312946651Y-160058328D01*
X312875222Y-160201185D01*
X312875222Y-160629757D01*
X312946651Y-160772614D01*
X313018080Y-160844042D01*
X313160937Y-160915471D01*
X313446651Y-160915471D01*
X313589508Y-160844042D01*
D11*
X163872654Y-169715570D02*
X163996463Y-169777475D01*
X164244082Y-169777475D01*
X164367892Y-169715570D01*
X164429797Y-169653665D01*
X164491701Y-169529856D01*
X164491701Y-169158427D01*
X164429797Y-169034618D01*
X164367892Y-168972713D01*
X164244082Y-168910808D01*
X163996463Y-168910808D01*
X163872654Y-168972713D01*
X163129797Y-169777475D02*
X163253606Y-169715570D01*
X163315511Y-169653665D01*
X163377416Y-169529856D01*
X163377416Y-169158427D01*
X163315511Y-169034618D01*
X163253606Y-168972713D01*
X163129797Y-168910808D01*
X162944082Y-168910808D01*
X162820273Y-168972713D01*
X162758368Y-169034618D01*
X162696463Y-169158427D01*
X162696463Y-169529856D01*
X162758368Y-169653665D01*
X162820273Y-169715570D01*
X162944082Y-169777475D01*
X163129797Y-169777475D01*
X162201225Y-169715570D02*
X162077416Y-169777475D01*
X161829797Y-169777475D01*
X161705987Y-169715570D01*
X161644082Y-169591760D01*
X161644082Y-169529856D01*
X161705987Y-169406046D01*
X161829797Y-169344141D01*
X162015511Y-169344141D01*
X162139320Y-169282237D01*
X162201225Y-169158427D01*
X162201225Y-169096522D01*
X162139320Y-168972713D01*
X162015511Y-168910808D01*
X161829797Y-168910808D01*
X161705987Y-168972713D01*
X160591701Y-169715570D02*
X160715511Y-169777475D01*
X160963130Y-169777475D01*
X161086940Y-169715570D01*
X161148844Y-169591760D01*
X161148844Y-169096522D01*
X161086940Y-168972713D01*
X160963130Y-168910808D01*
X160715511Y-168910808D01*
X160591701Y-168972713D01*
X160529797Y-169096522D01*
X160529797Y-169220332D01*
X161148844Y-169344141D01*
X160096463Y-168910808D02*
X159786940Y-169777475D01*
X159477416Y-168910808D02*
X159786940Y-169777475D01*
X159910749Y-170086999D01*
X159972654Y-170148903D01*
X160096463Y-170210808D01*
X159167892Y-168910808D02*
X158672654Y-168910808D01*
X158982178Y-169777475D02*
X158982178Y-168663189D01*
X158920273Y-168539380D01*
X158796463Y-168477475D01*
X158672654Y-168477475D01*
X157682178Y-169777475D02*
X157682178Y-169096522D01*
X157744082Y-168972713D01*
X157867892Y-168910808D01*
X158115511Y-168910808D01*
X158239320Y-168972713D01*
X157682178Y-169715570D02*
X157805987Y-169777475D01*
X158115511Y-169777475D01*
X158239320Y-169715570D01*
X158301225Y-169591760D01*
X158301225Y-169467951D01*
X158239320Y-169344141D01*
X158115511Y-169282237D01*
X157805987Y-169282237D01*
X157682178Y-169220332D01*
X157063130Y-168910808D02*
X157063130Y-169777475D01*
X157063130Y-169034618D02*
X157001225Y-168972713D01*
X156877416Y-168910808D01*
X156691701Y-168910808D01*
X156567892Y-168972713D01*
X156505987Y-169096522D01*
X156505987Y-169777475D01*
X155886940Y-168910808D02*
X155886940Y-169777475D01*
X155886940Y-169034618D02*
X155825035Y-168972713D01*
X155701225Y-168910808D01*
X155515511Y-168910808D01*
X155391701Y-168972713D01*
X155329797Y-169096522D01*
X155329797Y-169777475D01*
X154710749Y-169777475D02*
X154710749Y-168910808D01*
X154710749Y-168477475D02*
X154772654Y-168539380D01*
X154710749Y-168601284D01*
X154648844Y-168539380D01*
X154710749Y-168477475D01*
X154710749Y-168601284D01*
X154277416Y-168910808D02*
X153782178Y-168910808D01*
X154091701Y-168477475D02*
X154091701Y-169591760D01*
X154029797Y-169715570D01*
X153905987Y-169777475D01*
X153782178Y-169777475D01*
X152791701Y-168910808D02*
X152791701Y-169777475D01*
X153348844Y-168910808D02*
X153348844Y-169591760D01*
X153286940Y-169715570D01*
X153163130Y-169777475D01*
X152977416Y-169777475D01*
X152853606Y-169715570D01*
X152791701Y-169653665D01*
X152358368Y-168910808D02*
X151863130Y-168910808D01*
X152172654Y-168477475D02*
X152172654Y-169591760D01*
X152110749Y-169715570D01*
X151986940Y-169777475D01*
X151863130Y-169777475D01*
X151615511Y-168910808D02*
X151120273Y-168910808D01*
X151429797Y-168477475D02*
X151429797Y-169591760D01*
X151367892Y-169715570D01*
X151244082Y-169777475D01*
X151120273Y-169777475D01*
X150686940Y-169777475D02*
X150686940Y-168910808D01*
X150686940Y-168477475D02*
X150748844Y-168539380D01*
X150686940Y-168601284D01*
X150625035Y-168539380D01*
X150686940Y-168477475D01*
X150686940Y-168601284D01*
X149139320Y-168601284D02*
X149077416Y-168539380D01*
X148953606Y-168477475D01*
X148644082Y-168477475D01*
X148520273Y-168539380D01*
X148458368Y-168601284D01*
X148396463Y-168725094D01*
X148396463Y-168848903D01*
X148458368Y-169034618D01*
X149201225Y-169777475D01*
X148396463Y-169777475D01*
X147591701Y-168477475D02*
X147467892Y-168477475D01*
X147344082Y-168539380D01*
X147282178Y-168601284D01*
X147220273Y-168725094D01*
X147158368Y-168972713D01*
X147158368Y-169282237D01*
X147220273Y-169529856D01*
X147282178Y-169653665D01*
X147344082Y-169715570D01*
X147467892Y-169777475D01*
X147591701Y-169777475D01*
X147715511Y-169715570D01*
X147777416Y-169653665D01*
X147839320Y-169529856D01*
X147901225Y-169282237D01*
X147901225Y-168972713D01*
X147839320Y-168725094D01*
X147777416Y-168601284D01*
X147715511Y-168539380D01*
X147591701Y-168477475D01*
X145920273Y-169777475D02*
X146663130Y-169777475D01*
X146291701Y-169777475D02*
X146291701Y-168477475D01*
X146415511Y-168663189D01*
X146539320Y-168786999D01*
X146663130Y-168848903D01*
X145301225Y-169777475D02*
X145053606Y-169777475D01*
X144929797Y-169715570D01*
X144867892Y-169653665D01*
X144744082Y-169467951D01*
X144682178Y-169220332D01*
X144682178Y-168725094D01*
X144744082Y-168601284D01*
X144805987Y-168539380D01*
X144929797Y-168477475D01*
X145177416Y-168477475D01*
X145301225Y-168539380D01*
X145363130Y-168601284D01*
X145425035Y-168725094D01*
X145425035Y-169034618D01*
X145363130Y-169158427D01*
X145301225Y-169220332D01*
X145177416Y-169282237D01*
X144929797Y-169282237D01*
X144805987Y-169220332D01*
X144744082Y-169158427D01*
X144682178Y-169034618D01*
X169753606Y-170570475D02*
X169320273Y-171870475D01*
X168886940Y-170570475D01*
X167772654Y-171870475D02*
X168515511Y-171870475D01*
X168144082Y-171870475D02*
X168144082Y-170570475D01*
X168267892Y-170756189D01*
X168391701Y-170879999D01*
X168515511Y-170941903D01*
X167215511Y-171746665D02*
X167153606Y-171808570D01*
X167215511Y-171870475D01*
X167277416Y-171808570D01*
X167215511Y-171746665D01*
X167215511Y-171870475D01*
X166658368Y-170694284D02*
X166596463Y-170632380D01*
X166472654Y-170570475D01*
X166163130Y-170570475D01*
X166039320Y-170632380D01*
X165977416Y-170694284D01*
X165915511Y-170818094D01*
X165915511Y-170941903D01*
X165977416Y-171127618D01*
X166720273Y-171870475D01*
X165915511Y-171870475D01*
X164801225Y-171870475D02*
X164801225Y-170570475D01*
X164801225Y-171808570D02*
X164925035Y-171870475D01*
X165172654Y-171870475D01*
X165296463Y-171808570D01*
X165358368Y-171746665D01*
X165420273Y-171622856D01*
X165420273Y-171251427D01*
X165358368Y-171127618D01*
X165296463Y-171065713D01*
X165172654Y-171003808D01*
X164925035Y-171003808D01*
X164801225Y-171065713D01*
X164182178Y-171003808D02*
X164182178Y-171870475D01*
X164182178Y-171127618D02*
X164120273Y-171065713D01*
X163996463Y-171003808D01*
X163810749Y-171003808D01*
X163686940Y-171065713D01*
X163625035Y-171189522D01*
X163625035Y-171870475D01*
X162015511Y-171870475D02*
X162015511Y-170570475D01*
X162015511Y-171065713D02*
X161891701Y-171003808D01*
X161644082Y-171003808D01*
X161520273Y-171065713D01*
X161458368Y-171127618D01*
X161396463Y-171251427D01*
X161396463Y-171622856D01*
X161458368Y-171746665D01*
X161520273Y-171808570D01*
X161644082Y-171870475D01*
X161891701Y-171870475D01*
X162015511Y-171808570D01*
X160963130Y-171003808D02*
X160653606Y-171870475D01*
X160344082Y-171003808D02*
X160653606Y-171870475D01*
X160777416Y-172179999D01*
X160839320Y-172241903D01*
X160963130Y-172303808D01*
X159044082Y-170570475D02*
X158301225Y-170570475D01*
X158672654Y-171870475D02*
X158672654Y-170570475D01*
X157867892Y-171870475D02*
X157867892Y-170570475D01*
X157867892Y-171189522D02*
X157125035Y-171189522D01*
X157125035Y-171870475D02*
X157125035Y-170570475D01*
X156505987Y-171189522D02*
X156072654Y-171189522D01*
X155886940Y-171870475D02*
X156505987Y-171870475D01*
X156505987Y-170570475D01*
X155886940Y-170570475D01*
X154339320Y-171189522D02*
X153905987Y-171189522D01*
X153720273Y-171870475D02*
X154339320Y-171870475D01*
X154339320Y-170570475D01*
X153720273Y-170570475D01*
X153163130Y-171870475D02*
X153163130Y-170570475D01*
X152729797Y-171499046D01*
X152296463Y-170570475D01*
X152296463Y-171870475D01*
X151677416Y-171870475D02*
X151677416Y-170570475D01*
X151182178Y-170570475D01*
X151058368Y-170632380D01*
X150996463Y-170694284D01*
X150934559Y-170818094D01*
X150934559Y-171003808D01*
X150996463Y-171127618D01*
X151058368Y-171189522D01*
X151182178Y-171251427D01*
X151677416Y-171251427D01*
X150377416Y-171189522D02*
X149944082Y-171189522D01*
X149758368Y-171870475D02*
X150377416Y-171870475D01*
X150377416Y-170570475D01*
X149758368Y-170570475D01*
X148458368Y-171870475D02*
X148891701Y-171251427D01*
X149201225Y-171870475D02*
X149201225Y-170570475D01*
X148705987Y-170570475D01*
X148582178Y-170632380D01*
X148520273Y-170694284D01*
X148458368Y-170818094D01*
X148458368Y-171003808D01*
X148520273Y-171127618D01*
X148582178Y-171189522D01*
X148705987Y-171251427D01*
X149201225Y-171251427D01*
X147653606Y-170570475D02*
X147405987Y-170570475D01*
X147282178Y-170632380D01*
X147158368Y-170756189D01*
X147096463Y-171003808D01*
X147096463Y-171437141D01*
X147158368Y-171684760D01*
X147282178Y-171808570D01*
X147405987Y-171870475D01*
X147653606Y-171870475D01*
X147777416Y-171808570D01*
X147901225Y-171684760D01*
X147963130Y-171437141D01*
X147963130Y-171003808D01*
X147901225Y-170756189D01*
X147777416Y-170632380D01*
X147653606Y-170570475D01*
X145796463Y-171870475D02*
X146229797Y-171251427D01*
X146539320Y-171870475D02*
X146539320Y-170570475D01*
X146044082Y-170570475D01*
X145920273Y-170632380D01*
X145858368Y-170694284D01*
X145796463Y-170818094D01*
X145796463Y-171003808D01*
X145858368Y-171127618D01*
X145920273Y-171189522D01*
X146044082Y-171251427D01*
X146539320Y-171251427D01*
X145301225Y-171003808D02*
X144372654Y-171003808D01*
X144929797Y-170446665D02*
X145301225Y-172118094D01*
X144496463Y-171560951D02*
X145425035Y-171560951D01*
X144867892Y-172118094D02*
X144496463Y-170446665D01*
X144063130Y-170570475D02*
X143196463Y-170570475D01*
X143753606Y-171870475D01*
X142639320Y-171870475D02*
X142391701Y-171870475D01*
X142267892Y-171808570D01*
X142205987Y-171746665D01*
X142082178Y-171560951D01*
X142020273Y-171313332D01*
X142020273Y-170818094D01*
X142082178Y-170694284D01*
X142144082Y-170632380D01*
X142267892Y-170570475D01*
X142515511Y-170570475D01*
X142639320Y-170632380D01*
X142701225Y-170694284D01*
X142763130Y-170818094D01*
X142763130Y-171127618D01*
X142701225Y-171251427D01*
X142639320Y-171313332D01*
X142515511Y-171375237D01*
X142267892Y-171375237D01*
X142144082Y-171313332D01*
X142082178Y-171251427D01*
X142020273Y-171127618D01*
X141277416Y-171127618D02*
X141401225Y-171065713D01*
X141463130Y-171003808D01*
X141525035Y-170879999D01*
X141525035Y-170818094D01*
X141463130Y-170694284D01*
X141401225Y-170632380D01*
X141277416Y-170570475D01*
X141029797Y-170570475D01*
X140905987Y-170632380D01*
X140844082Y-170694284D01*
X140782178Y-170818094D01*
X140782178Y-170879999D01*
X140844082Y-171003808D01*
X140905987Y-171065713D01*
X141029797Y-171127618D01*
X141277416Y-171127618D01*
X141401225Y-171189522D01*
X141463130Y-171251427D01*
X141525035Y-171375237D01*
X141525035Y-171622856D01*
X141463130Y-171746665D01*
X141401225Y-171808570D01*
X141277416Y-171870475D01*
X141029797Y-171870475D01*
X140905987Y-171808570D01*
X140844082Y-171746665D01*
X140782178Y-171622856D01*
X140782178Y-171375237D01*
X140844082Y-171251427D01*
X140905987Y-171189522D01*
X141029797Y-171127618D01*
X139667892Y-171003808D02*
X139667892Y-171870475D01*
X139977416Y-170508570D02*
X140286940Y-171437141D01*
X139482178Y-171437141D01*
D10*
X344062865Y-98027842D02*
X343920008Y-98099271D01*
X343634294Y-98099271D01*
X343491437Y-98027842D01*
X343420008Y-97884985D01*
X343420008Y-97813557D01*
X343491437Y-97670700D01*
X343634294Y-97599271D01*
X343848580Y-97599271D01*
X343991437Y-97527842D01*
X344062865Y-97384985D01*
X344062865Y-97313557D01*
X343991437Y-97170700D01*
X343848580Y-97099271D01*
X343634294Y-97099271D01*
X343491437Y-97170700D01*
X342991437Y-97099271D02*
X342420008Y-97099271D01*
X342777151Y-96599271D02*
X342777151Y-97884985D01*
X342705722Y-98027842D01*
X342562865Y-98099271D01*
X342420008Y-98099271D01*
X341277151Y-98099271D02*
X341277151Y-97313557D01*
X341348580Y-97170700D01*
X341491437Y-97099271D01*
X341777151Y-97099271D01*
X341920008Y-97170700D01*
X341277151Y-98027842D02*
X341420008Y-98099271D01*
X341777151Y-98099271D01*
X341920008Y-98027842D01*
X341991437Y-97884985D01*
X341991437Y-97742128D01*
X341920008Y-97599271D01*
X341777151Y-97527842D01*
X341420008Y-97527842D01*
X341277151Y-97456414D01*
X340562865Y-98099271D02*
X340562865Y-97099271D01*
X340562865Y-97384985D02*
X340491437Y-97242128D01*
X340420008Y-97170700D01*
X340277151Y-97099271D01*
X340134294Y-97099271D01*
X339848580Y-97099271D02*
X339277151Y-97099271D01*
X339634294Y-96599271D02*
X339634294Y-97884985D01*
X339562865Y-98027842D01*
X339420008Y-98099271D01*
X339277151Y-98099271D01*
X337634294Y-98099271D02*
X337634294Y-96599271D01*
X336991437Y-98099271D02*
X336991437Y-97313557D01*
X337062865Y-97170700D01*
X337205722Y-97099271D01*
X337420008Y-97099271D01*
X337562865Y-97170700D01*
X337634294Y-97242128D01*
X335705722Y-98027842D02*
X335848580Y-98099271D01*
X336134294Y-98099271D01*
X336277151Y-98027842D01*
X336348580Y-97884985D01*
X336348580Y-97313557D01*
X336277151Y-97170700D01*
X336134294Y-97099271D01*
X335848580Y-97099271D01*
X335705722Y-97170700D01*
X335634294Y-97313557D01*
X335634294Y-97456414D01*
X336348580Y-97599271D01*
X334991437Y-98099271D02*
X334991437Y-97099271D01*
X334991437Y-97384985D02*
X334920008Y-97242128D01*
X334848580Y-97170700D01*
X334705722Y-97099271D01*
X334562865Y-97099271D01*
X333491437Y-98027842D02*
X333634294Y-98099271D01*
X333920008Y-98099271D01*
X334062865Y-98027842D01*
X334134294Y-97884985D01*
X334134294Y-97313557D01*
X334062865Y-97170700D01*
X333920008Y-97099271D01*
X333634294Y-97099271D01*
X333491437Y-97170700D01*
X333420008Y-97313557D01*
X333420008Y-97456414D01*
X334134294Y-97599271D01*
X331777151Y-97099271D02*
X331491437Y-98099271D01*
X331205722Y-97384985D01*
X330920008Y-98099271D01*
X330634294Y-97099271D01*
X330062865Y-98099271D02*
X330062865Y-97099271D01*
X330062865Y-96599271D02*
X330134294Y-96670700D01*
X330062865Y-96742128D01*
X329991437Y-96670700D01*
X330062865Y-96599271D01*
X330062865Y-96742128D01*
X329562865Y-97099271D02*
X328991437Y-97099271D01*
X329348580Y-96599271D02*
X329348580Y-97884985D01*
X329277151Y-98027842D01*
X329134294Y-98099271D01*
X328991437Y-98099271D01*
X328491437Y-98099271D02*
X328491437Y-96599271D01*
X327848580Y-98099271D02*
X327848580Y-97313557D01*
X327920008Y-97170700D01*
X328062865Y-97099271D01*
X328277151Y-97099271D01*
X328420008Y-97170700D01*
X328491437Y-97242128D01*
X349705722Y-100514271D02*
X349705722Y-99728557D01*
X349777151Y-99585700D01*
X349920008Y-99514271D01*
X350205722Y-99514271D01*
X350348580Y-99585700D01*
X349705722Y-100442842D02*
X349848580Y-100514271D01*
X350205722Y-100514271D01*
X350348580Y-100442842D01*
X350420008Y-100299985D01*
X350420008Y-100157128D01*
X350348580Y-100014271D01*
X350205722Y-99942842D01*
X349848580Y-99942842D01*
X349705722Y-99871414D01*
X348991437Y-100514271D02*
X348991437Y-99514271D01*
X348991437Y-99799985D02*
X348920008Y-99657128D01*
X348848580Y-99585700D01*
X348705722Y-99514271D01*
X348562865Y-99514271D01*
X348062865Y-100514271D02*
X348062865Y-99514271D01*
X348062865Y-99799985D02*
X347991437Y-99657128D01*
X347920008Y-99585700D01*
X347777151Y-99514271D01*
X347634294Y-99514271D01*
X346920008Y-100514271D02*
X347062865Y-100442842D01*
X347134294Y-100371414D01*
X347205722Y-100228557D01*
X347205722Y-99799985D01*
X347134294Y-99657128D01*
X347062865Y-99585700D01*
X346920008Y-99514271D01*
X346705722Y-99514271D01*
X346562865Y-99585700D01*
X346491437Y-99657128D01*
X346420008Y-99799985D01*
X346420008Y-100228557D01*
X346491437Y-100371414D01*
X346562865Y-100442842D01*
X346705722Y-100514271D01*
X346920008Y-100514271D01*
X345920008Y-99514271D02*
X345634294Y-100514271D01*
X345348580Y-99799985D01*
X345062865Y-100514271D01*
X344777151Y-99514271D01*
X343062865Y-99514271D02*
X343062865Y-101014271D01*
X343062865Y-99585700D02*
X342920008Y-99514271D01*
X342634294Y-99514271D01*
X342491437Y-99585700D01*
X342420008Y-99657128D01*
X342348580Y-99799985D01*
X342348580Y-100228557D01*
X342420008Y-100371414D01*
X342491437Y-100442842D01*
X342634294Y-100514271D01*
X342920008Y-100514271D01*
X343062865Y-100442842D01*
X341491437Y-100514271D02*
X341634294Y-100442842D01*
X341705722Y-100371414D01*
X341777151Y-100228557D01*
X341777151Y-99799985D01*
X341705722Y-99657128D01*
X341634294Y-99585700D01*
X341491437Y-99514271D01*
X341277151Y-99514271D01*
X341134294Y-99585700D01*
X341062865Y-99657128D01*
X340991437Y-99799985D01*
X340991437Y-100228557D01*
X341062865Y-100371414D01*
X341134294Y-100442842D01*
X341277151Y-100514271D01*
X341491437Y-100514271D01*
X340348580Y-100514271D02*
X340348580Y-99514271D01*
X340348580Y-99014271D02*
X340420008Y-99085700D01*
X340348580Y-99157128D01*
X340277151Y-99085700D01*
X340348580Y-99014271D01*
X340348580Y-99157128D01*
X339634294Y-99514271D02*
X339634294Y-100514271D01*
X339634294Y-99657128D02*
X339562865Y-99585700D01*
X339420008Y-99514271D01*
X339205722Y-99514271D01*
X339062865Y-99585700D01*
X338991437Y-99728557D01*
X338991437Y-100514271D01*
X338491437Y-99514271D02*
X337920008Y-99514271D01*
X338277151Y-99014271D02*
X338277151Y-100299985D01*
X338205722Y-100442842D01*
X338062865Y-100514271D01*
X337920008Y-100514271D01*
X337420008Y-100514271D02*
X337420008Y-99514271D01*
X337420008Y-99014271D02*
X337491437Y-99085700D01*
X337420008Y-99157128D01*
X337348580Y-99085700D01*
X337420008Y-99014271D01*
X337420008Y-99157128D01*
X336705722Y-99514271D02*
X336705722Y-100514271D01*
X336705722Y-99657128D02*
X336634294Y-99585700D01*
X336491437Y-99514271D01*
X336277151Y-99514271D01*
X336134294Y-99585700D01*
X336062865Y-99728557D01*
X336062865Y-100514271D01*
X334705722Y-99514271D02*
X334705722Y-100728557D01*
X334777151Y-100871414D01*
X334848580Y-100942842D01*
X334991437Y-101014271D01*
X335205722Y-101014271D01*
X335348580Y-100942842D01*
X334705722Y-100442842D02*
X334848580Y-100514271D01*
X335134294Y-100514271D01*
X335277151Y-100442842D01*
X335348580Y-100371414D01*
X335420008Y-100228557D01*
X335420008Y-99799985D01*
X335348580Y-99657128D01*
X335277151Y-99585700D01*
X335134294Y-99514271D01*
X334848580Y-99514271D01*
X334705722Y-99585700D01*
X332205722Y-100514271D02*
X332205722Y-99014271D01*
X332205722Y-100442842D02*
X332348580Y-100514271D01*
X332634294Y-100514271D01*
X332777151Y-100442842D01*
X332848580Y-100371414D01*
X332920008Y-100228557D01*
X332920008Y-99799985D01*
X332848580Y-99657128D01*
X332777151Y-99585700D01*
X332634294Y-99514271D01*
X332348580Y-99514271D01*
X332205722Y-99585700D01*
X331277151Y-100514271D02*
X331420008Y-100442842D01*
X331491437Y-100371414D01*
X331562865Y-100228557D01*
X331562865Y-99799985D01*
X331491437Y-99657128D01*
X331420008Y-99585700D01*
X331277151Y-99514271D01*
X331062865Y-99514271D01*
X330920008Y-99585700D01*
X330848580Y-99657128D01*
X330777151Y-99799985D01*
X330777151Y-100228557D01*
X330848580Y-100371414D01*
X330920008Y-100442842D01*
X331062865Y-100514271D01*
X331277151Y-100514271D01*
X330277151Y-99514271D02*
X329991437Y-100514271D01*
X329705722Y-99799985D01*
X329420008Y-100514271D01*
X329134294Y-99514271D01*
X328562865Y-99514271D02*
X328562865Y-100514271D01*
X328562865Y-99657128D02*
X328491437Y-99585700D01*
X328348580Y-99514271D01*
X328134294Y-99514271D01*
X327991437Y-99585700D01*
X327920008Y-99728557D01*
X327920008Y-100514271D01*
X327348580Y-99514271D02*
X327062865Y-100514271D01*
X326777151Y-99799985D01*
X326491437Y-100514271D01*
X326205722Y-99514271D01*
X324991437Y-100514271D02*
X324991437Y-99728557D01*
X325062865Y-99585700D01*
X325205722Y-99514271D01*
X325491437Y-99514271D01*
X325634294Y-99585700D01*
X324991437Y-100442842D02*
X325134294Y-100514271D01*
X325491437Y-100514271D01*
X325634294Y-100442842D01*
X325705722Y-100299985D01*
X325705722Y-100157128D01*
X325634294Y-100014271D01*
X325491437Y-99942842D01*
X325134294Y-99942842D01*
X324991437Y-99871414D01*
X324277151Y-100514271D02*
X324277151Y-99514271D01*
X324277151Y-99799985D02*
X324205722Y-99657128D01*
X324134294Y-99585700D01*
X323991437Y-99514271D01*
X323848580Y-99514271D01*
X322705722Y-100514271D02*
X322705722Y-99014271D01*
X322705722Y-100442842D02*
X322848580Y-100514271D01*
X323134294Y-100514271D01*
X323277151Y-100442842D01*
X323348580Y-100371414D01*
X323420008Y-100228557D01*
X323420008Y-99799985D01*
X323348580Y-99657128D01*
X323277151Y-99585700D01*
X323134294Y-99514271D01*
X322848580Y-99514271D01*
X322705722Y-99585700D01*
X322062865Y-100442842D02*
X321920008Y-100514271D01*
X321634294Y-100514271D01*
X321491437Y-100442842D01*
X321420008Y-100299985D01*
X321420008Y-100228557D01*
X321491437Y-100085700D01*
X321634294Y-100014271D01*
X321848580Y-100014271D01*
X321991437Y-99942842D01*
X322062865Y-99799985D01*
X322062865Y-99728557D01*
X321991437Y-99585700D01*
X321848580Y-99514271D01*
X321634294Y-99514271D01*
X321491437Y-99585700D01*
%TO.C,G\u002A\u002A\u002A*%
X161752571Y-190008000D02*
X161897714Y-189935428D01*
X162115428Y-189935428D01*
X162333142Y-190008000D01*
X162478285Y-190153142D01*
X162550857Y-190298285D01*
X162623428Y-190588571D01*
X162623428Y-190806285D01*
X162550857Y-191096571D01*
X162478285Y-191241714D01*
X162333142Y-191386857D01*
X162115428Y-191459428D01*
X161970285Y-191459428D01*
X161752571Y-191386857D01*
X161680000Y-191314285D01*
X161680000Y-190806285D01*
X161970285Y-190806285D01*
X160809142Y-189935428D02*
X160809142Y-190298285D01*
X161172000Y-190153142D02*
X160809142Y-190298285D01*
X160446285Y-190153142D01*
X161026857Y-190588571D02*
X160809142Y-190298285D01*
X160591428Y-190588571D01*
X159648000Y-189935428D02*
X159648000Y-190298285D01*
X160010857Y-190153142D02*
X159648000Y-190298285D01*
X159285142Y-190153142D01*
X159865714Y-190588571D02*
X159648000Y-190298285D01*
X159430285Y-190588571D01*
X158486857Y-189935428D02*
X158486857Y-190298285D01*
X158849714Y-190153142D02*
X158486857Y-190298285D01*
X158124000Y-190153142D01*
X158704571Y-190588571D02*
X158486857Y-190298285D01*
X158269142Y-190588571D01*
G36*
X165202217Y-176365972D02*
G01*
X165238907Y-176452144D01*
X165293885Y-176527891D01*
X165330580Y-176727383D01*
X165315236Y-176969610D01*
X165247068Y-177184144D01*
X165225334Y-177223356D01*
X165156981Y-177297791D01*
X165049151Y-177292620D01*
X164844902Y-177211748D01*
X164784942Y-177186070D01*
X164387488Y-177025183D01*
X163947008Y-176859185D01*
X163513276Y-176705782D01*
X163136064Y-176582676D01*
X162865145Y-176507572D01*
X162518893Y-176429774D01*
X162574283Y-176901055D01*
X162589386Y-177038021D01*
X162600495Y-177235236D01*
X162576806Y-177305449D01*
X162513879Y-177276236D01*
X162445519Y-177232355D01*
X162352131Y-177226091D01*
X162320616Y-177222668D01*
X162204979Y-177130427D01*
X162046085Y-176956511D01*
X161990633Y-176886631D01*
X161857637Y-176670041D01*
X161778346Y-176417811D01*
X161729057Y-176063154D01*
X161727790Y-176050420D01*
X161692129Y-175765438D01*
X161653326Y-175563141D01*
X161619560Y-175486595D01*
X161596854Y-175510445D01*
X161517161Y-175657066D01*
X161401469Y-175907577D01*
X161266257Y-176227428D01*
X161182096Y-176431128D01*
X161055142Y-176711171D01*
X160953299Y-176878007D01*
X160855813Y-176961953D01*
X160741931Y-176993323D01*
X160636774Y-176994050D01*
X160530302Y-176948735D01*
X160430809Y-176831778D01*
X160324615Y-176620474D01*
X160198040Y-176292116D01*
X160037403Y-175824000D01*
X159797021Y-175104334D01*
X159686849Y-175697000D01*
X159643786Y-175912530D01*
X159539543Y-176346817D01*
X159423980Y-176738438D01*
X159307786Y-177056463D01*
X159201652Y-177269961D01*
X159116266Y-177348000D01*
X159078929Y-177332431D01*
X158975891Y-177204007D01*
X158873648Y-176988167D01*
X158839305Y-176888510D01*
X158787753Y-176649768D01*
X158781236Y-176372462D01*
X158816094Y-175993334D01*
X158862410Y-175537843D01*
X158890778Y-175088879D01*
X158897819Y-174703072D01*
X158883852Y-174406669D01*
X158849195Y-174225915D01*
X158794166Y-174187057D01*
X158727233Y-174215290D01*
X158540166Y-174229065D01*
X158513040Y-174225914D01*
X158436703Y-174254932D01*
X158400903Y-174378338D01*
X158392000Y-174633345D01*
X158403758Y-174877472D01*
X158453697Y-175031730D01*
X158548064Y-175028248D01*
X158692505Y-174871500D01*
X158748247Y-174797780D01*
X158802999Y-174750569D01*
X158812565Y-174827420D01*
X158788762Y-175050281D01*
X158722428Y-175326262D01*
X158525789Y-175647580D01*
X158439678Y-175744930D01*
X158367854Y-175868288D01*
X158328043Y-176032527D01*
X158310963Y-176280448D01*
X158307333Y-176654850D01*
X158305426Y-177003089D01*
X158295326Y-177232222D01*
X158270792Y-177345953D01*
X158225585Y-177371983D01*
X158153467Y-177338011D01*
X158130152Y-177322798D01*
X157877824Y-177066714D01*
X157698339Y-176721816D01*
X157630000Y-176359687D01*
X157630000Y-176016852D01*
X157127540Y-175971291D01*
X156973550Y-175952518D01*
X156479027Y-175818604D01*
X156079098Y-175591233D01*
X155805533Y-175286853D01*
X155647319Y-175019667D01*
X155534337Y-175612334D01*
X155473993Y-175927726D01*
X155399020Y-176317188D01*
X155337597Y-176633821D01*
X155253838Y-177062643D01*
X154521694Y-177100541D01*
X154471039Y-176672837D01*
X154468225Y-176650242D01*
X154426466Y-176400430D01*
X154361247Y-176087791D01*
X154282278Y-175750414D01*
X154199268Y-175426392D01*
X154121925Y-175153815D01*
X154059960Y-174970776D01*
X154023080Y-174915365D01*
X154022257Y-174916415D01*
X153988929Y-175014413D01*
X153924448Y-175242165D01*
X153837760Y-175567023D01*
X153737812Y-175956340D01*
X153667860Y-176226063D01*
X153547920Y-176631707D01*
X153435876Y-176906275D01*
X153317657Y-177073280D01*
X153179191Y-177156239D01*
X153006409Y-177178667D01*
X152839842Y-177170714D01*
X152657969Y-177106424D01*
X152571780Y-176947424D01*
X152550000Y-176658039D01*
X152531701Y-176349468D01*
X152472181Y-175911400D01*
X152383567Y-175448172D01*
X152278477Y-175024541D01*
X152169527Y-174705260D01*
X152048628Y-174427000D01*
X152047055Y-174579293D01*
X152045314Y-174747873D01*
X152044685Y-174774536D01*
X151957751Y-175191042D01*
X151747630Y-175601040D01*
X151446550Y-175940350D01*
X151371133Y-175998658D01*
X151040234Y-176148670D01*
X150708759Y-176152321D01*
X150397444Y-176026561D01*
X150127024Y-175788344D01*
X149918236Y-175454622D01*
X149791814Y-175042346D01*
X149768495Y-174568470D01*
X149769844Y-174532092D01*
X150462678Y-174532092D01*
X150557228Y-174938652D01*
X150593877Y-175028757D01*
X150723340Y-175246823D01*
X150860690Y-175316000D01*
X150972354Y-175285499D01*
X151111264Y-175130056D01*
X151199698Y-174880505D01*
X151234296Y-174579293D01*
X151211698Y-174268869D01*
X151128543Y-173991681D01*
X150981471Y-173790178D01*
X150950559Y-173766368D01*
X150832451Y-173736619D01*
X150687401Y-173834272D01*
X150642332Y-173879800D01*
X150492539Y-174166475D01*
X150462678Y-174532092D01*
X149769844Y-174532092D01*
X149777375Y-174328926D01*
X149755413Y-174217697D01*
X149696563Y-174229385D01*
X149606164Y-174267985D01*
X149421396Y-174258956D01*
X149338848Y-174240671D01*
X149278483Y-174275689D01*
X149253147Y-174408685D01*
X149248000Y-174675295D01*
X149254837Y-174870766D01*
X149294995Y-175085009D01*
X149366794Y-175148626D01*
X149465253Y-175052961D01*
X149519638Y-175010196D01*
X149589255Y-175061576D01*
X149630196Y-175194439D01*
X149620658Y-175316000D01*
X149617336Y-175358334D01*
X149552582Y-175501562D01*
X149415861Y-175697000D01*
X149393151Y-175724960D01*
X149313921Y-175892680D01*
X149263599Y-176158643D01*
X149234770Y-176558100D01*
X149229909Y-176656331D01*
X149205183Y-176970849D01*
X149172789Y-177205854D01*
X149138431Y-177316457D01*
X149086473Y-177322104D01*
X148961580Y-177237463D01*
X148815364Y-177079335D01*
X148686370Y-176891620D01*
X148613146Y-176718216D01*
X148586578Y-176574783D01*
X148552036Y-176332000D01*
X148539001Y-176257872D01*
X148455513Y-176141149D01*
X148257694Y-176094140D01*
X148247112Y-176093151D01*
X148064910Y-176100635D01*
X147926879Y-176187644D01*
X147773740Y-176390474D01*
X147730560Y-176458236D01*
X147575053Y-176738070D01*
X147464596Y-176988167D01*
X147463008Y-176992700D01*
X147345596Y-177205504D01*
X147204334Y-177252502D01*
X147043312Y-177132292D01*
X146983128Y-177000111D01*
X146950857Y-176731606D01*
X146972460Y-176415966D01*
X147047658Y-176117725D01*
X147073252Y-176043252D01*
X147081754Y-175912974D01*
X147004040Y-175786777D01*
X146815745Y-175611475D01*
X146725013Y-175531934D01*
X146594944Y-175396450D01*
X146526818Y-175255607D01*
X146500619Y-175054750D01*
X146496333Y-174739224D01*
X146496522Y-174696480D01*
X146504652Y-174599488D01*
X146904983Y-174599488D01*
X146918271Y-174698620D01*
X147043451Y-174846911D01*
X147104175Y-174902677D01*
X147343884Y-175059648D01*
X147622792Y-175184691D01*
X147730346Y-175218573D01*
X148019247Y-175288263D01*
X148247082Y-175316000D01*
X148486000Y-175316000D01*
X148486000Y-174130667D01*
X148184825Y-174130667D01*
X147888383Y-174151280D01*
X147517007Y-174226643D01*
X147200332Y-174341460D01*
X146995622Y-174478959D01*
X146994568Y-174480124D01*
X146904983Y-174599488D01*
X146504652Y-174599488D01*
X146533111Y-174259980D01*
X146649617Y-173938677D01*
X146869878Y-173690780D01*
X147217730Y-173474500D01*
X147415214Y-173386428D01*
X147649854Y-173323583D01*
X147945396Y-173292599D01*
X148355773Y-173284472D01*
X148921686Y-173304658D01*
X149396424Y-173373599D01*
X149710205Y-173491745D01*
X149863668Y-173659347D01*
X149857451Y-173876658D01*
X149866847Y-173903568D01*
X149965136Y-173854955D01*
X150136462Y-173719164D01*
X150181147Y-173680379D01*
X150387962Y-173526786D01*
X150565662Y-173468241D01*
X150785554Y-173478280D01*
X150846632Y-173485034D01*
X151051569Y-173484180D01*
X151157980Y-173445275D01*
X151179605Y-173420976D01*
X151331198Y-173372591D01*
X151528570Y-173390366D01*
X151686400Y-173470267D01*
X151763608Y-173527152D01*
X151788000Y-173458434D01*
X151788037Y-173455737D01*
X151857974Y-173313585D01*
X152011925Y-173179291D01*
X152176428Y-173117360D01*
X152188344Y-173119568D01*
X152285451Y-173219274D01*
X152425298Y-173449447D01*
X152595370Y-173785655D01*
X152783151Y-174203465D01*
X152976126Y-174678445D01*
X153063587Y-174901202D01*
X153148173Y-175082330D01*
X153211360Y-175131310D01*
X153266302Y-175039569D01*
X153326154Y-174798539D01*
X153404073Y-174399649D01*
X153448249Y-174194703D01*
X153560729Y-173865392D01*
X153704399Y-173680626D01*
X153889547Y-173623963D01*
X154031892Y-173647369D01*
X154185964Y-173732276D01*
X154234150Y-173842092D01*
X154233622Y-173845708D01*
X154263275Y-173965271D01*
X154348843Y-174188219D01*
X154473099Y-174469334D01*
X154730169Y-175019667D01*
X154783084Y-174702167D01*
X154783935Y-174697059D01*
X154812987Y-174519366D01*
X156159039Y-174519366D01*
X156163492Y-174695680D01*
X156327689Y-174883659D01*
X156656333Y-175073559D01*
X156721212Y-175101089D01*
X157013100Y-175191898D01*
X157270166Y-175229474D01*
X157545333Y-175231334D01*
X157545333Y-174106977D01*
X157100833Y-174153069D01*
X157057096Y-174157833D01*
X156610546Y-174240700D01*
X156309625Y-174364459D01*
X156159039Y-174519366D01*
X154812987Y-174519366D01*
X154834401Y-174388394D01*
X154881702Y-174090826D01*
X154930035Y-173895900D01*
X155106152Y-173577477D01*
X155364710Y-173362750D01*
X155674011Y-173284000D01*
X155702870Y-173284466D01*
X155957147Y-173321654D01*
X156147801Y-173400141D01*
X156207235Y-173438794D01*
X156357085Y-173472380D01*
X156566150Y-173411277D01*
X156653015Y-173382772D01*
X156929050Y-173326742D01*
X157281692Y-173282591D01*
X157662207Y-173253462D01*
X158021858Y-173242497D01*
X158311910Y-173252839D01*
X158483628Y-173287630D01*
X158588526Y-173339753D01*
X158795565Y-173441705D01*
X158890913Y-173469125D01*
X159052903Y-173399372D01*
X159074183Y-173381077D01*
X159250157Y-173311973D01*
X159491932Y-173284000D01*
X159823188Y-173284000D01*
X160160487Y-174003778D01*
X160208429Y-174106977D01*
X160226383Y-174145624D01*
X160386198Y-174499269D01*
X160520282Y-174808740D01*
X160604902Y-175019778D01*
X160623349Y-175069001D01*
X160702661Y-175244790D01*
X160758508Y-175315704D01*
X160788938Y-175261901D01*
X160855736Y-175074213D01*
X160945403Y-174783626D01*
X161002995Y-174579787D01*
X162457073Y-174579787D01*
X162463645Y-174936663D01*
X162480325Y-175246566D01*
X162507582Y-175468077D01*
X162531385Y-175566965D01*
X162597235Y-175678698D01*
X162735513Y-175740896D01*
X162994415Y-175784925D01*
X163179981Y-175815586D01*
X163560081Y-175897956D01*
X163921168Y-175995839D01*
X164412670Y-176147816D01*
X164386835Y-175844286D01*
X164365118Y-175691264D01*
X164285051Y-175547545D01*
X164107000Y-175466765D01*
X163878742Y-175391661D01*
X163440079Y-175187069D01*
X163116104Y-174944751D01*
X162934137Y-174682966D01*
X162917299Y-174623389D01*
X162940980Y-174574838D01*
X163043680Y-174554494D01*
X163255299Y-174557778D01*
X163605733Y-174580112D01*
X163624982Y-174581469D01*
X163968934Y-174603921D01*
X164176226Y-174607601D01*
X164277689Y-174586377D01*
X164304155Y-174534114D01*
X164286452Y-174444678D01*
X164255850Y-174320340D01*
X164235156Y-174203754D01*
X164235116Y-174203207D01*
X164155503Y-174161388D01*
X163952819Y-174104059D01*
X163670207Y-174043460D01*
X163411258Y-173985621D01*
X163090879Y-173866163D01*
X162855072Y-173696885D01*
X162794702Y-173642376D01*
X162631008Y-173526570D01*
X162529866Y-173502342D01*
X162522463Y-173510977D01*
X162493303Y-173641534D01*
X162472371Y-173890801D01*
X162460138Y-174217359D01*
X162457073Y-174579787D01*
X161002995Y-174579787D01*
X161047179Y-174423406D01*
X161131524Y-174130399D01*
X161242258Y-173791572D01*
X161340888Y-173537390D01*
X161413060Y-173407702D01*
X161437134Y-173388031D01*
X161540714Y-173345610D01*
X161720390Y-173315935D01*
X161999451Y-173297141D01*
X162401185Y-173287363D01*
X162948881Y-173284736D01*
X163245894Y-173285975D01*
X163745466Y-173292696D01*
X164196411Y-173304238D01*
X164558496Y-173319456D01*
X164791486Y-173337203D01*
X165221973Y-173388934D01*
X165182560Y-174890948D01*
X165173432Y-175304102D01*
X165169902Y-175803665D01*
X165179197Y-176147816D01*
X165179356Y-176153717D01*
X165202217Y-176365972D01*
G37*
G36*
X151249096Y-176284407D02*
G01*
X151586725Y-176343062D01*
X151814267Y-176441307D01*
X151846056Y-176467881D01*
X151986270Y-176689076D01*
X152001897Y-176943376D01*
X151886377Y-177164956D01*
X151781899Y-177256433D01*
X151672741Y-177292986D01*
X151507645Y-177276016D01*
X151233138Y-177209140D01*
X151036014Y-177164247D01*
X150620877Y-177094880D01*
X150231931Y-177055784D01*
X150149926Y-177051405D01*
X149900442Y-177031791D01*
X149773023Y-176994783D01*
X149729678Y-176919918D01*
X149732418Y-176786734D01*
X149780674Y-176599119D01*
X149890053Y-176443373D01*
X150121086Y-176345393D01*
X150461736Y-176285631D01*
X150855920Y-176265282D01*
X151249096Y-176284407D01*
G37*
G36*
X144464005Y-173361226D02*
G01*
X144594450Y-173601500D01*
X144602199Y-173625106D01*
X144740307Y-173945373D01*
X144937745Y-174299326D01*
X145155436Y-174622695D01*
X145354301Y-174851209D01*
X145419233Y-174907368D01*
X145478503Y-174931245D01*
X145509269Y-174866780D01*
X145520875Y-174686976D01*
X145522666Y-174364835D01*
X145525267Y-174196761D01*
X145566791Y-173802056D01*
X145667980Y-173543231D01*
X145840500Y-173399647D01*
X146096019Y-173350669D01*
X146110363Y-173350315D01*
X146307601Y-173357188D01*
X146410892Y-173382003D01*
X146418824Y-173460724D01*
X146418627Y-173683810D01*
X146409831Y-174023145D01*
X146393173Y-174451110D01*
X146369387Y-174940089D01*
X146348746Y-175342159D01*
X146324532Y-175852481D01*
X146305046Y-176308261D01*
X146291895Y-176671326D01*
X146286687Y-176903500D01*
X146286636Y-176912455D01*
X146264752Y-177199946D01*
X146199342Y-177337402D01*
X146083108Y-177324099D01*
X145908753Y-177159315D01*
X145668981Y-176842328D01*
X145658839Y-176827081D01*
X145560417Y-176571801D01*
X145522666Y-176248861D01*
X145517824Y-176099811D01*
X145470136Y-175884966D01*
X145357832Y-175761792D01*
X145263884Y-175715686D01*
X145152765Y-175737447D01*
X145016427Y-175883326D01*
X144999914Y-175905189D01*
X144868374Y-176109827D01*
X144702237Y-176402645D01*
X144533385Y-176727900D01*
X144448844Y-176893690D01*
X144276855Y-177180956D01*
X144138842Y-177319241D01*
X144022864Y-177317387D01*
X143916979Y-177184233D01*
X143881875Y-177103592D01*
X143837396Y-176767386D01*
X143898330Y-176356367D01*
X144056356Y-175907723D01*
X144303151Y-175458640D01*
X144516384Y-175135613D01*
X144219982Y-174807531D01*
X144070123Y-174634164D01*
X143802323Y-174252074D01*
X143683224Y-173934297D01*
X143710815Y-173672782D01*
X143883085Y-173459479D01*
X144030409Y-173358382D01*
X144276003Y-173280189D01*
X144464005Y-173361226D01*
G37*
G36*
X142186763Y-173328475D02*
G01*
X142626684Y-173426859D01*
X143072217Y-173587072D01*
X143209638Y-173659660D01*
X143472610Y-173906805D01*
X143612796Y-174215014D01*
X143625663Y-174545545D01*
X143506682Y-174859655D01*
X143251321Y-175118603D01*
X143163223Y-175171524D01*
X142898286Y-175305691D01*
X142552766Y-175461318D01*
X142178518Y-175614437D01*
X142029371Y-175673255D01*
X141650156Y-175839423D01*
X141424159Y-175975278D01*
X141343214Y-176090159D01*
X141399153Y-176193403D01*
X141583808Y-176294347D01*
X142001015Y-176407952D01*
X142416942Y-176405451D01*
X142782426Y-176290421D01*
X143064699Y-176073395D01*
X143230999Y-175764904D01*
X143244881Y-175713534D01*
X143299816Y-175477282D01*
X143323861Y-175316000D01*
X143340186Y-175239767D01*
X143385307Y-175269255D01*
X143445080Y-175394861D01*
X143505507Y-175579383D01*
X143552590Y-175785621D01*
X143572333Y-175976371D01*
X143523773Y-176373112D01*
X143348606Y-176734468D01*
X143026379Y-177081432D01*
X142911320Y-177177558D01*
X142729826Y-177287725D01*
X142521075Y-177336801D01*
X142214347Y-177348000D01*
X141700041Y-177296817D01*
X141279804Y-177134843D01*
X140987168Y-176865600D01*
X140826030Y-176492747D01*
X140800285Y-176019944D01*
X140830482Y-175784767D01*
X140918155Y-175527033D01*
X141084788Y-175306573D01*
X141345985Y-175073253D01*
X141834784Y-174764372D01*
X142371551Y-174547115D01*
X142480602Y-174511174D01*
X142636286Y-174436575D01*
X142667884Y-174379492D01*
X142662980Y-174375415D01*
X142525135Y-174318273D01*
X142280065Y-174253614D01*
X141983975Y-174193052D01*
X141693070Y-174148199D01*
X141463557Y-174130667D01*
X141451250Y-174130503D01*
X141239845Y-174059401D01*
X141128615Y-173890130D01*
X141130920Y-173668129D01*
X141260122Y-173438834D01*
X141264570Y-173434055D01*
X141469318Y-173329095D01*
X141788845Y-173294894D01*
X142186763Y-173328475D01*
G37*
%TD*%
M02*
