G04 #@! TF.GenerationSoftware,KiCad,Pcbnew,(6.0.2)*
G04 #@! TF.CreationDate,2022-04-10T20:08:41+05:30*
G04 #@! TF.ProjectId,discipline-pcb,64697363-6970-46c6-996e-652d7063622e,rev?*
G04 #@! TF.SameCoordinates,Original*
G04 #@! TF.FileFunction,Soldermask,Bot*
G04 #@! TF.FilePolarity,Negative*
%FSLAX46Y46*%
G04 Gerber Fmt 4.6, Leading zero omitted, Abs format (unit mm)*
G04 Created by KiCad (PCBNEW (6.0.2)) date 2022-04-10 20:08:41*
%MOMM*%
%LPD*%
G01*
G04 APERTURE LIST*
G04 Aperture macros list*
%AMRoundRect*
0 Rectangle with rounded corners*
0 $1 Rounding radius*
0 $2 $3 $4 $5 $6 $7 $8 $9 X,Y pos of 4 corners*
0 Add a 4 corners polygon primitive as box body*
4,1,4,$2,$3,$4,$5,$6,$7,$8,$9,$2,$3,0*
0 Add four circle primitives for the rounded corners*
1,1,$1+$1,$2,$3*
1,1,$1+$1,$4,$5*
1,1,$1+$1,$6,$7*
1,1,$1+$1,$8,$9*
0 Add four rect primitives between the rounded corners*
20,1,$1+$1,$2,$3,$4,$5,0*
20,1,$1+$1,$4,$5,$6,$7,0*
20,1,$1+$1,$6,$7,$8,$9,0*
20,1,$1+$1,$8,$9,$2,$3,0*%
G04 Aperture macros list end*
%ADD10C,1.500000*%
%ADD11C,0.010000*%
%ADD12C,0.400000*%
%ADD13C,3.150000*%
%ADD14C,4.089800*%
%ADD15RoundRect,0.051000X0.762000X0.762000X-0.762000X0.762000X-0.762000X-0.762000X0.762000X-0.762000X0*%
%ADD16RoundRect,0.051000X0.800000X-0.800000X0.800000X0.800000X-0.800000X0.800000X-0.800000X-0.800000X0*%
%ADD17O,1.702000X1.702000*%
%ADD18RoundRect,0.051000X-0.762000X0.762000X-0.762000X-0.762000X0.762000X-0.762000X0.762000X0.762000X0*%
%ADD19RoundRect,0.051000X0.762000X-0.762000X0.762000X0.762000X-0.762000X0.762000X-0.762000X-0.762000X0*%
%ADD20C,4.502000*%
%ADD21RoundRect,0.051000X1.000000X-1.000000X1.000000X1.000000X-1.000000X1.000000X-1.000000X-1.000000X0*%
%ADD22C,2.102000*%
%ADD23O,3.102000X3.102000*%
%ADD24O,2.602000X3.102000*%
%ADD25RoundRect,0.051000X-1.275000X-1.250000X1.275000X-1.250000X1.275000X1.250000X-1.275000X1.250000X0*%
%ADD26C,1.852000*%
%ADD27C,3.102000*%
%ADD28RoundRect,0.051000X-1.275000X-1.050000X1.275000X-1.050000X1.275000X1.050000X-1.275000X1.050000X0*%
%ADD29RoundRect,0.051000X-1.050000X-1.050000X1.050000X-1.050000X1.050000X1.050000X-1.050000X1.050000X0*%
%ADD30RoundRect,0.051000X1.275000X1.250000X-1.275000X1.250000X-1.275000X-1.250000X1.275000X-1.250000X0*%
%ADD31RoundRect,0.051000X1.050000X1.050000X-1.050000X1.050000X-1.050000X-1.050000X1.050000X-1.050000X0*%
%ADD32RoundRect,0.551000X-0.775000X-0.500000X0.775000X-0.500000X0.775000X0.500000X-0.775000X0.500000X0*%
%ADD33C,1.702000*%
%ADD34RoundRect,0.051000X0.600000X-0.600000X0.600000X0.600000X-0.600000X0.600000X-0.600000X-0.600000X0*%
%ADD35C,1.302000*%
%ADD36O,1.502000X1.502000*%
%ADD37C,1.502000*%
%ADD38RoundRect,0.051000X0.850000X0.850000X-0.850000X0.850000X-0.850000X-0.850000X0.850000X-0.850000X0*%
%ADD39C,1.802000*%
%ADD40C,1.602000*%
%ADD41C,1.902000*%
%ADD42RoundRect,0.051000X-0.900000X-0.900000X0.900000X-0.900000X0.900000X0.900000X-0.900000X0.900000X0*%
%ADD43O,0.752000X1.102000*%
%ADD44O,1.002000X2.502000*%
%ADD45O,1.002000X1.802000*%
%ADD46RoundRect,0.051000X-0.800000X0.800000X-0.800000X-0.800000X0.800000X-0.800000X0.800000X0.800000X0*%
G04 APERTURE END LIST*
D10*
X62883004Y-61986290D02*
X223254308Y-61986290D01*
X62883004Y-59503020D02*
X223254308Y-59503020D01*
X62883004Y-64469560D02*
X223254308Y-64469560D01*
D11*
X160303980Y-162650150D02*
X160180909Y-162684296D01*
X160180909Y-162684296D02*
X160088420Y-162728554D01*
X160088420Y-162728554D02*
X160046194Y-162773391D01*
X160046194Y-162773391D02*
X160028328Y-162857763D01*
X160028328Y-162857763D02*
X160035111Y-162931595D01*
X160035111Y-162931595D02*
X160054840Y-162961945D01*
X160054840Y-162961945D02*
X160098499Y-162958916D01*
X160098499Y-162958916D02*
X160175184Y-162930900D01*
X160175184Y-162930900D02*
X160208658Y-162914901D01*
X160208658Y-162914901D02*
X160366587Y-162858251D01*
X160366587Y-162858251D02*
X160515671Y-162847564D01*
X160515671Y-162847564D02*
X160645003Y-162878974D01*
X160645003Y-162878974D02*
X160743677Y-162948617D01*
X160743677Y-162948617D02*
X160800786Y-163052629D01*
X160800786Y-163052629D02*
X160810568Y-163128169D01*
X160810568Y-163128169D02*
X160787179Y-163240997D01*
X160787179Y-163240997D02*
X160713307Y-163340158D01*
X160713307Y-163340158D02*
X160583396Y-163431459D01*
X160583396Y-163431459D02*
X160463980Y-163490354D01*
X160463980Y-163490354D02*
X160236766Y-163606298D01*
X160236766Y-163606298D02*
X160073448Y-163724770D01*
X160073448Y-163724770D02*
X159990080Y-163819849D01*
X159990080Y-163819849D02*
X159947881Y-163927832D01*
X159947881Y-163927832D02*
X159930175Y-164068767D01*
X159930175Y-164068767D02*
X159937654Y-164214800D01*
X159937654Y-164214800D02*
X159971011Y-164338078D01*
X159971011Y-164338078D02*
X159976876Y-164350194D01*
X159976876Y-164350194D02*
X160086250Y-164493769D01*
X160086250Y-164493769D02*
X160239843Y-164598390D01*
X160239843Y-164598390D02*
X160426856Y-164660265D01*
X160426856Y-164660265D02*
X160636489Y-164675603D01*
X160636489Y-164675603D02*
X160826892Y-164648620D01*
X160826892Y-164648620D02*
X160943481Y-164610095D01*
X160943481Y-164610095D02*
X161045629Y-164558593D01*
X161045629Y-164558593D02*
X161109427Y-164506351D01*
X161109427Y-164506351D02*
X161112061Y-164502652D01*
X161112061Y-164502652D02*
X161133370Y-164437173D01*
X161133370Y-164437173D02*
X161132748Y-164361057D01*
X161132748Y-164361057D02*
X161111144Y-164308359D01*
X161111144Y-164308359D02*
X161106550Y-164304820D01*
X161106550Y-164304820D02*
X161061885Y-164307535D01*
X161061885Y-164307535D02*
X160983487Y-164335935D01*
X160983487Y-164335935D02*
X160939792Y-164356995D01*
X160939792Y-164356995D02*
X160765621Y-164424087D01*
X160765621Y-164424087D02*
X160597972Y-164446056D01*
X160597972Y-164446056D02*
X160446829Y-164426186D01*
X160446829Y-164426186D02*
X160322175Y-164367761D01*
X160322175Y-164367761D02*
X160233993Y-164274064D01*
X160233993Y-164274064D02*
X160192267Y-164148378D01*
X160192267Y-164148378D02*
X160190260Y-164110470D01*
X160190260Y-164110470D02*
X160211747Y-164021260D01*
X160211747Y-164021260D02*
X160279731Y-163932090D01*
X160279731Y-163932090D02*
X160399495Y-163838044D01*
X160399495Y-163838044D02*
X160576322Y-163734206D01*
X160576322Y-163734206D02*
X160618283Y-163712201D01*
X160618283Y-163712201D02*
X160802221Y-163608427D01*
X160802221Y-163608427D02*
X160931324Y-163511457D01*
X160931324Y-163511457D02*
X161013799Y-163411095D01*
X161013799Y-163411095D02*
X161057855Y-163297144D01*
X161057855Y-163297144D02*
X161071701Y-163159409D01*
X161071701Y-163159409D02*
X161071751Y-163148930D01*
X161071751Y-163148930D02*
X161046077Y-162961799D01*
X161046077Y-162961799D02*
X160969422Y-162815336D01*
X160969422Y-162815336D02*
X160842339Y-162710107D01*
X160842339Y-162710107D02*
X160665380Y-162646681D01*
X160665380Y-162646681D02*
X160569122Y-162631877D01*
X160569122Y-162631877D02*
X160439446Y-162631036D01*
X160439446Y-162631036D02*
X160303980Y-162650150D01*
X160303980Y-162650150D02*
X160303980Y-162650150D01*
G36*
X160569122Y-162631877D02*
G01*
X160665380Y-162646681D01*
X160842339Y-162710107D01*
X160969422Y-162815336D01*
X161046077Y-162961799D01*
X161071751Y-163148930D01*
X161071701Y-163159409D01*
X161057855Y-163297144D01*
X161013799Y-163411095D01*
X160931324Y-163511457D01*
X160802221Y-163608427D01*
X160618283Y-163712201D01*
X160576322Y-163734206D01*
X160399495Y-163838044D01*
X160279731Y-163932090D01*
X160211747Y-164021260D01*
X160190260Y-164110470D01*
X160192267Y-164148378D01*
X160233993Y-164274064D01*
X160322175Y-164367761D01*
X160446829Y-164426186D01*
X160597972Y-164446056D01*
X160765621Y-164424087D01*
X160939792Y-164356995D01*
X160983487Y-164335935D01*
X161061885Y-164307535D01*
X161106550Y-164304820D01*
X161111144Y-164308359D01*
X161132748Y-164361057D01*
X161133370Y-164437173D01*
X161112061Y-164502652D01*
X161109427Y-164506351D01*
X161045629Y-164558593D01*
X160943481Y-164610095D01*
X160826892Y-164648620D01*
X160636489Y-164675603D01*
X160426856Y-164660265D01*
X160239843Y-164598390D01*
X160086250Y-164493769D01*
X159976876Y-164350194D01*
X159971011Y-164338078D01*
X159937654Y-164214800D01*
X159930175Y-164068767D01*
X159947881Y-163927832D01*
X159990080Y-163819849D01*
X160073448Y-163724770D01*
X160236766Y-163606298D01*
X160463980Y-163490354D01*
X160583396Y-163431459D01*
X160713307Y-163340158D01*
X160787179Y-163240997D01*
X160810568Y-163128169D01*
X160800786Y-163052629D01*
X160743677Y-162948617D01*
X160645003Y-162878974D01*
X160515671Y-162847564D01*
X160366587Y-162858251D01*
X160208658Y-162914901D01*
X160175184Y-162930900D01*
X160098499Y-162958916D01*
X160054840Y-162961945D01*
X160035111Y-162931595D01*
X160028328Y-162857763D01*
X160046194Y-162773391D01*
X160088420Y-162728554D01*
X160180909Y-162684296D01*
X160303980Y-162650150D01*
X160439446Y-162631036D01*
X160569122Y-162631877D01*
G37*
X160569122Y-162631877D02*
X160665380Y-162646681D01*
X160842339Y-162710107D01*
X160969422Y-162815336D01*
X161046077Y-162961799D01*
X161071751Y-163148930D01*
X161071701Y-163159409D01*
X161057855Y-163297144D01*
X161013799Y-163411095D01*
X160931324Y-163511457D01*
X160802221Y-163608427D01*
X160618283Y-163712201D01*
X160576322Y-163734206D01*
X160399495Y-163838044D01*
X160279731Y-163932090D01*
X160211747Y-164021260D01*
X160190260Y-164110470D01*
X160192267Y-164148378D01*
X160233993Y-164274064D01*
X160322175Y-164367761D01*
X160446829Y-164426186D01*
X160597972Y-164446056D01*
X160765621Y-164424087D01*
X160939792Y-164356995D01*
X160983487Y-164335935D01*
X161061885Y-164307535D01*
X161106550Y-164304820D01*
X161111144Y-164308359D01*
X161132748Y-164361057D01*
X161133370Y-164437173D01*
X161112061Y-164502652D01*
X161109427Y-164506351D01*
X161045629Y-164558593D01*
X160943481Y-164610095D01*
X160826892Y-164648620D01*
X160636489Y-164675603D01*
X160426856Y-164660265D01*
X160239843Y-164598390D01*
X160086250Y-164493769D01*
X159976876Y-164350194D01*
X159971011Y-164338078D01*
X159937654Y-164214800D01*
X159930175Y-164068767D01*
X159947881Y-163927832D01*
X159990080Y-163819849D01*
X160073448Y-163724770D01*
X160236766Y-163606298D01*
X160463980Y-163490354D01*
X160583396Y-163431459D01*
X160713307Y-163340158D01*
X160787179Y-163240997D01*
X160810568Y-163128169D01*
X160800786Y-163052629D01*
X160743677Y-162948617D01*
X160645003Y-162878974D01*
X160515671Y-162847564D01*
X160366587Y-162858251D01*
X160208658Y-162914901D01*
X160175184Y-162930900D01*
X160098499Y-162958916D01*
X160054840Y-162961945D01*
X160035111Y-162931595D01*
X160028328Y-162857763D01*
X160046194Y-162773391D01*
X160088420Y-162728554D01*
X160180909Y-162684296D01*
X160303980Y-162650150D01*
X160439446Y-162631036D01*
X160569122Y-162631877D01*
X157954214Y-162635959D02*
X157741356Y-162690119D01*
X157741356Y-162690119D02*
X157682638Y-162716878D01*
X157682638Y-162716878D02*
X157578113Y-162784344D01*
X157578113Y-162784344D02*
X157525844Y-162860616D01*
X157525844Y-162860616D02*
X157513139Y-162949349D01*
X157513139Y-162949349D02*
X157528111Y-163012693D01*
X157528111Y-163012693D02*
X157575871Y-163026512D01*
X157575871Y-163026512D02*
X157660679Y-162991031D01*
X157660679Y-162991031D02*
X157710835Y-162959858D01*
X157710835Y-162959858D02*
X157849010Y-162891158D01*
X157849010Y-162891158D02*
X158009659Y-162860803D01*
X158009659Y-162860803D02*
X158030294Y-162859344D01*
X158030294Y-162859344D02*
X158219538Y-162872186D01*
X158219538Y-162872186D02*
X158373017Y-162938547D01*
X158373017Y-162938547D02*
X158496213Y-163061565D01*
X158496213Y-163061565D02*
X158555951Y-163160111D01*
X158555951Y-163160111D02*
X158594535Y-163242415D01*
X158594535Y-163242415D02*
X158619110Y-163320306D01*
X158619110Y-163320306D02*
X158632723Y-163412270D01*
X158632723Y-163412270D02*
X158638419Y-163536793D01*
X158638419Y-163536793D02*
X158639326Y-163666152D01*
X158639326Y-163666152D02*
X158637283Y-163830258D01*
X158637283Y-163830258D02*
X158629527Y-163946696D01*
X158629527Y-163946696D02*
X158613343Y-164033021D01*
X158613343Y-164033021D02*
X158586015Y-164106793D01*
X158586015Y-164106793D02*
X158564552Y-164149694D01*
X158564552Y-164149694D02*
X158454067Y-164293309D01*
X158454067Y-164293309D02*
X158307800Y-164390362D01*
X158307800Y-164390362D02*
X158137995Y-164438527D01*
X158137995Y-164438527D02*
X157956897Y-164435479D01*
X157956897Y-164435479D02*
X157776751Y-164378891D01*
X157776751Y-164378891D02*
X157674782Y-164318677D01*
X157674782Y-164318677D02*
X157603164Y-164274662D01*
X157603164Y-164274662D02*
X157551220Y-164254634D01*
X157551220Y-164254634D02*
X157548909Y-164254519D01*
X157548909Y-164254519D02*
X157518111Y-164280286D01*
X157518111Y-164280286D02*
X157512684Y-164343086D01*
X157512684Y-164343086D02*
X157529579Y-164421166D01*
X157529579Y-164421166D02*
X157565744Y-164492776D01*
X157565744Y-164492776D02*
X157585478Y-164515256D01*
X157585478Y-164515256D02*
X157706153Y-164591254D01*
X157706153Y-164591254D02*
X157869350Y-164643959D01*
X157869350Y-164643959D02*
X158055395Y-164669959D01*
X158055395Y-164669959D02*
X158244618Y-164665847D01*
X158244618Y-164665847D02*
X158350288Y-164647796D01*
X158350288Y-164647796D02*
X158537799Y-164571180D01*
X158537799Y-164571180D02*
X158693729Y-164441890D01*
X158693729Y-164441890D02*
X158814756Y-164266117D01*
X158814756Y-164266117D02*
X158897561Y-164050050D01*
X158897561Y-164050050D02*
X158938822Y-163799878D01*
X158938822Y-163799878D02*
X158937841Y-163552590D01*
X158937841Y-163552590D02*
X158896236Y-163300088D01*
X158896236Y-163300088D02*
X158815123Y-163078068D01*
X158815123Y-163078068D02*
X158699359Y-162897078D01*
X158699359Y-162897078D02*
X158586516Y-162789979D01*
X158586516Y-162789979D02*
X158394655Y-162687333D01*
X158394655Y-162687333D02*
X158177934Y-162635512D01*
X158177934Y-162635512D02*
X157954214Y-162635959D01*
X157954214Y-162635959D02*
X157954214Y-162635959D01*
G36*
X158394655Y-162687333D02*
G01*
X158586516Y-162789979D01*
X158699359Y-162897078D01*
X158815123Y-163078068D01*
X158896236Y-163300088D01*
X158937841Y-163552590D01*
X158938822Y-163799878D01*
X158897561Y-164050050D01*
X158814756Y-164266117D01*
X158693729Y-164441890D01*
X158537799Y-164571180D01*
X158350288Y-164647796D01*
X158244618Y-164665847D01*
X158055395Y-164669959D01*
X157869350Y-164643959D01*
X157706153Y-164591254D01*
X157585478Y-164515256D01*
X157565744Y-164492776D01*
X157529579Y-164421166D01*
X157512684Y-164343086D01*
X157518111Y-164280286D01*
X157548909Y-164254519D01*
X157551220Y-164254634D01*
X157603164Y-164274662D01*
X157674782Y-164318677D01*
X157776751Y-164378891D01*
X157956897Y-164435479D01*
X158137995Y-164438527D01*
X158307800Y-164390362D01*
X158454067Y-164293309D01*
X158564552Y-164149694D01*
X158586015Y-164106793D01*
X158613343Y-164033021D01*
X158629527Y-163946696D01*
X158637283Y-163830258D01*
X158639326Y-163666152D01*
X158638419Y-163536793D01*
X158632723Y-163412270D01*
X158619110Y-163320306D01*
X158594535Y-163242415D01*
X158555951Y-163160111D01*
X158496213Y-163061565D01*
X158373017Y-162938547D01*
X158219538Y-162872186D01*
X158030294Y-162859344D01*
X158009659Y-162860803D01*
X157849010Y-162891158D01*
X157710835Y-162959858D01*
X157660679Y-162991031D01*
X157575871Y-163026512D01*
X157528111Y-163012693D01*
X157513139Y-162949349D01*
X157525844Y-162860616D01*
X157578113Y-162784344D01*
X157682638Y-162716878D01*
X157741356Y-162690119D01*
X157954214Y-162635959D01*
X158177934Y-162635512D01*
X158394655Y-162687333D01*
G37*
X158394655Y-162687333D02*
X158586516Y-162789979D01*
X158699359Y-162897078D01*
X158815123Y-163078068D01*
X158896236Y-163300088D01*
X158937841Y-163552590D01*
X158938822Y-163799878D01*
X158897561Y-164050050D01*
X158814756Y-164266117D01*
X158693729Y-164441890D01*
X158537799Y-164571180D01*
X158350288Y-164647796D01*
X158244618Y-164665847D01*
X158055395Y-164669959D01*
X157869350Y-164643959D01*
X157706153Y-164591254D01*
X157585478Y-164515256D01*
X157565744Y-164492776D01*
X157529579Y-164421166D01*
X157512684Y-164343086D01*
X157518111Y-164280286D01*
X157548909Y-164254519D01*
X157551220Y-164254634D01*
X157603164Y-164274662D01*
X157674782Y-164318677D01*
X157776751Y-164378891D01*
X157956897Y-164435479D01*
X158137995Y-164438527D01*
X158307800Y-164390362D01*
X158454067Y-164293309D01*
X158564552Y-164149694D01*
X158586015Y-164106793D01*
X158613343Y-164033021D01*
X158629527Y-163946696D01*
X158637283Y-163830258D01*
X158639326Y-163666152D01*
X158638419Y-163536793D01*
X158632723Y-163412270D01*
X158619110Y-163320306D01*
X158594535Y-163242415D01*
X158555951Y-163160111D01*
X158496213Y-163061565D01*
X158373017Y-162938547D01*
X158219538Y-162872186D01*
X158030294Y-162859344D01*
X158009659Y-162860803D01*
X157849010Y-162891158D01*
X157710835Y-162959858D01*
X157660679Y-162991031D01*
X157575871Y-163026512D01*
X157528111Y-163012693D01*
X157513139Y-162949349D01*
X157525844Y-162860616D01*
X157578113Y-162784344D01*
X157682638Y-162716878D01*
X157741356Y-162690119D01*
X157954214Y-162635959D01*
X158177934Y-162635512D01*
X158394655Y-162687333D01*
X164517808Y-162663531D02*
X164304699Y-162687634D01*
X164304699Y-162687634D02*
X164128105Y-162736457D01*
X164128105Y-162736457D02*
X163975173Y-162812457D01*
X163975173Y-162812457D02*
X163968020Y-162816950D01*
X163968020Y-162816950D02*
X163816407Y-162950535D01*
X163816407Y-162950535D02*
X163702555Y-163130150D01*
X163702555Y-163130150D02*
X163629620Y-163346453D01*
X163629620Y-163346453D02*
X163600760Y-163590101D01*
X163600760Y-163590101D02*
X163618869Y-163850102D01*
X163618869Y-163850102D02*
X163681188Y-164098167D01*
X163681188Y-164098167D02*
X163782652Y-164296471D01*
X163782652Y-164296471D02*
X163926600Y-164449859D01*
X163926600Y-164449859D02*
X164107998Y-164559414D01*
X164107998Y-164559414D02*
X164199174Y-164588215D01*
X164199174Y-164588215D02*
X164327241Y-164612240D01*
X164327241Y-164612240D02*
X164478383Y-164630801D01*
X164478383Y-164630801D02*
X164638781Y-164643212D01*
X164638781Y-164643212D02*
X164794618Y-164648785D01*
X164794618Y-164648785D02*
X164932077Y-164646834D01*
X164932077Y-164646834D02*
X165037341Y-164636671D01*
X165037341Y-164636671D02*
X165096591Y-164617610D01*
X165096591Y-164617610D02*
X165103818Y-164608931D01*
X165103818Y-164608931D02*
X165107953Y-164565780D01*
X165107953Y-164565780D02*
X165111141Y-164465980D01*
X165111141Y-164465980D02*
X165113305Y-164318171D01*
X165113305Y-164318171D02*
X165114372Y-164130992D01*
X165114372Y-164130992D02*
X165114265Y-163913086D01*
X165114265Y-163913086D02*
X165112911Y-163673092D01*
X165112911Y-163673092D02*
X165112431Y-163617489D01*
X165112431Y-163617489D02*
X165105702Y-162883310D01*
X165105702Y-162883310D02*
X164858897Y-162883310D01*
X164858897Y-162883310D02*
X164858897Y-164417758D01*
X164858897Y-164417758D02*
X164604633Y-164417758D01*
X164604633Y-164417758D02*
X164447425Y-164412346D01*
X164447425Y-164412346D02*
X164329965Y-164393063D01*
X164329965Y-164393063D02*
X164227373Y-164355341D01*
X164227373Y-164355341D02*
X164204697Y-164344300D01*
X164204697Y-164344300D02*
X164066807Y-164246591D01*
X164066807Y-164246591D02*
X163969737Y-164109937D01*
X163969737Y-164109937D02*
X163910112Y-163927864D01*
X163910112Y-163927864D02*
X163886448Y-163734335D01*
X163886448Y-163734335D02*
X163887629Y-163502917D01*
X163887629Y-163502917D02*
X163922865Y-163316878D01*
X163922865Y-163316878D02*
X163995265Y-163164100D01*
X163995265Y-163164100D02*
X164051728Y-163090229D01*
X164051728Y-163090229D02*
X164158409Y-162989823D01*
X164158409Y-162989823D02*
X164277628Y-162926035D01*
X164277628Y-162926035D02*
X164426331Y-162892618D01*
X164426331Y-162892618D02*
X164612990Y-162883310D01*
X164612990Y-162883310D02*
X164858897Y-162883310D01*
X164858897Y-162883310D02*
X165105702Y-162883310D01*
X165105702Y-162883310D02*
X165103756Y-162671099D01*
X165103756Y-162671099D02*
X164780284Y-162661693D01*
X164780284Y-162661693D02*
X164517808Y-162663531D01*
X164517808Y-162663531D02*
X164517808Y-162663531D01*
G36*
X165112911Y-163673092D02*
G01*
X165114265Y-163913086D01*
X165114372Y-164130992D01*
X165113305Y-164318171D01*
X165111141Y-164465980D01*
X165107953Y-164565780D01*
X165103818Y-164608931D01*
X165096591Y-164617610D01*
X165037341Y-164636671D01*
X164932077Y-164646834D01*
X164794618Y-164648785D01*
X164638781Y-164643212D01*
X164478383Y-164630801D01*
X164327241Y-164612240D01*
X164199174Y-164588215D01*
X164107998Y-164559414D01*
X163926600Y-164449859D01*
X163782652Y-164296471D01*
X163681188Y-164098167D01*
X163618869Y-163850102D01*
X163610806Y-163734335D01*
X163886448Y-163734335D01*
X163910112Y-163927864D01*
X163969737Y-164109937D01*
X164066807Y-164246591D01*
X164204697Y-164344300D01*
X164227373Y-164355341D01*
X164329965Y-164393063D01*
X164447425Y-164412346D01*
X164604633Y-164417758D01*
X164858897Y-164417758D01*
X164858897Y-162883310D01*
X164612990Y-162883310D01*
X164426331Y-162892618D01*
X164277628Y-162926035D01*
X164158409Y-162989823D01*
X164051728Y-163090229D01*
X163995265Y-163164100D01*
X163922865Y-163316878D01*
X163887629Y-163502917D01*
X163886448Y-163734335D01*
X163610806Y-163734335D01*
X163600760Y-163590101D01*
X163629620Y-163346453D01*
X163702555Y-163130150D01*
X163816407Y-162950535D01*
X163968020Y-162816950D01*
X163975173Y-162812457D01*
X164128105Y-162736457D01*
X164304699Y-162687634D01*
X164517808Y-162663531D01*
X164780284Y-162661693D01*
X165103756Y-162671099D01*
X165105702Y-162883310D01*
X165112431Y-163617489D01*
X165112911Y-163673092D01*
G37*
X165112911Y-163673092D02*
X165114265Y-163913086D01*
X165114372Y-164130992D01*
X165113305Y-164318171D01*
X165111141Y-164465980D01*
X165107953Y-164565780D01*
X165103818Y-164608931D01*
X165096591Y-164617610D01*
X165037341Y-164636671D01*
X164932077Y-164646834D01*
X164794618Y-164648785D01*
X164638781Y-164643212D01*
X164478383Y-164630801D01*
X164327241Y-164612240D01*
X164199174Y-164588215D01*
X164107998Y-164559414D01*
X163926600Y-164449859D01*
X163782652Y-164296471D01*
X163681188Y-164098167D01*
X163618869Y-163850102D01*
X163610806Y-163734335D01*
X163886448Y-163734335D01*
X163910112Y-163927864D01*
X163969737Y-164109937D01*
X164066807Y-164246591D01*
X164204697Y-164344300D01*
X164227373Y-164355341D01*
X164329965Y-164393063D01*
X164447425Y-164412346D01*
X164604633Y-164417758D01*
X164858897Y-164417758D01*
X164858897Y-162883310D01*
X164612990Y-162883310D01*
X164426331Y-162892618D01*
X164277628Y-162926035D01*
X164158409Y-162989823D01*
X164051728Y-163090229D01*
X163995265Y-163164100D01*
X163922865Y-163316878D01*
X163887629Y-163502917D01*
X163886448Y-163734335D01*
X163610806Y-163734335D01*
X163600760Y-163590101D01*
X163629620Y-163346453D01*
X163702555Y-163130150D01*
X163816407Y-162950535D01*
X163968020Y-162816950D01*
X163975173Y-162812457D01*
X164128105Y-162736457D01*
X164304699Y-162687634D01*
X164517808Y-162663531D01*
X164780284Y-162661693D01*
X165103756Y-162671099D01*
X165105702Y-162883310D01*
X165112431Y-163617489D01*
X165112911Y-163673092D01*
X162230748Y-164629968D02*
X162337078Y-164640216D01*
X162337078Y-164640216D02*
X162423078Y-164635155D01*
X162423078Y-164635155D02*
X162460021Y-164607170D01*
X162460021Y-164607170D02*
X162463982Y-164564485D01*
X162463982Y-164564485D02*
X162467013Y-164465130D01*
X162467013Y-164465130D02*
X162469043Y-164317724D01*
X162469043Y-164317724D02*
X162470004Y-164130887D01*
X162470004Y-164130887D02*
X162469827Y-163913238D01*
X162469827Y-163913238D02*
X162468441Y-163673398D01*
X162468441Y-163673398D02*
X162467958Y-163617489D01*
X162467958Y-163617489D02*
X162459283Y-162671099D01*
X162459283Y-162671099D02*
X162230748Y-162671099D01*
X162230748Y-162671099D02*
X162230748Y-164629968D01*
X162230748Y-164629968D02*
X162230748Y-164629968D01*
G36*
X162467958Y-163617489D02*
G01*
X162468441Y-163673398D01*
X162469827Y-163913238D01*
X162470004Y-164130887D01*
X162469043Y-164317724D01*
X162467013Y-164465130D01*
X162463982Y-164564485D01*
X162460021Y-164607170D01*
X162423078Y-164635155D01*
X162337078Y-164640216D01*
X162230748Y-164629968D01*
X162230748Y-162671099D01*
X162459283Y-162671099D01*
X162467958Y-163617489D01*
G37*
X162467958Y-163617489D02*
X162468441Y-163673398D01*
X162469827Y-163913238D01*
X162470004Y-164130887D01*
X162469043Y-164317724D01*
X162467013Y-164465130D01*
X162463982Y-164564485D01*
X162460021Y-164607170D01*
X162423078Y-164635155D01*
X162337078Y-164640216D01*
X162230748Y-164629968D01*
X162230748Y-162671099D01*
X162459283Y-162671099D01*
X162467958Y-163617489D01*
X156207226Y-164646292D02*
X156322518Y-164646292D01*
X156322518Y-164646292D02*
X156403405Y-164635741D01*
X156403405Y-164635741D02*
X156451013Y-164609863D01*
X156451013Y-164609863D02*
X156453623Y-164605085D01*
X156453623Y-164605085D02*
X156457379Y-164562951D01*
X156457379Y-164562951D02*
X156460224Y-164464122D01*
X156460224Y-164464122D02*
X156462095Y-164317194D01*
X156462095Y-164317194D02*
X156462931Y-164130761D01*
X156462931Y-164130761D02*
X156462669Y-163913418D01*
X156462669Y-163913418D02*
X156461248Y-163673761D01*
X156461248Y-163673761D02*
X156460760Y-163617489D01*
X156460760Y-163617489D02*
X156452085Y-162671099D01*
X156452085Y-162671099D02*
X156329656Y-162660967D01*
X156329656Y-162660967D02*
X156207226Y-162650834D01*
X156207226Y-162650834D02*
X156207226Y-164646292D01*
X156207226Y-164646292D02*
X156207226Y-164646292D01*
G36*
X156329656Y-162660967D02*
G01*
X156452085Y-162671099D01*
X156460760Y-163617489D01*
X156461248Y-163673761D01*
X156462669Y-163913418D01*
X156462931Y-164130761D01*
X156462095Y-164317194D01*
X156460224Y-164464122D01*
X156457379Y-164562951D01*
X156453623Y-164605085D01*
X156451013Y-164609863D01*
X156403405Y-164635741D01*
X156322518Y-164646292D01*
X156207226Y-164646292D01*
X156207226Y-162650834D01*
X156329656Y-162660967D01*
G37*
X156329656Y-162660967D02*
X156452085Y-162671099D01*
X156460760Y-163617489D01*
X156461248Y-163673761D01*
X156462669Y-163913418D01*
X156462931Y-164130761D01*
X156462095Y-164317194D01*
X156460224Y-164464122D01*
X156457379Y-164562951D01*
X156453623Y-164605085D01*
X156451013Y-164609863D01*
X156403405Y-164635741D01*
X156322518Y-164646292D01*
X156207226Y-164646292D01*
X156207226Y-162650834D01*
X156329656Y-162660967D01*
X154498950Y-162660711D02*
X154328807Y-162669015D01*
X154328807Y-162669015D02*
X154208260Y-162680525D01*
X154208260Y-162680525D02*
X154121607Y-162698121D01*
X154121607Y-162698121D02*
X154053149Y-162724684D01*
X154053149Y-162724684D02*
X154005997Y-162751175D01*
X154005997Y-162751175D02*
X153879408Y-162851186D01*
X153879408Y-162851186D02*
X153801397Y-162971445D01*
X153801397Y-162971445D02*
X153764624Y-163126571D01*
X153764624Y-163126571D02*
X153759299Y-163242436D01*
X153759299Y-163242436D02*
X153783009Y-163453977D01*
X153783009Y-163453977D02*
X153854154Y-163622394D01*
X153854154Y-163622394D02*
X153974128Y-163748994D01*
X153974128Y-163748994D02*
X154144328Y-163835080D01*
X154144328Y-163835080D02*
X154366147Y-163881960D01*
X154366147Y-163881960D02*
X154450225Y-163889009D01*
X154450225Y-163889009D02*
X154705427Y-163903782D01*
X154705427Y-163903782D02*
X154705427Y-164646292D01*
X154705427Y-164646292D02*
X154814253Y-164646292D01*
X154814253Y-164646292D02*
X154894923Y-164640319D01*
X154894923Y-164640319D02*
X154943370Y-164625812D01*
X154943370Y-164625812D02*
X154944844Y-164624527D01*
X154944844Y-164624527D02*
X154950426Y-164587498D01*
X154950426Y-164587498D02*
X154955479Y-164493586D01*
X154955479Y-164493586D02*
X154959811Y-164351203D01*
X154959811Y-164351203D02*
X154963232Y-164168760D01*
X154963232Y-164168760D02*
X154965551Y-163954668D01*
X154965551Y-163954668D02*
X154966576Y-163717340D01*
X154966576Y-163717340D02*
X154966609Y-163665414D01*
X154966609Y-163665414D02*
X154966172Y-163387409D01*
X154966172Y-163387409D02*
X154964628Y-163167721D01*
X154964628Y-163167721D02*
X154961626Y-162999379D01*
X154961626Y-162999379D02*
X154957124Y-162883310D01*
X154957124Y-162883310D02*
X154705427Y-162883310D01*
X154705427Y-162883310D02*
X154705427Y-163269643D01*
X154705427Y-163269643D02*
X154703686Y-163422368D01*
X154703686Y-163422368D02*
X154698950Y-163550448D01*
X154698950Y-163550448D02*
X154691947Y-163640207D01*
X154691947Y-163640207D02*
X154683662Y-163677740D01*
X154683662Y-163677740D02*
X154631662Y-163694686D01*
X154631662Y-163694686D02*
X154538225Y-163698293D01*
X154538225Y-163698293D02*
X154425690Y-163689223D01*
X154425690Y-163689223D02*
X154316399Y-163668137D01*
X154316399Y-163668137D02*
X154311229Y-163666725D01*
X154311229Y-163666725D02*
X154172297Y-163602535D01*
X154172297Y-163602535D02*
X154080919Y-163497595D01*
X154080919Y-163497595D02*
X154033096Y-163346643D01*
X154033096Y-163346643D02*
X154026708Y-163292377D01*
X154026708Y-163292377D02*
X154021132Y-163185561D01*
X154021132Y-163185561D02*
X154032974Y-163116034D01*
X154032974Y-163116034D02*
X154071603Y-163056290D01*
X154071603Y-163056290D02*
X154126842Y-162998296D01*
X154126842Y-162998296D02*
X154191221Y-162937956D01*
X154191221Y-162937956D02*
X154247496Y-162903537D01*
X154247496Y-162903537D02*
X154317530Y-162887790D01*
X154317530Y-162887790D02*
X154423184Y-162883466D01*
X154423184Y-162883466D02*
X154473627Y-162883310D01*
X154473627Y-162883310D02*
X154705427Y-162883310D01*
X154705427Y-162883310D02*
X154957124Y-162883310D01*
X154957124Y-162883310D02*
X154956817Y-162875408D01*
X154956817Y-162875408D02*
X154949851Y-162788836D01*
X154949851Y-162788836D02*
X154940377Y-162732690D01*
X154940377Y-162732690D02*
X154928045Y-162699996D01*
X154928045Y-162699996D02*
X154917510Y-162687318D01*
X154917510Y-162687318D02*
X154869382Y-162668250D01*
X154869382Y-162668250D02*
X154777155Y-162658270D01*
X154777155Y-162658270D02*
X154633129Y-162656887D01*
X154633129Y-162656887D02*
X154498950Y-162660711D01*
X154498950Y-162660711D02*
X154498950Y-162660711D01*
G36*
X154964628Y-163167721D02*
G01*
X154966172Y-163387409D01*
X154966609Y-163665414D01*
X154966576Y-163717340D01*
X154965551Y-163954668D01*
X154963232Y-164168760D01*
X154959811Y-164351203D01*
X154955479Y-164493586D01*
X154950426Y-164587498D01*
X154944844Y-164624527D01*
X154943370Y-164625812D01*
X154894923Y-164640319D01*
X154814253Y-164646292D01*
X154705427Y-164646292D01*
X154705427Y-163903782D01*
X154450225Y-163889009D01*
X154366147Y-163881960D01*
X154144328Y-163835080D01*
X153974128Y-163748994D01*
X153854154Y-163622394D01*
X153783009Y-163453977D01*
X153759299Y-163242436D01*
X153761913Y-163185561D01*
X154021132Y-163185561D01*
X154026708Y-163292377D01*
X154033096Y-163346643D01*
X154080919Y-163497595D01*
X154172297Y-163602535D01*
X154311229Y-163666725D01*
X154316399Y-163668137D01*
X154425690Y-163689223D01*
X154538225Y-163698293D01*
X154631662Y-163694686D01*
X154683662Y-163677740D01*
X154691947Y-163640207D01*
X154698950Y-163550448D01*
X154703686Y-163422368D01*
X154705427Y-163269643D01*
X154705427Y-162883310D01*
X154473627Y-162883310D01*
X154423184Y-162883466D01*
X154317530Y-162887790D01*
X154247496Y-162903537D01*
X154191221Y-162937956D01*
X154126842Y-162998296D01*
X154071603Y-163056290D01*
X154032974Y-163116034D01*
X154021132Y-163185561D01*
X153761913Y-163185561D01*
X153764624Y-163126571D01*
X153801397Y-162971445D01*
X153879408Y-162851186D01*
X154005997Y-162751175D01*
X154053149Y-162724684D01*
X154121607Y-162698121D01*
X154208260Y-162680525D01*
X154328807Y-162669015D01*
X154498950Y-162660711D01*
X154633129Y-162656887D01*
X154777155Y-162658270D01*
X154869382Y-162668250D01*
X154917510Y-162687318D01*
X154928045Y-162699996D01*
X154940377Y-162732690D01*
X154949851Y-162788836D01*
X154956817Y-162875408D01*
X154957124Y-162883310D01*
X154961626Y-162999379D01*
X154964628Y-163167721D01*
G37*
X154964628Y-163167721D02*
X154966172Y-163387409D01*
X154966609Y-163665414D01*
X154966576Y-163717340D01*
X154965551Y-163954668D01*
X154963232Y-164168760D01*
X154959811Y-164351203D01*
X154955479Y-164493586D01*
X154950426Y-164587498D01*
X154944844Y-164624527D01*
X154943370Y-164625812D01*
X154894923Y-164640319D01*
X154814253Y-164646292D01*
X154705427Y-164646292D01*
X154705427Y-163903782D01*
X154450225Y-163889009D01*
X154366147Y-163881960D01*
X154144328Y-163835080D01*
X153974128Y-163748994D01*
X153854154Y-163622394D01*
X153783009Y-163453977D01*
X153759299Y-163242436D01*
X153761913Y-163185561D01*
X154021132Y-163185561D01*
X154026708Y-163292377D01*
X154033096Y-163346643D01*
X154080919Y-163497595D01*
X154172297Y-163602535D01*
X154311229Y-163666725D01*
X154316399Y-163668137D01*
X154425690Y-163689223D01*
X154538225Y-163698293D01*
X154631662Y-163694686D01*
X154683662Y-163677740D01*
X154691947Y-163640207D01*
X154698950Y-163550448D01*
X154703686Y-163422368D01*
X154705427Y-163269643D01*
X154705427Y-162883310D01*
X154473627Y-162883310D01*
X154423184Y-162883466D01*
X154317530Y-162887790D01*
X154247496Y-162903537D01*
X154191221Y-162937956D01*
X154126842Y-162998296D01*
X154071603Y-163056290D01*
X154032974Y-163116034D01*
X154021132Y-163185561D01*
X153761913Y-163185561D01*
X153764624Y-163126571D01*
X153801397Y-162971445D01*
X153879408Y-162851186D01*
X154005997Y-162751175D01*
X154053149Y-162724684D01*
X154121607Y-162698121D01*
X154208260Y-162680525D01*
X154328807Y-162669015D01*
X154498950Y-162660711D01*
X154633129Y-162656887D01*
X154777155Y-162658270D01*
X154869382Y-162668250D01*
X154917510Y-162687318D01*
X154928045Y-162699996D01*
X154940377Y-162732690D01*
X154949851Y-162788836D01*
X154956817Y-162875408D01*
X154957124Y-162883310D01*
X154961626Y-162999379D01*
X154964628Y-163167721D01*
X152493537Y-162660967D02*
X152371108Y-162671099D01*
X152371108Y-162671099D02*
X152353722Y-164415629D01*
X152353722Y-164415629D02*
X151620208Y-164434081D01*
X151620208Y-164434081D02*
X151620208Y-164629968D01*
X151620208Y-164629968D02*
X152095486Y-164638967D01*
X152095486Y-164638967D02*
X152265492Y-164640682D01*
X152265492Y-164640682D02*
X152411792Y-164639315D01*
X152411792Y-164639315D02*
X152522200Y-164635199D01*
X152522200Y-164635199D02*
X152584530Y-164628668D01*
X152584530Y-164628668D02*
X152593365Y-164625364D01*
X152593365Y-164625364D02*
X152599050Y-164588205D01*
X152599050Y-164588205D02*
X152604212Y-164493994D01*
X152604212Y-164493994D02*
X152608662Y-164350974D01*
X152608662Y-164350974D02*
X152612215Y-164167387D01*
X152612215Y-164167387D02*
X152614684Y-163951478D01*
X152614684Y-163951478D02*
X152615882Y-163711488D01*
X152615882Y-163711488D02*
X152615967Y-163626798D01*
X152615967Y-163626798D02*
X152615967Y-162650834D01*
X152615967Y-162650834D02*
X152493537Y-162660967D01*
X152493537Y-162660967D02*
X152493537Y-162660967D01*
G36*
X152615967Y-163626798D02*
G01*
X152615882Y-163711488D01*
X152614684Y-163951478D01*
X152612215Y-164167387D01*
X152608662Y-164350974D01*
X152604212Y-164493994D01*
X152599050Y-164588205D01*
X152593365Y-164625364D01*
X152584530Y-164628668D01*
X152522200Y-164635199D01*
X152411792Y-164639315D01*
X152265492Y-164640682D01*
X152095486Y-164638967D01*
X151620208Y-164629968D01*
X151620208Y-164434081D01*
X152353722Y-164415629D01*
X152371108Y-162671099D01*
X152493537Y-162660967D01*
X152615967Y-162650834D01*
X152615967Y-163626798D01*
G37*
X152615967Y-163626798D02*
X152615882Y-163711488D01*
X152614684Y-163951478D01*
X152612215Y-164167387D01*
X152608662Y-164350974D01*
X152604212Y-164493994D01*
X152599050Y-164588205D01*
X152593365Y-164625364D01*
X152584530Y-164628668D01*
X152522200Y-164635199D01*
X152411792Y-164639315D01*
X152265492Y-164640682D01*
X152095486Y-164638967D01*
X151620208Y-164629968D01*
X151620208Y-164434081D01*
X152353722Y-164415629D01*
X152371108Y-162671099D01*
X152493537Y-162660967D01*
X152615967Y-162650834D01*
X152615967Y-163626798D01*
X150469373Y-162660967D02*
X150346944Y-162671099D01*
X150346944Y-162671099D02*
X150346944Y-164629968D01*
X150346944Y-164629968D02*
X150591802Y-164650234D01*
X150591802Y-164650234D02*
X150591802Y-162650834D01*
X150591802Y-162650834D02*
X150469373Y-162660967D01*
X150469373Y-162660967D02*
X150469373Y-162660967D01*
G36*
X150591802Y-164650234D02*
G01*
X150346944Y-164629968D01*
X150346944Y-162671099D01*
X150469373Y-162660967D01*
X150591802Y-162650834D01*
X150591802Y-164650234D01*
G37*
X150591802Y-164650234D02*
X150346944Y-164629968D01*
X150346944Y-162671099D01*
X150469373Y-162660967D01*
X150591802Y-162650834D01*
X150591802Y-164650234D01*
X147628531Y-163640268D02*
X147637175Y-164629968D01*
X147637175Y-164629968D02*
X147751442Y-164639583D01*
X147751442Y-164639583D02*
X147844999Y-164634566D01*
X147844999Y-164634566D02*
X147917123Y-164609338D01*
X147917123Y-164609338D02*
X147920441Y-164606936D01*
X147920441Y-164606936D02*
X147950103Y-164568132D01*
X147950103Y-164568132D02*
X148006403Y-164479783D01*
X148006403Y-164479783D02*
X148084740Y-164349678D01*
X148084740Y-164349678D02*
X148180508Y-164185608D01*
X148180508Y-164185608D02*
X148289105Y-163995362D01*
X148289105Y-163995362D02*
X148405926Y-163786732D01*
X148405926Y-163786732D02*
X148417744Y-163765409D01*
X148417744Y-163765409D02*
X148860315Y-162966146D01*
X148860315Y-162966146D02*
X148869054Y-163798057D01*
X148869054Y-163798057D02*
X148877792Y-164629968D01*
X148877792Y-164629968D02*
X148984379Y-164640235D01*
X148984379Y-164640235D02*
X149090966Y-164650501D01*
X149090966Y-164650501D02*
X149082323Y-163660800D01*
X149082323Y-163660800D02*
X149073679Y-162671099D01*
X149073679Y-162671099D02*
X148922261Y-162661298D01*
X148922261Y-162661298D02*
X148821471Y-162660739D01*
X148821471Y-162660739D02*
X148759094Y-162681279D01*
X148759094Y-162681279D02*
X148710050Y-162730572D01*
X148710050Y-162730572D02*
X148677901Y-162780561D01*
X148677901Y-162780561D02*
X148619765Y-162879148D01*
X148619765Y-162879148D02*
X148540674Y-163017470D01*
X148540674Y-163017470D02*
X148445656Y-163186666D01*
X148445656Y-163186666D02*
X148339741Y-163377872D01*
X148339741Y-163377872D02*
X148257483Y-163527999D01*
X148257483Y-163527999D02*
X147865710Y-164246351D01*
X147865710Y-164246351D02*
X147833062Y-162671099D01*
X147833062Y-162671099D02*
X147726475Y-162660833D01*
X147726475Y-162660833D02*
X147619887Y-162650567D01*
X147619887Y-162650567D02*
X147628531Y-163640268D01*
X147628531Y-163640268D02*
X147628531Y-163640268D01*
G36*
X147726475Y-162660833D02*
G01*
X147833062Y-162671099D01*
X147865710Y-164246351D01*
X148257483Y-163527999D01*
X148339741Y-163377872D01*
X148445656Y-163186666D01*
X148540674Y-163017470D01*
X148619765Y-162879148D01*
X148677901Y-162780561D01*
X148710050Y-162730572D01*
X148759094Y-162681279D01*
X148821471Y-162660739D01*
X148922261Y-162661298D01*
X149073679Y-162671099D01*
X149082323Y-163660800D01*
X149090966Y-164650501D01*
X148984379Y-164640235D01*
X148877792Y-164629968D01*
X148869054Y-163798057D01*
X148860315Y-162966146D01*
X148417744Y-163765409D01*
X148405926Y-163786732D01*
X148289105Y-163995362D01*
X148180508Y-164185608D01*
X148084740Y-164349678D01*
X148006403Y-164479783D01*
X147950103Y-164568132D01*
X147920441Y-164606936D01*
X147917123Y-164609338D01*
X147844999Y-164634566D01*
X147751442Y-164639583D01*
X147637175Y-164629968D01*
X147628531Y-163640268D01*
X147619887Y-162650567D01*
X147726475Y-162660833D01*
G37*
X147726475Y-162660833D02*
X147833062Y-162671099D01*
X147865710Y-164246351D01*
X148257483Y-163527999D01*
X148339741Y-163377872D01*
X148445656Y-163186666D01*
X148540674Y-163017470D01*
X148619765Y-162879148D01*
X148677901Y-162780561D01*
X148710050Y-162730572D01*
X148759094Y-162681279D01*
X148821471Y-162660739D01*
X148922261Y-162661298D01*
X149073679Y-162671099D01*
X149082323Y-163660800D01*
X149090966Y-164650501D01*
X148984379Y-164640235D01*
X148877792Y-164629968D01*
X148869054Y-163798057D01*
X148860315Y-162966146D01*
X148417744Y-163765409D01*
X148405926Y-163786732D01*
X148289105Y-163995362D01*
X148180508Y-164185608D01*
X148084740Y-164349678D01*
X148006403Y-164479783D01*
X147950103Y-164568132D01*
X147920441Y-164606936D01*
X147917123Y-164609338D01*
X147844999Y-164634566D01*
X147751442Y-164639583D01*
X147637175Y-164629968D01*
X147628531Y-163640268D01*
X147619887Y-162650567D01*
X147726475Y-162660833D01*
X145613528Y-162655368D02*
X145477829Y-162657925D01*
X145477829Y-162657925D02*
X145387521Y-162663614D01*
X145387521Y-162663614D02*
X145332655Y-162673607D01*
X145332655Y-162673607D02*
X145303281Y-162689070D01*
X145303281Y-162689070D02*
X145289449Y-162711174D01*
X145289449Y-162711174D02*
X145287992Y-162715472D01*
X145287992Y-162715472D02*
X145281579Y-162794519D01*
X145281579Y-162794519D02*
X145289285Y-162829739D01*
X145289285Y-162829739D02*
X145306590Y-162852466D01*
X145306590Y-162852466D02*
X145345058Y-162867835D01*
X145345058Y-162867835D02*
X145415438Y-162877197D01*
X145415438Y-162877197D02*
X145528478Y-162881902D01*
X145528478Y-162881902D02*
X145694926Y-162883300D01*
X145694926Y-162883300D02*
X145715672Y-162883310D01*
X145715672Y-162883310D02*
X146121502Y-162883310D01*
X146121502Y-162883310D02*
X146112115Y-163185303D01*
X146112115Y-163185303D02*
X146102728Y-163487295D01*
X146102728Y-163487295D02*
X145751764Y-163496561D01*
X145751764Y-163496561D02*
X145400800Y-163505828D01*
X145400800Y-163505828D02*
X145400800Y-163699506D01*
X145400800Y-163699506D02*
X146119052Y-163699506D01*
X146119052Y-163699506D02*
X146119052Y-164415807D01*
X146119052Y-164415807D02*
X145286532Y-164434081D01*
X145286532Y-164434081D02*
X145286532Y-164629968D01*
X145286532Y-164629968D02*
X145793414Y-164638922D01*
X145793414Y-164638922D02*
X146008869Y-164640947D01*
X146008869Y-164640947D02*
X146165499Y-164638059D01*
X146165499Y-164638059D02*
X146269615Y-164629900D01*
X146269615Y-164629900D02*
X146327528Y-164616111D01*
X146327528Y-164616111D02*
X146340265Y-164607907D01*
X146340265Y-164607907D02*
X146352632Y-164563582D01*
X146352632Y-164563582D02*
X146362905Y-164464305D01*
X146362905Y-164464305D02*
X146371078Y-164320384D01*
X146371078Y-164320384D02*
X146377148Y-164142124D01*
X146377148Y-164142124D02*
X146381110Y-163939834D01*
X146381110Y-163939834D02*
X146382961Y-163723818D01*
X146382961Y-163723818D02*
X146382695Y-163504386D01*
X146382695Y-163504386D02*
X146380309Y-163291842D01*
X146380309Y-163291842D02*
X146375798Y-163096495D01*
X146375798Y-163096495D02*
X146369158Y-162928651D01*
X146369158Y-162928651D02*
X146360386Y-162798616D01*
X146360386Y-162798616D02*
X146349475Y-162716699D01*
X146349475Y-162716699D02*
X146341057Y-162693953D01*
X146341057Y-162693953D02*
X146294802Y-162676565D01*
X146294802Y-162676565D02*
X146193908Y-162664409D01*
X146193908Y-162664409D02*
X146034918Y-162657231D01*
X146034918Y-162657231D02*
X145814376Y-162654779D01*
X145814376Y-162654779D02*
X145804568Y-162654776D01*
X145804568Y-162654776D02*
X145613528Y-162655368D01*
X145613528Y-162655368D02*
X145613528Y-162655368D01*
G36*
X145814376Y-162654779D02*
G01*
X146034918Y-162657231D01*
X146193908Y-162664409D01*
X146294802Y-162676565D01*
X146341057Y-162693953D01*
X146349475Y-162716699D01*
X146360386Y-162798616D01*
X146369158Y-162928651D01*
X146375798Y-163096495D01*
X146380309Y-163291842D01*
X146382695Y-163504386D01*
X146382961Y-163723818D01*
X146381110Y-163939834D01*
X146377148Y-164142124D01*
X146371078Y-164320384D01*
X146362905Y-164464305D01*
X146352632Y-164563582D01*
X146340265Y-164607907D01*
X146327528Y-164616111D01*
X146269615Y-164629900D01*
X146165499Y-164638059D01*
X146008869Y-164640947D01*
X145793414Y-164638922D01*
X145286532Y-164629968D01*
X145286532Y-164434081D01*
X146119052Y-164415807D01*
X146119052Y-163699506D01*
X145400800Y-163699506D01*
X145400800Y-163505828D01*
X145751764Y-163496561D01*
X146102728Y-163487295D01*
X146112115Y-163185303D01*
X146121502Y-162883310D01*
X145715672Y-162883310D01*
X145694926Y-162883300D01*
X145528478Y-162881902D01*
X145415438Y-162877197D01*
X145345058Y-162867835D01*
X145306590Y-162852466D01*
X145289285Y-162829739D01*
X145281579Y-162794519D01*
X145287992Y-162715472D01*
X145289449Y-162711174D01*
X145303281Y-162689070D01*
X145332655Y-162673607D01*
X145387521Y-162663614D01*
X145477829Y-162657925D01*
X145613528Y-162655368D01*
X145804568Y-162654776D01*
X145814376Y-162654779D01*
G37*
X145814376Y-162654779D02*
X146034918Y-162657231D01*
X146193908Y-162664409D01*
X146294802Y-162676565D01*
X146341057Y-162693953D01*
X146349475Y-162716699D01*
X146360386Y-162798616D01*
X146369158Y-162928651D01*
X146375798Y-163096495D01*
X146380309Y-163291842D01*
X146382695Y-163504386D01*
X146382961Y-163723818D01*
X146381110Y-163939834D01*
X146377148Y-164142124D01*
X146371078Y-164320384D01*
X146362905Y-164464305D01*
X146352632Y-164563582D01*
X146340265Y-164607907D01*
X146327528Y-164616111D01*
X146269615Y-164629900D01*
X146165499Y-164638059D01*
X146008869Y-164640947D01*
X145793414Y-164638922D01*
X145286532Y-164629968D01*
X145286532Y-164434081D01*
X146119052Y-164415807D01*
X146119052Y-163699506D01*
X145400800Y-163699506D01*
X145400800Y-163505828D01*
X145751764Y-163496561D01*
X146102728Y-163487295D01*
X146112115Y-163185303D01*
X146121502Y-162883310D01*
X145715672Y-162883310D01*
X145694926Y-162883300D01*
X145528478Y-162881902D01*
X145415438Y-162877197D01*
X145345058Y-162867835D01*
X145306590Y-162852466D01*
X145289285Y-162829739D01*
X145281579Y-162794519D01*
X145287992Y-162715472D01*
X145289449Y-162711174D01*
X145303281Y-162689070D01*
X145332655Y-162673607D01*
X145387521Y-162663614D01*
X145477829Y-162657925D01*
X145613528Y-162655368D01*
X145804568Y-162654776D01*
X145814376Y-162654779D01*
D12*
X166305144Y-160474210D02*
X144025144Y-160474210D01*
X166325144Y-167154210D02*
X144025144Y-167154210D01*
X144035144Y-160474210D02*
G75*
G03*
X144035144Y-167154210I0J-3340000D01*
G01*
X166335144Y-167154210D02*
G75*
G03*
X166335144Y-160474210I0J3340000D01*
G01*
D10*
X62883004Y-61986290D02*
X223254308Y-61986290D01*
X62883004Y-59503020D02*
X223254308Y-59503020D01*
X62883004Y-64469560D02*
X223254308Y-64469560D01*
D11*
X160303980Y-162650150D02*
X160180909Y-162684296D01*
X160180909Y-162684296D02*
X160088420Y-162728554D01*
X160088420Y-162728554D02*
X160046194Y-162773391D01*
X160046194Y-162773391D02*
X160028328Y-162857763D01*
X160028328Y-162857763D02*
X160035111Y-162931595D01*
X160035111Y-162931595D02*
X160054840Y-162961945D01*
X160054840Y-162961945D02*
X160098499Y-162958916D01*
X160098499Y-162958916D02*
X160175184Y-162930900D01*
X160175184Y-162930900D02*
X160208658Y-162914901D01*
X160208658Y-162914901D02*
X160366587Y-162858251D01*
X160366587Y-162858251D02*
X160515671Y-162847564D01*
X160515671Y-162847564D02*
X160645003Y-162878974D01*
X160645003Y-162878974D02*
X160743677Y-162948617D01*
X160743677Y-162948617D02*
X160800786Y-163052629D01*
X160800786Y-163052629D02*
X160810568Y-163128169D01*
X160810568Y-163128169D02*
X160787179Y-163240997D01*
X160787179Y-163240997D02*
X160713307Y-163340158D01*
X160713307Y-163340158D02*
X160583396Y-163431459D01*
X160583396Y-163431459D02*
X160463980Y-163490354D01*
X160463980Y-163490354D02*
X160236766Y-163606298D01*
X160236766Y-163606298D02*
X160073448Y-163724770D01*
X160073448Y-163724770D02*
X159990080Y-163819849D01*
X159990080Y-163819849D02*
X159947881Y-163927832D01*
X159947881Y-163927832D02*
X159930175Y-164068767D01*
X159930175Y-164068767D02*
X159937654Y-164214800D01*
X159937654Y-164214800D02*
X159971011Y-164338078D01*
X159971011Y-164338078D02*
X159976876Y-164350194D01*
X159976876Y-164350194D02*
X160086250Y-164493769D01*
X160086250Y-164493769D02*
X160239843Y-164598390D01*
X160239843Y-164598390D02*
X160426856Y-164660265D01*
X160426856Y-164660265D02*
X160636489Y-164675603D01*
X160636489Y-164675603D02*
X160826892Y-164648620D01*
X160826892Y-164648620D02*
X160943481Y-164610095D01*
X160943481Y-164610095D02*
X161045629Y-164558593D01*
X161045629Y-164558593D02*
X161109427Y-164506351D01*
X161109427Y-164506351D02*
X161112061Y-164502652D01*
X161112061Y-164502652D02*
X161133370Y-164437173D01*
X161133370Y-164437173D02*
X161132748Y-164361057D01*
X161132748Y-164361057D02*
X161111144Y-164308359D01*
X161111144Y-164308359D02*
X161106550Y-164304820D01*
X161106550Y-164304820D02*
X161061885Y-164307535D01*
X161061885Y-164307535D02*
X160983487Y-164335935D01*
X160983487Y-164335935D02*
X160939792Y-164356995D01*
X160939792Y-164356995D02*
X160765621Y-164424087D01*
X160765621Y-164424087D02*
X160597972Y-164446056D01*
X160597972Y-164446056D02*
X160446829Y-164426186D01*
X160446829Y-164426186D02*
X160322175Y-164367761D01*
X160322175Y-164367761D02*
X160233993Y-164274064D01*
X160233993Y-164274064D02*
X160192267Y-164148378D01*
X160192267Y-164148378D02*
X160190260Y-164110470D01*
X160190260Y-164110470D02*
X160211747Y-164021260D01*
X160211747Y-164021260D02*
X160279731Y-163932090D01*
X160279731Y-163932090D02*
X160399495Y-163838044D01*
X160399495Y-163838044D02*
X160576322Y-163734206D01*
X160576322Y-163734206D02*
X160618283Y-163712201D01*
X160618283Y-163712201D02*
X160802221Y-163608427D01*
X160802221Y-163608427D02*
X160931324Y-163511457D01*
X160931324Y-163511457D02*
X161013799Y-163411095D01*
X161013799Y-163411095D02*
X161057855Y-163297144D01*
X161057855Y-163297144D02*
X161071701Y-163159409D01*
X161071701Y-163159409D02*
X161071751Y-163148930D01*
X161071751Y-163148930D02*
X161046077Y-162961799D01*
X161046077Y-162961799D02*
X160969422Y-162815336D01*
X160969422Y-162815336D02*
X160842339Y-162710107D01*
X160842339Y-162710107D02*
X160665380Y-162646681D01*
X160665380Y-162646681D02*
X160569122Y-162631877D01*
X160569122Y-162631877D02*
X160439446Y-162631036D01*
X160439446Y-162631036D02*
X160303980Y-162650150D01*
X160303980Y-162650150D02*
X160303980Y-162650150D01*
G36*
X160569122Y-162631877D02*
G01*
X160665380Y-162646681D01*
X160842339Y-162710107D01*
X160969422Y-162815336D01*
X161046077Y-162961799D01*
X161071751Y-163148930D01*
X161071701Y-163159409D01*
X161057855Y-163297144D01*
X161013799Y-163411095D01*
X160931324Y-163511457D01*
X160802221Y-163608427D01*
X160618283Y-163712201D01*
X160576322Y-163734206D01*
X160399495Y-163838044D01*
X160279731Y-163932090D01*
X160211747Y-164021260D01*
X160190260Y-164110470D01*
X160192267Y-164148378D01*
X160233993Y-164274064D01*
X160322175Y-164367761D01*
X160446829Y-164426186D01*
X160597972Y-164446056D01*
X160765621Y-164424087D01*
X160939792Y-164356995D01*
X160983487Y-164335935D01*
X161061885Y-164307535D01*
X161106550Y-164304820D01*
X161111144Y-164308359D01*
X161132748Y-164361057D01*
X161133370Y-164437173D01*
X161112061Y-164502652D01*
X161109427Y-164506351D01*
X161045629Y-164558593D01*
X160943481Y-164610095D01*
X160826892Y-164648620D01*
X160636489Y-164675603D01*
X160426856Y-164660265D01*
X160239843Y-164598390D01*
X160086250Y-164493769D01*
X159976876Y-164350194D01*
X159971011Y-164338078D01*
X159937654Y-164214800D01*
X159930175Y-164068767D01*
X159947881Y-163927832D01*
X159990080Y-163819849D01*
X160073448Y-163724770D01*
X160236766Y-163606298D01*
X160463980Y-163490354D01*
X160583396Y-163431459D01*
X160713307Y-163340158D01*
X160787179Y-163240997D01*
X160810568Y-163128169D01*
X160800786Y-163052629D01*
X160743677Y-162948617D01*
X160645003Y-162878974D01*
X160515671Y-162847564D01*
X160366587Y-162858251D01*
X160208658Y-162914901D01*
X160175184Y-162930900D01*
X160098499Y-162958916D01*
X160054840Y-162961945D01*
X160035111Y-162931595D01*
X160028328Y-162857763D01*
X160046194Y-162773391D01*
X160088420Y-162728554D01*
X160180909Y-162684296D01*
X160303980Y-162650150D01*
X160439446Y-162631036D01*
X160569122Y-162631877D01*
G37*
X160569122Y-162631877D02*
X160665380Y-162646681D01*
X160842339Y-162710107D01*
X160969422Y-162815336D01*
X161046077Y-162961799D01*
X161071751Y-163148930D01*
X161071701Y-163159409D01*
X161057855Y-163297144D01*
X161013799Y-163411095D01*
X160931324Y-163511457D01*
X160802221Y-163608427D01*
X160618283Y-163712201D01*
X160576322Y-163734206D01*
X160399495Y-163838044D01*
X160279731Y-163932090D01*
X160211747Y-164021260D01*
X160190260Y-164110470D01*
X160192267Y-164148378D01*
X160233993Y-164274064D01*
X160322175Y-164367761D01*
X160446829Y-164426186D01*
X160597972Y-164446056D01*
X160765621Y-164424087D01*
X160939792Y-164356995D01*
X160983487Y-164335935D01*
X161061885Y-164307535D01*
X161106550Y-164304820D01*
X161111144Y-164308359D01*
X161132748Y-164361057D01*
X161133370Y-164437173D01*
X161112061Y-164502652D01*
X161109427Y-164506351D01*
X161045629Y-164558593D01*
X160943481Y-164610095D01*
X160826892Y-164648620D01*
X160636489Y-164675603D01*
X160426856Y-164660265D01*
X160239843Y-164598390D01*
X160086250Y-164493769D01*
X159976876Y-164350194D01*
X159971011Y-164338078D01*
X159937654Y-164214800D01*
X159930175Y-164068767D01*
X159947881Y-163927832D01*
X159990080Y-163819849D01*
X160073448Y-163724770D01*
X160236766Y-163606298D01*
X160463980Y-163490354D01*
X160583396Y-163431459D01*
X160713307Y-163340158D01*
X160787179Y-163240997D01*
X160810568Y-163128169D01*
X160800786Y-163052629D01*
X160743677Y-162948617D01*
X160645003Y-162878974D01*
X160515671Y-162847564D01*
X160366587Y-162858251D01*
X160208658Y-162914901D01*
X160175184Y-162930900D01*
X160098499Y-162958916D01*
X160054840Y-162961945D01*
X160035111Y-162931595D01*
X160028328Y-162857763D01*
X160046194Y-162773391D01*
X160088420Y-162728554D01*
X160180909Y-162684296D01*
X160303980Y-162650150D01*
X160439446Y-162631036D01*
X160569122Y-162631877D01*
X157954214Y-162635959D02*
X157741356Y-162690119D01*
X157741356Y-162690119D02*
X157682638Y-162716878D01*
X157682638Y-162716878D02*
X157578113Y-162784344D01*
X157578113Y-162784344D02*
X157525844Y-162860616D01*
X157525844Y-162860616D02*
X157513139Y-162949349D01*
X157513139Y-162949349D02*
X157528111Y-163012693D01*
X157528111Y-163012693D02*
X157575871Y-163026512D01*
X157575871Y-163026512D02*
X157660679Y-162991031D01*
X157660679Y-162991031D02*
X157710835Y-162959858D01*
X157710835Y-162959858D02*
X157849010Y-162891158D01*
X157849010Y-162891158D02*
X158009659Y-162860803D01*
X158009659Y-162860803D02*
X158030294Y-162859344D01*
X158030294Y-162859344D02*
X158219538Y-162872186D01*
X158219538Y-162872186D02*
X158373017Y-162938547D01*
X158373017Y-162938547D02*
X158496213Y-163061565D01*
X158496213Y-163061565D02*
X158555951Y-163160111D01*
X158555951Y-163160111D02*
X158594535Y-163242415D01*
X158594535Y-163242415D02*
X158619110Y-163320306D01*
X158619110Y-163320306D02*
X158632723Y-163412270D01*
X158632723Y-163412270D02*
X158638419Y-163536793D01*
X158638419Y-163536793D02*
X158639326Y-163666152D01*
X158639326Y-163666152D02*
X158637283Y-163830258D01*
X158637283Y-163830258D02*
X158629527Y-163946696D01*
X158629527Y-163946696D02*
X158613343Y-164033021D01*
X158613343Y-164033021D02*
X158586015Y-164106793D01*
X158586015Y-164106793D02*
X158564552Y-164149694D01*
X158564552Y-164149694D02*
X158454067Y-164293309D01*
X158454067Y-164293309D02*
X158307800Y-164390362D01*
X158307800Y-164390362D02*
X158137995Y-164438527D01*
X158137995Y-164438527D02*
X157956897Y-164435479D01*
X157956897Y-164435479D02*
X157776751Y-164378891D01*
X157776751Y-164378891D02*
X157674782Y-164318677D01*
X157674782Y-164318677D02*
X157603164Y-164274662D01*
X157603164Y-164274662D02*
X157551220Y-164254634D01*
X157551220Y-164254634D02*
X157548909Y-164254519D01*
X157548909Y-164254519D02*
X157518111Y-164280286D01*
X157518111Y-164280286D02*
X157512684Y-164343086D01*
X157512684Y-164343086D02*
X157529579Y-164421166D01*
X157529579Y-164421166D02*
X157565744Y-164492776D01*
X157565744Y-164492776D02*
X157585478Y-164515256D01*
X157585478Y-164515256D02*
X157706153Y-164591254D01*
X157706153Y-164591254D02*
X157869350Y-164643959D01*
X157869350Y-164643959D02*
X158055395Y-164669959D01*
X158055395Y-164669959D02*
X158244618Y-164665847D01*
X158244618Y-164665847D02*
X158350288Y-164647796D01*
X158350288Y-164647796D02*
X158537799Y-164571180D01*
X158537799Y-164571180D02*
X158693729Y-164441890D01*
X158693729Y-164441890D02*
X158814756Y-164266117D01*
X158814756Y-164266117D02*
X158897561Y-164050050D01*
X158897561Y-164050050D02*
X158938822Y-163799878D01*
X158938822Y-163799878D02*
X158937841Y-163552590D01*
X158937841Y-163552590D02*
X158896236Y-163300088D01*
X158896236Y-163300088D02*
X158815123Y-163078068D01*
X158815123Y-163078068D02*
X158699359Y-162897078D01*
X158699359Y-162897078D02*
X158586516Y-162789979D01*
X158586516Y-162789979D02*
X158394655Y-162687333D01*
X158394655Y-162687333D02*
X158177934Y-162635512D01*
X158177934Y-162635512D02*
X157954214Y-162635959D01*
X157954214Y-162635959D02*
X157954214Y-162635959D01*
G36*
X158394655Y-162687333D02*
G01*
X158586516Y-162789979D01*
X158699359Y-162897078D01*
X158815123Y-163078068D01*
X158896236Y-163300088D01*
X158937841Y-163552590D01*
X158938822Y-163799878D01*
X158897561Y-164050050D01*
X158814756Y-164266117D01*
X158693729Y-164441890D01*
X158537799Y-164571180D01*
X158350288Y-164647796D01*
X158244618Y-164665847D01*
X158055395Y-164669959D01*
X157869350Y-164643959D01*
X157706153Y-164591254D01*
X157585478Y-164515256D01*
X157565744Y-164492776D01*
X157529579Y-164421166D01*
X157512684Y-164343086D01*
X157518111Y-164280286D01*
X157548909Y-164254519D01*
X157551220Y-164254634D01*
X157603164Y-164274662D01*
X157674782Y-164318677D01*
X157776751Y-164378891D01*
X157956897Y-164435479D01*
X158137995Y-164438527D01*
X158307800Y-164390362D01*
X158454067Y-164293309D01*
X158564552Y-164149694D01*
X158586015Y-164106793D01*
X158613343Y-164033021D01*
X158629527Y-163946696D01*
X158637283Y-163830258D01*
X158639326Y-163666152D01*
X158638419Y-163536793D01*
X158632723Y-163412270D01*
X158619110Y-163320306D01*
X158594535Y-163242415D01*
X158555951Y-163160111D01*
X158496213Y-163061565D01*
X158373017Y-162938547D01*
X158219538Y-162872186D01*
X158030294Y-162859344D01*
X158009659Y-162860803D01*
X157849010Y-162891158D01*
X157710835Y-162959858D01*
X157660679Y-162991031D01*
X157575871Y-163026512D01*
X157528111Y-163012693D01*
X157513139Y-162949349D01*
X157525844Y-162860616D01*
X157578113Y-162784344D01*
X157682638Y-162716878D01*
X157741356Y-162690119D01*
X157954214Y-162635959D01*
X158177934Y-162635512D01*
X158394655Y-162687333D01*
G37*
X158394655Y-162687333D02*
X158586516Y-162789979D01*
X158699359Y-162897078D01*
X158815123Y-163078068D01*
X158896236Y-163300088D01*
X158937841Y-163552590D01*
X158938822Y-163799878D01*
X158897561Y-164050050D01*
X158814756Y-164266117D01*
X158693729Y-164441890D01*
X158537799Y-164571180D01*
X158350288Y-164647796D01*
X158244618Y-164665847D01*
X158055395Y-164669959D01*
X157869350Y-164643959D01*
X157706153Y-164591254D01*
X157585478Y-164515256D01*
X157565744Y-164492776D01*
X157529579Y-164421166D01*
X157512684Y-164343086D01*
X157518111Y-164280286D01*
X157548909Y-164254519D01*
X157551220Y-164254634D01*
X157603164Y-164274662D01*
X157674782Y-164318677D01*
X157776751Y-164378891D01*
X157956897Y-164435479D01*
X158137995Y-164438527D01*
X158307800Y-164390362D01*
X158454067Y-164293309D01*
X158564552Y-164149694D01*
X158586015Y-164106793D01*
X158613343Y-164033021D01*
X158629527Y-163946696D01*
X158637283Y-163830258D01*
X158639326Y-163666152D01*
X158638419Y-163536793D01*
X158632723Y-163412270D01*
X158619110Y-163320306D01*
X158594535Y-163242415D01*
X158555951Y-163160111D01*
X158496213Y-163061565D01*
X158373017Y-162938547D01*
X158219538Y-162872186D01*
X158030294Y-162859344D01*
X158009659Y-162860803D01*
X157849010Y-162891158D01*
X157710835Y-162959858D01*
X157660679Y-162991031D01*
X157575871Y-163026512D01*
X157528111Y-163012693D01*
X157513139Y-162949349D01*
X157525844Y-162860616D01*
X157578113Y-162784344D01*
X157682638Y-162716878D01*
X157741356Y-162690119D01*
X157954214Y-162635959D01*
X158177934Y-162635512D01*
X158394655Y-162687333D01*
X164517808Y-162663531D02*
X164304699Y-162687634D01*
X164304699Y-162687634D02*
X164128105Y-162736457D01*
X164128105Y-162736457D02*
X163975173Y-162812457D01*
X163975173Y-162812457D02*
X163968020Y-162816950D01*
X163968020Y-162816950D02*
X163816407Y-162950535D01*
X163816407Y-162950535D02*
X163702555Y-163130150D01*
X163702555Y-163130150D02*
X163629620Y-163346453D01*
X163629620Y-163346453D02*
X163600760Y-163590101D01*
X163600760Y-163590101D02*
X163618869Y-163850102D01*
X163618869Y-163850102D02*
X163681188Y-164098167D01*
X163681188Y-164098167D02*
X163782652Y-164296471D01*
X163782652Y-164296471D02*
X163926600Y-164449859D01*
X163926600Y-164449859D02*
X164107998Y-164559414D01*
X164107998Y-164559414D02*
X164199174Y-164588215D01*
X164199174Y-164588215D02*
X164327241Y-164612240D01*
X164327241Y-164612240D02*
X164478383Y-164630801D01*
X164478383Y-164630801D02*
X164638781Y-164643212D01*
X164638781Y-164643212D02*
X164794618Y-164648785D01*
X164794618Y-164648785D02*
X164932077Y-164646834D01*
X164932077Y-164646834D02*
X165037341Y-164636671D01*
X165037341Y-164636671D02*
X165096591Y-164617610D01*
X165096591Y-164617610D02*
X165103818Y-164608931D01*
X165103818Y-164608931D02*
X165107953Y-164565780D01*
X165107953Y-164565780D02*
X165111141Y-164465980D01*
X165111141Y-164465980D02*
X165113305Y-164318171D01*
X165113305Y-164318171D02*
X165114372Y-164130992D01*
X165114372Y-164130992D02*
X165114265Y-163913086D01*
X165114265Y-163913086D02*
X165112911Y-163673092D01*
X165112911Y-163673092D02*
X165112431Y-163617489D01*
X165112431Y-163617489D02*
X165105702Y-162883310D01*
X165105702Y-162883310D02*
X164858897Y-162883310D01*
X164858897Y-162883310D02*
X164858897Y-164417758D01*
X164858897Y-164417758D02*
X164604633Y-164417758D01*
X164604633Y-164417758D02*
X164447425Y-164412346D01*
X164447425Y-164412346D02*
X164329965Y-164393063D01*
X164329965Y-164393063D02*
X164227373Y-164355341D01*
X164227373Y-164355341D02*
X164204697Y-164344300D01*
X164204697Y-164344300D02*
X164066807Y-164246591D01*
X164066807Y-164246591D02*
X163969737Y-164109937D01*
X163969737Y-164109937D02*
X163910112Y-163927864D01*
X163910112Y-163927864D02*
X163886448Y-163734335D01*
X163886448Y-163734335D02*
X163887629Y-163502917D01*
X163887629Y-163502917D02*
X163922865Y-163316878D01*
X163922865Y-163316878D02*
X163995265Y-163164100D01*
X163995265Y-163164100D02*
X164051728Y-163090229D01*
X164051728Y-163090229D02*
X164158409Y-162989823D01*
X164158409Y-162989823D02*
X164277628Y-162926035D01*
X164277628Y-162926035D02*
X164426331Y-162892618D01*
X164426331Y-162892618D02*
X164612990Y-162883310D01*
X164612990Y-162883310D02*
X164858897Y-162883310D01*
X164858897Y-162883310D02*
X165105702Y-162883310D01*
X165105702Y-162883310D02*
X165103756Y-162671099D01*
X165103756Y-162671099D02*
X164780284Y-162661693D01*
X164780284Y-162661693D02*
X164517808Y-162663531D01*
X164517808Y-162663531D02*
X164517808Y-162663531D01*
G36*
X165112911Y-163673092D02*
G01*
X165114265Y-163913086D01*
X165114372Y-164130992D01*
X165113305Y-164318171D01*
X165111141Y-164465980D01*
X165107953Y-164565780D01*
X165103818Y-164608931D01*
X165096591Y-164617610D01*
X165037341Y-164636671D01*
X164932077Y-164646834D01*
X164794618Y-164648785D01*
X164638781Y-164643212D01*
X164478383Y-164630801D01*
X164327241Y-164612240D01*
X164199174Y-164588215D01*
X164107998Y-164559414D01*
X163926600Y-164449859D01*
X163782652Y-164296471D01*
X163681188Y-164098167D01*
X163618869Y-163850102D01*
X163610806Y-163734335D01*
X163886448Y-163734335D01*
X163910112Y-163927864D01*
X163969737Y-164109937D01*
X164066807Y-164246591D01*
X164204697Y-164344300D01*
X164227373Y-164355341D01*
X164329965Y-164393063D01*
X164447425Y-164412346D01*
X164604633Y-164417758D01*
X164858897Y-164417758D01*
X164858897Y-162883310D01*
X164612990Y-162883310D01*
X164426331Y-162892618D01*
X164277628Y-162926035D01*
X164158409Y-162989823D01*
X164051728Y-163090229D01*
X163995265Y-163164100D01*
X163922865Y-163316878D01*
X163887629Y-163502917D01*
X163886448Y-163734335D01*
X163610806Y-163734335D01*
X163600760Y-163590101D01*
X163629620Y-163346453D01*
X163702555Y-163130150D01*
X163816407Y-162950535D01*
X163968020Y-162816950D01*
X163975173Y-162812457D01*
X164128105Y-162736457D01*
X164304699Y-162687634D01*
X164517808Y-162663531D01*
X164780284Y-162661693D01*
X165103756Y-162671099D01*
X165105702Y-162883310D01*
X165112431Y-163617489D01*
X165112911Y-163673092D01*
G37*
X165112911Y-163673092D02*
X165114265Y-163913086D01*
X165114372Y-164130992D01*
X165113305Y-164318171D01*
X165111141Y-164465980D01*
X165107953Y-164565780D01*
X165103818Y-164608931D01*
X165096591Y-164617610D01*
X165037341Y-164636671D01*
X164932077Y-164646834D01*
X164794618Y-164648785D01*
X164638781Y-164643212D01*
X164478383Y-164630801D01*
X164327241Y-164612240D01*
X164199174Y-164588215D01*
X164107998Y-164559414D01*
X163926600Y-164449859D01*
X163782652Y-164296471D01*
X163681188Y-164098167D01*
X163618869Y-163850102D01*
X163610806Y-163734335D01*
X163886448Y-163734335D01*
X163910112Y-163927864D01*
X163969737Y-164109937D01*
X164066807Y-164246591D01*
X164204697Y-164344300D01*
X164227373Y-164355341D01*
X164329965Y-164393063D01*
X164447425Y-164412346D01*
X164604633Y-164417758D01*
X164858897Y-164417758D01*
X164858897Y-162883310D01*
X164612990Y-162883310D01*
X164426331Y-162892618D01*
X164277628Y-162926035D01*
X164158409Y-162989823D01*
X164051728Y-163090229D01*
X163995265Y-163164100D01*
X163922865Y-163316878D01*
X163887629Y-163502917D01*
X163886448Y-163734335D01*
X163610806Y-163734335D01*
X163600760Y-163590101D01*
X163629620Y-163346453D01*
X163702555Y-163130150D01*
X163816407Y-162950535D01*
X163968020Y-162816950D01*
X163975173Y-162812457D01*
X164128105Y-162736457D01*
X164304699Y-162687634D01*
X164517808Y-162663531D01*
X164780284Y-162661693D01*
X165103756Y-162671099D01*
X165105702Y-162883310D01*
X165112431Y-163617489D01*
X165112911Y-163673092D01*
X162230748Y-164629968D02*
X162337078Y-164640216D01*
X162337078Y-164640216D02*
X162423078Y-164635155D01*
X162423078Y-164635155D02*
X162460021Y-164607170D01*
X162460021Y-164607170D02*
X162463982Y-164564485D01*
X162463982Y-164564485D02*
X162467013Y-164465130D01*
X162467013Y-164465130D02*
X162469043Y-164317724D01*
X162469043Y-164317724D02*
X162470004Y-164130887D01*
X162470004Y-164130887D02*
X162469827Y-163913238D01*
X162469827Y-163913238D02*
X162468441Y-163673398D01*
X162468441Y-163673398D02*
X162467958Y-163617489D01*
X162467958Y-163617489D02*
X162459283Y-162671099D01*
X162459283Y-162671099D02*
X162230748Y-162671099D01*
X162230748Y-162671099D02*
X162230748Y-164629968D01*
X162230748Y-164629968D02*
X162230748Y-164629968D01*
G36*
X162467958Y-163617489D02*
G01*
X162468441Y-163673398D01*
X162469827Y-163913238D01*
X162470004Y-164130887D01*
X162469043Y-164317724D01*
X162467013Y-164465130D01*
X162463982Y-164564485D01*
X162460021Y-164607170D01*
X162423078Y-164635155D01*
X162337078Y-164640216D01*
X162230748Y-164629968D01*
X162230748Y-162671099D01*
X162459283Y-162671099D01*
X162467958Y-163617489D01*
G37*
X162467958Y-163617489D02*
X162468441Y-163673398D01*
X162469827Y-163913238D01*
X162470004Y-164130887D01*
X162469043Y-164317724D01*
X162467013Y-164465130D01*
X162463982Y-164564485D01*
X162460021Y-164607170D01*
X162423078Y-164635155D01*
X162337078Y-164640216D01*
X162230748Y-164629968D01*
X162230748Y-162671099D01*
X162459283Y-162671099D01*
X162467958Y-163617489D01*
X156207226Y-164646292D02*
X156322518Y-164646292D01*
X156322518Y-164646292D02*
X156403405Y-164635741D01*
X156403405Y-164635741D02*
X156451013Y-164609863D01*
X156451013Y-164609863D02*
X156453623Y-164605085D01*
X156453623Y-164605085D02*
X156457379Y-164562951D01*
X156457379Y-164562951D02*
X156460224Y-164464122D01*
X156460224Y-164464122D02*
X156462095Y-164317194D01*
X156462095Y-164317194D02*
X156462931Y-164130761D01*
X156462931Y-164130761D02*
X156462669Y-163913418D01*
X156462669Y-163913418D02*
X156461248Y-163673761D01*
X156461248Y-163673761D02*
X156460760Y-163617489D01*
X156460760Y-163617489D02*
X156452085Y-162671099D01*
X156452085Y-162671099D02*
X156329656Y-162660967D01*
X156329656Y-162660967D02*
X156207226Y-162650834D01*
X156207226Y-162650834D02*
X156207226Y-164646292D01*
X156207226Y-164646292D02*
X156207226Y-164646292D01*
G36*
X156329656Y-162660967D02*
G01*
X156452085Y-162671099D01*
X156460760Y-163617489D01*
X156461248Y-163673761D01*
X156462669Y-163913418D01*
X156462931Y-164130761D01*
X156462095Y-164317194D01*
X156460224Y-164464122D01*
X156457379Y-164562951D01*
X156453623Y-164605085D01*
X156451013Y-164609863D01*
X156403405Y-164635741D01*
X156322518Y-164646292D01*
X156207226Y-164646292D01*
X156207226Y-162650834D01*
X156329656Y-162660967D01*
G37*
X156329656Y-162660967D02*
X156452085Y-162671099D01*
X156460760Y-163617489D01*
X156461248Y-163673761D01*
X156462669Y-163913418D01*
X156462931Y-164130761D01*
X156462095Y-164317194D01*
X156460224Y-164464122D01*
X156457379Y-164562951D01*
X156453623Y-164605085D01*
X156451013Y-164609863D01*
X156403405Y-164635741D01*
X156322518Y-164646292D01*
X156207226Y-164646292D01*
X156207226Y-162650834D01*
X156329656Y-162660967D01*
X154498950Y-162660711D02*
X154328807Y-162669015D01*
X154328807Y-162669015D02*
X154208260Y-162680525D01*
X154208260Y-162680525D02*
X154121607Y-162698121D01*
X154121607Y-162698121D02*
X154053149Y-162724684D01*
X154053149Y-162724684D02*
X154005997Y-162751175D01*
X154005997Y-162751175D02*
X153879408Y-162851186D01*
X153879408Y-162851186D02*
X153801397Y-162971445D01*
X153801397Y-162971445D02*
X153764624Y-163126571D01*
X153764624Y-163126571D02*
X153759299Y-163242436D01*
X153759299Y-163242436D02*
X153783009Y-163453977D01*
X153783009Y-163453977D02*
X153854154Y-163622394D01*
X153854154Y-163622394D02*
X153974128Y-163748994D01*
X153974128Y-163748994D02*
X154144328Y-163835080D01*
X154144328Y-163835080D02*
X154366147Y-163881960D01*
X154366147Y-163881960D02*
X154450225Y-163889009D01*
X154450225Y-163889009D02*
X154705427Y-163903782D01*
X154705427Y-163903782D02*
X154705427Y-164646292D01*
X154705427Y-164646292D02*
X154814253Y-164646292D01*
X154814253Y-164646292D02*
X154894923Y-164640319D01*
X154894923Y-164640319D02*
X154943370Y-164625812D01*
X154943370Y-164625812D02*
X154944844Y-164624527D01*
X154944844Y-164624527D02*
X154950426Y-164587498D01*
X154950426Y-164587498D02*
X154955479Y-164493586D01*
X154955479Y-164493586D02*
X154959811Y-164351203D01*
X154959811Y-164351203D02*
X154963232Y-164168760D01*
X154963232Y-164168760D02*
X154965551Y-163954668D01*
X154965551Y-163954668D02*
X154966576Y-163717340D01*
X154966576Y-163717340D02*
X154966609Y-163665414D01*
X154966609Y-163665414D02*
X154966172Y-163387409D01*
X154966172Y-163387409D02*
X154964628Y-163167721D01*
X154964628Y-163167721D02*
X154961626Y-162999379D01*
X154961626Y-162999379D02*
X154957124Y-162883310D01*
X154957124Y-162883310D02*
X154705427Y-162883310D01*
X154705427Y-162883310D02*
X154705427Y-163269643D01*
X154705427Y-163269643D02*
X154703686Y-163422368D01*
X154703686Y-163422368D02*
X154698950Y-163550448D01*
X154698950Y-163550448D02*
X154691947Y-163640207D01*
X154691947Y-163640207D02*
X154683662Y-163677740D01*
X154683662Y-163677740D02*
X154631662Y-163694686D01*
X154631662Y-163694686D02*
X154538225Y-163698293D01*
X154538225Y-163698293D02*
X154425690Y-163689223D01*
X154425690Y-163689223D02*
X154316399Y-163668137D01*
X154316399Y-163668137D02*
X154311229Y-163666725D01*
X154311229Y-163666725D02*
X154172297Y-163602535D01*
X154172297Y-163602535D02*
X154080919Y-163497595D01*
X154080919Y-163497595D02*
X154033096Y-163346643D01*
X154033096Y-163346643D02*
X154026708Y-163292377D01*
X154026708Y-163292377D02*
X154021132Y-163185561D01*
X154021132Y-163185561D02*
X154032974Y-163116034D01*
X154032974Y-163116034D02*
X154071603Y-163056290D01*
X154071603Y-163056290D02*
X154126842Y-162998296D01*
X154126842Y-162998296D02*
X154191221Y-162937956D01*
X154191221Y-162937956D02*
X154247496Y-162903537D01*
X154247496Y-162903537D02*
X154317530Y-162887790D01*
X154317530Y-162887790D02*
X154423184Y-162883466D01*
X154423184Y-162883466D02*
X154473627Y-162883310D01*
X154473627Y-162883310D02*
X154705427Y-162883310D01*
X154705427Y-162883310D02*
X154957124Y-162883310D01*
X154957124Y-162883310D02*
X154956817Y-162875408D01*
X154956817Y-162875408D02*
X154949851Y-162788836D01*
X154949851Y-162788836D02*
X154940377Y-162732690D01*
X154940377Y-162732690D02*
X154928045Y-162699996D01*
X154928045Y-162699996D02*
X154917510Y-162687318D01*
X154917510Y-162687318D02*
X154869382Y-162668250D01*
X154869382Y-162668250D02*
X154777155Y-162658270D01*
X154777155Y-162658270D02*
X154633129Y-162656887D01*
X154633129Y-162656887D02*
X154498950Y-162660711D01*
X154498950Y-162660711D02*
X154498950Y-162660711D01*
G36*
X154964628Y-163167721D02*
G01*
X154966172Y-163387409D01*
X154966609Y-163665414D01*
X154966576Y-163717340D01*
X154965551Y-163954668D01*
X154963232Y-164168760D01*
X154959811Y-164351203D01*
X154955479Y-164493586D01*
X154950426Y-164587498D01*
X154944844Y-164624527D01*
X154943370Y-164625812D01*
X154894923Y-164640319D01*
X154814253Y-164646292D01*
X154705427Y-164646292D01*
X154705427Y-163903782D01*
X154450225Y-163889009D01*
X154366147Y-163881960D01*
X154144328Y-163835080D01*
X153974128Y-163748994D01*
X153854154Y-163622394D01*
X153783009Y-163453977D01*
X153759299Y-163242436D01*
X153761913Y-163185561D01*
X154021132Y-163185561D01*
X154026708Y-163292377D01*
X154033096Y-163346643D01*
X154080919Y-163497595D01*
X154172297Y-163602535D01*
X154311229Y-163666725D01*
X154316399Y-163668137D01*
X154425690Y-163689223D01*
X154538225Y-163698293D01*
X154631662Y-163694686D01*
X154683662Y-163677740D01*
X154691947Y-163640207D01*
X154698950Y-163550448D01*
X154703686Y-163422368D01*
X154705427Y-163269643D01*
X154705427Y-162883310D01*
X154473627Y-162883310D01*
X154423184Y-162883466D01*
X154317530Y-162887790D01*
X154247496Y-162903537D01*
X154191221Y-162937956D01*
X154126842Y-162998296D01*
X154071603Y-163056290D01*
X154032974Y-163116034D01*
X154021132Y-163185561D01*
X153761913Y-163185561D01*
X153764624Y-163126571D01*
X153801397Y-162971445D01*
X153879408Y-162851186D01*
X154005997Y-162751175D01*
X154053149Y-162724684D01*
X154121607Y-162698121D01*
X154208260Y-162680525D01*
X154328807Y-162669015D01*
X154498950Y-162660711D01*
X154633129Y-162656887D01*
X154777155Y-162658270D01*
X154869382Y-162668250D01*
X154917510Y-162687318D01*
X154928045Y-162699996D01*
X154940377Y-162732690D01*
X154949851Y-162788836D01*
X154956817Y-162875408D01*
X154957124Y-162883310D01*
X154961626Y-162999379D01*
X154964628Y-163167721D01*
G37*
X154964628Y-163167721D02*
X154966172Y-163387409D01*
X154966609Y-163665414D01*
X154966576Y-163717340D01*
X154965551Y-163954668D01*
X154963232Y-164168760D01*
X154959811Y-164351203D01*
X154955479Y-164493586D01*
X154950426Y-164587498D01*
X154944844Y-164624527D01*
X154943370Y-164625812D01*
X154894923Y-164640319D01*
X154814253Y-164646292D01*
X154705427Y-164646292D01*
X154705427Y-163903782D01*
X154450225Y-163889009D01*
X154366147Y-163881960D01*
X154144328Y-163835080D01*
X153974128Y-163748994D01*
X153854154Y-163622394D01*
X153783009Y-163453977D01*
X153759299Y-163242436D01*
X153761913Y-163185561D01*
X154021132Y-163185561D01*
X154026708Y-163292377D01*
X154033096Y-163346643D01*
X154080919Y-163497595D01*
X154172297Y-163602535D01*
X154311229Y-163666725D01*
X154316399Y-163668137D01*
X154425690Y-163689223D01*
X154538225Y-163698293D01*
X154631662Y-163694686D01*
X154683662Y-163677740D01*
X154691947Y-163640207D01*
X154698950Y-163550448D01*
X154703686Y-163422368D01*
X154705427Y-163269643D01*
X154705427Y-162883310D01*
X154473627Y-162883310D01*
X154423184Y-162883466D01*
X154317530Y-162887790D01*
X154247496Y-162903537D01*
X154191221Y-162937956D01*
X154126842Y-162998296D01*
X154071603Y-163056290D01*
X154032974Y-163116034D01*
X154021132Y-163185561D01*
X153761913Y-163185561D01*
X153764624Y-163126571D01*
X153801397Y-162971445D01*
X153879408Y-162851186D01*
X154005997Y-162751175D01*
X154053149Y-162724684D01*
X154121607Y-162698121D01*
X154208260Y-162680525D01*
X154328807Y-162669015D01*
X154498950Y-162660711D01*
X154633129Y-162656887D01*
X154777155Y-162658270D01*
X154869382Y-162668250D01*
X154917510Y-162687318D01*
X154928045Y-162699996D01*
X154940377Y-162732690D01*
X154949851Y-162788836D01*
X154956817Y-162875408D01*
X154957124Y-162883310D01*
X154961626Y-162999379D01*
X154964628Y-163167721D01*
X152493537Y-162660967D02*
X152371108Y-162671099D01*
X152371108Y-162671099D02*
X152353722Y-164415629D01*
X152353722Y-164415629D02*
X151620208Y-164434081D01*
X151620208Y-164434081D02*
X151620208Y-164629968D01*
X151620208Y-164629968D02*
X152095486Y-164638967D01*
X152095486Y-164638967D02*
X152265492Y-164640682D01*
X152265492Y-164640682D02*
X152411792Y-164639315D01*
X152411792Y-164639315D02*
X152522200Y-164635199D01*
X152522200Y-164635199D02*
X152584530Y-164628668D01*
X152584530Y-164628668D02*
X152593365Y-164625364D01*
X152593365Y-164625364D02*
X152599050Y-164588205D01*
X152599050Y-164588205D02*
X152604212Y-164493994D01*
X152604212Y-164493994D02*
X152608662Y-164350974D01*
X152608662Y-164350974D02*
X152612215Y-164167387D01*
X152612215Y-164167387D02*
X152614684Y-163951478D01*
X152614684Y-163951478D02*
X152615882Y-163711488D01*
X152615882Y-163711488D02*
X152615967Y-163626798D01*
X152615967Y-163626798D02*
X152615967Y-162650834D01*
X152615967Y-162650834D02*
X152493537Y-162660967D01*
X152493537Y-162660967D02*
X152493537Y-162660967D01*
G36*
X152615967Y-163626798D02*
G01*
X152615882Y-163711488D01*
X152614684Y-163951478D01*
X152612215Y-164167387D01*
X152608662Y-164350974D01*
X152604212Y-164493994D01*
X152599050Y-164588205D01*
X152593365Y-164625364D01*
X152584530Y-164628668D01*
X152522200Y-164635199D01*
X152411792Y-164639315D01*
X152265492Y-164640682D01*
X152095486Y-164638967D01*
X151620208Y-164629968D01*
X151620208Y-164434081D01*
X152353722Y-164415629D01*
X152371108Y-162671099D01*
X152493537Y-162660967D01*
X152615967Y-162650834D01*
X152615967Y-163626798D01*
G37*
X152615967Y-163626798D02*
X152615882Y-163711488D01*
X152614684Y-163951478D01*
X152612215Y-164167387D01*
X152608662Y-164350974D01*
X152604212Y-164493994D01*
X152599050Y-164588205D01*
X152593365Y-164625364D01*
X152584530Y-164628668D01*
X152522200Y-164635199D01*
X152411792Y-164639315D01*
X152265492Y-164640682D01*
X152095486Y-164638967D01*
X151620208Y-164629968D01*
X151620208Y-164434081D01*
X152353722Y-164415629D01*
X152371108Y-162671099D01*
X152493537Y-162660967D01*
X152615967Y-162650834D01*
X152615967Y-163626798D01*
X150469373Y-162660967D02*
X150346944Y-162671099D01*
X150346944Y-162671099D02*
X150346944Y-164629968D01*
X150346944Y-164629968D02*
X150591802Y-164650234D01*
X150591802Y-164650234D02*
X150591802Y-162650834D01*
X150591802Y-162650834D02*
X150469373Y-162660967D01*
X150469373Y-162660967D02*
X150469373Y-162660967D01*
G36*
X150591802Y-164650234D02*
G01*
X150346944Y-164629968D01*
X150346944Y-162671099D01*
X150469373Y-162660967D01*
X150591802Y-162650834D01*
X150591802Y-164650234D01*
G37*
X150591802Y-164650234D02*
X150346944Y-164629968D01*
X150346944Y-162671099D01*
X150469373Y-162660967D01*
X150591802Y-162650834D01*
X150591802Y-164650234D01*
X147628531Y-163640268D02*
X147637175Y-164629968D01*
X147637175Y-164629968D02*
X147751442Y-164639583D01*
X147751442Y-164639583D02*
X147844999Y-164634566D01*
X147844999Y-164634566D02*
X147917123Y-164609338D01*
X147917123Y-164609338D02*
X147920441Y-164606936D01*
X147920441Y-164606936D02*
X147950103Y-164568132D01*
X147950103Y-164568132D02*
X148006403Y-164479783D01*
X148006403Y-164479783D02*
X148084740Y-164349678D01*
X148084740Y-164349678D02*
X148180508Y-164185608D01*
X148180508Y-164185608D02*
X148289105Y-163995362D01*
X148289105Y-163995362D02*
X148405926Y-163786732D01*
X148405926Y-163786732D02*
X148417744Y-163765409D01*
X148417744Y-163765409D02*
X148860315Y-162966146D01*
X148860315Y-162966146D02*
X148869054Y-163798057D01*
X148869054Y-163798057D02*
X148877792Y-164629968D01*
X148877792Y-164629968D02*
X148984379Y-164640235D01*
X148984379Y-164640235D02*
X149090966Y-164650501D01*
X149090966Y-164650501D02*
X149082323Y-163660800D01*
X149082323Y-163660800D02*
X149073679Y-162671099D01*
X149073679Y-162671099D02*
X148922261Y-162661298D01*
X148922261Y-162661298D02*
X148821471Y-162660739D01*
X148821471Y-162660739D02*
X148759094Y-162681279D01*
X148759094Y-162681279D02*
X148710050Y-162730572D01*
X148710050Y-162730572D02*
X148677901Y-162780561D01*
X148677901Y-162780561D02*
X148619765Y-162879148D01*
X148619765Y-162879148D02*
X148540674Y-163017470D01*
X148540674Y-163017470D02*
X148445656Y-163186666D01*
X148445656Y-163186666D02*
X148339741Y-163377872D01*
X148339741Y-163377872D02*
X148257483Y-163527999D01*
X148257483Y-163527999D02*
X147865710Y-164246351D01*
X147865710Y-164246351D02*
X147833062Y-162671099D01*
X147833062Y-162671099D02*
X147726475Y-162660833D01*
X147726475Y-162660833D02*
X147619887Y-162650567D01*
X147619887Y-162650567D02*
X147628531Y-163640268D01*
X147628531Y-163640268D02*
X147628531Y-163640268D01*
G36*
X147726475Y-162660833D02*
G01*
X147833062Y-162671099D01*
X147865710Y-164246351D01*
X148257483Y-163527999D01*
X148339741Y-163377872D01*
X148445656Y-163186666D01*
X148540674Y-163017470D01*
X148619765Y-162879148D01*
X148677901Y-162780561D01*
X148710050Y-162730572D01*
X148759094Y-162681279D01*
X148821471Y-162660739D01*
X148922261Y-162661298D01*
X149073679Y-162671099D01*
X149082323Y-163660800D01*
X149090966Y-164650501D01*
X148984379Y-164640235D01*
X148877792Y-164629968D01*
X148869054Y-163798057D01*
X148860315Y-162966146D01*
X148417744Y-163765409D01*
X148405926Y-163786732D01*
X148289105Y-163995362D01*
X148180508Y-164185608D01*
X148084740Y-164349678D01*
X148006403Y-164479783D01*
X147950103Y-164568132D01*
X147920441Y-164606936D01*
X147917123Y-164609338D01*
X147844999Y-164634566D01*
X147751442Y-164639583D01*
X147637175Y-164629968D01*
X147628531Y-163640268D01*
X147619887Y-162650567D01*
X147726475Y-162660833D01*
G37*
X147726475Y-162660833D02*
X147833062Y-162671099D01*
X147865710Y-164246351D01*
X148257483Y-163527999D01*
X148339741Y-163377872D01*
X148445656Y-163186666D01*
X148540674Y-163017470D01*
X148619765Y-162879148D01*
X148677901Y-162780561D01*
X148710050Y-162730572D01*
X148759094Y-162681279D01*
X148821471Y-162660739D01*
X148922261Y-162661298D01*
X149073679Y-162671099D01*
X149082323Y-163660800D01*
X149090966Y-164650501D01*
X148984379Y-164640235D01*
X148877792Y-164629968D01*
X148869054Y-163798057D01*
X148860315Y-162966146D01*
X148417744Y-163765409D01*
X148405926Y-163786732D01*
X148289105Y-163995362D01*
X148180508Y-164185608D01*
X148084740Y-164349678D01*
X148006403Y-164479783D01*
X147950103Y-164568132D01*
X147920441Y-164606936D01*
X147917123Y-164609338D01*
X147844999Y-164634566D01*
X147751442Y-164639583D01*
X147637175Y-164629968D01*
X147628531Y-163640268D01*
X147619887Y-162650567D01*
X147726475Y-162660833D01*
X145613528Y-162655368D02*
X145477829Y-162657925D01*
X145477829Y-162657925D02*
X145387521Y-162663614D01*
X145387521Y-162663614D02*
X145332655Y-162673607D01*
X145332655Y-162673607D02*
X145303281Y-162689070D01*
X145303281Y-162689070D02*
X145289449Y-162711174D01*
X145289449Y-162711174D02*
X145287992Y-162715472D01*
X145287992Y-162715472D02*
X145281579Y-162794519D01*
X145281579Y-162794519D02*
X145289285Y-162829739D01*
X145289285Y-162829739D02*
X145306590Y-162852466D01*
X145306590Y-162852466D02*
X145345058Y-162867835D01*
X145345058Y-162867835D02*
X145415438Y-162877197D01*
X145415438Y-162877197D02*
X145528478Y-162881902D01*
X145528478Y-162881902D02*
X145694926Y-162883300D01*
X145694926Y-162883300D02*
X145715672Y-162883310D01*
X145715672Y-162883310D02*
X146121502Y-162883310D01*
X146121502Y-162883310D02*
X146112115Y-163185303D01*
X146112115Y-163185303D02*
X146102728Y-163487295D01*
X146102728Y-163487295D02*
X145751764Y-163496561D01*
X145751764Y-163496561D02*
X145400800Y-163505828D01*
X145400800Y-163505828D02*
X145400800Y-163699506D01*
X145400800Y-163699506D02*
X146119052Y-163699506D01*
X146119052Y-163699506D02*
X146119052Y-164415807D01*
X146119052Y-164415807D02*
X145286532Y-164434081D01*
X145286532Y-164434081D02*
X145286532Y-164629968D01*
X145286532Y-164629968D02*
X145793414Y-164638922D01*
X145793414Y-164638922D02*
X146008869Y-164640947D01*
X146008869Y-164640947D02*
X146165499Y-164638059D01*
X146165499Y-164638059D02*
X146269615Y-164629900D01*
X146269615Y-164629900D02*
X146327528Y-164616111D01*
X146327528Y-164616111D02*
X146340265Y-164607907D01*
X146340265Y-164607907D02*
X146352632Y-164563582D01*
X146352632Y-164563582D02*
X146362905Y-164464305D01*
X146362905Y-164464305D02*
X146371078Y-164320384D01*
X146371078Y-164320384D02*
X146377148Y-164142124D01*
X146377148Y-164142124D02*
X146381110Y-163939834D01*
X146381110Y-163939834D02*
X146382961Y-163723818D01*
X146382961Y-163723818D02*
X146382695Y-163504386D01*
X146382695Y-163504386D02*
X146380309Y-163291842D01*
X146380309Y-163291842D02*
X146375798Y-163096495D01*
X146375798Y-163096495D02*
X146369158Y-162928651D01*
X146369158Y-162928651D02*
X146360386Y-162798616D01*
X146360386Y-162798616D02*
X146349475Y-162716699D01*
X146349475Y-162716699D02*
X146341057Y-162693953D01*
X146341057Y-162693953D02*
X146294802Y-162676565D01*
X146294802Y-162676565D02*
X146193908Y-162664409D01*
X146193908Y-162664409D02*
X146034918Y-162657231D01*
X146034918Y-162657231D02*
X145814376Y-162654779D01*
X145814376Y-162654779D02*
X145804568Y-162654776D01*
X145804568Y-162654776D02*
X145613528Y-162655368D01*
X145613528Y-162655368D02*
X145613528Y-162655368D01*
G36*
X145814376Y-162654779D02*
G01*
X146034918Y-162657231D01*
X146193908Y-162664409D01*
X146294802Y-162676565D01*
X146341057Y-162693953D01*
X146349475Y-162716699D01*
X146360386Y-162798616D01*
X146369158Y-162928651D01*
X146375798Y-163096495D01*
X146380309Y-163291842D01*
X146382695Y-163504386D01*
X146382961Y-163723818D01*
X146381110Y-163939834D01*
X146377148Y-164142124D01*
X146371078Y-164320384D01*
X146362905Y-164464305D01*
X146352632Y-164563582D01*
X146340265Y-164607907D01*
X146327528Y-164616111D01*
X146269615Y-164629900D01*
X146165499Y-164638059D01*
X146008869Y-164640947D01*
X145793414Y-164638922D01*
X145286532Y-164629968D01*
X145286532Y-164434081D01*
X146119052Y-164415807D01*
X146119052Y-163699506D01*
X145400800Y-163699506D01*
X145400800Y-163505828D01*
X145751764Y-163496561D01*
X146102728Y-163487295D01*
X146112115Y-163185303D01*
X146121502Y-162883310D01*
X145715672Y-162883310D01*
X145694926Y-162883300D01*
X145528478Y-162881902D01*
X145415438Y-162877197D01*
X145345058Y-162867835D01*
X145306590Y-162852466D01*
X145289285Y-162829739D01*
X145281579Y-162794519D01*
X145287992Y-162715472D01*
X145289449Y-162711174D01*
X145303281Y-162689070D01*
X145332655Y-162673607D01*
X145387521Y-162663614D01*
X145477829Y-162657925D01*
X145613528Y-162655368D01*
X145804568Y-162654776D01*
X145814376Y-162654779D01*
G37*
X145814376Y-162654779D02*
X146034918Y-162657231D01*
X146193908Y-162664409D01*
X146294802Y-162676565D01*
X146341057Y-162693953D01*
X146349475Y-162716699D01*
X146360386Y-162798616D01*
X146369158Y-162928651D01*
X146375798Y-163096495D01*
X146380309Y-163291842D01*
X146382695Y-163504386D01*
X146382961Y-163723818D01*
X146381110Y-163939834D01*
X146377148Y-164142124D01*
X146371078Y-164320384D01*
X146362905Y-164464305D01*
X146352632Y-164563582D01*
X146340265Y-164607907D01*
X146327528Y-164616111D01*
X146269615Y-164629900D01*
X146165499Y-164638059D01*
X146008869Y-164640947D01*
X145793414Y-164638922D01*
X145286532Y-164629968D01*
X145286532Y-164434081D01*
X146119052Y-164415807D01*
X146119052Y-163699506D01*
X145400800Y-163699506D01*
X145400800Y-163505828D01*
X145751764Y-163496561D01*
X146102728Y-163487295D01*
X146112115Y-163185303D01*
X146121502Y-162883310D01*
X145715672Y-162883310D01*
X145694926Y-162883300D01*
X145528478Y-162881902D01*
X145415438Y-162877197D01*
X145345058Y-162867835D01*
X145306590Y-162852466D01*
X145289285Y-162829739D01*
X145281579Y-162794519D01*
X145287992Y-162715472D01*
X145289449Y-162711174D01*
X145303281Y-162689070D01*
X145332655Y-162673607D01*
X145387521Y-162663614D01*
X145477829Y-162657925D01*
X145613528Y-162655368D01*
X145804568Y-162654776D01*
X145814376Y-162654779D01*
D12*
X166305144Y-160474210D02*
X144025144Y-160474210D01*
X166325144Y-167154210D02*
X144025144Y-167154210D01*
X144035144Y-160474210D02*
G75*
G03*
X144035144Y-167154210I0J-3340000D01*
G01*
X166335144Y-167154210D02*
G75*
G03*
X166335144Y-160474210I0J3340000D01*
G01*
D13*
X134811423Y-177966640D03*
X234811223Y-177966640D03*
D14*
X134811423Y-162726640D03*
X234811223Y-162726640D03*
D15*
X70530720Y-123418600D03*
X70530720Y-120878600D03*
X70530720Y-118338600D03*
X88600280Y-118333520D03*
X88600280Y-120873520D03*
X88600280Y-123413520D03*
X94101920Y-142400020D03*
X94101920Y-139860020D03*
X94101920Y-137320020D03*
X75930760Y-137332720D03*
X75930760Y-139872720D03*
X75930760Y-142412720D03*
D16*
X299753430Y-76389182D03*
D17*
X348013430Y-61149182D03*
X302293430Y-76389182D03*
X345473430Y-61149182D03*
X304833430Y-76389182D03*
X342933430Y-61149182D03*
X307373430Y-76389182D03*
X340393430Y-61149182D03*
X309913430Y-76389182D03*
X337853430Y-61149182D03*
X312453430Y-76389182D03*
X335313430Y-61149182D03*
X314993430Y-76389182D03*
X332773430Y-61149182D03*
X317533430Y-76389182D03*
X330233430Y-61149182D03*
X320073430Y-76389182D03*
X327693430Y-61149182D03*
X322613430Y-76389182D03*
X325153430Y-61149182D03*
X325153430Y-76389182D03*
X322613430Y-61149182D03*
X327693430Y-76389182D03*
X320073430Y-61149182D03*
X330233430Y-76389182D03*
X317533430Y-61149182D03*
X332773430Y-76389182D03*
X314993430Y-61149182D03*
X335313430Y-76389182D03*
X312453430Y-61149182D03*
X337853430Y-76389182D03*
X309913430Y-61149182D03*
X340393430Y-76389182D03*
X307373430Y-61149182D03*
X342933430Y-76389182D03*
X304833430Y-61149182D03*
X345473430Y-76389182D03*
X302293430Y-61149182D03*
X348013430Y-76389182D03*
X299753430Y-61149182D03*
D15*
X98295460Y-156347160D03*
X98295460Y-158887160D03*
X98295460Y-161427160D03*
X344644980Y-161427160D03*
X344644980Y-158887160D03*
X344644980Y-156347160D03*
D18*
X334253840Y-130002280D03*
X336793840Y-130002280D03*
X339333840Y-130002280D03*
X339333840Y-94843600D03*
X336793840Y-94843600D03*
D19*
X334253840Y-94843600D03*
D20*
X205511400Y-101219000D03*
X81762600Y-104013000D03*
D15*
X294500300Y-99547680D03*
X294500300Y-102087680D03*
X294500300Y-104627680D03*
X61968380Y-104541320D03*
X61968380Y-102001320D03*
X61968380Y-99461320D03*
D21*
X346575280Y-102303120D03*
D22*
X349075280Y-102303120D03*
X351575280Y-102303120D03*
D23*
X343475280Y-94803120D03*
D24*
X354675280Y-94803120D03*
D22*
X346575280Y-87803120D03*
X351575280Y-87803120D03*
D25*
X303903710Y-168431210D03*
X316830710Y-165891210D03*
D26*
X316068710Y-170971210D03*
X305908710Y-170971210D03*
D27*
X307178710Y-168431210D03*
D14*
X310988710Y-170971210D03*
D27*
X313528710Y-165891210D03*
D14*
X306194710Y-141126210D03*
X330070710Y-141126210D03*
D13*
X306194710Y-125886210D03*
X330070710Y-125886210D03*
D25*
X311047710Y-130331210D03*
X323974710Y-127791210D03*
D26*
X323212710Y-132871210D03*
X313052710Y-132871210D03*
D27*
X314322710Y-130331210D03*
D14*
X318132710Y-132871210D03*
D27*
X320672710Y-127791210D03*
X289737588Y-165891210D03*
D14*
X287197588Y-170971210D03*
D27*
X283387588Y-168431210D03*
D26*
X282117588Y-170971210D03*
X292277588Y-170971210D03*
D25*
X293039588Y-165891210D03*
D28*
X280112588Y-168431210D03*
D27*
X261181396Y-165891210D03*
D14*
X258641396Y-170971210D03*
D27*
X254831396Y-168431210D03*
D26*
X253561396Y-170971210D03*
X263721396Y-170971210D03*
D28*
X264483396Y-165891210D03*
D29*
X251556396Y-168431210D03*
D30*
X184750033Y-173519100D03*
X171823033Y-176059100D03*
D26*
X172585033Y-170979100D03*
X182745033Y-170979100D03*
D27*
X181475033Y-173519100D03*
D14*
X177665033Y-170979100D03*
D27*
X175125033Y-176059100D03*
X94160491Y-176047279D03*
D14*
X96700491Y-170967279D03*
D27*
X100510491Y-173507279D03*
D26*
X101780491Y-170967279D03*
X91620491Y-170967279D03*
D30*
X90858491Y-176047279D03*
X103785491Y-173507279D03*
D27*
X65561160Y-176041080D03*
D14*
X68101160Y-170961080D03*
D27*
X71911160Y-173501080D03*
D26*
X73181160Y-170961080D03*
X63021160Y-170961080D03*
D30*
X62259160Y-176041080D03*
X75186160Y-173501080D03*
X59877960Y-137941080D03*
X72804960Y-135401080D03*
D26*
X60639960Y-132861080D03*
X70799960Y-132861080D03*
D27*
X69529960Y-135401080D03*
D14*
X65719960Y-132861080D03*
D27*
X63179960Y-137941080D03*
D30*
X299063988Y-173501080D03*
X286136988Y-176041080D03*
D26*
X286898988Y-170961080D03*
X297058988Y-170961080D03*
D27*
X295788988Y-173501080D03*
D14*
X291978988Y-170961080D03*
D27*
X289438988Y-176041080D03*
D25*
X342003710Y-168431210D03*
X354930710Y-165891210D03*
D26*
X354168710Y-170971210D03*
X344008710Y-170971210D03*
D27*
X345278710Y-168431210D03*
D14*
X349088710Y-170971210D03*
D27*
X351628710Y-165891210D03*
D25*
X322953710Y-168431210D03*
X335880710Y-165891210D03*
D26*
X335118710Y-170971210D03*
X324958710Y-170971210D03*
D27*
X326228710Y-168431210D03*
D14*
X330038710Y-170971210D03*
D27*
X332578710Y-165891210D03*
D28*
X278765666Y-165891210D03*
X265838666Y-168431210D03*
D26*
X278003666Y-170971210D03*
X267843666Y-170971210D03*
D27*
X269113666Y-168431210D03*
D14*
X272923666Y-170971210D03*
D27*
X275463666Y-165891210D03*
D30*
X248026344Y-176041080D03*
D31*
X260953344Y-173501080D03*
D26*
X248788344Y-170961080D03*
X258948344Y-170961080D03*
D27*
X257678344Y-173501080D03*
D14*
X253868344Y-170961080D03*
D27*
X251328344Y-176041080D03*
D25*
X177697710Y-168431210D03*
X190624710Y-165891210D03*
D26*
X189862710Y-170971210D03*
X179702710Y-170971210D03*
D27*
X180972710Y-168431210D03*
D14*
X184782710Y-170971210D03*
D27*
X187322710Y-165891210D03*
D25*
X119186910Y-165881080D03*
X106259910Y-168421080D03*
D26*
X118424910Y-170961080D03*
X108264910Y-170961080D03*
D27*
X109534910Y-168421080D03*
D14*
X113344910Y-170961080D03*
D27*
X115884910Y-165881080D03*
D25*
X95374510Y-165891210D03*
X82447510Y-168431210D03*
D26*
X94612510Y-170971210D03*
X84452510Y-170971210D03*
D27*
X85722510Y-168431210D03*
D14*
X89532510Y-170971210D03*
D27*
X92072510Y-165891210D03*
D25*
X71561910Y-165881080D03*
X58634910Y-168421080D03*
D26*
X70799910Y-170961080D03*
X60639910Y-170961080D03*
D27*
X61909910Y-168421080D03*
D14*
X65719910Y-170961080D03*
D27*
X68259910Y-165881080D03*
D25*
X342003710Y-149381210D03*
X354930710Y-146841210D03*
D26*
X354168710Y-151921210D03*
X344008710Y-151921210D03*
D27*
X345278710Y-149381210D03*
D14*
X349088710Y-151921210D03*
D27*
X351628710Y-146841210D03*
D25*
X322953710Y-149381210D03*
X335880710Y-146841210D03*
D26*
X335118710Y-151921210D03*
X324958710Y-151921210D03*
D27*
X326228710Y-149381210D03*
D14*
X330038710Y-151921210D03*
D27*
X332578710Y-146841210D03*
D25*
X296759710Y-149381210D03*
X309686710Y-146841210D03*
D26*
X308924710Y-151921210D03*
X298764710Y-151921210D03*
D27*
X300034710Y-149381210D03*
D14*
X303844710Y-151921210D03*
D27*
X306384710Y-146841210D03*
D25*
X270566710Y-149381210D03*
X283493710Y-146841210D03*
D26*
X282731710Y-151921210D03*
X272571710Y-151921210D03*
D27*
X273841710Y-149381210D03*
D14*
X277651710Y-151921210D03*
D27*
X280191710Y-146841210D03*
D25*
X251516710Y-149381210D03*
X264443710Y-146841210D03*
D26*
X263681710Y-151921210D03*
X253521710Y-151921210D03*
D27*
X254791710Y-149381210D03*
D14*
X258601710Y-151921210D03*
D27*
X261141710Y-146841210D03*
D25*
X232466710Y-149381210D03*
X245393710Y-146841210D03*
D26*
X244631710Y-151921210D03*
X234471710Y-151921210D03*
D27*
X235741710Y-149381210D03*
D14*
X239551710Y-151921210D03*
D27*
X242091710Y-146841210D03*
D25*
X213416710Y-149381210D03*
X226343710Y-146841210D03*
D26*
X225581710Y-151921210D03*
X215421710Y-151921210D03*
D27*
X216691710Y-149381210D03*
D14*
X220501710Y-151921210D03*
D27*
X223041710Y-146841210D03*
D25*
X194366710Y-149381210D03*
X207293710Y-146841210D03*
D26*
X206531710Y-151921210D03*
X196371710Y-151921210D03*
D27*
X197641710Y-149381210D03*
D14*
X201451710Y-151921210D03*
D27*
X203991710Y-146841210D03*
D25*
X175316710Y-149381210D03*
X188243710Y-146841210D03*
D26*
X187481710Y-151921210D03*
X177321710Y-151921210D03*
D27*
X178591710Y-149381210D03*
D14*
X182401710Y-151921210D03*
D27*
X184941710Y-146841210D03*
D25*
X156266710Y-149381210D03*
X169193710Y-146841210D03*
D26*
X168431710Y-151921210D03*
X158271710Y-151921210D03*
D27*
X159541710Y-149381210D03*
D14*
X163351710Y-151921210D03*
D27*
X165891710Y-146841210D03*
D25*
X137216210Y-149381210D03*
X150143210Y-146841210D03*
D26*
X149381210Y-151921210D03*
X139221210Y-151921210D03*
D27*
X140491210Y-149381210D03*
D14*
X144301210Y-151921210D03*
D27*
X146841210Y-146841210D03*
D25*
X118166210Y-149381210D03*
X131093210Y-146841210D03*
D26*
X130331210Y-151921210D03*
X120171210Y-151921210D03*
D27*
X121441210Y-149381210D03*
D14*
X125251210Y-151921210D03*
D27*
X127791210Y-146841210D03*
D25*
X99116210Y-149381210D03*
X112043210Y-146841210D03*
D26*
X111281210Y-151921210D03*
X101121210Y-151921210D03*
D27*
X102391210Y-149381210D03*
D14*
X106201210Y-151921210D03*
D27*
X108741210Y-146841210D03*
D14*
X63306910Y-160176210D03*
X87182910Y-160176210D03*
D13*
X63306910Y-144936210D03*
X87182910Y-144936210D03*
D25*
X68159910Y-149381210D03*
X81086910Y-146841210D03*
D26*
X80324910Y-151921210D03*
X70164910Y-151921210D03*
D27*
X71434910Y-149381210D03*
D14*
X75244910Y-151921210D03*
D27*
X77784910Y-146841210D03*
D25*
X342003710Y-130331210D03*
X354930710Y-127791210D03*
D26*
X354168710Y-132871210D03*
X344008710Y-132871210D03*
D27*
X345278710Y-130331210D03*
D14*
X349088710Y-132871210D03*
D27*
X351628710Y-127791210D03*
D25*
X280090710Y-130331210D03*
X293017710Y-127791210D03*
D26*
X292255710Y-132871210D03*
X282095710Y-132871210D03*
D27*
X283365710Y-130331210D03*
D14*
X287175710Y-132871210D03*
D27*
X289715710Y-127791210D03*
D25*
X261040710Y-130331210D03*
X273967710Y-127791210D03*
D26*
X273205710Y-132871210D03*
X263045710Y-132871210D03*
D27*
X264315710Y-130331210D03*
D14*
X268125710Y-132871210D03*
D27*
X270665710Y-127791210D03*
D25*
X241990710Y-130331210D03*
X254917710Y-127791210D03*
D26*
X254155710Y-132871210D03*
X243995710Y-132871210D03*
D27*
X245265710Y-130331210D03*
D14*
X249075710Y-132871210D03*
D27*
X251615710Y-127791210D03*
D25*
X222940710Y-130331210D03*
X235867710Y-127791210D03*
D26*
X235105710Y-132871210D03*
X224945710Y-132871210D03*
D27*
X226215710Y-130331210D03*
D14*
X230025710Y-132871210D03*
D27*
X232565710Y-127791210D03*
D25*
X203890710Y-130331210D03*
X216817710Y-127791210D03*
D26*
X216055710Y-132871210D03*
X205895710Y-132871210D03*
D27*
X207165710Y-130331210D03*
D14*
X210975710Y-132871210D03*
D27*
X213515710Y-127791210D03*
D25*
X184840710Y-130331210D03*
X197767710Y-127791210D03*
D26*
X197005710Y-132871210D03*
X186845710Y-132871210D03*
D27*
X188115710Y-130331210D03*
D14*
X191925710Y-132871210D03*
D27*
X194465710Y-127791210D03*
D25*
X165790710Y-130331210D03*
X178717710Y-127791210D03*
D26*
X177955710Y-132871210D03*
X167795710Y-132871210D03*
D27*
X169065710Y-130331210D03*
D14*
X172875710Y-132871210D03*
D27*
X175415710Y-127791210D03*
D25*
X146740710Y-130331210D03*
X159667710Y-127791210D03*
D26*
X158905710Y-132871210D03*
X148745710Y-132871210D03*
D27*
X150015710Y-130331210D03*
D14*
X153825710Y-132871210D03*
D27*
X156365710Y-127791210D03*
D25*
X127691210Y-130331210D03*
X140618210Y-127791210D03*
D26*
X139856210Y-132871210D03*
X129696210Y-132871210D03*
D27*
X130966210Y-130331210D03*
D14*
X134776210Y-132871210D03*
D27*
X137316210Y-127791210D03*
D25*
X108641210Y-130331210D03*
X121568210Y-127791210D03*
D26*
X120806210Y-132871210D03*
X110646210Y-132871210D03*
D27*
X111916210Y-130331210D03*
D14*
X115726210Y-132871210D03*
D27*
X118266210Y-127791210D03*
D25*
X89591210Y-130331210D03*
X102518210Y-127791210D03*
D26*
X101756210Y-132871210D03*
X91596210Y-132871210D03*
D27*
X92866210Y-130331210D03*
D14*
X96676210Y-132871210D03*
D27*
X99216210Y-127791210D03*
D25*
X63397510Y-130321080D03*
X76324510Y-127781080D03*
D26*
X75562510Y-132861080D03*
X65402510Y-132861080D03*
D27*
X66672510Y-130321080D03*
D14*
X70482510Y-132861080D03*
D27*
X73022510Y-127781080D03*
D25*
X342003710Y-111281210D03*
X354930710Y-108741210D03*
D26*
X354168710Y-113821210D03*
X344008710Y-113821210D03*
D27*
X345278710Y-111281210D03*
D14*
X349088710Y-113821210D03*
D27*
X351628710Y-108741210D03*
X327815710Y-108741210D03*
D14*
X325275710Y-113821210D03*
D27*
X321465710Y-111281210D03*
D26*
X320195710Y-113821210D03*
X330355710Y-113821210D03*
D25*
X331117710Y-108741210D03*
X318190710Y-111281210D03*
X294378710Y-111281210D03*
X307305710Y-108741210D03*
D26*
X306543710Y-113821210D03*
X296383710Y-113821210D03*
D27*
X297653710Y-111281210D03*
D14*
X301463710Y-113821210D03*
D27*
X304003710Y-108741210D03*
D25*
X275328710Y-111281210D03*
X288255710Y-108741210D03*
D26*
X287493710Y-113821210D03*
X277333710Y-113821210D03*
D27*
X278603710Y-111281210D03*
D14*
X282413710Y-113821210D03*
D27*
X284953710Y-108741210D03*
D25*
X256278710Y-111281210D03*
X269205710Y-108741210D03*
D26*
X268443710Y-113821210D03*
X258283710Y-113821210D03*
D27*
X259553710Y-111281210D03*
D14*
X263363710Y-113821210D03*
D27*
X265903710Y-108741210D03*
D25*
X237228710Y-111281210D03*
X250155710Y-108741210D03*
D26*
X249393710Y-113821210D03*
X239233710Y-113821210D03*
D27*
X240503710Y-111281210D03*
D14*
X244313710Y-113821210D03*
D27*
X246853710Y-108741210D03*
D25*
X218178710Y-111281210D03*
X231105710Y-108741210D03*
D26*
X230343710Y-113821210D03*
X220183710Y-113821210D03*
D27*
X221453710Y-111281210D03*
D14*
X225263710Y-113821210D03*
D27*
X227803710Y-108741210D03*
D25*
X199128710Y-111281210D03*
X212055710Y-108741210D03*
D26*
X211293710Y-113821210D03*
X201133710Y-113821210D03*
D27*
X202403710Y-111281210D03*
D14*
X206213710Y-113821210D03*
D27*
X208753710Y-108741210D03*
D25*
X180078710Y-111281210D03*
X193005710Y-108741210D03*
D26*
X192243710Y-113821210D03*
X182083710Y-113821210D03*
D27*
X183353710Y-111281210D03*
D14*
X187163710Y-113821210D03*
D27*
X189703710Y-108741210D03*
D25*
X161028710Y-111281210D03*
X173955710Y-108741210D03*
D26*
X173193710Y-113821210D03*
X163033710Y-113821210D03*
D27*
X164303710Y-111281210D03*
D14*
X168113710Y-113821210D03*
D27*
X170653710Y-108741210D03*
D25*
X141978710Y-111281210D03*
X154905710Y-108741210D03*
D26*
X154143710Y-113821210D03*
X143983710Y-113821210D03*
D27*
X145253710Y-111281210D03*
D14*
X149063710Y-113821210D03*
D27*
X151603710Y-108741210D03*
D25*
X122928710Y-111281210D03*
X135855710Y-108741210D03*
D26*
X135093710Y-113821210D03*
X124933710Y-113821210D03*
D27*
X126203710Y-111281210D03*
D14*
X130013710Y-113821210D03*
D27*
X132553710Y-108741210D03*
D25*
X103878710Y-111281210D03*
X116805710Y-108741210D03*
D26*
X116043710Y-113821210D03*
X105883710Y-113821210D03*
D27*
X107153710Y-111281210D03*
D14*
X110963710Y-113821210D03*
D27*
X113503710Y-108741210D03*
D25*
X84828710Y-111281210D03*
X97755710Y-108741210D03*
D26*
X96993710Y-113821210D03*
X86833710Y-113821210D03*
D27*
X88103710Y-111281210D03*
D14*
X91913710Y-113821210D03*
D27*
X94453710Y-108741210D03*
X70641210Y-108741210D03*
D14*
X68101210Y-113821210D03*
D27*
X64291210Y-111281210D03*
D26*
X63021210Y-113821210D03*
X73181210Y-113821210D03*
D25*
X73943210Y-108741210D03*
X61016210Y-111281210D03*
D32*
X342003710Y-92231210D03*
D25*
X354930710Y-89691210D03*
D26*
X354168710Y-94771210D03*
X344008710Y-94771210D03*
D27*
X345278710Y-92231210D03*
D14*
X349088710Y-94771210D03*
D27*
X351628710Y-89691210D03*
D14*
X308575710Y-103026210D03*
X332451710Y-103026210D03*
D13*
X308575710Y-87786210D03*
X332451710Y-87786210D03*
D25*
X313428710Y-92231210D03*
X326355710Y-89691210D03*
D26*
X325593710Y-94771210D03*
X315433710Y-94771210D03*
D27*
X316703710Y-92231210D03*
D14*
X320513710Y-94771210D03*
D27*
X323053710Y-89691210D03*
D25*
X284853710Y-92231210D03*
X297780710Y-89691210D03*
D26*
X297018710Y-94771210D03*
X286858710Y-94771210D03*
D27*
X288128710Y-92231210D03*
D14*
X291938710Y-94771210D03*
D27*
X294478710Y-89691210D03*
D25*
X265803710Y-92231210D03*
X278730710Y-89691210D03*
D26*
X277968710Y-94771210D03*
X267808710Y-94771210D03*
D27*
X269078710Y-92231210D03*
D14*
X272888710Y-94771210D03*
D27*
X275428710Y-89691210D03*
D25*
X246753710Y-92231210D03*
X259680710Y-89691210D03*
D26*
X258918710Y-94771210D03*
X248758710Y-94771210D03*
D27*
X250028710Y-92231210D03*
D14*
X253838710Y-94771210D03*
D27*
X256378710Y-89691210D03*
D25*
X227703710Y-92231210D03*
X240630710Y-89691210D03*
D26*
X239868710Y-94771210D03*
X229708710Y-94771210D03*
D27*
X230978710Y-92231210D03*
D14*
X234788710Y-94771210D03*
D27*
X237328710Y-89691210D03*
D25*
X208653710Y-92231210D03*
X221580710Y-89691210D03*
D26*
X220818710Y-94771210D03*
X210658710Y-94771210D03*
D27*
X211928710Y-92231210D03*
D14*
X215738710Y-94771210D03*
D27*
X218278710Y-89691210D03*
D25*
X189603710Y-92231210D03*
X202530710Y-89691210D03*
D26*
X201768710Y-94771210D03*
X191608710Y-94771210D03*
D27*
X192878710Y-92231210D03*
D14*
X196688710Y-94771210D03*
D27*
X199228710Y-89691210D03*
D25*
X170553710Y-92231210D03*
X183480710Y-89691210D03*
D26*
X182718710Y-94771210D03*
X172558710Y-94771210D03*
D27*
X173828710Y-92231210D03*
D14*
X177638710Y-94771210D03*
D27*
X180178710Y-89691210D03*
D25*
X151503710Y-92231210D03*
X164430710Y-89691210D03*
D26*
X163668710Y-94771210D03*
X153508710Y-94771210D03*
D27*
X154778710Y-92231210D03*
D14*
X158588710Y-94771210D03*
D27*
X161128710Y-89691210D03*
D25*
X132453710Y-92231210D03*
X145380710Y-89691210D03*
D26*
X144618710Y-94771210D03*
X134458710Y-94771210D03*
D27*
X135728710Y-92231210D03*
D14*
X139538710Y-94771210D03*
D27*
X142078710Y-89691210D03*
D25*
X113403710Y-92231210D03*
X126330710Y-89691210D03*
D26*
X125568710Y-94771210D03*
X115408710Y-94771210D03*
D27*
X116678710Y-92231210D03*
D14*
X120488710Y-94771210D03*
D27*
X123028710Y-89691210D03*
D25*
X94353710Y-92231210D03*
X107280710Y-89691210D03*
D26*
X106518710Y-94771210D03*
X96358710Y-94771210D03*
D27*
X97628710Y-92231210D03*
D14*
X101438710Y-94771210D03*
D27*
X103978710Y-89691210D03*
D25*
X75303710Y-92231210D03*
X88230710Y-89691210D03*
D26*
X87468710Y-94771210D03*
X77308710Y-94771210D03*
D27*
X78578710Y-92231210D03*
D14*
X82388710Y-94771210D03*
D27*
X84928710Y-89691210D03*
D25*
X56253710Y-92231210D03*
X69180710Y-89691210D03*
D26*
X68418710Y-94771210D03*
X58258710Y-94771210D03*
D27*
X59528710Y-92231210D03*
D14*
X63338710Y-94771210D03*
D27*
X65878710Y-89691210D03*
D33*
X325471062Y-78716416D03*
X320471062Y-78716416D03*
X330125530Y-58926178D03*
X325125530Y-58926178D03*
D34*
X284477676Y-70404866D03*
D35*
X284477676Y-68904866D03*
D33*
X327680238Y-79506040D03*
X327680238Y-82006040D03*
X341906112Y-79506040D03*
X341906112Y-82006040D03*
D36*
X290026316Y-78138982D03*
D37*
X295106316Y-78138982D03*
D36*
X290026316Y-75645517D03*
D37*
X295106316Y-75645517D03*
D36*
X290026316Y-73152052D03*
D37*
X295106316Y-73152052D03*
D36*
X295106316Y-70580211D03*
D37*
X290026316Y-70580211D03*
D36*
X295106316Y-68060499D03*
D37*
X290026316Y-68060499D03*
D36*
X295106316Y-65567034D03*
D37*
X290026316Y-65567034D03*
D36*
X290026316Y-63073204D03*
D37*
X295106316Y-63073204D03*
D20*
X206213345Y-61694750D03*
X206213345Y-80444750D03*
D38*
X255293830Y-60350870D03*
D39*
X255293830Y-62890870D03*
X252753830Y-60350870D03*
X252753830Y-62890870D03*
X250213830Y-60350870D03*
X250213830Y-62890870D03*
D40*
X337251644Y-80256240D03*
X332371644Y-80256240D03*
D41*
X286667716Y-61970830D03*
D42*
X284127716Y-61970830D03*
D43*
X278823468Y-66391022D03*
X280523468Y-66391022D03*
X279673468Y-66391022D03*
X277973468Y-66391022D03*
X277123468Y-66391022D03*
X276273468Y-66391022D03*
X275423468Y-66391022D03*
X274573468Y-66391022D03*
X280523468Y-65066022D03*
X279668468Y-65066022D03*
X278818468Y-65066022D03*
X277968468Y-65066022D03*
X277118468Y-65066022D03*
X276268468Y-65066022D03*
X275418468Y-65066022D03*
X274568468Y-65066022D03*
D44*
X281873468Y-65411022D03*
X273223468Y-65411022D03*
D45*
X281873468Y-62031022D03*
X273223468Y-62031022D03*
D37*
X270047614Y-59350838D03*
X270047614Y-64450838D03*
D22*
X244985732Y-59836074D03*
X244985732Y-64336074D03*
X238485732Y-59836074D03*
X238485732Y-64336074D03*
X232985732Y-59836074D03*
X232985732Y-64336074D03*
X226485732Y-59836074D03*
X226485732Y-64336074D03*
D17*
X63600284Y-72555612D03*
D46*
X63600284Y-67475612D03*
D17*
X73108673Y-77516199D03*
D46*
X73108673Y-72436199D03*
D17*
X85786525Y-77516199D03*
D46*
X85786525Y-72436199D03*
D17*
X88955988Y-72555612D03*
D46*
X88955988Y-67475612D03*
D17*
X101633840Y-72555612D03*
D46*
X101633840Y-67475612D03*
D17*
X114311692Y-72555612D03*
D46*
X114311692Y-67475612D03*
D17*
X126989544Y-72555612D03*
D46*
X126989544Y-67475612D03*
D17*
X139667396Y-72555612D03*
D46*
X139667396Y-67475612D03*
D17*
X152345248Y-72555612D03*
D46*
X152345248Y-67475612D03*
D17*
X165023100Y-72555612D03*
D46*
X165023100Y-67475612D03*
D17*
X177700952Y-72555612D03*
D46*
X177700952Y-67475612D03*
D17*
X190378804Y-72555612D03*
D46*
X190378804Y-67475612D03*
D17*
X203056656Y-72555612D03*
D46*
X203056656Y-67475612D03*
D17*
X215734508Y-72555612D03*
D46*
X215734508Y-67475612D03*
D17*
X228342376Y-72555612D03*
D46*
X228342376Y-67475612D03*
D17*
X275541929Y-77516199D03*
D46*
X275541929Y-72436199D03*
D17*
X66769747Y-74209141D03*
D46*
X66769747Y-69129141D03*
D17*
X82617062Y-75862670D03*
D46*
X82617062Y-70782670D03*
D17*
X92125451Y-74209141D03*
D46*
X92125451Y-69129141D03*
D17*
X104803303Y-74209141D03*
D46*
X104803303Y-69129141D03*
D17*
X117481155Y-74209141D03*
D46*
X117481155Y-69129141D03*
D17*
X130159007Y-74209141D03*
D46*
X130159007Y-69129141D03*
D17*
X142836859Y-74209141D03*
D46*
X142836859Y-69129141D03*
D17*
X155514711Y-74209141D03*
D46*
X155514711Y-69129141D03*
D17*
X168192563Y-74209141D03*
D46*
X168192563Y-69129141D03*
D17*
X180870415Y-74209141D03*
D46*
X180870415Y-69129141D03*
D17*
X193548267Y-74209141D03*
D46*
X193548267Y-69129141D03*
D17*
X206226119Y-74209141D03*
D46*
X206226119Y-69129141D03*
D17*
X218886475Y-74209141D03*
D46*
X218886475Y-69129141D03*
D17*
X231493149Y-74209141D03*
D46*
X231493149Y-69129141D03*
D17*
X272453205Y-75862670D03*
D46*
X272453205Y-70782670D03*
D17*
X69939210Y-75862670D03*
D46*
X69939210Y-70782670D03*
D17*
X79447599Y-74209141D03*
D46*
X79447599Y-69129141D03*
D17*
X95294914Y-75862670D03*
D46*
X95294914Y-70782670D03*
D17*
X107972766Y-75862670D03*
D46*
X107972766Y-70782670D03*
D17*
X120650618Y-75862670D03*
D46*
X120650618Y-70782670D03*
D17*
X133328470Y-75862670D03*
D46*
X133328470Y-70782670D03*
D17*
X146006322Y-75862670D03*
D46*
X146006322Y-70782670D03*
D17*
X158684174Y-75862670D03*
D46*
X158684174Y-70782670D03*
D17*
X171362026Y-75862670D03*
D46*
X171362026Y-70782670D03*
D17*
X184039878Y-75862670D03*
D46*
X184039878Y-70782670D03*
D17*
X196717730Y-75862670D03*
D46*
X196717730Y-70782670D03*
D17*
X209395582Y-75862670D03*
D46*
X209395582Y-70782670D03*
D17*
X234643922Y-75862670D03*
D46*
X234643922Y-70782670D03*
D17*
X269364481Y-74209141D03*
D46*
X269364481Y-69129141D03*
D17*
X98464377Y-77516199D03*
D46*
X98464377Y-72436199D03*
D17*
X111142229Y-77516199D03*
D46*
X111142229Y-72436199D03*
D17*
X123820081Y-77516199D03*
D46*
X123820081Y-72436199D03*
D17*
X136497933Y-77516199D03*
D46*
X136497933Y-72436199D03*
D17*
X149175785Y-77516199D03*
D46*
X149175785Y-72436199D03*
D17*
X161853637Y-77516199D03*
D46*
X161853637Y-72436199D03*
D17*
X174531489Y-77516199D03*
D46*
X174531489Y-72436199D03*
D17*
X187209341Y-77516199D03*
D46*
X187209341Y-72436199D03*
D17*
X199887193Y-77516199D03*
D46*
X199887193Y-72436199D03*
D17*
X212565045Y-77516199D03*
D46*
X212565045Y-72436199D03*
D17*
X222038442Y-75862670D03*
D46*
X222038442Y-70782670D03*
D17*
X237794695Y-77516199D03*
D46*
X237794695Y-72436199D03*
D17*
X266089606Y-72555612D03*
D46*
X266089606Y-67475612D03*
D17*
X259788058Y-75862670D03*
D46*
X259788058Y-70782670D03*
D17*
X76278136Y-72555612D03*
D46*
X76278136Y-67475612D03*
D17*
X256637284Y-74209141D03*
D46*
X256637284Y-69129141D03*
D17*
X253486511Y-72555612D03*
D46*
X253486511Y-67475612D03*
D17*
X250335738Y-77516199D03*
D46*
X250335738Y-72436199D03*
D17*
X225190409Y-77516199D03*
D46*
X225190409Y-72436199D03*
D17*
X244096241Y-74209141D03*
D46*
X244096241Y-69129141D03*
D17*
X240945468Y-72555612D03*
D46*
X240945468Y-67475612D03*
D17*
X262938832Y-77516199D03*
D46*
X262938832Y-72436199D03*
D17*
X247184965Y-75862670D03*
D46*
X247184965Y-70782670D03*
D17*
X286174982Y-78242196D03*
D46*
X286174982Y-73162196D03*
D17*
X283305310Y-78242196D03*
D46*
X283305310Y-73162196D03*
D14*
X234817573Y-162726640D03*
X120517573Y-162726640D03*
D13*
X234817573Y-177966640D03*
X120517573Y-177966640D03*
D20*
X90144600Y-152984200D03*
X316382400Y-152120600D03*
X322478400Y-103327200D03*
X203200000Y-168452800D03*
X354660309Y-80444750D03*
X354660309Y-61694750D03*
X57766382Y-61694750D03*
X57766382Y-80444750D03*
G36*
X259854324Y-172613968D02*
G01*
X259854344Y-172614250D01*
X259854344Y-172844028D01*
X259853344Y-172845760D01*
X259851344Y-172845760D01*
X259850425Y-172844591D01*
X259830748Y-172777576D01*
X259778405Y-172732221D01*
X259709753Y-172722350D01*
X259666364Y-172737495D01*
X259664399Y-172737122D01*
X259663740Y-172735234D01*
X259664696Y-172733880D01*
X259789674Y-172660849D01*
X259851110Y-172612676D01*
X259853090Y-172612394D01*
X259854324Y-172613968D01*
G37*
G36*
X260270536Y-172201240D02*
G01*
X260270585Y-172202726D01*
X260247118Y-172267423D01*
X260262451Y-172334963D01*
X260311896Y-172383520D01*
X260370276Y-172398140D01*
X260371713Y-172399531D01*
X260371227Y-172401471D01*
X260369790Y-172402080D01*
X260097679Y-172402080D01*
X260095947Y-172401080D01*
X260095947Y-172399080D01*
X260096243Y-172398688D01*
X260201750Y-172289813D01*
X260267093Y-172200860D01*
X260268924Y-172200056D01*
X260270536Y-172201240D01*
G37*
G36*
X63757367Y-171521197D02*
G01*
X63823141Y-171713307D01*
X63822756Y-171715270D01*
X63820864Y-171715918D01*
X63819616Y-171715110D01*
X63779886Y-171658921D01*
X63715675Y-171632965D01*
X63647427Y-171645883D01*
X63644976Y-171647447D01*
X63642978Y-171647536D01*
X63641902Y-171645850D01*
X63642414Y-171644423D01*
X63753989Y-171520507D01*
X63755891Y-171519889D01*
X63757367Y-171521197D01*
G37*
G36*
X70067178Y-171520615D02*
G01*
X70181638Y-171647736D01*
X70184222Y-171649613D01*
X70185035Y-171651440D01*
X70183859Y-171653058D01*
X70182231Y-171653058D01*
X70132689Y-171630962D01*
X70064227Y-171641427D01*
X70012143Y-171687374D01*
X70002422Y-171706908D01*
X70000755Y-171708013D01*
X69998964Y-171707122D01*
X69998760Y-171705310D01*
X70056863Y-171551543D01*
X70063742Y-171521507D01*
X70065104Y-171520041D01*
X70067178Y-171520615D01*
G37*
G36*
X70001333Y-170209443D02*
G01*
X70041653Y-170265217D01*
X70106131Y-170290498D01*
X70174618Y-170276789D01*
X70174655Y-170276974D01*
X70176012Y-170276896D01*
X70177110Y-170278568D01*
X70176599Y-170280021D01*
X70068009Y-170400622D01*
X70066107Y-170401240D01*
X70064638Y-170399952D01*
X69997827Y-170211283D01*
X69998191Y-170209316D01*
X70000076Y-170208648D01*
X70001333Y-170209443D01*
G37*
G36*
X63822290Y-170213378D02*
G01*
X63822515Y-170215190D01*
X63758130Y-170391129D01*
X63756306Y-170399494D01*
X63754960Y-170400973D01*
X63752866Y-170400406D01*
X63639430Y-170274422D01*
X63636635Y-170272392D01*
X63635821Y-170270565D01*
X63636996Y-170268947D01*
X63638599Y-170268936D01*
X63689820Y-170290928D01*
X63758132Y-170279508D01*
X63809569Y-170232836D01*
X63818836Y-170213634D01*
X63820489Y-170212508D01*
X63822290Y-170213378D01*
G37*
G36*
X252413455Y-169531210D02*
G01*
X252413455Y-169533210D01*
X252413174Y-169533587D01*
X252294263Y-169658893D01*
X252242919Y-169730346D01*
X252241096Y-169731169D01*
X252239472Y-169730002D01*
X252239408Y-169728517D01*
X252262193Y-169663583D01*
X252246153Y-169596207D01*
X252196199Y-169548166D01*
X252138972Y-169534153D01*
X252137528Y-169532769D01*
X252138003Y-169530827D01*
X252139448Y-169530210D01*
X252411723Y-169530210D01*
X252413455Y-169531210D01*
G37*
G36*
X252659315Y-169087472D02*
G01*
X252678992Y-169154487D01*
X252731335Y-169199842D01*
X252799981Y-169209712D01*
X252844532Y-169193899D01*
X252846499Y-169194262D01*
X252847168Y-169196147D01*
X252846228Y-169197500D01*
X252702436Y-169283558D01*
X252658646Y-169318640D01*
X252656669Y-169318942D01*
X252655419Y-169317382D01*
X252655396Y-169317079D01*
X252655396Y-169088035D01*
X252656396Y-169086303D01*
X252658396Y-169086303D01*
X252659315Y-169087472D01*
G37*
G36*
X119293833Y-164360183D02*
G01*
X119316789Y-164379377D01*
X119552200Y-164527049D01*
X119665611Y-164578257D01*
X119666778Y-164579881D01*
X119665955Y-164581704D01*
X119664788Y-164582080D01*
X119209794Y-164582080D01*
X119208062Y-164581080D01*
X119208062Y-164579080D01*
X119209231Y-164578161D01*
X119276246Y-164558484D01*
X119321601Y-164506141D01*
X119331458Y-164437588D01*
X119302597Y-164374393D01*
X119291148Y-164363144D01*
X119290614Y-164361216D01*
X119292015Y-164359790D01*
X119293833Y-164360183D01*
G37*
G36*
X71480960Y-134641756D02*
G01*
X71480960Y-134843356D01*
X71479960Y-134845088D01*
X71477960Y-134845088D01*
X71477041Y-134843919D01*
X71457364Y-134776904D01*
X71405021Y-134731549D01*
X71336299Y-134721668D01*
X71308895Y-134729186D01*
X71306960Y-134728680D01*
X71306431Y-134726751D01*
X71307601Y-134725409D01*
X71390852Y-134690926D01*
X71477951Y-134640029D01*
X71479951Y-134640019D01*
X71480960Y-134641756D01*
G37*
G36*
X72232691Y-133915395D02*
G01*
X72232941Y-133916861D01*
X72218472Y-133984143D01*
X72242829Y-134048975D01*
X72298464Y-134090417D01*
X72341399Y-134098111D01*
X72342927Y-134099401D01*
X72342575Y-134101370D01*
X72341046Y-134102080D01*
X72103820Y-134102080D01*
X72102088Y-134101080D01*
X72102088Y-134099080D01*
X72102208Y-134098896D01*
X72207383Y-133955718D01*
X72229228Y-133915486D01*
X72230934Y-133914441D01*
X72232691Y-133915395D01*
G37*
G36*
X64099744Y-131621080D02*
G01*
X64099636Y-131623247D01*
X63983720Y-131784560D01*
X63972636Y-131805495D01*
X63970941Y-131806558D01*
X63969174Y-131805622D01*
X63968908Y-131804159D01*
X63982671Y-131736734D01*
X63957635Y-131672159D01*
X63901564Y-131631298D01*
X63859856Y-131624050D01*
X63858320Y-131622769D01*
X63858663Y-131620798D01*
X63860198Y-131620080D01*
X64098012Y-131620080D01*
X64099744Y-131621080D01*
G37*
G36*
X64725429Y-130878642D02*
G01*
X64745106Y-130945657D01*
X64797449Y-130991012D01*
X64866166Y-131000892D01*
X64894863Y-130992858D01*
X64896800Y-130993354D01*
X64897340Y-130995280D01*
X64896187Y-130996624D01*
X64792501Y-131040849D01*
X64724537Y-131081525D01*
X64722537Y-131081557D01*
X64721510Y-131079809D01*
X64721510Y-130879205D01*
X64722510Y-130877473D01*
X64724510Y-130877473D01*
X64725429Y-130878642D01*
G37*
G36*
X344022419Y-93136580D02*
G01*
X344025546Y-93141684D01*
X344183406Y-93326514D01*
X344368237Y-93484374D01*
X344575480Y-93611373D01*
X344800044Y-93704390D01*
X344957796Y-93742264D01*
X344959247Y-93743641D01*
X344958780Y-93745586D01*
X344956956Y-93746174D01*
X344876798Y-93730955D01*
X344807576Y-93737758D01*
X344753254Y-93780724D01*
X344730784Y-93846235D01*
X344747353Y-93913715D01*
X344757020Y-93927939D01*
X344762402Y-93934766D01*
X344762567Y-93935012D01*
X344810678Y-94019189D01*
X344810670Y-94021189D01*
X344808933Y-94022181D01*
X344807237Y-94021226D01*
X344728444Y-93892647D01*
X344570584Y-93707816D01*
X344385753Y-93549956D01*
X344178510Y-93422957D01*
X343953946Y-93329940D01*
X343777726Y-93287633D01*
X343776275Y-93286256D01*
X343776742Y-93284311D01*
X343778514Y-93283714D01*
X343837598Y-93293336D01*
X343837887Y-93293405D01*
X343867918Y-93303019D01*
X343937453Y-93304703D01*
X343996605Y-93268680D01*
X344026893Y-93206395D01*
X344018728Y-93137862D01*
X344019516Y-93136023D01*
X344021502Y-93135787D01*
X344022419Y-93136580D01*
G37*
G36*
X343233843Y-93036165D02*
G01*
X343233710Y-93037976D01*
X343211954Y-93073900D01*
X343194143Y-93141138D01*
X343215420Y-93207045D01*
X343268967Y-93251002D01*
X343333867Y-93259700D01*
X343380345Y-93253375D01*
X343380641Y-93253357D01*
X343426541Y-93253958D01*
X343428260Y-93254981D01*
X343428234Y-93256981D01*
X343426672Y-93257952D01*
X343232965Y-93273197D01*
X342996614Y-93329940D01*
X342772050Y-93422957D01*
X342626986Y-93511853D01*
X342624987Y-93511906D01*
X342623942Y-93510200D01*
X342624418Y-93508852D01*
X342668316Y-93457247D01*
X342677547Y-93388606D01*
X342648202Y-93325871D01*
X342589467Y-93288878D01*
X342555779Y-93284191D01*
X342554202Y-93282962D01*
X342554477Y-93280981D01*
X342556055Y-93280210D01*
X342778586Y-93280210D01*
X342909646Y-93264350D01*
X343048209Y-93209489D01*
X343166899Y-93119399D01*
X343230406Y-93035731D01*
X343232250Y-93034956D01*
X343233843Y-93036165D01*
G37*
G36*
X284389600Y-69547847D02*
G01*
X284545512Y-69550296D01*
X284693736Y-69516348D01*
X284695648Y-69516937D01*
X284696095Y-69518886D01*
X284695312Y-69519949D01*
X284649812Y-69551060D01*
X284622852Y-69614854D01*
X284634661Y-69683100D01*
X284681501Y-69734135D01*
X284745501Y-69751939D01*
X284746902Y-69753367D01*
X284746366Y-69755294D01*
X284744965Y-69755866D01*
X284212111Y-69755866D01*
X284210379Y-69754866D01*
X284210379Y-69752866D01*
X284211548Y-69751947D01*
X284278560Y-69732271D01*
X284323915Y-69679928D01*
X284333772Y-69611375D01*
X284304985Y-69548341D01*
X284261663Y-69518293D01*
X284260810Y-69516485D01*
X284261950Y-69514841D01*
X284263311Y-69514715D01*
X284389600Y-69547847D01*
G37*
G36*
X275990976Y-65977034D02*
G01*
X275990651Y-65978908D01*
X275945754Y-66035860D01*
X275905038Y-66151800D01*
X275899468Y-66216114D01*
X275899468Y-66565856D01*
X275919658Y-66687158D01*
X275968042Y-66776829D01*
X275967985Y-66778828D01*
X275966224Y-66779778D01*
X275964767Y-66779085D01*
X275945885Y-66757171D01*
X275945284Y-66757689D01*
X275943319Y-66758062D01*
X275942465Y-66757481D01*
X275914693Y-66725320D01*
X275848274Y-66705693D01*
X275781783Y-66725094D01*
X275750832Y-66760373D01*
X275748938Y-66761015D01*
X275748855Y-66760974D01*
X275709355Y-66805698D01*
X275707459Y-66806334D01*
X275705960Y-66805010D01*
X275706285Y-66803136D01*
X275751182Y-66746184D01*
X275791898Y-66630244D01*
X275797468Y-66565930D01*
X275797468Y-66216188D01*
X275777278Y-66094886D01*
X275728894Y-66005215D01*
X275728951Y-66003216D01*
X275730712Y-66002266D01*
X275732169Y-66002959D01*
X275751051Y-66024873D01*
X275751652Y-66024355D01*
X275753617Y-66023982D01*
X275754471Y-66024563D01*
X275782243Y-66056724D01*
X275848662Y-66076351D01*
X275915153Y-66056950D01*
X275946104Y-66021671D01*
X275947998Y-66021029D01*
X275948081Y-66021070D01*
X275987581Y-65976346D01*
X275989477Y-65975710D01*
X275990976Y-65977034D01*
G37*
G36*
X280240976Y-65977034D02*
G01*
X280240651Y-65978908D01*
X280195754Y-66035860D01*
X280155038Y-66151800D01*
X280149468Y-66216114D01*
X280149468Y-66565856D01*
X280169658Y-66687158D01*
X280218042Y-66776829D01*
X280217985Y-66778828D01*
X280216224Y-66779778D01*
X280214767Y-66779085D01*
X280195885Y-66757171D01*
X280195284Y-66757689D01*
X280193319Y-66758062D01*
X280192465Y-66757481D01*
X280164693Y-66725320D01*
X280098274Y-66705693D01*
X280031783Y-66725094D01*
X280000832Y-66760373D01*
X279998938Y-66761015D01*
X279998855Y-66760974D01*
X279959355Y-66805698D01*
X279957459Y-66806334D01*
X279955960Y-66805010D01*
X279956285Y-66803136D01*
X280001182Y-66746184D01*
X280041898Y-66630244D01*
X280047468Y-66565930D01*
X280047468Y-66216188D01*
X280027278Y-66094886D01*
X279978894Y-66005215D01*
X279978951Y-66003216D01*
X279980712Y-66002266D01*
X279982169Y-66002959D01*
X280001051Y-66024873D01*
X280001652Y-66024355D01*
X280003617Y-66023982D01*
X280004471Y-66024563D01*
X280032243Y-66056724D01*
X280098662Y-66076351D01*
X280165153Y-66056950D01*
X280196104Y-66021671D01*
X280197998Y-66021029D01*
X280198081Y-66021070D01*
X280237581Y-65976346D01*
X280239477Y-65975710D01*
X280240976Y-65977034D01*
G37*
G36*
X278540976Y-65977034D02*
G01*
X278540651Y-65978908D01*
X278495754Y-66035860D01*
X278455038Y-66151800D01*
X278449468Y-66216114D01*
X278449468Y-66565856D01*
X278469658Y-66687158D01*
X278518042Y-66776829D01*
X278517985Y-66778828D01*
X278516224Y-66779778D01*
X278514767Y-66779085D01*
X278495885Y-66757171D01*
X278495284Y-66757689D01*
X278493319Y-66758062D01*
X278492465Y-66757481D01*
X278464693Y-66725320D01*
X278398274Y-66705693D01*
X278331783Y-66725094D01*
X278300832Y-66760373D01*
X278298938Y-66761015D01*
X278298855Y-66760974D01*
X278259355Y-66805698D01*
X278257459Y-66806334D01*
X278255960Y-66805010D01*
X278256285Y-66803136D01*
X278301182Y-66746184D01*
X278341898Y-66630244D01*
X278347468Y-66565930D01*
X278347468Y-66216188D01*
X278327278Y-66094886D01*
X278278894Y-66005215D01*
X278278951Y-66003216D01*
X278280712Y-66002266D01*
X278282169Y-66002959D01*
X278301051Y-66024873D01*
X278301652Y-66024355D01*
X278303617Y-66023982D01*
X278304471Y-66024563D01*
X278332243Y-66056724D01*
X278398662Y-66076351D01*
X278465153Y-66056950D01*
X278496104Y-66021671D01*
X278497998Y-66021029D01*
X278498081Y-66021070D01*
X278537581Y-65976346D01*
X278539477Y-65975710D01*
X278540976Y-65977034D01*
G37*
G36*
X277690976Y-65977034D02*
G01*
X277690651Y-65978908D01*
X277645754Y-66035860D01*
X277605038Y-66151800D01*
X277599468Y-66216114D01*
X277599468Y-66565856D01*
X277619658Y-66687158D01*
X277668042Y-66776829D01*
X277667985Y-66778828D01*
X277666224Y-66779778D01*
X277664767Y-66779085D01*
X277645885Y-66757171D01*
X277645284Y-66757689D01*
X277643319Y-66758062D01*
X277642465Y-66757481D01*
X277614693Y-66725320D01*
X277548274Y-66705693D01*
X277481783Y-66725094D01*
X277450832Y-66760373D01*
X277448938Y-66761015D01*
X277448855Y-66760974D01*
X277409355Y-66805698D01*
X277407459Y-66806334D01*
X277405960Y-66805010D01*
X277406285Y-66803136D01*
X277451182Y-66746184D01*
X277491898Y-66630244D01*
X277497468Y-66565930D01*
X277497468Y-66216188D01*
X277477278Y-66094886D01*
X277428894Y-66005215D01*
X277428951Y-66003216D01*
X277430712Y-66002266D01*
X277432169Y-66002959D01*
X277451051Y-66024873D01*
X277451652Y-66024355D01*
X277453617Y-66023982D01*
X277454471Y-66024563D01*
X277482243Y-66056724D01*
X277548662Y-66076351D01*
X277615153Y-66056950D01*
X277646104Y-66021671D01*
X277647998Y-66021029D01*
X277648081Y-66021070D01*
X277687581Y-65976346D01*
X277689477Y-65975710D01*
X277690976Y-65977034D01*
G37*
G36*
X279390976Y-65977034D02*
G01*
X279390651Y-65978908D01*
X279345754Y-66035860D01*
X279305038Y-66151800D01*
X279299468Y-66216114D01*
X279299468Y-66565856D01*
X279319658Y-66687158D01*
X279368042Y-66776829D01*
X279367985Y-66778828D01*
X279366224Y-66779778D01*
X279364767Y-66779085D01*
X279345885Y-66757171D01*
X279345284Y-66757689D01*
X279343319Y-66758062D01*
X279342465Y-66757481D01*
X279314693Y-66725320D01*
X279248274Y-66705693D01*
X279181783Y-66725094D01*
X279150832Y-66760373D01*
X279148938Y-66761015D01*
X279148855Y-66760974D01*
X279109355Y-66805698D01*
X279107459Y-66806334D01*
X279105960Y-66805010D01*
X279106285Y-66803136D01*
X279151182Y-66746184D01*
X279191898Y-66630244D01*
X279197468Y-66565930D01*
X279197468Y-66216188D01*
X279177278Y-66094886D01*
X279128894Y-66005215D01*
X279128951Y-66003216D01*
X279130712Y-66002266D01*
X279132169Y-66002959D01*
X279151051Y-66024873D01*
X279151652Y-66024355D01*
X279153617Y-66023982D01*
X279154471Y-66024563D01*
X279182243Y-66056724D01*
X279248662Y-66076351D01*
X279315153Y-66056950D01*
X279346104Y-66021671D01*
X279347998Y-66021029D01*
X279348081Y-66021070D01*
X279387581Y-65976346D01*
X279389477Y-65975710D01*
X279390976Y-65977034D01*
G37*
G36*
X275140976Y-65977034D02*
G01*
X275140651Y-65978908D01*
X275095754Y-66035860D01*
X275055038Y-66151800D01*
X275049468Y-66216114D01*
X275049468Y-66565856D01*
X275069658Y-66687158D01*
X275118042Y-66776829D01*
X275117985Y-66778828D01*
X275116224Y-66779778D01*
X275114767Y-66779085D01*
X275095885Y-66757171D01*
X275095284Y-66757689D01*
X275093319Y-66758062D01*
X275092465Y-66757481D01*
X275064693Y-66725320D01*
X274998274Y-66705693D01*
X274931783Y-66725094D01*
X274900832Y-66760373D01*
X274898938Y-66761015D01*
X274898855Y-66760974D01*
X274859355Y-66805698D01*
X274857459Y-66806334D01*
X274855960Y-66805010D01*
X274856285Y-66803136D01*
X274901182Y-66746184D01*
X274941898Y-66630244D01*
X274947468Y-66565930D01*
X274947468Y-66216188D01*
X274927278Y-66094886D01*
X274878894Y-66005215D01*
X274878951Y-66003216D01*
X274880712Y-66002266D01*
X274882169Y-66002959D01*
X274901051Y-66024873D01*
X274901652Y-66024355D01*
X274903617Y-66023982D01*
X274904471Y-66024563D01*
X274932243Y-66056724D01*
X274998662Y-66076351D01*
X275065153Y-66056950D01*
X275096104Y-66021671D01*
X275097998Y-66021029D01*
X275098081Y-66021070D01*
X275137581Y-65976346D01*
X275139477Y-65975710D01*
X275140976Y-65977034D01*
G37*
G36*
X276840976Y-65977034D02*
G01*
X276840651Y-65978908D01*
X276795754Y-66035860D01*
X276755038Y-66151800D01*
X276749468Y-66216114D01*
X276749468Y-66565856D01*
X276769658Y-66687158D01*
X276818042Y-66776829D01*
X276817985Y-66778828D01*
X276816224Y-66779778D01*
X276814767Y-66779085D01*
X276795885Y-66757171D01*
X276795284Y-66757689D01*
X276793319Y-66758062D01*
X276792465Y-66757481D01*
X276764693Y-66725320D01*
X276698274Y-66705693D01*
X276631783Y-66725094D01*
X276600832Y-66760373D01*
X276598938Y-66761015D01*
X276598855Y-66760974D01*
X276559355Y-66805698D01*
X276557459Y-66806334D01*
X276555960Y-66805010D01*
X276556285Y-66803136D01*
X276601182Y-66746184D01*
X276641898Y-66630244D01*
X276647468Y-66565930D01*
X276647468Y-66216188D01*
X276627278Y-66094886D01*
X276578894Y-66005215D01*
X276578951Y-66003216D01*
X276580712Y-66002266D01*
X276582169Y-66002959D01*
X276601051Y-66024873D01*
X276601652Y-66024355D01*
X276603617Y-66023982D01*
X276604471Y-66024563D01*
X276632243Y-66056724D01*
X276698662Y-66076351D01*
X276765153Y-66056950D01*
X276796104Y-66021671D01*
X276797998Y-66021029D01*
X276798081Y-66021070D01*
X276837581Y-65976346D01*
X276839477Y-65975710D01*
X276840976Y-65977034D01*
G37*
G36*
X275985976Y-64652034D02*
G01*
X275985651Y-64653908D01*
X275940754Y-64710860D01*
X275900038Y-64826800D01*
X275894468Y-64891114D01*
X275894468Y-65240856D01*
X275914658Y-65362158D01*
X275963042Y-65451829D01*
X275962985Y-65453828D01*
X275961224Y-65454778D01*
X275959767Y-65454085D01*
X275940885Y-65432171D01*
X275940284Y-65432689D01*
X275938319Y-65433062D01*
X275937465Y-65432481D01*
X275909693Y-65400320D01*
X275843274Y-65380693D01*
X275776783Y-65400094D01*
X275745832Y-65435373D01*
X275743938Y-65436015D01*
X275743855Y-65435974D01*
X275704355Y-65480698D01*
X275702459Y-65481334D01*
X275700960Y-65480010D01*
X275701285Y-65478136D01*
X275746182Y-65421184D01*
X275786898Y-65305244D01*
X275792468Y-65240930D01*
X275792468Y-64891188D01*
X275772278Y-64769886D01*
X275723894Y-64680215D01*
X275723951Y-64678216D01*
X275725712Y-64677266D01*
X275727169Y-64677959D01*
X275746051Y-64699873D01*
X275746652Y-64699355D01*
X275748617Y-64698982D01*
X275749471Y-64699563D01*
X275777243Y-64731724D01*
X275843662Y-64751351D01*
X275910153Y-64731950D01*
X275941104Y-64696671D01*
X275942998Y-64696029D01*
X275943081Y-64696070D01*
X275982581Y-64651346D01*
X275984477Y-64650710D01*
X275985976Y-64652034D01*
G37*
G36*
X278535976Y-64652034D02*
G01*
X278535651Y-64653908D01*
X278490754Y-64710860D01*
X278450038Y-64826800D01*
X278444468Y-64891114D01*
X278444468Y-65240856D01*
X278464658Y-65362158D01*
X278513042Y-65451829D01*
X278512985Y-65453828D01*
X278511224Y-65454778D01*
X278509767Y-65454085D01*
X278490885Y-65432171D01*
X278490284Y-65432689D01*
X278488319Y-65433062D01*
X278487465Y-65432481D01*
X278459693Y-65400320D01*
X278393274Y-65380693D01*
X278326783Y-65400094D01*
X278295832Y-65435373D01*
X278293938Y-65436015D01*
X278293855Y-65435974D01*
X278254355Y-65480698D01*
X278252459Y-65481334D01*
X278250960Y-65480010D01*
X278251285Y-65478136D01*
X278296182Y-65421184D01*
X278336898Y-65305244D01*
X278342468Y-65240930D01*
X278342468Y-64891188D01*
X278322278Y-64769886D01*
X278273894Y-64680215D01*
X278273951Y-64678216D01*
X278275712Y-64677266D01*
X278277169Y-64677959D01*
X278296051Y-64699873D01*
X278296652Y-64699355D01*
X278298617Y-64698982D01*
X278299471Y-64699563D01*
X278327243Y-64731724D01*
X278393662Y-64751351D01*
X278460153Y-64731950D01*
X278491104Y-64696671D01*
X278492998Y-64696029D01*
X278493081Y-64696070D01*
X278532581Y-64651346D01*
X278534477Y-64650710D01*
X278535976Y-64652034D01*
G37*
G36*
X279385976Y-64652034D02*
G01*
X279385651Y-64653908D01*
X279340754Y-64710860D01*
X279300038Y-64826800D01*
X279294468Y-64891114D01*
X279294468Y-65240856D01*
X279314658Y-65362158D01*
X279363042Y-65451829D01*
X279362985Y-65453828D01*
X279361224Y-65454778D01*
X279359767Y-65454085D01*
X279340885Y-65432171D01*
X279340284Y-65432689D01*
X279338319Y-65433062D01*
X279337465Y-65432481D01*
X279309693Y-65400320D01*
X279243274Y-65380693D01*
X279176783Y-65400094D01*
X279145832Y-65435373D01*
X279143938Y-65436015D01*
X279143855Y-65435974D01*
X279104355Y-65480698D01*
X279102459Y-65481334D01*
X279100960Y-65480010D01*
X279101285Y-65478136D01*
X279146182Y-65421184D01*
X279186898Y-65305244D01*
X279192468Y-65240930D01*
X279192468Y-64891188D01*
X279172278Y-64769886D01*
X279123894Y-64680215D01*
X279123951Y-64678216D01*
X279125712Y-64677266D01*
X279127169Y-64677959D01*
X279146051Y-64699873D01*
X279146652Y-64699355D01*
X279148617Y-64698982D01*
X279149471Y-64699563D01*
X279177243Y-64731724D01*
X279243662Y-64751351D01*
X279310153Y-64731950D01*
X279341104Y-64696671D01*
X279342998Y-64696029D01*
X279343081Y-64696070D01*
X279382581Y-64651346D01*
X279384477Y-64650710D01*
X279385976Y-64652034D01*
G37*
G36*
X276835976Y-64652034D02*
G01*
X276835651Y-64653908D01*
X276790754Y-64710860D01*
X276750038Y-64826800D01*
X276744468Y-64891114D01*
X276744468Y-65240856D01*
X276764658Y-65362158D01*
X276813042Y-65451829D01*
X276812985Y-65453828D01*
X276811224Y-65454778D01*
X276809767Y-65454085D01*
X276790885Y-65432171D01*
X276790284Y-65432689D01*
X276788319Y-65433062D01*
X276787465Y-65432481D01*
X276759693Y-65400320D01*
X276693274Y-65380693D01*
X276626783Y-65400094D01*
X276595832Y-65435373D01*
X276593938Y-65436015D01*
X276593855Y-65435974D01*
X276554355Y-65480698D01*
X276552459Y-65481334D01*
X276550960Y-65480010D01*
X276551285Y-65478136D01*
X276596182Y-65421184D01*
X276636898Y-65305244D01*
X276642468Y-65240930D01*
X276642468Y-64891188D01*
X276622278Y-64769886D01*
X276573894Y-64680215D01*
X276573951Y-64678216D01*
X276575712Y-64677266D01*
X276577169Y-64677959D01*
X276596051Y-64699873D01*
X276596652Y-64699355D01*
X276598617Y-64698982D01*
X276599471Y-64699563D01*
X276627243Y-64731724D01*
X276693662Y-64751351D01*
X276760153Y-64731950D01*
X276791104Y-64696671D01*
X276792998Y-64696029D01*
X276793081Y-64696070D01*
X276832581Y-64651346D01*
X276834477Y-64650710D01*
X276835976Y-64652034D01*
G37*
G36*
X275135976Y-64652034D02*
G01*
X275135651Y-64653908D01*
X275090754Y-64710860D01*
X275050038Y-64826800D01*
X275044468Y-64891114D01*
X275044468Y-65240856D01*
X275064658Y-65362158D01*
X275113042Y-65451829D01*
X275112985Y-65453828D01*
X275111224Y-65454778D01*
X275109767Y-65454085D01*
X275090885Y-65432171D01*
X275090284Y-65432689D01*
X275088319Y-65433062D01*
X275087465Y-65432481D01*
X275059693Y-65400320D01*
X274993274Y-65380693D01*
X274926783Y-65400094D01*
X274895832Y-65435373D01*
X274893938Y-65436015D01*
X274893855Y-65435974D01*
X274854355Y-65480698D01*
X274852459Y-65481334D01*
X274850960Y-65480010D01*
X274851285Y-65478136D01*
X274896182Y-65421184D01*
X274936898Y-65305244D01*
X274942468Y-65240930D01*
X274942468Y-64891188D01*
X274922278Y-64769886D01*
X274873894Y-64680215D01*
X274873951Y-64678216D01*
X274875712Y-64677266D01*
X274877169Y-64677959D01*
X274896051Y-64699873D01*
X274896652Y-64699355D01*
X274898617Y-64698982D01*
X274899471Y-64699563D01*
X274927243Y-64731724D01*
X274993662Y-64751351D01*
X275060153Y-64731950D01*
X275091104Y-64696671D01*
X275092998Y-64696029D01*
X275093081Y-64696070D01*
X275132581Y-64651346D01*
X275134477Y-64650710D01*
X275135976Y-64652034D01*
G37*
G36*
X277685976Y-64652034D02*
G01*
X277685651Y-64653908D01*
X277640754Y-64710860D01*
X277600038Y-64826800D01*
X277594468Y-64891114D01*
X277594468Y-65240856D01*
X277614658Y-65362158D01*
X277663042Y-65451829D01*
X277662985Y-65453828D01*
X277661224Y-65454778D01*
X277659767Y-65454085D01*
X277640885Y-65432171D01*
X277640284Y-65432689D01*
X277638319Y-65433062D01*
X277637465Y-65432481D01*
X277609693Y-65400320D01*
X277543274Y-65380693D01*
X277476783Y-65400094D01*
X277445832Y-65435373D01*
X277443938Y-65436015D01*
X277443855Y-65435974D01*
X277404355Y-65480698D01*
X277402459Y-65481334D01*
X277400960Y-65480010D01*
X277401285Y-65478136D01*
X277446182Y-65421184D01*
X277486898Y-65305244D01*
X277492468Y-65240930D01*
X277492468Y-64891188D01*
X277472278Y-64769886D01*
X277423894Y-64680215D01*
X277423951Y-64678216D01*
X277425712Y-64677266D01*
X277427169Y-64677959D01*
X277446051Y-64699873D01*
X277446652Y-64699355D01*
X277448617Y-64698982D01*
X277449471Y-64699563D01*
X277477243Y-64731724D01*
X277543662Y-64751351D01*
X277610153Y-64731950D01*
X277641104Y-64696671D01*
X277642998Y-64696029D01*
X277643081Y-64696070D01*
X277682581Y-64651346D01*
X277684477Y-64650710D01*
X277685976Y-64652034D01*
G37*
G36*
X280240974Y-64652036D02*
G01*
X280240649Y-64653910D01*
X280195754Y-64710860D01*
X280155038Y-64826800D01*
X280149468Y-64891114D01*
X280149468Y-65240856D01*
X280169658Y-65362158D01*
X280218042Y-65451829D01*
X280217985Y-65453828D01*
X280216224Y-65454778D01*
X280214767Y-65454085D01*
X280195553Y-65431786D01*
X280194589Y-65431969D01*
X280193734Y-65431388D01*
X280162230Y-65394908D01*
X280095810Y-65375283D01*
X280029320Y-65394686D01*
X279984146Y-65446178D01*
X279983477Y-65447602D01*
X279983166Y-65448076D01*
X279954357Y-65480696D01*
X279952461Y-65481332D01*
X279950962Y-65480008D01*
X279951287Y-65478134D01*
X279996182Y-65421184D01*
X280036898Y-65305244D01*
X280042468Y-65240930D01*
X280042468Y-64891188D01*
X280022278Y-64769886D01*
X279973894Y-64680215D01*
X279973951Y-64678216D01*
X279975712Y-64677266D01*
X279977169Y-64677959D01*
X279996383Y-64700258D01*
X279997347Y-64700075D01*
X279998202Y-64700656D01*
X280029706Y-64737136D01*
X280096126Y-64756761D01*
X280162616Y-64737358D01*
X280207790Y-64685866D01*
X280208459Y-64684442D01*
X280208770Y-64683968D01*
X280237579Y-64651348D01*
X280239475Y-64650712D01*
X280240974Y-64652036D01*
G37*
M02*
