%TF.GenerationSoftware,KiCad,Pcbnew,(6.0.6)*%
%TF.CreationDate,2023-05-08T18:10:17+05:30*%
%TF.ProjectId,discipline-pcb,64697363-6970-46c6-996e-652d7063622e,rev?*%
%TF.SameCoordinates,Original*%
%TF.FileFunction,Soldermask,Bot*%
%TF.FilePolarity,Negative*%
%FSLAX46Y46*%
G04 Gerber Fmt 4.6, Leading zero omitted, Abs format (unit mm)*
G04 Created by KiCad (PCBNEW (6.0.6)) date 2023-05-08 18:10:17*
%MOMM*%
%LPD*%
G01*
G04 APERTURE LIST*
G04 Aperture macros list*
%AMRoundRect*
0 Rectangle with rounded corners*
0 $1 Rounding radius*
0 $2 $3 $4 $5 $6 $7 $8 $9 X,Y pos of 4 corners*
0 Add a 4 corners polygon primitive as box body*
4,1,4,$2,$3,$4,$5,$6,$7,$8,$9,$2,$3,0*
0 Add four circle primitives for the rounded corners*
1,1,$1+$1,$2,$3*
1,1,$1+$1,$4,$5*
1,1,$1+$1,$6,$7*
1,1,$1+$1,$8,$9*
0 Add four rect primitives between the rounded corners*
20,1,$1+$1,$2,$3,$4,$5,0*
20,1,$1+$1,$4,$5,$6,$7,0*
20,1,$1+$1,$6,$7,$8,$9,0*
20,1,$1+$1,$8,$9,$2,$3,0*%
G04 Aperture macros list end*
%ADD10C,1.500000*%
%ADD11C,0.400000*%
%ADD12C,0.010000*%
%ADD13C,3.987800*%
%ADD14C,3.000000*%
%ADD15C,1.750000*%
%ADD16R,2.550000X2.500000*%
%ADD17RoundRect,0.500000X-0.775000X-0.500000X0.775000X-0.500000X0.775000X0.500000X-0.775000X0.500000X0*%
%ADD18C,3.048000*%
%ADD19C,4.400000*%
%ADD20R,1.600000X1.600000*%
%ADD21O,1.600000X1.600000*%
%ADD22C,1.400000*%
%ADD23O,1.400000X1.400000*%
%ADD24C,2.000000*%
%ADD25R,1.800000X1.800000*%
%ADD26C,1.800000*%
%ADD27R,1.200000X1.200000*%
%ADD28C,1.200000*%
%ADD29C,1.600000*%
%ADD30R,2.100000X2.100000*%
%ADD31R,2.550000X2.100000*%
%ADD32O,0.650000X1.000000*%
%ADD33O,0.900000X1.700000*%
%ADD34O,0.900000X2.400000*%
%ADD35C,1.500000*%
%ADD36R,1.700000X1.700000*%
%ADD37C,1.700000*%
%ADD38R,1.524000X1.524000*%
%ADD39R,2.000000X2.000000*%
%ADD40O,3.000000X3.000000*%
%ADD41O,2.500000X3.000000*%
G04 APERTURE END LIST*
D10*
X62883004Y-64469560D02*
X223254308Y-64469560D01*
X62883004Y-59503020D02*
X223254308Y-59503020D01*
X62883004Y-61986290D02*
X223254308Y-61986290D01*
D11*
%TO.C,G\u002A\u002A\u002A*%
X166325144Y-167154210D02*
X144025144Y-167154210D01*
X166305144Y-160474210D02*
X144025144Y-160474210D01*
X166335144Y-167154210D02*
G75*
G03*
X166335144Y-160474210I0J3340000D01*
G01*
X144035144Y-160474210D02*
G75*
G03*
X144035144Y-167154210I0J-3340000D01*
G01*
G36*
X156329656Y-162660967D02*
G01*
X156452085Y-162671099D01*
X156460760Y-163617489D01*
X156461248Y-163673761D01*
X156462669Y-163913418D01*
X156462931Y-164130761D01*
X156462095Y-164317194D01*
X156460224Y-164464122D01*
X156457379Y-164562951D01*
X156453623Y-164605085D01*
X156451013Y-164609863D01*
X156403405Y-164635741D01*
X156322518Y-164646292D01*
X156207226Y-164646292D01*
X156207226Y-162650834D01*
X156329656Y-162660967D01*
G37*
D12*
X156329656Y-162660967D02*
X156452085Y-162671099D01*
X156460760Y-163617489D01*
X156461248Y-163673761D01*
X156462669Y-163913418D01*
X156462931Y-164130761D01*
X156462095Y-164317194D01*
X156460224Y-164464122D01*
X156457379Y-164562951D01*
X156453623Y-164605085D01*
X156451013Y-164609863D01*
X156403405Y-164635741D01*
X156322518Y-164646292D01*
X156207226Y-164646292D01*
X156207226Y-162650834D01*
X156329656Y-162660967D01*
G36*
X147726475Y-162660833D02*
G01*
X147833062Y-162671099D01*
X147865710Y-164246351D01*
X148257483Y-163527999D01*
X148339741Y-163377872D01*
X148445656Y-163186666D01*
X148540674Y-163017470D01*
X148619765Y-162879148D01*
X148677901Y-162780561D01*
X148710050Y-162730572D01*
X148759094Y-162681279D01*
X148821471Y-162660739D01*
X148922261Y-162661298D01*
X149073679Y-162671099D01*
X149082323Y-163660800D01*
X149090966Y-164650501D01*
X148984379Y-164640235D01*
X148877792Y-164629968D01*
X148869054Y-163798057D01*
X148860315Y-162966146D01*
X148417744Y-163765409D01*
X148405926Y-163786732D01*
X148289105Y-163995362D01*
X148180508Y-164185608D01*
X148084740Y-164349678D01*
X148006403Y-164479783D01*
X147950103Y-164568132D01*
X147920441Y-164606936D01*
X147917123Y-164609338D01*
X147844999Y-164634566D01*
X147751442Y-164639583D01*
X147637175Y-164629968D01*
X147628531Y-163640268D01*
X147619887Y-162650567D01*
X147726475Y-162660833D01*
G37*
X147726475Y-162660833D02*
X147833062Y-162671099D01*
X147865710Y-164246351D01*
X148257483Y-163527999D01*
X148339741Y-163377872D01*
X148445656Y-163186666D01*
X148540674Y-163017470D01*
X148619765Y-162879148D01*
X148677901Y-162780561D01*
X148710050Y-162730572D01*
X148759094Y-162681279D01*
X148821471Y-162660739D01*
X148922261Y-162661298D01*
X149073679Y-162671099D01*
X149082323Y-163660800D01*
X149090966Y-164650501D01*
X148984379Y-164640235D01*
X148877792Y-164629968D01*
X148869054Y-163798057D01*
X148860315Y-162966146D01*
X148417744Y-163765409D01*
X148405926Y-163786732D01*
X148289105Y-163995362D01*
X148180508Y-164185608D01*
X148084740Y-164349678D01*
X148006403Y-164479783D01*
X147950103Y-164568132D01*
X147920441Y-164606936D01*
X147917123Y-164609338D01*
X147844999Y-164634566D01*
X147751442Y-164639583D01*
X147637175Y-164629968D01*
X147628531Y-163640268D01*
X147619887Y-162650567D01*
X147726475Y-162660833D01*
G36*
X165112911Y-163673092D02*
G01*
X165114265Y-163913086D01*
X165114372Y-164130992D01*
X165113305Y-164318171D01*
X165111141Y-164465980D01*
X165107953Y-164565780D01*
X165103818Y-164608931D01*
X165096591Y-164617610D01*
X165037341Y-164636671D01*
X164932077Y-164646834D01*
X164794618Y-164648785D01*
X164638781Y-164643212D01*
X164478383Y-164630801D01*
X164327241Y-164612240D01*
X164199174Y-164588215D01*
X164107998Y-164559414D01*
X163926600Y-164449859D01*
X163782652Y-164296471D01*
X163681188Y-164098167D01*
X163618869Y-163850102D01*
X163610806Y-163734335D01*
X163886448Y-163734335D01*
X163910112Y-163927864D01*
X163969737Y-164109937D01*
X164066807Y-164246591D01*
X164204697Y-164344300D01*
X164227373Y-164355341D01*
X164329965Y-164393063D01*
X164447425Y-164412346D01*
X164604633Y-164417758D01*
X164858897Y-164417758D01*
X164858897Y-162883310D01*
X164612990Y-162883310D01*
X164426331Y-162892618D01*
X164277628Y-162926035D01*
X164158409Y-162989823D01*
X164051728Y-163090229D01*
X163995265Y-163164100D01*
X163922865Y-163316878D01*
X163887629Y-163502917D01*
X163886448Y-163734335D01*
X163610806Y-163734335D01*
X163600760Y-163590101D01*
X163629620Y-163346453D01*
X163702555Y-163130150D01*
X163816407Y-162950535D01*
X163968020Y-162816950D01*
X163975173Y-162812457D01*
X164128105Y-162736457D01*
X164304699Y-162687634D01*
X164517808Y-162663531D01*
X164780284Y-162661693D01*
X165103756Y-162671099D01*
X165105702Y-162883310D01*
X165112431Y-163617489D01*
X165112911Y-163673092D01*
G37*
X165112911Y-163673092D02*
X165114265Y-163913086D01*
X165114372Y-164130992D01*
X165113305Y-164318171D01*
X165111141Y-164465980D01*
X165107953Y-164565780D01*
X165103818Y-164608931D01*
X165096591Y-164617610D01*
X165037341Y-164636671D01*
X164932077Y-164646834D01*
X164794618Y-164648785D01*
X164638781Y-164643212D01*
X164478383Y-164630801D01*
X164327241Y-164612240D01*
X164199174Y-164588215D01*
X164107998Y-164559414D01*
X163926600Y-164449859D01*
X163782652Y-164296471D01*
X163681188Y-164098167D01*
X163618869Y-163850102D01*
X163610806Y-163734335D01*
X163886448Y-163734335D01*
X163910112Y-163927864D01*
X163969737Y-164109937D01*
X164066807Y-164246591D01*
X164204697Y-164344300D01*
X164227373Y-164355341D01*
X164329965Y-164393063D01*
X164447425Y-164412346D01*
X164604633Y-164417758D01*
X164858897Y-164417758D01*
X164858897Y-162883310D01*
X164612990Y-162883310D01*
X164426331Y-162892618D01*
X164277628Y-162926035D01*
X164158409Y-162989823D01*
X164051728Y-163090229D01*
X163995265Y-163164100D01*
X163922865Y-163316878D01*
X163887629Y-163502917D01*
X163886448Y-163734335D01*
X163610806Y-163734335D01*
X163600760Y-163590101D01*
X163629620Y-163346453D01*
X163702555Y-163130150D01*
X163816407Y-162950535D01*
X163968020Y-162816950D01*
X163975173Y-162812457D01*
X164128105Y-162736457D01*
X164304699Y-162687634D01*
X164517808Y-162663531D01*
X164780284Y-162661693D01*
X165103756Y-162671099D01*
X165105702Y-162883310D01*
X165112431Y-163617489D01*
X165112911Y-163673092D01*
G36*
X145814376Y-162654779D02*
G01*
X146034918Y-162657231D01*
X146193908Y-162664409D01*
X146294802Y-162676565D01*
X146341057Y-162693953D01*
X146349475Y-162716699D01*
X146360386Y-162798616D01*
X146369158Y-162928651D01*
X146375798Y-163096495D01*
X146380309Y-163291842D01*
X146382695Y-163504386D01*
X146382961Y-163723818D01*
X146381110Y-163939834D01*
X146377148Y-164142124D01*
X146371078Y-164320384D01*
X146362905Y-164464305D01*
X146352632Y-164563582D01*
X146340265Y-164607907D01*
X146327528Y-164616111D01*
X146269615Y-164629900D01*
X146165499Y-164638059D01*
X146008869Y-164640947D01*
X145793414Y-164638922D01*
X145286532Y-164629968D01*
X145286532Y-164434081D01*
X146119052Y-164415807D01*
X146119052Y-163699506D01*
X145400800Y-163699506D01*
X145400800Y-163505828D01*
X145751764Y-163496561D01*
X146102728Y-163487295D01*
X146112115Y-163185303D01*
X146121502Y-162883310D01*
X145715672Y-162883310D01*
X145694926Y-162883300D01*
X145528478Y-162881902D01*
X145415438Y-162877197D01*
X145345058Y-162867835D01*
X145306590Y-162852466D01*
X145289285Y-162829739D01*
X145281579Y-162794519D01*
X145287992Y-162715472D01*
X145289449Y-162711174D01*
X145303281Y-162689070D01*
X145332655Y-162673607D01*
X145387521Y-162663614D01*
X145477829Y-162657925D01*
X145613528Y-162655368D01*
X145804568Y-162654776D01*
X145814376Y-162654779D01*
G37*
X145814376Y-162654779D02*
X146034918Y-162657231D01*
X146193908Y-162664409D01*
X146294802Y-162676565D01*
X146341057Y-162693953D01*
X146349475Y-162716699D01*
X146360386Y-162798616D01*
X146369158Y-162928651D01*
X146375798Y-163096495D01*
X146380309Y-163291842D01*
X146382695Y-163504386D01*
X146382961Y-163723818D01*
X146381110Y-163939834D01*
X146377148Y-164142124D01*
X146371078Y-164320384D01*
X146362905Y-164464305D01*
X146352632Y-164563582D01*
X146340265Y-164607907D01*
X146327528Y-164616111D01*
X146269615Y-164629900D01*
X146165499Y-164638059D01*
X146008869Y-164640947D01*
X145793414Y-164638922D01*
X145286532Y-164629968D01*
X145286532Y-164434081D01*
X146119052Y-164415807D01*
X146119052Y-163699506D01*
X145400800Y-163699506D01*
X145400800Y-163505828D01*
X145751764Y-163496561D01*
X146102728Y-163487295D01*
X146112115Y-163185303D01*
X146121502Y-162883310D01*
X145715672Y-162883310D01*
X145694926Y-162883300D01*
X145528478Y-162881902D01*
X145415438Y-162877197D01*
X145345058Y-162867835D01*
X145306590Y-162852466D01*
X145289285Y-162829739D01*
X145281579Y-162794519D01*
X145287992Y-162715472D01*
X145289449Y-162711174D01*
X145303281Y-162689070D01*
X145332655Y-162673607D01*
X145387521Y-162663614D01*
X145477829Y-162657925D01*
X145613528Y-162655368D01*
X145804568Y-162654776D01*
X145814376Y-162654779D01*
G36*
X152615967Y-163626798D02*
G01*
X152615882Y-163711488D01*
X152614684Y-163951478D01*
X152612215Y-164167387D01*
X152608662Y-164350974D01*
X152604212Y-164493994D01*
X152599050Y-164588205D01*
X152593365Y-164625364D01*
X152584530Y-164628668D01*
X152522200Y-164635199D01*
X152411792Y-164639315D01*
X152265492Y-164640682D01*
X152095486Y-164638967D01*
X151620208Y-164629968D01*
X151620208Y-164434081D01*
X152353722Y-164415629D01*
X152371108Y-162671099D01*
X152493537Y-162660967D01*
X152615967Y-162650834D01*
X152615967Y-163626798D01*
G37*
X152615967Y-163626798D02*
X152615882Y-163711488D01*
X152614684Y-163951478D01*
X152612215Y-164167387D01*
X152608662Y-164350974D01*
X152604212Y-164493994D01*
X152599050Y-164588205D01*
X152593365Y-164625364D01*
X152584530Y-164628668D01*
X152522200Y-164635199D01*
X152411792Y-164639315D01*
X152265492Y-164640682D01*
X152095486Y-164638967D01*
X151620208Y-164629968D01*
X151620208Y-164434081D01*
X152353722Y-164415629D01*
X152371108Y-162671099D01*
X152493537Y-162660967D01*
X152615967Y-162650834D01*
X152615967Y-163626798D01*
G36*
X154964628Y-163167721D02*
G01*
X154966172Y-163387409D01*
X154966609Y-163665414D01*
X154966576Y-163717340D01*
X154965551Y-163954668D01*
X154963232Y-164168760D01*
X154959811Y-164351203D01*
X154955479Y-164493586D01*
X154950426Y-164587498D01*
X154944844Y-164624527D01*
X154943370Y-164625812D01*
X154894923Y-164640319D01*
X154814253Y-164646292D01*
X154705427Y-164646292D01*
X154705427Y-163903782D01*
X154450225Y-163889009D01*
X154366147Y-163881960D01*
X154144328Y-163835080D01*
X153974128Y-163748994D01*
X153854154Y-163622394D01*
X153783009Y-163453977D01*
X153759299Y-163242436D01*
X153761913Y-163185561D01*
X154021132Y-163185561D01*
X154026708Y-163292377D01*
X154033096Y-163346643D01*
X154080919Y-163497595D01*
X154172297Y-163602535D01*
X154311229Y-163666725D01*
X154316399Y-163668137D01*
X154425690Y-163689223D01*
X154538225Y-163698293D01*
X154631662Y-163694686D01*
X154683662Y-163677740D01*
X154691947Y-163640207D01*
X154698950Y-163550448D01*
X154703686Y-163422368D01*
X154705427Y-163269643D01*
X154705427Y-162883310D01*
X154473627Y-162883310D01*
X154423184Y-162883466D01*
X154317530Y-162887790D01*
X154247496Y-162903537D01*
X154191221Y-162937956D01*
X154126842Y-162998296D01*
X154071603Y-163056290D01*
X154032974Y-163116034D01*
X154021132Y-163185561D01*
X153761913Y-163185561D01*
X153764624Y-163126571D01*
X153801397Y-162971445D01*
X153879408Y-162851186D01*
X154005997Y-162751175D01*
X154053149Y-162724684D01*
X154121607Y-162698121D01*
X154208260Y-162680525D01*
X154328807Y-162669015D01*
X154498950Y-162660711D01*
X154633129Y-162656887D01*
X154777155Y-162658270D01*
X154869382Y-162668250D01*
X154917510Y-162687318D01*
X154928045Y-162699996D01*
X154940377Y-162732690D01*
X154949851Y-162788836D01*
X154956817Y-162875408D01*
X154957124Y-162883310D01*
X154961626Y-162999379D01*
X154964628Y-163167721D01*
G37*
X154964628Y-163167721D02*
X154966172Y-163387409D01*
X154966609Y-163665414D01*
X154966576Y-163717340D01*
X154965551Y-163954668D01*
X154963232Y-164168760D01*
X154959811Y-164351203D01*
X154955479Y-164493586D01*
X154950426Y-164587498D01*
X154944844Y-164624527D01*
X154943370Y-164625812D01*
X154894923Y-164640319D01*
X154814253Y-164646292D01*
X154705427Y-164646292D01*
X154705427Y-163903782D01*
X154450225Y-163889009D01*
X154366147Y-163881960D01*
X154144328Y-163835080D01*
X153974128Y-163748994D01*
X153854154Y-163622394D01*
X153783009Y-163453977D01*
X153759299Y-163242436D01*
X153761913Y-163185561D01*
X154021132Y-163185561D01*
X154026708Y-163292377D01*
X154033096Y-163346643D01*
X154080919Y-163497595D01*
X154172297Y-163602535D01*
X154311229Y-163666725D01*
X154316399Y-163668137D01*
X154425690Y-163689223D01*
X154538225Y-163698293D01*
X154631662Y-163694686D01*
X154683662Y-163677740D01*
X154691947Y-163640207D01*
X154698950Y-163550448D01*
X154703686Y-163422368D01*
X154705427Y-163269643D01*
X154705427Y-162883310D01*
X154473627Y-162883310D01*
X154423184Y-162883466D01*
X154317530Y-162887790D01*
X154247496Y-162903537D01*
X154191221Y-162937956D01*
X154126842Y-162998296D01*
X154071603Y-163056290D01*
X154032974Y-163116034D01*
X154021132Y-163185561D01*
X153761913Y-163185561D01*
X153764624Y-163126571D01*
X153801397Y-162971445D01*
X153879408Y-162851186D01*
X154005997Y-162751175D01*
X154053149Y-162724684D01*
X154121607Y-162698121D01*
X154208260Y-162680525D01*
X154328807Y-162669015D01*
X154498950Y-162660711D01*
X154633129Y-162656887D01*
X154777155Y-162658270D01*
X154869382Y-162668250D01*
X154917510Y-162687318D01*
X154928045Y-162699996D01*
X154940377Y-162732690D01*
X154949851Y-162788836D01*
X154956817Y-162875408D01*
X154957124Y-162883310D01*
X154961626Y-162999379D01*
X154964628Y-163167721D01*
G36*
X162467958Y-163617489D02*
G01*
X162468441Y-163673398D01*
X162469827Y-163913238D01*
X162470004Y-164130887D01*
X162469043Y-164317724D01*
X162467013Y-164465130D01*
X162463982Y-164564485D01*
X162460021Y-164607170D01*
X162423078Y-164635155D01*
X162337078Y-164640216D01*
X162230748Y-164629968D01*
X162230748Y-162671099D01*
X162459283Y-162671099D01*
X162467958Y-163617489D01*
G37*
X162467958Y-163617489D02*
X162468441Y-163673398D01*
X162469827Y-163913238D01*
X162470004Y-164130887D01*
X162469043Y-164317724D01*
X162467013Y-164465130D01*
X162463982Y-164564485D01*
X162460021Y-164607170D01*
X162423078Y-164635155D01*
X162337078Y-164640216D01*
X162230748Y-164629968D01*
X162230748Y-162671099D01*
X162459283Y-162671099D01*
X162467958Y-163617489D01*
G36*
X158394655Y-162687333D02*
G01*
X158586516Y-162789979D01*
X158699359Y-162897078D01*
X158815123Y-163078068D01*
X158896236Y-163300088D01*
X158937841Y-163552590D01*
X158938822Y-163799878D01*
X158897561Y-164050050D01*
X158814756Y-164266117D01*
X158693729Y-164441890D01*
X158537799Y-164571180D01*
X158350288Y-164647796D01*
X158244618Y-164665847D01*
X158055395Y-164669959D01*
X157869350Y-164643959D01*
X157706153Y-164591254D01*
X157585478Y-164515256D01*
X157565744Y-164492776D01*
X157529579Y-164421166D01*
X157512684Y-164343086D01*
X157518111Y-164280286D01*
X157548909Y-164254519D01*
X157551220Y-164254634D01*
X157603164Y-164274662D01*
X157674782Y-164318677D01*
X157776751Y-164378891D01*
X157956897Y-164435479D01*
X158137995Y-164438527D01*
X158307800Y-164390362D01*
X158454067Y-164293309D01*
X158564552Y-164149694D01*
X158586015Y-164106793D01*
X158613343Y-164033021D01*
X158629527Y-163946696D01*
X158637283Y-163830258D01*
X158639326Y-163666152D01*
X158638419Y-163536793D01*
X158632723Y-163412270D01*
X158619110Y-163320306D01*
X158594535Y-163242415D01*
X158555951Y-163160111D01*
X158496213Y-163061565D01*
X158373017Y-162938547D01*
X158219538Y-162872186D01*
X158030294Y-162859344D01*
X158009659Y-162860803D01*
X157849010Y-162891158D01*
X157710835Y-162959858D01*
X157660679Y-162991031D01*
X157575871Y-163026512D01*
X157528111Y-163012693D01*
X157513139Y-162949349D01*
X157525844Y-162860616D01*
X157578113Y-162784344D01*
X157682638Y-162716878D01*
X157741356Y-162690119D01*
X157954214Y-162635959D01*
X158177934Y-162635512D01*
X158394655Y-162687333D01*
G37*
X158394655Y-162687333D02*
X158586516Y-162789979D01*
X158699359Y-162897078D01*
X158815123Y-163078068D01*
X158896236Y-163300088D01*
X158937841Y-163552590D01*
X158938822Y-163799878D01*
X158897561Y-164050050D01*
X158814756Y-164266117D01*
X158693729Y-164441890D01*
X158537799Y-164571180D01*
X158350288Y-164647796D01*
X158244618Y-164665847D01*
X158055395Y-164669959D01*
X157869350Y-164643959D01*
X157706153Y-164591254D01*
X157585478Y-164515256D01*
X157565744Y-164492776D01*
X157529579Y-164421166D01*
X157512684Y-164343086D01*
X157518111Y-164280286D01*
X157548909Y-164254519D01*
X157551220Y-164254634D01*
X157603164Y-164274662D01*
X157674782Y-164318677D01*
X157776751Y-164378891D01*
X157956897Y-164435479D01*
X158137995Y-164438527D01*
X158307800Y-164390362D01*
X158454067Y-164293309D01*
X158564552Y-164149694D01*
X158586015Y-164106793D01*
X158613343Y-164033021D01*
X158629527Y-163946696D01*
X158637283Y-163830258D01*
X158639326Y-163666152D01*
X158638419Y-163536793D01*
X158632723Y-163412270D01*
X158619110Y-163320306D01*
X158594535Y-163242415D01*
X158555951Y-163160111D01*
X158496213Y-163061565D01*
X158373017Y-162938547D01*
X158219538Y-162872186D01*
X158030294Y-162859344D01*
X158009659Y-162860803D01*
X157849010Y-162891158D01*
X157710835Y-162959858D01*
X157660679Y-162991031D01*
X157575871Y-163026512D01*
X157528111Y-163012693D01*
X157513139Y-162949349D01*
X157525844Y-162860616D01*
X157578113Y-162784344D01*
X157682638Y-162716878D01*
X157741356Y-162690119D01*
X157954214Y-162635959D01*
X158177934Y-162635512D01*
X158394655Y-162687333D01*
G36*
X150591802Y-164650234D02*
G01*
X150346944Y-164629968D01*
X150346944Y-162671099D01*
X150469373Y-162660967D01*
X150591802Y-162650834D01*
X150591802Y-164650234D01*
G37*
X150591802Y-164650234D02*
X150346944Y-164629968D01*
X150346944Y-162671099D01*
X150469373Y-162660967D01*
X150591802Y-162650834D01*
X150591802Y-164650234D01*
G36*
X160569122Y-162631877D02*
G01*
X160665380Y-162646681D01*
X160842339Y-162710107D01*
X160969422Y-162815336D01*
X161046077Y-162961799D01*
X161071751Y-163148930D01*
X161071701Y-163159409D01*
X161057855Y-163297144D01*
X161013799Y-163411095D01*
X160931324Y-163511457D01*
X160802221Y-163608427D01*
X160618283Y-163712201D01*
X160576322Y-163734206D01*
X160399495Y-163838044D01*
X160279731Y-163932090D01*
X160211747Y-164021260D01*
X160190260Y-164110470D01*
X160192267Y-164148378D01*
X160233993Y-164274064D01*
X160322175Y-164367761D01*
X160446829Y-164426186D01*
X160597972Y-164446056D01*
X160765621Y-164424087D01*
X160939792Y-164356995D01*
X160983487Y-164335935D01*
X161061885Y-164307535D01*
X161106550Y-164304820D01*
X161111144Y-164308359D01*
X161132748Y-164361057D01*
X161133370Y-164437173D01*
X161112061Y-164502652D01*
X161109427Y-164506351D01*
X161045629Y-164558593D01*
X160943481Y-164610095D01*
X160826892Y-164648620D01*
X160636489Y-164675603D01*
X160426856Y-164660265D01*
X160239843Y-164598390D01*
X160086250Y-164493769D01*
X159976876Y-164350194D01*
X159971011Y-164338078D01*
X159937654Y-164214800D01*
X159930175Y-164068767D01*
X159947881Y-163927832D01*
X159990080Y-163819849D01*
X160073448Y-163724770D01*
X160236766Y-163606298D01*
X160463980Y-163490354D01*
X160583396Y-163431459D01*
X160713307Y-163340158D01*
X160787179Y-163240997D01*
X160810568Y-163128169D01*
X160800786Y-163052629D01*
X160743677Y-162948617D01*
X160645003Y-162878974D01*
X160515671Y-162847564D01*
X160366587Y-162858251D01*
X160208658Y-162914901D01*
X160175184Y-162930900D01*
X160098499Y-162958916D01*
X160054840Y-162961945D01*
X160035111Y-162931595D01*
X160028328Y-162857763D01*
X160046194Y-162773391D01*
X160088420Y-162728554D01*
X160180909Y-162684296D01*
X160303980Y-162650150D01*
X160439446Y-162631036D01*
X160569122Y-162631877D01*
G37*
X160569122Y-162631877D02*
X160665380Y-162646681D01*
X160842339Y-162710107D01*
X160969422Y-162815336D01*
X161046077Y-162961799D01*
X161071751Y-163148930D01*
X161071701Y-163159409D01*
X161057855Y-163297144D01*
X161013799Y-163411095D01*
X160931324Y-163511457D01*
X160802221Y-163608427D01*
X160618283Y-163712201D01*
X160576322Y-163734206D01*
X160399495Y-163838044D01*
X160279731Y-163932090D01*
X160211747Y-164021260D01*
X160190260Y-164110470D01*
X160192267Y-164148378D01*
X160233993Y-164274064D01*
X160322175Y-164367761D01*
X160446829Y-164426186D01*
X160597972Y-164446056D01*
X160765621Y-164424087D01*
X160939792Y-164356995D01*
X160983487Y-164335935D01*
X161061885Y-164307535D01*
X161106550Y-164304820D01*
X161111144Y-164308359D01*
X161132748Y-164361057D01*
X161133370Y-164437173D01*
X161112061Y-164502652D01*
X161109427Y-164506351D01*
X161045629Y-164558593D01*
X160943481Y-164610095D01*
X160826892Y-164648620D01*
X160636489Y-164675603D01*
X160426856Y-164660265D01*
X160239843Y-164598390D01*
X160086250Y-164493769D01*
X159976876Y-164350194D01*
X159971011Y-164338078D01*
X159937654Y-164214800D01*
X159930175Y-164068767D01*
X159947881Y-163927832D01*
X159990080Y-163819849D01*
X160073448Y-163724770D01*
X160236766Y-163606298D01*
X160463980Y-163490354D01*
X160583396Y-163431459D01*
X160713307Y-163340158D01*
X160787179Y-163240997D01*
X160810568Y-163128169D01*
X160800786Y-163052629D01*
X160743677Y-162948617D01*
X160645003Y-162878974D01*
X160515671Y-162847564D01*
X160366587Y-162858251D01*
X160208658Y-162914901D01*
X160175184Y-162930900D01*
X160098499Y-162958916D01*
X160054840Y-162961945D01*
X160035111Y-162931595D01*
X160028328Y-162857763D01*
X160046194Y-162773391D01*
X160088420Y-162728554D01*
X160180909Y-162684296D01*
X160303980Y-162650150D01*
X160439446Y-162631036D01*
X160569122Y-162631877D01*
%TD*%
D13*
%TO.C,SW1*%
X63338710Y-94771210D03*
D14*
X65878710Y-89691210D03*
D15*
X58258710Y-94771210D03*
X68418710Y-94771210D03*
D14*
X59528710Y-92231210D03*
D16*
X69180710Y-89691210D03*
X56253710Y-92231210D03*
%TD*%
D15*
%TO.C,SW2*%
X77308710Y-94771210D03*
D13*
X82388710Y-94771210D03*
D15*
X87468710Y-94771210D03*
D14*
X78578710Y-92231210D03*
X84928710Y-89691210D03*
D16*
X88230710Y-89691210D03*
X75303710Y-92231210D03*
%TD*%
D15*
%TO.C,SW3*%
X106518710Y-94771210D03*
D14*
X97628710Y-92231210D03*
D15*
X96358710Y-94771210D03*
D13*
X101438710Y-94771210D03*
D14*
X103978710Y-89691210D03*
D16*
X107280710Y-89691210D03*
X94353710Y-92231210D03*
%TD*%
D15*
%TO.C,SW4*%
X125568710Y-94771210D03*
D14*
X116678710Y-92231210D03*
X123028710Y-89691210D03*
D13*
X120488710Y-94771210D03*
D15*
X115408710Y-94771210D03*
D16*
X126330710Y-89691210D03*
X113403710Y-92231210D03*
%TD*%
D13*
%TO.C,SW5*%
X139538710Y-94771210D03*
D15*
X134458710Y-94771210D03*
X144618710Y-94771210D03*
D14*
X142078710Y-89691210D03*
X135728710Y-92231210D03*
D16*
X145380710Y-89691210D03*
X132453710Y-92231210D03*
%TD*%
D15*
%TO.C,SW6*%
X163668710Y-94771210D03*
D14*
X161128710Y-89691210D03*
D13*
X158588710Y-94771210D03*
D14*
X154778710Y-92231210D03*
D15*
X153508710Y-94771210D03*
D16*
X164430710Y-89691210D03*
X151503710Y-92231210D03*
%TD*%
D13*
%TO.C,SW7*%
X177638710Y-94771210D03*
D14*
X173828710Y-92231210D03*
X180178710Y-89691210D03*
D15*
X172558710Y-94771210D03*
X182718710Y-94771210D03*
D16*
X183480710Y-89691210D03*
X170553710Y-92231210D03*
%TD*%
D14*
%TO.C,SW8*%
X192878710Y-92231210D03*
D13*
X196688710Y-94771210D03*
D15*
X201768710Y-94771210D03*
D14*
X199228710Y-89691210D03*
D15*
X191608710Y-94771210D03*
D16*
X202530710Y-89691210D03*
X189603710Y-92231210D03*
%TD*%
D14*
%TO.C,SW9*%
X218278710Y-89691210D03*
D13*
X215738710Y-94771210D03*
D15*
X210658710Y-94771210D03*
X220818710Y-94771210D03*
D14*
X211928710Y-92231210D03*
D16*
X221580710Y-89691210D03*
X208653710Y-92231210D03*
%TD*%
D15*
%TO.C,SW10*%
X239868710Y-94771210D03*
D13*
X234788710Y-94771210D03*
D15*
X229708710Y-94771210D03*
D14*
X237328710Y-89691210D03*
X230978710Y-92231210D03*
D16*
X240630710Y-89691210D03*
X227703710Y-92231210D03*
%TD*%
D14*
%TO.C,SW11*%
X256378710Y-89691210D03*
D15*
X248758710Y-94771210D03*
D14*
X250028710Y-92231210D03*
D15*
X258918710Y-94771210D03*
D13*
X253838710Y-94771210D03*
D16*
X259680710Y-89691210D03*
X246753710Y-92231210D03*
%TD*%
D13*
%TO.C,SW12*%
X272888710Y-94771210D03*
D14*
X269078710Y-92231210D03*
X275428710Y-89691210D03*
D15*
X277968710Y-94771210D03*
X267808710Y-94771210D03*
D16*
X278730710Y-89691210D03*
X265803710Y-92231210D03*
%TD*%
D14*
%TO.C,SW13*%
X288128710Y-92231210D03*
X294478710Y-89691210D03*
D15*
X297018710Y-94771210D03*
X286858710Y-94771210D03*
D13*
X291938710Y-94771210D03*
D16*
X297780710Y-89691210D03*
X284853710Y-92231210D03*
%TD*%
D15*
%TO.C,SW15*%
X354168710Y-94771210D03*
D14*
X345278710Y-92231210D03*
D15*
X344008710Y-94771210D03*
D14*
X351628710Y-89691210D03*
D13*
X349088710Y-94771210D03*
D16*
X354930710Y-89691210D03*
D17*
X342003710Y-92231210D03*
%TD*%
D13*
%TO.C,SW17*%
X91913710Y-113821210D03*
D14*
X94453710Y-108741210D03*
D15*
X96993710Y-113821210D03*
D14*
X88103710Y-111281210D03*
D15*
X86833710Y-113821210D03*
D16*
X97755710Y-108741210D03*
X84828710Y-111281210D03*
%TD*%
D15*
%TO.C,SW18*%
X105883710Y-113821210D03*
D13*
X110963710Y-113821210D03*
D14*
X113503710Y-108741210D03*
D15*
X116043710Y-113821210D03*
D14*
X107153710Y-111281210D03*
D16*
X116805710Y-108741210D03*
X103878710Y-111281210D03*
%TD*%
D14*
%TO.C,SW19*%
X132553710Y-108741210D03*
X126203710Y-111281210D03*
D13*
X130013710Y-113821210D03*
D15*
X135093710Y-113821210D03*
X124933710Y-113821210D03*
D16*
X135855710Y-108741210D03*
X122928710Y-111281210D03*
%TD*%
D13*
%TO.C,SW20*%
X149063710Y-113821210D03*
D15*
X143983710Y-113821210D03*
D14*
X151603710Y-108741210D03*
D15*
X154143710Y-113821210D03*
D14*
X145253710Y-111281210D03*
D16*
X154905710Y-108741210D03*
X141978710Y-111281210D03*
%TD*%
D14*
%TO.C,SW21*%
X164303710Y-111281210D03*
D13*
X168113710Y-113821210D03*
D15*
X163033710Y-113821210D03*
D14*
X170653710Y-108741210D03*
D15*
X173193710Y-113821210D03*
D16*
X173955710Y-108741210D03*
X161028710Y-111281210D03*
%TD*%
D13*
%TO.C,SW22*%
X187163710Y-113821210D03*
D14*
X189703710Y-108741210D03*
D15*
X192243710Y-113821210D03*
X182083710Y-113821210D03*
D14*
X183353710Y-111281210D03*
D16*
X193005710Y-108741210D03*
X180078710Y-111281210D03*
%TD*%
D14*
%TO.C,SW23*%
X208753710Y-108741210D03*
D15*
X201133710Y-113821210D03*
X211293710Y-113821210D03*
D14*
X202403710Y-111281210D03*
D13*
X206213710Y-113821210D03*
D16*
X212055710Y-108741210D03*
X199128710Y-111281210D03*
%TD*%
D14*
%TO.C,SW24*%
X221453710Y-111281210D03*
X227803710Y-108741210D03*
D13*
X225263710Y-113821210D03*
D15*
X220183710Y-113821210D03*
X230343710Y-113821210D03*
D16*
X231105710Y-108741210D03*
X218178710Y-111281210D03*
%TD*%
D15*
%TO.C,SW25*%
X239233710Y-113821210D03*
D14*
X246853710Y-108741210D03*
D13*
X244313710Y-113821210D03*
D15*
X249393710Y-113821210D03*
D14*
X240503710Y-111281210D03*
D16*
X250155710Y-108741210D03*
X237228710Y-111281210D03*
%TD*%
D15*
%TO.C,SW26*%
X258283710Y-113821210D03*
D13*
X263363710Y-113821210D03*
D14*
X265903710Y-108741210D03*
X259553710Y-111281210D03*
D15*
X268443710Y-113821210D03*
D16*
X269205710Y-108741210D03*
X256278710Y-111281210D03*
%TD*%
D15*
%TO.C,SW27*%
X277333710Y-113821210D03*
D14*
X278603710Y-111281210D03*
D13*
X282413710Y-113821210D03*
D15*
X287493710Y-113821210D03*
D14*
X284953710Y-108741210D03*
D16*
X288255710Y-108741210D03*
X275328710Y-111281210D03*
%TD*%
D14*
%TO.C,SW28*%
X297653710Y-111281210D03*
D13*
X301463710Y-113821210D03*
D14*
X304003710Y-108741210D03*
D15*
X296383710Y-113821210D03*
X306543710Y-113821210D03*
D16*
X307305710Y-108741210D03*
X294378710Y-111281210D03*
%TD*%
D14*
%TO.C,SW30*%
X345278710Y-111281210D03*
X351628710Y-108741210D03*
D15*
X344008710Y-113821210D03*
X354168710Y-113821210D03*
D13*
X349088710Y-113821210D03*
D16*
X354930710Y-108741210D03*
X342003710Y-111281210D03*
%TD*%
D15*
%TO.C,SW32*%
X101756210Y-132871210D03*
X91596210Y-132871210D03*
D14*
X99216210Y-127791210D03*
X92866210Y-130331210D03*
D13*
X96676210Y-132871210D03*
D16*
X102518210Y-127791210D03*
X89591210Y-130331210D03*
%TD*%
D14*
%TO.C,SW33*%
X118266210Y-127791210D03*
D13*
X115726210Y-132871210D03*
D15*
X120806210Y-132871210D03*
X110646210Y-132871210D03*
D14*
X111916210Y-130331210D03*
D16*
X121568210Y-127791210D03*
X108641210Y-130331210D03*
%TD*%
D14*
%TO.C,SW34*%
X130966210Y-130331210D03*
X137316210Y-127791210D03*
D13*
X134776210Y-132871210D03*
D15*
X129696210Y-132871210D03*
X139856210Y-132871210D03*
D16*
X140618210Y-127791210D03*
X127691210Y-130331210D03*
%TD*%
D15*
%TO.C,SW35*%
X148745710Y-132871210D03*
D14*
X150015710Y-130331210D03*
D15*
X158905710Y-132871210D03*
D14*
X156365710Y-127791210D03*
D13*
X153825710Y-132871210D03*
D16*
X159667710Y-127791210D03*
X146740710Y-130331210D03*
%TD*%
D15*
%TO.C,SW36*%
X177955710Y-132871210D03*
D13*
X172875710Y-132871210D03*
D15*
X167795710Y-132871210D03*
D14*
X169065710Y-130331210D03*
X175415710Y-127791210D03*
D16*
X178717710Y-127791210D03*
X165790710Y-130331210D03*
%TD*%
D14*
%TO.C,SW37*%
X194465710Y-127791210D03*
D15*
X197005710Y-132871210D03*
D14*
X188115710Y-130331210D03*
D13*
X191925710Y-132871210D03*
D15*
X186845710Y-132871210D03*
D16*
X197767710Y-127791210D03*
X184840710Y-130331210D03*
%TD*%
D14*
%TO.C,SW38*%
X207165710Y-130331210D03*
D15*
X205895710Y-132871210D03*
D14*
X213515710Y-127791210D03*
D15*
X216055710Y-132871210D03*
D13*
X210975710Y-132871210D03*
D16*
X216817710Y-127791210D03*
X203890710Y-130331210D03*
%TD*%
D14*
%TO.C,SW39*%
X232565710Y-127791210D03*
D15*
X235105710Y-132871210D03*
D13*
X230025710Y-132871210D03*
D15*
X224945710Y-132871210D03*
D14*
X226215710Y-130331210D03*
D16*
X235867710Y-127791210D03*
X222940710Y-130331210D03*
%TD*%
D15*
%TO.C,SW40*%
X243995710Y-132871210D03*
D14*
X251615710Y-127791210D03*
X245265710Y-130331210D03*
D15*
X254155710Y-132871210D03*
D13*
X249075710Y-132871210D03*
D16*
X254917710Y-127791210D03*
X241990710Y-130331210D03*
%TD*%
D15*
%TO.C,SW41*%
X273205710Y-132871210D03*
X263045710Y-132871210D03*
D13*
X268125710Y-132871210D03*
D14*
X264315710Y-130331210D03*
X270665710Y-127791210D03*
D16*
X273967710Y-127791210D03*
X261040710Y-130331210D03*
%TD*%
D14*
%TO.C,SW42*%
X289715710Y-127791210D03*
X283365710Y-130331210D03*
D13*
X287175710Y-132871210D03*
D15*
X292255710Y-132871210D03*
X282095710Y-132871210D03*
D16*
X293017710Y-127791210D03*
X280090710Y-130331210D03*
%TD*%
D14*
%TO.C,SW44*%
X351628710Y-127791210D03*
D15*
X344008710Y-132871210D03*
D14*
X345278710Y-130331210D03*
D15*
X354168710Y-132871210D03*
D13*
X349088710Y-132871210D03*
D16*
X354930710Y-127791210D03*
X342003710Y-130331210D03*
%TD*%
D14*
%TO.C,SW46*%
X108741210Y-146841210D03*
D15*
X101121210Y-151921210D03*
X111281210Y-151921210D03*
D14*
X102391210Y-149381210D03*
D13*
X106201210Y-151921210D03*
D16*
X112043210Y-146841210D03*
X99116210Y-149381210D03*
%TD*%
D14*
%TO.C,SW47*%
X127791210Y-146841210D03*
X121441210Y-149381210D03*
D13*
X125251210Y-151921210D03*
D15*
X120171210Y-151921210D03*
X130331210Y-151921210D03*
D16*
X131093210Y-146841210D03*
X118166210Y-149381210D03*
%TD*%
D14*
%TO.C,SW48*%
X146841210Y-146841210D03*
D15*
X139221210Y-151921210D03*
D14*
X140491210Y-149381210D03*
D13*
X144301210Y-151921210D03*
D15*
X149381210Y-151921210D03*
D16*
X150143210Y-146841210D03*
X137216210Y-149381210D03*
%TD*%
D15*
%TO.C,SW49*%
X158271710Y-151921210D03*
D14*
X159541710Y-149381210D03*
D13*
X163351710Y-151921210D03*
D15*
X168431710Y-151921210D03*
D14*
X165891710Y-146841210D03*
D16*
X169193710Y-146841210D03*
X156266710Y-149381210D03*
%TD*%
D15*
%TO.C,SW50*%
X177321710Y-151921210D03*
D14*
X184941710Y-146841210D03*
D15*
X187481710Y-151921210D03*
D14*
X178591710Y-149381210D03*
D13*
X182401710Y-151921210D03*
D16*
X188243710Y-146841210D03*
X175316710Y-149381210D03*
%TD*%
D13*
%TO.C,SW51*%
X201451710Y-151921210D03*
D14*
X197641710Y-149381210D03*
X203991710Y-146841210D03*
D15*
X196371710Y-151921210D03*
X206531710Y-151921210D03*
D16*
X207293710Y-146841210D03*
X194366710Y-149381210D03*
%TD*%
D14*
%TO.C,SW52*%
X216691710Y-149381210D03*
D13*
X220501710Y-151921210D03*
D15*
X215421710Y-151921210D03*
X225581710Y-151921210D03*
D14*
X223041710Y-146841210D03*
D16*
X226343710Y-146841210D03*
X213416710Y-149381210D03*
%TD*%
D13*
%TO.C,SW53*%
X239551710Y-151921210D03*
D14*
X235741710Y-149381210D03*
D15*
X234471710Y-151921210D03*
D14*
X242091710Y-146841210D03*
D15*
X244631710Y-151921210D03*
D16*
X245393710Y-146841210D03*
X232466710Y-149381210D03*
%TD*%
D14*
%TO.C,SW54*%
X254791710Y-149381210D03*
D13*
X258601710Y-151921210D03*
D14*
X261141710Y-146841210D03*
D15*
X253521710Y-151921210D03*
X263681710Y-151921210D03*
D16*
X264443710Y-146841210D03*
X251516710Y-149381210D03*
%TD*%
D15*
%TO.C,SW55*%
X282731710Y-151921210D03*
X272571710Y-151921210D03*
D14*
X280191710Y-146841210D03*
D13*
X277651710Y-151921210D03*
D14*
X273841710Y-149381210D03*
D16*
X283493710Y-146841210D03*
X270566710Y-149381210D03*
%TD*%
D14*
%TO.C,SW57*%
X332578710Y-146841210D03*
D15*
X324958710Y-151921210D03*
D14*
X326228710Y-149381210D03*
D15*
X335118710Y-151921210D03*
D13*
X330038710Y-151921210D03*
D16*
X335880710Y-146841210D03*
X322953710Y-149381210D03*
%TD*%
D14*
%TO.C,SW58*%
X351628710Y-146841210D03*
X345278710Y-149381210D03*
D15*
X354168710Y-151921210D03*
D13*
X349088710Y-151921210D03*
D15*
X344008710Y-151921210D03*
D16*
X354930710Y-146841210D03*
X342003710Y-149381210D03*
%TD*%
D14*
%TO.C,SW62*%
X187322710Y-165891210D03*
D13*
X184782710Y-170971210D03*
D14*
X180972710Y-168431210D03*
D15*
X189862710Y-170971210D03*
X179702710Y-170971210D03*
D16*
X190624710Y-165891210D03*
X177697710Y-168431210D03*
%TD*%
D15*
%TO.C,SW65*%
X316068710Y-170971210D03*
D13*
X310988710Y-170971210D03*
D15*
X305908710Y-170971210D03*
D14*
X313528710Y-165891210D03*
X307178710Y-168431210D03*
D16*
X316830710Y-165891210D03*
X303903710Y-168431210D03*
%TD*%
D15*
%TO.C,SW66*%
X324958710Y-170971210D03*
X335118710Y-170971210D03*
D13*
X330038710Y-170971210D03*
D14*
X326228710Y-168431210D03*
X332578710Y-165891210D03*
D16*
X335880710Y-165891210D03*
X322953710Y-168431210D03*
%TD*%
D13*
%TO.C,SW67*%
X349088710Y-170971210D03*
D14*
X345278710Y-168431210D03*
D15*
X344008710Y-170971210D03*
D14*
X351628710Y-165891210D03*
D15*
X354168710Y-170971210D03*
D16*
X354930710Y-165891210D03*
X342003710Y-168431210D03*
%TD*%
D15*
%TO.C,SW14*%
X325593710Y-94771210D03*
D14*
X316703710Y-92231210D03*
X323053710Y-89691210D03*
D13*
X320513710Y-94771210D03*
X332451710Y-103026210D03*
D15*
X315433710Y-94771210D03*
D18*
X308575710Y-87786210D03*
D13*
X308575710Y-103026210D03*
D18*
X332451710Y-87786210D03*
D16*
X326355710Y-89691210D03*
X313428710Y-92231210D03*
%TD*%
D13*
%TO.C,SW29*%
X325275710Y-113821210D03*
D15*
X320195710Y-113821210D03*
D14*
X327815710Y-108741210D03*
X321465710Y-111281210D03*
D15*
X330355710Y-113821210D03*
D16*
X331117710Y-108741210D03*
X318190710Y-111281210D03*
%TD*%
D13*
%TO.C,SW31*%
X70482510Y-132861080D03*
D14*
X66672510Y-130321080D03*
D15*
X75562510Y-132861080D03*
D14*
X73022510Y-127781080D03*
D15*
X65402510Y-132861080D03*
D16*
X76324510Y-127781080D03*
X63397510Y-130321080D03*
%TD*%
D14*
%TO.C,SW43*%
X314322710Y-130331210D03*
D15*
X323212710Y-132871210D03*
D18*
X306194710Y-125886210D03*
D14*
X320672710Y-127791210D03*
D18*
X330070710Y-125886210D03*
D13*
X330070710Y-141126210D03*
X318132710Y-132871210D03*
X306194710Y-141126210D03*
D15*
X313052710Y-132871210D03*
D16*
X323974710Y-127791210D03*
X311047710Y-130331210D03*
%TD*%
D14*
%TO.C,SW45*%
X71434910Y-149381210D03*
D15*
X80324910Y-151921210D03*
D13*
X75244910Y-151921210D03*
D15*
X70164910Y-151921210D03*
D18*
X87182910Y-144936210D03*
D13*
X87182910Y-160176210D03*
D18*
X63306910Y-144936210D03*
D13*
X63306910Y-160176210D03*
D14*
X77784910Y-146841210D03*
D16*
X81086910Y-146841210D03*
X68159910Y-149381210D03*
%TD*%
D14*
%TO.C,SW56*%
X300034710Y-149381210D03*
D15*
X308924710Y-151921210D03*
D13*
X303844710Y-151921210D03*
D14*
X306384710Y-146841210D03*
D15*
X298764710Y-151921210D03*
D16*
X309686710Y-146841210D03*
X296759710Y-149381210D03*
%TD*%
D14*
%TO.C,SW59*%
X68259910Y-165881080D03*
D15*
X70799910Y-170961080D03*
X60639910Y-170961080D03*
D13*
X65719910Y-170961080D03*
D14*
X61909910Y-168421080D03*
D16*
X58634910Y-168421080D03*
X71561910Y-165881080D03*
%TD*%
D15*
%TO.C,SW60*%
X84452510Y-170971210D03*
D13*
X89532510Y-170971210D03*
D15*
X94612510Y-170971210D03*
D14*
X92072510Y-165891210D03*
X85722510Y-168431210D03*
D16*
X82447510Y-168431210D03*
X95374510Y-165891210D03*
%TD*%
D15*
%TO.C,SW61*%
X108264910Y-170961080D03*
D14*
X109534910Y-168421080D03*
D13*
X113344910Y-170961080D03*
D14*
X115884910Y-165881080D03*
D15*
X118424910Y-170961080D03*
D16*
X106259910Y-168421080D03*
X119186910Y-165881080D03*
%TD*%
D19*
%TO.C,REF\u002A\u002A*%
X57766382Y-80444750D03*
%TD*%
%TO.C,REF\u002A\u002A*%
X57766382Y-61694750D03*
%TD*%
%TO.C,REF\u002A\u002A*%
X354660309Y-61694750D03*
%TD*%
%TO.C,REF\u002A\u002A*%
X354660309Y-80444750D03*
%TD*%
%TO.C,REF\u002A\u002A*%
X203200000Y-168452800D03*
%TD*%
%TO.C,REF\u002A\u002A*%
X81762600Y-104013000D03*
%TD*%
%TO.C,REF\u002A\u002A*%
X322478400Y-103327200D03*
%TD*%
%TO.C,REF\u002A\u002A*%
X205511400Y-101219000D03*
%TD*%
%TO.C,REF\u002A\u002A*%
X316382400Y-152120600D03*
%TD*%
D18*
%TO.C,ST72*%
X234817573Y-177966640D03*
D13*
X120517573Y-162726640D03*
X234817573Y-162726640D03*
D18*
X120517573Y-177966640D03*
%TD*%
D19*
%TO.C,REF\u002A\u002A*%
X90144600Y-152984200D03*
%TD*%
D13*
%TO.C,SW68*%
X291978988Y-170961080D03*
D14*
X289438988Y-176041080D03*
X295788988Y-173501080D03*
D15*
X286898988Y-170961080D03*
X297058988Y-170961080D03*
D16*
X286136988Y-176041080D03*
X299063988Y-173501080D03*
%TD*%
D20*
%TO.C,D1*%
X63600284Y-67475612D03*
D21*
X63600284Y-72555612D03*
%TD*%
D20*
%TO.C,D2*%
X85786525Y-72436199D03*
D21*
X85786525Y-77516199D03*
%TD*%
D20*
%TO.C,D3*%
X88955988Y-67475612D03*
D21*
X88955988Y-72555612D03*
%TD*%
D20*
%TO.C,D4*%
X101633840Y-67475612D03*
D21*
X101633840Y-72555612D03*
%TD*%
D20*
%TO.C,D5*%
X114311692Y-67475612D03*
D21*
X114311692Y-72555612D03*
%TD*%
D20*
%TO.C,D6*%
X126989544Y-67475612D03*
D21*
X126989544Y-72555612D03*
%TD*%
D20*
%TO.C,D7*%
X139667396Y-67475612D03*
D21*
X139667396Y-72555612D03*
%TD*%
D20*
%TO.C,D8*%
X152345248Y-67475612D03*
D21*
X152345248Y-72555612D03*
%TD*%
D20*
%TO.C,D9*%
X165023100Y-67475612D03*
D21*
X165023100Y-72555612D03*
%TD*%
D20*
%TO.C,D10*%
X177700952Y-67475612D03*
D21*
X177700952Y-72555612D03*
%TD*%
D20*
%TO.C,D11*%
X190378804Y-67475612D03*
D21*
X190378804Y-72555612D03*
%TD*%
D20*
%TO.C,D12*%
X203056656Y-67475612D03*
D21*
X203056656Y-72555612D03*
%TD*%
D20*
%TO.C,D13*%
X215734508Y-67475612D03*
D21*
X215734508Y-72555612D03*
%TD*%
D20*
%TO.C,D14*%
X228342376Y-67475612D03*
D21*
X228342376Y-72555612D03*
%TD*%
D20*
%TO.C,D15*%
X275541929Y-72436199D03*
D21*
X275541929Y-77516199D03*
%TD*%
D20*
%TO.C,D16*%
X66769747Y-69129141D03*
D21*
X66769747Y-74209141D03*
%TD*%
D20*
%TO.C,D17*%
X82617062Y-70782670D03*
D21*
X82617062Y-75862670D03*
%TD*%
D20*
%TO.C,D18*%
X92125451Y-69129141D03*
D21*
X92125451Y-74209141D03*
%TD*%
D20*
%TO.C,D19*%
X104803303Y-69129141D03*
D21*
X104803303Y-74209141D03*
%TD*%
D20*
%TO.C,D20*%
X117481155Y-69129141D03*
D21*
X117481155Y-74209141D03*
%TD*%
D20*
%TO.C,D21*%
X130159007Y-69129141D03*
D21*
X130159007Y-74209141D03*
%TD*%
D20*
%TO.C,D22*%
X142836859Y-69129141D03*
D21*
X142836859Y-74209141D03*
%TD*%
D20*
%TO.C,D23*%
X155514711Y-69129141D03*
D21*
X155514711Y-74209141D03*
%TD*%
D20*
%TO.C,D24*%
X168192563Y-69129141D03*
D21*
X168192563Y-74209141D03*
%TD*%
D20*
%TO.C,D25*%
X180870415Y-69129141D03*
D21*
X180870415Y-74209141D03*
%TD*%
D20*
%TO.C,D26*%
X193548267Y-69129141D03*
D21*
X193548267Y-74209141D03*
%TD*%
D20*
%TO.C,D27*%
X206226119Y-69129141D03*
D21*
X206226119Y-74209141D03*
%TD*%
D20*
%TO.C,D28*%
X218886475Y-69129141D03*
D21*
X218886475Y-74209141D03*
%TD*%
D20*
%TO.C,D29*%
X231493149Y-69129141D03*
D21*
X231493149Y-74209141D03*
%TD*%
D20*
%TO.C,D30*%
X272453205Y-70782670D03*
D21*
X272453205Y-75862670D03*
%TD*%
D20*
%TO.C,D31*%
X69939210Y-70782670D03*
D21*
X69939210Y-75862670D03*
%TD*%
D20*
%TO.C,D32*%
X79447599Y-69129141D03*
D21*
X79447599Y-74209141D03*
%TD*%
D20*
%TO.C,D33*%
X95294914Y-70782670D03*
D21*
X95294914Y-75862670D03*
%TD*%
D20*
%TO.C,D34*%
X107972766Y-70782670D03*
D21*
X107972766Y-75862670D03*
%TD*%
D20*
%TO.C,D35*%
X120650618Y-70782670D03*
D21*
X120650618Y-75862670D03*
%TD*%
D20*
%TO.C,D36*%
X133328470Y-70782670D03*
D21*
X133328470Y-75862670D03*
%TD*%
D20*
%TO.C,D37*%
X146006322Y-70782670D03*
D21*
X146006322Y-75862670D03*
%TD*%
D20*
%TO.C,D38*%
X158684174Y-70782670D03*
D21*
X158684174Y-75862670D03*
%TD*%
D20*
%TO.C,D39*%
X171362026Y-70782670D03*
D21*
X171362026Y-75862670D03*
%TD*%
D20*
%TO.C,D40*%
X184039878Y-70782670D03*
D21*
X184039878Y-75862670D03*
%TD*%
D20*
%TO.C,D41*%
X196717730Y-70782670D03*
D21*
X196717730Y-75862670D03*
%TD*%
D20*
%TO.C,D42*%
X209395582Y-70782670D03*
D21*
X209395582Y-75862670D03*
%TD*%
D20*
%TO.C,D43*%
X234643922Y-70782670D03*
D21*
X234643922Y-75862670D03*
%TD*%
D20*
%TO.C,D44*%
X269364481Y-69129141D03*
D21*
X269364481Y-74209141D03*
%TD*%
D20*
%TO.C,D45*%
X73108673Y-72436199D03*
D21*
X73108673Y-77516199D03*
%TD*%
D20*
%TO.C,D46*%
X98464377Y-72436199D03*
D21*
X98464377Y-77516199D03*
%TD*%
D20*
%TO.C,D47*%
X111142229Y-72436199D03*
D21*
X111142229Y-77516199D03*
%TD*%
D20*
%TO.C,D48*%
X123820081Y-72436199D03*
D21*
X123820081Y-77516199D03*
%TD*%
D20*
%TO.C,D49*%
X136497933Y-72436199D03*
D21*
X136497933Y-77516199D03*
%TD*%
D20*
%TO.C,D50*%
X149175785Y-72436199D03*
D21*
X149175785Y-77516199D03*
%TD*%
D20*
%TO.C,D51*%
X161853637Y-72436199D03*
D21*
X161853637Y-77516199D03*
%TD*%
D20*
%TO.C,D52*%
X174531489Y-72436199D03*
D21*
X174531489Y-77516199D03*
%TD*%
D20*
%TO.C,D53*%
X187209341Y-72436199D03*
D21*
X187209341Y-77516199D03*
%TD*%
D20*
%TO.C,D54*%
X199887193Y-72436199D03*
D21*
X199887193Y-77516199D03*
%TD*%
D20*
%TO.C,D55*%
X212565045Y-72436199D03*
D21*
X212565045Y-77516199D03*
%TD*%
D20*
%TO.C,D56*%
X222038442Y-70782670D03*
D21*
X222038442Y-75862670D03*
%TD*%
D20*
%TO.C,D57*%
X237794695Y-72436199D03*
D21*
X237794695Y-77516199D03*
%TD*%
D20*
%TO.C,D58*%
X266089606Y-67475612D03*
D21*
X266089606Y-72555612D03*
%TD*%
D20*
%TO.C,D59*%
X259788058Y-70782670D03*
D21*
X259788058Y-75862670D03*
%TD*%
D20*
%TO.C,D60*%
X76278136Y-67475612D03*
D21*
X76278136Y-72555612D03*
%TD*%
D20*
%TO.C,D61*%
X256637284Y-69129141D03*
D21*
X256637284Y-74209141D03*
%TD*%
D20*
%TO.C,D62*%
X253486511Y-67475612D03*
D21*
X253486511Y-72555612D03*
%TD*%
D20*
%TO.C,D63*%
X250335738Y-72436199D03*
D21*
X250335738Y-77516199D03*
%TD*%
D20*
%TO.C,D64*%
X225190409Y-72436199D03*
D21*
X225190409Y-77516199D03*
%TD*%
D20*
%TO.C,D65*%
X244096241Y-69129141D03*
D21*
X244096241Y-74209141D03*
%TD*%
D20*
%TO.C,D66*%
X240945468Y-67475612D03*
D21*
X240945468Y-72555612D03*
%TD*%
D20*
%TO.C,D67*%
X262938832Y-72436199D03*
D21*
X262938832Y-77516199D03*
%TD*%
D20*
%TO.C,D68*%
X247184965Y-70782670D03*
D21*
X247184965Y-75862670D03*
%TD*%
D22*
%TO.C,R3*%
X296870000Y-73160000D03*
D23*
X289250000Y-73160000D03*
%TD*%
D22*
%TO.C,R4*%
X296870000Y-75645517D03*
D23*
X289250000Y-75645517D03*
%TD*%
D22*
%TO.C,R1*%
X289250000Y-70570000D03*
D23*
X296870000Y-70570000D03*
%TD*%
D24*
%TO.C,RESET1*%
X232985732Y-59836074D03*
X226485732Y-59836074D03*
X226485732Y-64336074D03*
X232985732Y-64336074D03*
%TD*%
D25*
%TO.C,LED1*%
X284127716Y-61970830D03*
D26*
X286667716Y-61970830D03*
%TD*%
D22*
%TO.C,R6*%
X289240000Y-65530000D03*
D23*
X296860000Y-65530000D03*
%TD*%
D24*
%TO.C,BOOT1*%
X244985732Y-59836074D03*
X238485732Y-59836074D03*
X244985732Y-64336074D03*
X238485732Y-64336074D03*
%TD*%
D22*
%TO.C,F1*%
X270047614Y-64450838D03*
X270047614Y-59350838D03*
%TD*%
D27*
%TO.C,C3*%
X284477676Y-70404866D03*
D28*
X284477676Y-68904866D03*
%TD*%
D29*
%TO.C,C4*%
X325125530Y-58926178D03*
X330125530Y-58926178D03*
%TD*%
%TO.C,C5*%
X320471062Y-78716416D03*
X325471062Y-78716416D03*
%TD*%
D14*
%TO.C,SW63*%
X257678344Y-173501080D03*
D15*
X248788344Y-170961080D03*
D13*
X253868344Y-170961080D03*
D14*
X251328344Y-176041080D03*
D15*
X258948344Y-170961080D03*
D30*
X260953344Y-173501080D03*
D16*
X248026344Y-176041080D03*
%TD*%
D15*
%TO.C,SW64*%
X267843666Y-170971210D03*
D14*
X275463666Y-165891210D03*
X269113666Y-168431210D03*
D13*
X272923666Y-170971210D03*
D15*
X278003666Y-170971210D03*
D31*
X265838666Y-168431210D03*
X278765666Y-165891210D03*
%TD*%
D32*
%TO.C,USB1*%
X280523468Y-66391022D03*
X279673468Y-66391022D03*
X278823468Y-66391022D03*
X277973468Y-66391022D03*
X277123468Y-66391022D03*
X276273468Y-66391022D03*
X275423468Y-66391022D03*
X274573468Y-66391022D03*
X274568468Y-65066022D03*
X275418468Y-65066022D03*
X276268468Y-65066022D03*
X277118468Y-65066022D03*
X277968468Y-65066022D03*
X278818468Y-65066022D03*
X279668468Y-65066022D03*
X280523468Y-65066022D03*
D33*
X281873468Y-62031022D03*
X273223468Y-62031022D03*
D34*
X273223468Y-65411022D03*
X281873468Y-65411022D03*
%TD*%
D29*
%TO.C,C1*%
X341906112Y-82006040D03*
X341906112Y-79506040D03*
%TD*%
%TO.C,C2*%
X327680238Y-82006040D03*
X327680238Y-79506040D03*
%TD*%
D20*
%TO.C,D69*%
X286174982Y-73162196D03*
D21*
X286174982Y-78242196D03*
%TD*%
D20*
%TO.C,D70*%
X283305310Y-73162196D03*
D21*
X283305310Y-78242196D03*
%TD*%
D22*
%TO.C,R5*%
X296860000Y-78140000D03*
D23*
X289240000Y-78140000D03*
%TD*%
D35*
%TO.C,Y1*%
X337251644Y-80256240D03*
X332371644Y-80256240D03*
%TD*%
D22*
%TO.C,R7*%
X296860000Y-62990000D03*
D23*
X289240000Y-62990000D03*
%TD*%
D22*
%TO.C,R2*%
X289240000Y-68060000D03*
D23*
X296860000Y-68060000D03*
%TD*%
D18*
%TO.C,REF\u002A\u002A*%
X234811223Y-177966640D03*
D13*
X234811223Y-162726640D03*
X134811423Y-162726640D03*
D18*
X134811423Y-177966640D03*
%TD*%
D36*
%TO.C,J1*%
X255293830Y-60350870D03*
D37*
X255293830Y-62890870D03*
X252753830Y-60350870D03*
X252753830Y-62890870D03*
X250213830Y-60350870D03*
X250213830Y-62890870D03*
%TD*%
D15*
%TO.C,SW69*%
X70799960Y-132861080D03*
D14*
X69529960Y-135401080D03*
D13*
X65719960Y-132861080D03*
D14*
X63179960Y-137941080D03*
D15*
X60639960Y-132861080D03*
D16*
X72804960Y-135401080D03*
X59877960Y-137941080D03*
%TD*%
D14*
%TO.C,SW70*%
X71911160Y-173501080D03*
D15*
X63021160Y-170961080D03*
D14*
X65561160Y-176041080D03*
D13*
X68101160Y-170961080D03*
D15*
X73181160Y-170961080D03*
D16*
X62259160Y-176041080D03*
X75186160Y-173501080D03*
%TD*%
D14*
%TO.C,SW71*%
X94160491Y-176047279D03*
X100510491Y-173507279D03*
D15*
X91620491Y-170967279D03*
X101780491Y-170967279D03*
D13*
X96700491Y-170967279D03*
D16*
X90858491Y-176047279D03*
X103785491Y-173507279D03*
%TD*%
D14*
%TO.C,SW72*%
X181475033Y-173519100D03*
D15*
X172585033Y-170979100D03*
X182745033Y-170979100D03*
D13*
X177665033Y-170979100D03*
D14*
X175125033Y-176059100D03*
D16*
X171823033Y-176059100D03*
X184750033Y-173519100D03*
%TD*%
D14*
%TO.C,SW73*%
X254831396Y-168431210D03*
D15*
X253561396Y-170971210D03*
X263721396Y-170971210D03*
D13*
X258641396Y-170971210D03*
D14*
X261181396Y-165891210D03*
D31*
X264483396Y-165891210D03*
D30*
X251556396Y-168431210D03*
%TD*%
D13*
%TO.C,SW74*%
X287197588Y-170971210D03*
D14*
X289737588Y-165891210D03*
D15*
X282117588Y-170971210D03*
D14*
X283387588Y-168431210D03*
D15*
X292277588Y-170971210D03*
D16*
X293039588Y-165891210D03*
D31*
X280112588Y-168431210D03*
%TD*%
D15*
%TO.C,SW16*%
X73181210Y-113821210D03*
D14*
X64291210Y-111281210D03*
D13*
X68101210Y-113821210D03*
D14*
X70641210Y-108741210D03*
D15*
X63021210Y-113821210D03*
D16*
X73943210Y-108741210D03*
X61016210Y-111281210D03*
%TD*%
D20*
%TO.C,U1*%
X299753430Y-76389182D03*
D21*
X302293430Y-76389182D03*
X304833430Y-76389182D03*
X307373430Y-76389182D03*
X309913430Y-76389182D03*
X312453430Y-76389182D03*
X314993430Y-76389182D03*
X317533430Y-76389182D03*
X320073430Y-76389182D03*
X322613430Y-76389182D03*
X325153430Y-76389182D03*
X327693430Y-76389182D03*
X330233430Y-76389182D03*
X332773430Y-76389182D03*
X335313430Y-76389182D03*
X337853430Y-76389182D03*
X340393430Y-76389182D03*
X342933430Y-76389182D03*
X345473430Y-76389182D03*
X348013430Y-76389182D03*
X348013430Y-61149182D03*
X345473430Y-61149182D03*
X342933430Y-61149182D03*
X340393430Y-61149182D03*
X337853430Y-61149182D03*
X335313430Y-61149182D03*
X332773430Y-61149182D03*
X330233430Y-61149182D03*
X327693430Y-61149182D03*
X325153430Y-61149182D03*
X322613430Y-61149182D03*
X320073430Y-61149182D03*
X317533430Y-61149182D03*
X314993430Y-61149182D03*
X312453430Y-61149182D03*
X309913430Y-61149182D03*
X307373430Y-61149182D03*
X304833430Y-61149182D03*
X302293430Y-61149182D03*
X299753430Y-61149182D03*
%TD*%
D19*
%TO.C,REF\u002A\u002A*%
X206213345Y-80444750D03*
%TD*%
%TO.C,REF\u002A\u002A*%
X206213345Y-61694750D03*
%TD*%
D38*
%TO.C,J2*%
X61980000Y-104510000D03*
X61980000Y-101970000D03*
X61980000Y-99430000D03*
%TD*%
D39*
%TO.C,SW79*%
X346575280Y-102303120D03*
D24*
X351575280Y-102303120D03*
X349075280Y-102303120D03*
D40*
X343475280Y-94803120D03*
D41*
X354675280Y-94803120D03*
D24*
X346575280Y-87803120D03*
X351575280Y-87803120D03*
%TD*%
D38*
%TO.C,J2*%
X334253840Y-94843600D03*
X336793840Y-94843600D03*
X339333840Y-94843600D03*
%TD*%
%TO.C,J2*%
X334253840Y-130002280D03*
X336793840Y-130002280D03*
X339333840Y-130002280D03*
%TD*%
%TO.C,J2*%
X344644980Y-156347160D03*
X344644980Y-158887160D03*
X344644980Y-161427160D03*
%TD*%
%TO.C,J2*%
X98295460Y-156347160D03*
X98295460Y-158887160D03*
X98295460Y-161427160D03*
%TD*%
%TO.C,J2*%
X75930760Y-137332720D03*
X75930760Y-139872720D03*
X75930760Y-142412720D03*
%TD*%
%TO.C,J2*%
X94101920Y-137320020D03*
X94101920Y-139860020D03*
X94101920Y-142400020D03*
%TD*%
%TO.C,J2*%
X70530720Y-118338600D03*
X70530720Y-120878600D03*
X70530720Y-123418600D03*
%TD*%
%TO.C,J2*%
X88600280Y-118333520D03*
X88600280Y-120873520D03*
X88600280Y-123413520D03*
%TD*%
%TO.C,J2*%
X294450000Y-104627680D03*
X294450000Y-102087680D03*
X294450000Y-99547680D03*
%TD*%
M02*
