%TF.GenerationSoftware,KiCad,Pcbnew,(6.0.6)*%
%TF.CreationDate,2023-05-08T18:10:17+05:30*%
%TF.ProjectId,discipline-pcb,64697363-6970-46c6-996e-652d7063622e,rev?*%
%TF.SameCoordinates,Original*%
%TF.FileFunction,Paste,Bot*%
%TF.FilePolarity,Positive*%
%FSLAX46Y46*%
G04 Gerber Fmt 4.6, Leading zero omitted, Abs format (unit mm)*
G04 Created by KiCad (PCBNEW (6.0.6)) date 2023-05-08 18:10:17*
%MOMM*%
%LPD*%
G01*
G04 APERTURE LIST*
G04 Aperture macros list*
%AMRoundRect*
0 Rectangle with rounded corners*
0 $1 Rounding radius*
0 $2 $3 $4 $5 $6 $7 $8 $9 X,Y pos of 4 corners*
0 Add a 4 corners polygon primitive as box body*
4,1,4,$2,$3,$4,$5,$6,$7,$8,$9,$2,$3,0*
0 Add four circle primitives for the rounded corners*
1,1,$1+$1,$2,$3*
1,1,$1+$1,$4,$5*
1,1,$1+$1,$6,$7*
1,1,$1+$1,$8,$9*
0 Add four rect primitives between the rounded corners*
20,1,$1+$1,$2,$3,$4,$5,0*
20,1,$1+$1,$4,$5,$6,$7,0*
20,1,$1+$1,$6,$7,$8,$9,0*
20,1,$1+$1,$8,$9,$2,$3,0*%
G04 Aperture macros list end*
%ADD10R,2.550000X2.500000*%
%ADD11RoundRect,0.500000X-0.775000X-0.500000X0.775000X-0.500000X0.775000X0.500000X-0.775000X0.500000X0*%
%ADD12R,2.100000X2.100000*%
%ADD13R,2.550000X2.100000*%
%ADD14R,1.524000X1.524000*%
G04 APERTURE END LIST*
D10*
%TO.C,SW1*%
X69180710Y-89691210D03*
X56253710Y-92231210D03*
%TD*%
%TO.C,SW2*%
X88230710Y-89691210D03*
X75303710Y-92231210D03*
%TD*%
%TO.C,SW3*%
X107280710Y-89691210D03*
X94353710Y-92231210D03*
%TD*%
%TO.C,SW4*%
X126330710Y-89691210D03*
X113403710Y-92231210D03*
%TD*%
%TO.C,SW5*%
X145380710Y-89691210D03*
X132453710Y-92231210D03*
%TD*%
%TO.C,SW6*%
X164430710Y-89691210D03*
X151503710Y-92231210D03*
%TD*%
%TO.C,SW7*%
X183480710Y-89691210D03*
X170553710Y-92231210D03*
%TD*%
%TO.C,SW8*%
X202530710Y-89691210D03*
X189603710Y-92231210D03*
%TD*%
%TO.C,SW9*%
X221580710Y-89691210D03*
X208653710Y-92231210D03*
%TD*%
%TO.C,SW10*%
X240630710Y-89691210D03*
X227703710Y-92231210D03*
%TD*%
%TO.C,SW11*%
X259680710Y-89691210D03*
X246753710Y-92231210D03*
%TD*%
%TO.C,SW12*%
X278730710Y-89691210D03*
X265803710Y-92231210D03*
%TD*%
%TO.C,SW13*%
X297780710Y-89691210D03*
X284853710Y-92231210D03*
%TD*%
%TO.C,SW15*%
X354930710Y-89691210D03*
D11*
X342003710Y-92231210D03*
%TD*%
D10*
%TO.C,SW17*%
X97755710Y-108741210D03*
X84828710Y-111281210D03*
%TD*%
%TO.C,SW18*%
X116805710Y-108741210D03*
X103878710Y-111281210D03*
%TD*%
%TO.C,SW19*%
X135855710Y-108741210D03*
X122928710Y-111281210D03*
%TD*%
%TO.C,SW20*%
X154905710Y-108741210D03*
X141978710Y-111281210D03*
%TD*%
%TO.C,SW21*%
X173955710Y-108741210D03*
X161028710Y-111281210D03*
%TD*%
%TO.C,SW22*%
X193005710Y-108741210D03*
X180078710Y-111281210D03*
%TD*%
%TO.C,SW23*%
X212055710Y-108741210D03*
X199128710Y-111281210D03*
%TD*%
%TO.C,SW24*%
X231105710Y-108741210D03*
X218178710Y-111281210D03*
%TD*%
%TO.C,SW25*%
X250155710Y-108741210D03*
X237228710Y-111281210D03*
%TD*%
%TO.C,SW26*%
X269205710Y-108741210D03*
X256278710Y-111281210D03*
%TD*%
%TO.C,SW27*%
X288255710Y-108741210D03*
X275328710Y-111281210D03*
%TD*%
%TO.C,SW28*%
X307305710Y-108741210D03*
X294378710Y-111281210D03*
%TD*%
%TO.C,SW30*%
X354930710Y-108741210D03*
X342003710Y-111281210D03*
%TD*%
%TO.C,SW32*%
X102518210Y-127791210D03*
X89591210Y-130331210D03*
%TD*%
%TO.C,SW33*%
X121568210Y-127791210D03*
X108641210Y-130331210D03*
%TD*%
%TO.C,SW34*%
X140618210Y-127791210D03*
X127691210Y-130331210D03*
%TD*%
%TO.C,SW35*%
X159667710Y-127791210D03*
X146740710Y-130331210D03*
%TD*%
%TO.C,SW36*%
X178717710Y-127791210D03*
X165790710Y-130331210D03*
%TD*%
%TO.C,SW37*%
X197767710Y-127791210D03*
X184840710Y-130331210D03*
%TD*%
%TO.C,SW38*%
X216817710Y-127791210D03*
X203890710Y-130331210D03*
%TD*%
%TO.C,SW39*%
X235867710Y-127791210D03*
X222940710Y-130331210D03*
%TD*%
%TO.C,SW40*%
X254917710Y-127791210D03*
X241990710Y-130331210D03*
%TD*%
%TO.C,SW41*%
X273967710Y-127791210D03*
X261040710Y-130331210D03*
%TD*%
%TO.C,SW42*%
X293017710Y-127791210D03*
X280090710Y-130331210D03*
%TD*%
%TO.C,SW44*%
X354930710Y-127791210D03*
X342003710Y-130331210D03*
%TD*%
%TO.C,SW46*%
X112043210Y-146841210D03*
X99116210Y-149381210D03*
%TD*%
%TO.C,SW47*%
X131093210Y-146841210D03*
X118166210Y-149381210D03*
%TD*%
%TO.C,SW48*%
X150143210Y-146841210D03*
X137216210Y-149381210D03*
%TD*%
%TO.C,SW49*%
X169193710Y-146841210D03*
X156266710Y-149381210D03*
%TD*%
%TO.C,SW50*%
X188243710Y-146841210D03*
X175316710Y-149381210D03*
%TD*%
%TO.C,SW51*%
X207293710Y-146841210D03*
X194366710Y-149381210D03*
%TD*%
%TO.C,SW52*%
X226343710Y-146841210D03*
X213416710Y-149381210D03*
%TD*%
%TO.C,SW53*%
X245393710Y-146841210D03*
X232466710Y-149381210D03*
%TD*%
%TO.C,SW54*%
X264443710Y-146841210D03*
X251516710Y-149381210D03*
%TD*%
%TO.C,SW55*%
X283493710Y-146841210D03*
X270566710Y-149381210D03*
%TD*%
%TO.C,SW57*%
X335880710Y-146841210D03*
X322953710Y-149381210D03*
%TD*%
%TO.C,SW58*%
X354930710Y-146841210D03*
X342003710Y-149381210D03*
%TD*%
%TO.C,SW62*%
X190624710Y-165891210D03*
X177697710Y-168431210D03*
%TD*%
%TO.C,SW65*%
X316830710Y-165891210D03*
X303903710Y-168431210D03*
%TD*%
%TO.C,SW66*%
X335880710Y-165891210D03*
X322953710Y-168431210D03*
%TD*%
%TO.C,SW67*%
X354930710Y-165891210D03*
X342003710Y-168431210D03*
%TD*%
%TO.C,SW14*%
X326355710Y-89691210D03*
X313428710Y-92231210D03*
%TD*%
%TO.C,SW29*%
X331117710Y-108741210D03*
X318190710Y-111281210D03*
%TD*%
%TO.C,SW31*%
X76324510Y-127781080D03*
X63397510Y-130321080D03*
%TD*%
%TO.C,SW43*%
X323974710Y-127791210D03*
X311047710Y-130331210D03*
%TD*%
%TO.C,SW45*%
X81086910Y-146841210D03*
X68159910Y-149381210D03*
%TD*%
%TO.C,SW56*%
X309686710Y-146841210D03*
X296759710Y-149381210D03*
%TD*%
%TO.C,SW59*%
X58634910Y-168421080D03*
X71561910Y-165881080D03*
%TD*%
%TO.C,SW60*%
X82447510Y-168431210D03*
X95374510Y-165891210D03*
%TD*%
%TO.C,SW61*%
X106259910Y-168421080D03*
X119186910Y-165881080D03*
%TD*%
%TO.C,SW68*%
X286136988Y-176041080D03*
X299063988Y-173501080D03*
%TD*%
D12*
%TO.C,SW63*%
X260953344Y-173501080D03*
D10*
X248026344Y-176041080D03*
%TD*%
D13*
%TO.C,SW64*%
X265838666Y-168431210D03*
X278765666Y-165891210D03*
%TD*%
D10*
%TO.C,SW69*%
X72804960Y-135401080D03*
X59877960Y-137941080D03*
%TD*%
%TO.C,SW70*%
X62259160Y-176041080D03*
X75186160Y-173501080D03*
%TD*%
%TO.C,SW71*%
X90858491Y-176047279D03*
X103785491Y-173507279D03*
%TD*%
%TO.C,SW72*%
X171823033Y-176059100D03*
X184750033Y-173519100D03*
%TD*%
D13*
%TO.C,SW73*%
X264483396Y-165891210D03*
D12*
X251556396Y-168431210D03*
%TD*%
D10*
%TO.C,SW74*%
X293039588Y-165891210D03*
D13*
X280112588Y-168431210D03*
%TD*%
D10*
%TO.C,SW16*%
X73943210Y-108741210D03*
X61016210Y-111281210D03*
%TD*%
D14*
%TO.C,J2*%
X61980000Y-104510000D03*
X61980000Y-101970000D03*
X61980000Y-99430000D03*
%TD*%
%TO.C,J2*%
X334253840Y-94843600D03*
X336793840Y-94843600D03*
X339333840Y-94843600D03*
%TD*%
%TO.C,J2*%
X334253840Y-130002280D03*
X336793840Y-130002280D03*
X339333840Y-130002280D03*
%TD*%
%TO.C,J2*%
X344644980Y-156347160D03*
X344644980Y-158887160D03*
X344644980Y-161427160D03*
%TD*%
%TO.C,J2*%
X98295460Y-156347160D03*
X98295460Y-158887160D03*
X98295460Y-161427160D03*
%TD*%
%TO.C,J2*%
X75930760Y-137332720D03*
X75930760Y-139872720D03*
X75930760Y-142412720D03*
%TD*%
%TO.C,J2*%
X94101920Y-137320020D03*
X94101920Y-139860020D03*
X94101920Y-142400020D03*
%TD*%
%TO.C,J2*%
X70530720Y-118338600D03*
X70530720Y-120878600D03*
X70530720Y-123418600D03*
%TD*%
%TO.C,J2*%
X88600280Y-118333520D03*
X88600280Y-120873520D03*
X88600280Y-123413520D03*
%TD*%
%TO.C,J2*%
X294450000Y-104627680D03*
X294450000Y-102087680D03*
X294450000Y-99547680D03*
%TD*%
M02*
