M48
INCH
T1C0.0689
T2C0.1181
T3C0.1200
T4C0.1570
%
G90
G05
T1
X2.2936Y-3.7311
X2.3874Y-6.7308
X2.3874Y-5.2308
X2.4811Y-6.7308
X2.4811Y-4.4811
X2.5749Y-5.2308
X2.6936Y-3.7311
X2.7624Y-5.9811
X2.7874Y-6.7308
X2.7874Y-5.2308
X2.8811Y-6.7308
X2.8811Y-4.4811
X2.9749Y-5.2308
X3.0436Y-3.7311
X3.1624Y-5.9811
X3.3249Y-6.7311
X3.4186Y-4.4811
X3.4436Y-3.7311
X3.6061Y-5.2311
X3.6071Y-6.731
X3.7249Y-6.7311
X3.7936Y-3.7311
X3.8186Y-4.4811
X3.9811Y-5.9811
X4.0061Y-5.2311
X4.0071Y-6.731
X4.1686Y-4.4811
X4.1936Y-3.7311
X4.2624Y-6.7308
X4.3561Y-5.2311
X4.3811Y-5.9811
X4.5436Y-3.7311
X4.5686Y-4.4811
X4.6624Y-6.7308
X4.7311Y-5.9811
X4.7561Y-5.2311
X4.9186Y-4.4811
X4.9436Y-3.7311
X5.1061Y-5.2311
X5.1311Y-5.9811
X5.2936Y-3.7311
X5.3186Y-4.4811
X5.4811Y-5.9811
X5.5061Y-5.2311
X5.6686Y-4.4811
X5.6936Y-3.7311
X5.8561Y-5.2311
X5.8811Y-5.9811
X6.0436Y-3.7311
X6.0686Y-4.4811
X6.2312Y-5.9811
X6.2561Y-5.2311
X6.4186Y-4.4811
X6.4436Y-3.7311
X6.6061Y-5.2311
X6.6312Y-5.9811
X6.7936Y-3.7311
X6.7947Y-6.7315
X6.8186Y-4.4811
X6.9812Y-5.9811
X7.0061Y-5.2311
X7.0749Y-6.7311
X7.1686Y-4.4811
X7.1936Y-3.7311
X7.1947Y-6.7315
X7.3561Y-5.2311
X7.3812Y-5.9811
X7.4749Y-6.7311
X7.5436Y-3.7311
X7.5686Y-4.4811
X7.7312Y-5.9811
X7.7561Y-5.2311
X7.9186Y-4.4811
X7.9436Y-3.7311
X8.1061Y-5.2311
X8.1312Y-5.9811
X8.2936Y-3.7311
X8.3186Y-4.4811
X8.4812Y-5.9811
X8.5061Y-5.2311
X8.6686Y-4.4811
X8.6936Y-3.7311
X8.8561Y-5.2311
X8.8812Y-5.9811
X9.0436Y-3.7311
X9.0686Y-4.4811
X9.2312Y-5.9811
X9.2561Y-5.2311
X9.4186Y-4.4811
X9.4436Y-3.7311
X9.6061Y-5.2311
X9.6312Y-5.9811
X9.7936Y-3.7311
X9.7948Y-6.7308
X9.8186Y-4.4811
X9.9812Y-5.9811
X9.9827Y-6.7311
X10.0061Y-5.2311
X10.1686Y-4.4811
X10.1936Y-3.7311
X10.1948Y-6.7308
X10.3561Y-5.2311
X10.3812Y-5.9811
X10.3827Y-6.7311
X10.5436Y-3.7311
X10.545Y-6.7311
X10.5686Y-4.4811
X10.7312Y-5.9811
X10.7561Y-5.2311
X10.9186Y-4.4811
X10.9436Y-3.7311
X10.945Y-6.7311
X11.1061Y-5.2311
X11.107Y-6.7311
X11.1312Y-5.9811
X11.2936Y-3.7311
X11.2952Y-6.7308
X11.3186Y-4.4811
X11.5061Y-5.2311
X11.507Y-6.7311
X11.6686Y-4.4811
X11.6936Y-3.7311
X11.6952Y-6.7308
X11.7624Y-5.9811
X12.0436Y-6.7311
X12.0686Y-4.4811
X12.1624Y-5.9811
X12.3249Y-5.2311
X12.4186Y-3.7311
X12.4436Y-6.7311
X12.6061Y-4.4811
X12.7249Y-5.2311
X12.7936Y-5.9811
X12.7936Y-6.7311
X12.8186Y-3.7311
X13.0061Y-4.4811
X13.1936Y-5.9811
X13.1936Y-6.7311
X13.5436Y-3.7311
X13.5436Y-4.4811
X13.5436Y-5.2311
X13.5436Y-5.9811
X13.5436Y-6.7311
X13.9436Y-3.7311
X13.9436Y-4.4811
X13.9436Y-5.2311
X13.9436Y-5.9811
X13.9436Y-6.7311
T2
X2.3436Y-3.6311
X2.4374Y-6.6308
X2.4874Y-5.4308
X2.5311Y-4.3811
X2.5811Y-6.9308
X2.5936Y-3.5311
X2.6249Y-5.1308
X2.6874Y-6.5308
X2.7374Y-5.3308
X2.7811Y-4.2812
X2.8124Y-5.8811
X2.8311Y-6.8308
X2.8749Y-5.0308
X3.0624Y-5.7812
X3.0936Y-3.6311
X3.3436Y-3.5311
X3.3749Y-6.6311
X3.4686Y-4.3811
X3.6249Y-6.5312
X3.6561Y-5.1311
X3.7071Y-6.931
X3.7186Y-4.2812
X3.8436Y-3.6311
X3.9061Y-5.0312
X3.9571Y-6.831
X4.0312Y-5.8811
X4.0937Y-3.5311
X4.2187Y-4.3811
X4.2812Y-5.7812
X4.3124Y-6.6308
X4.4062Y-5.1311
X4.4687Y-4.2812
X4.5624Y-6.5308
X4.5937Y-3.6311
X4.6562Y-5.0312
X4.7812Y-5.8811
X4.8437Y-3.5311
X4.9687Y-4.3811
X5.0312Y-5.7812
X5.1562Y-5.1311
X5.2187Y-4.2812
X5.3437Y-3.6311
X5.4062Y-5.0312
X5.5312Y-5.8811
X5.5937Y-3.5311
X5.7187Y-4.3811
X5.7812Y-5.7812
X5.9061Y-5.1311
X5.9687Y-4.2812
X6.0937Y-3.6311
X6.1561Y-5.0312
X6.2812Y-5.8811
X6.3437Y-3.5311
X6.4687Y-4.3811
X6.5312Y-5.7812
X6.6561Y-5.1311
X6.7187Y-4.2812
X6.8437Y-3.6311
X6.8947Y-6.9315
X6.9061Y-5.0312
X7.0312Y-5.8811
X7.0937Y-3.5311
X7.1249Y-6.6311
X7.1447Y-6.8315
X7.2187Y-4.3811
X7.2812Y-5.7812
X7.3749Y-6.5312
X7.4061Y-5.1311
X7.4687Y-4.2812
X7.5937Y-3.6311
X7.6561Y-5.0312
X7.7812Y-5.8811
X7.8437Y-3.5311
X7.9687Y-4.3811
X8.0312Y-5.7812
X8.1561Y-5.1311
X8.2187Y-4.2812
X8.3437Y-3.6311
X8.4061Y-5.0312
X8.5312Y-5.8811
X8.5937Y-3.5311
X8.7187Y-4.3811
X8.7812Y-5.7812
X8.9061Y-5.1311
X8.9687Y-4.2812
X9.0937Y-3.6311
X9.1561Y-5.0312
X9.2812Y-5.8811
X9.3437Y-3.5311
X9.4687Y-4.3811
X9.5312Y-5.7812
X9.6561Y-5.1311
X9.7187Y-4.2812
X9.8437Y-3.6311
X9.8948Y-6.9308
X9.9061Y-5.0312
X10.0312Y-5.8811
X10.0327Y-6.6311
X10.0937Y-3.5311
X10.1448Y-6.8308
X10.2187Y-4.3811
X10.2812Y-5.7812
X10.2827Y-6.5312
X10.4061Y-5.1311
X10.4687Y-4.2812
X10.5937Y-3.6311
X10.595Y-6.6311
X10.6561Y-5.0312
X10.7812Y-5.8811
X10.8437Y-3.5311
X10.845Y-6.5312
X10.9687Y-4.3811
X11.0312Y-5.7812
X11.1561Y-5.1311
X11.157Y-6.6311
X11.2187Y-4.2812
X11.3437Y-3.6311
X11.3952Y-6.9308
X11.4061Y-5.0312
X11.407Y-6.5312
X11.5937Y-3.5311
X11.6452Y-6.8308
X11.7187Y-4.3811
X11.8124Y-5.8811
X11.9687Y-4.2812
X12.0624Y-5.7812
X12.0937Y-6.6311
X12.3437Y-6.5312
X12.3749Y-5.1311
X12.4687Y-3.6311
X12.6249Y-5.0312
X12.6561Y-4.3811
X12.7187Y-3.5311
X12.8437Y-5.8811
X12.8437Y-6.6311
X12.9061Y-4.2812
X13.0937Y-5.7812
X13.0937Y-6.5312
X13.5937Y-3.6311
X13.5937Y-4.3811
X13.5937Y-5.1311
X13.5937Y-5.8811
X13.5937Y-6.6311
X13.8437Y-3.5311
X13.8437Y-4.2812
X13.8437Y-5.0312
X13.8437Y-5.7812
X13.8437Y-6.5312
T3
X2.4924Y-5.7062
X3.4324Y-5.7062
X4.7448Y-7.0066
X5.3075Y-7.0066
X9.2445Y-7.0066
X9.2448Y-7.0066
X12.0549Y-4.9562
X12.1486Y-3.4562
X12.9949Y-4.9562
X13.0886Y-3.4562
T4
X2.4924Y-6.3061
X2.4937Y-3.7311
X2.5874Y-6.7308
X2.5874Y-5.2308
X2.6811Y-6.7308
X2.6812Y-4.4811
X2.7749Y-5.2308
X2.9624Y-5.9811
X3.2437Y-3.7311
X3.4324Y-6.3061
X3.5249Y-6.7311
X3.6186Y-4.4811
X3.8061Y-5.2311
X3.8071Y-6.731
X3.9936Y-3.7311
X4.1811Y-5.9811
X4.3686Y-4.4811
X4.4624Y-6.7308
X4.5561Y-5.2311
X4.7436Y-3.7311
X4.7448Y-6.4066
X4.9311Y-5.9811
X5.1186Y-4.4811
X5.3061Y-5.2311
X5.3075Y-6.4066
X5.4936Y-3.7311
X5.6811Y-5.9811
X5.8686Y-4.4811
X6.0561Y-5.2311
X6.2436Y-3.7311
X6.4312Y-5.9811
X6.6186Y-4.4811
X6.8061Y-5.2311
X6.9936Y-3.7311
X6.9947Y-6.7315
X7.1812Y-5.9811
X7.2749Y-6.7311
X7.3686Y-4.4811
X7.5561Y-5.2311
X7.7436Y-3.7311
X7.9312Y-5.9811
X8.1187Y-4.4811
X8.3061Y-5.2311
X8.4937Y-3.7311
X8.6812Y-5.9811
X8.8687Y-4.4811
X9.0561Y-5.2311
X9.2437Y-3.7311
X9.2445Y-6.4066
X9.2448Y-6.4066
X9.4312Y-5.9811
X9.6187Y-4.4811
X9.8061Y-5.2311
X9.9937Y-3.7311
X9.9948Y-6.7308
X10.1812Y-5.9811
X10.1827Y-6.7311
X10.3687Y-4.4811
X10.5561Y-5.2311
X10.7437Y-3.7311
X10.745Y-6.7311
X10.9312Y-5.9811
X11.1187Y-4.4811
X11.3061Y-5.2311
X11.307Y-6.7311
X11.4937Y-3.7311
X11.4952Y-6.7308
X11.8687Y-4.4811
X11.9624Y-5.9811
X12.0549Y-5.5561
X12.1486Y-4.0561
X12.2437Y-6.7311
X12.5249Y-5.2311
X12.6187Y-3.7311
X12.8061Y-4.4811
X12.9937Y-5.9811
X12.9937Y-6.7311
X12.9949Y-5.5561
X13.0886Y-4.0561
X13.7436Y-3.7311
X13.7436Y-4.4811
X13.7436Y-5.2311
X13.7436Y-5.9811
X13.7436Y-6.7311
T0
M30
