M48
INCH
T1C0.0157
T2C0.0157
T3C0.0236
T4C0.0276
T5C0.0315
T6C0.0354
T7C0.0394
T8C0.0400
T9C0.0433
T10C0.0787
T11C0.0866
%
G90
G05
T1
X2.2128Y-3.6336
X2.3591Y-5.4281
X2.403Y-4.3822
X2.4951Y-5.1309
X2.6801Y-5.8812
X2.9558Y-6.835
X2.96Y-2.97
X2.9644Y-3.6337
X3.16Y-5.4079
X3.1612Y-5.4707
X3.237Y-5.1657
X3.288Y-5.199
X3.3388Y-4.3812
X3.4737Y-3.5311
X3.5265Y-5.1312
X3.6917Y-5.9287
X3.7001Y-5.5087
X3.7051Y-5.6062
X3.7148Y-3.6355
X3.7542Y-6.5308
X3.8487Y-4.2812
X3.8689Y-6.2593
X3.8705Y-6.357
X3.8987Y-5.8827
X3.9154Y-6.0413
X4.0292Y-4.8925
X4.0828Y-6.8356
X4.0898Y-4.3826
X4.1325Y-4.9502
X4.1325Y-5.0433
X4.1587Y-5.8094
X4.2237Y-3.5311
X4.2742Y-5.1324
X4.4622Y-3.6355
X4.5987Y-4.2812
X4.6523Y-5.8842
X4.6924Y-6.5369
X4.8402Y-4.385
X4.8981Y-4.9609
X4.8981Y-5.0463
X4.9737Y-3.5311
X5.0109Y-7.0017
X5.026Y-5.1324
X5.062Y-3.1648
X5.2161Y-3.6333
X5.3487Y-4.2812
X5.4019Y-5.8842
X5.5582Y-3.1648
X5.5898Y-4.3829
X5.6351Y-4.9483
X5.6351Y-5.0512
X5.7237Y-3.5311
X5.7756Y-5.1346
X5.9613Y-3.6333
X6.0942Y-3.1648
X6.0987Y-4.2812
X6.1493Y-5.882
X6.2522Y-6.9782
X6.3372Y-4.3829
X6.3776Y-4.932
X6.3776Y-5.0418
X6.4737Y-3.5311
X6.5273Y-5.1324
X6.5558Y-3.1648
X6.7181Y-3.6338
X6.8487Y-4.2812
X6.902Y-5.882
X6.9932Y-6.6207
X7.0088Y-3.1648
X7.0871Y-4.3783
X7.1377Y-4.9379
X7.1377Y-5.0487
X7.2237Y-3.5311
X7.2741Y-6.8433
X7.2772Y-5.1313
X7.4657Y-3.6298
X7.5987Y-4.2812
X7.6332Y-3.1648
X7.6514Y-5.8806
X7.8397Y-4.3783
X7.8784Y-4.9342
X7.8784Y-5.048
X7.9737Y-3.5311
X7.9801Y-3.1582
X8.0254Y-5.1301
X8.2172Y-3.63
X8.2672Y-3.1648
X8.3486Y-4.2812
X8.3637Y-7.0127
X8.4019Y-5.8832
X8.5838Y-4.3767
X8.5846Y-3.1648
X8.6487Y-5.0549
X8.6495Y-4.9415
X8.7236Y-3.5311
X8.7837Y-5.1275
X8.901Y-2.6916
X8.9618Y-3.6316
X9.0986Y-4.2812
X9.1144Y-3.1648
X9.1576Y-5.8832
X9.2538Y-2.5783
X9.3199Y-2.7294
X9.3342Y-4.3822
X9.3873Y-4.9406
X9.3873Y-5.0501
X9.388Y-2.7298
X9.3984Y-2.663
X9.4736Y-3.5311
X9.5242Y-3.0788
X9.5263Y-5.1301
X9.716Y-3.6312
X9.764Y-6.9341
X9.8111Y-2.6475
X9.8457Y-2.6956
X9.8486Y-4.2812
X9.8504Y-2.5989
X9.8607Y-2.6564
X9.9055Y-5.8858
X9.9056Y-3.9713
X9.9905Y-6.8699
X9.9941Y-4.7335
X10.0511Y-6.2234
X10.0561Y-5.4309
X10.0847Y-4.3796
X10.1279Y-2.4548
X10.15Y-4.957
X10.15Y-5.0755
X10.2236Y-3.5311
X10.2742Y-5.1327
X10.3269Y-2.3716
X10.3558Y-2.5328
X10.4653Y-3.6302
X10.5374Y-2.3861
X10.5986Y-4.2812
X10.656Y-5.8832
X10.7028Y-2.5052
X10.7083Y-4.7722
X10.8378Y-4.3796
X10.8872Y-2.6564
X10.8899Y-6.8109
X10.8982Y-2.4422
X10.9053Y-4.9599
X10.9053Y-5.0647
X10.916Y-2.685
X10.9736Y-3.5311
X10.9774Y-2.7086
X11.0247Y-5.1301
X11.0253Y-6.6317
X11.1148Y-6.4179
X11.1586Y-6.8143
X11.2137Y-3.6305
X11.2297Y-6.4142
X11.2693Y-2.5741
X11.3486Y-4.2812
X11.4059Y-6.8198
X11.5039Y-3.0882
X11.5328Y-2.3872
X11.5732Y-5.8795
X11.5874Y-4.3796
X11.5941Y-2.7953
X11.6257Y-5.7956
X11.6832Y-5.8876
X11.7173Y-2.7272
X11.7276Y-3.0311
X11.7752Y-6.8333
X11.7978Y-2.9182
X11.8082Y-3.1002
X11.8698Y-2.9152
X11.9017Y-2.603
X11.9215Y-3.58
X11.9514Y-3.0846
X11.9627Y-6.6393
X11.9672Y-2.9152
X12.0022Y-2.603
X12.0516Y-2.9152
X12.0524Y-3.0932
X12.1028Y-2.603
X12.1514Y-2.9152
X12.1516Y-3.1036
X12.1833Y-3.7294
X12.2034Y-2.603
X12.2456Y-5.1315
X12.2518Y-3.1036
X12.304Y-2.603
X12.3965Y-2.8028
X12.4045Y-2.603
X12.4514Y-2.9017
X12.4523Y-3.0805
X12.4916Y-5.8133
X12.5051Y-2.603
X12.5051Y-2.8056
X12.5208Y-4.3816
X12.5961Y-2.8056
X12.6953Y-2.8056
X12.7083Y-6.6322
X12.7103Y-5.8832
X12.712Y-2.4804
X12.85Y-4.639
X13.1233Y-6.6738
X13.1324Y-3.2286
X13.1966Y-3.6192
X13.2502Y-3.2372
X13.2745Y-3.485
X13.2881Y-3.6049
X13.295Y-3.6498
X13.4583Y-5.1286
X13.4645Y-4.381
X13.4651Y-5.8821
X13.4699Y-6.633
X13.5678Y-6.1556
T2
X10.8098Y-2.5617
X10.81Y-2.6138
X10.8432Y-2.5617
X10.8434Y-2.6138
X10.8767Y-2.5617
X10.8769Y-2.6138
X10.9102Y-2.5617
X10.9104Y-2.6138
X10.9436Y-2.5617
X10.9438Y-2.6138
X10.9771Y-2.5617
X10.9773Y-2.6138
X11.0106Y-2.5617
X11.0108Y-2.6138
X11.0442Y-2.5617
X11.0442Y-2.6138
T3
X11.1999Y-2.7128
X11.1999Y-2.7718
T4
X11.3874Y-2.4799
X11.3874Y-2.5799
X11.3874Y-2.6795
X11.3874Y-3.0764
X11.3878Y-2.7783
X11.3878Y-2.8803
X11.3878Y-2.9782
X11.6874Y-2.4799
X11.6874Y-2.5799
X11.6874Y-2.6795
X11.6874Y-3.0764
X11.6878Y-2.7783
X11.6878Y-2.8803
X11.6878Y-2.9782
T5
X2.5039Y-2.6565
X2.5039Y-2.8565
X2.6287Y-2.7216
X2.6287Y-2.9216
X2.7535Y-2.7867
X2.7535Y-2.9867
X2.8783Y-2.8518
X2.8783Y-3.0518
X3.0031Y-2.6565
X3.0031Y-2.8565
X3.1279Y-2.7216
X3.1279Y-2.9216
X3.2526Y-2.7867
X3.2526Y-2.9867
X3.3774Y-2.8518
X3.3774Y-3.0518
X3.5022Y-2.6565
X3.5022Y-2.8565
X3.627Y-2.7216
X3.627Y-2.9216
X3.7518Y-2.7867
X3.7518Y-2.9867
X3.8766Y-2.8518
X3.8766Y-3.0518
X4.0013Y-2.6565
X4.0013Y-2.8565
X4.1261Y-2.7216
X4.1261Y-2.9216
X4.2509Y-2.7867
X4.2509Y-2.9867
X4.3757Y-2.8518
X4.3757Y-3.0518
X4.5005Y-2.6565
X4.5005Y-2.8565
X4.6252Y-2.7216
X4.6252Y-2.9216
X4.75Y-2.7867
X4.75Y-2.9867
X4.8748Y-2.8518
X4.8748Y-3.0518
X4.9996Y-2.6565
X4.9996Y-2.8565
X5.1244Y-2.7216
X5.1244Y-2.9216
X5.2492Y-2.7867
X5.2492Y-2.9867
X5.3739Y-2.8518
X5.3739Y-3.0518
X5.4987Y-2.6565
X5.4987Y-2.8565
X5.6235Y-2.7216
X5.6235Y-2.9216
X5.7483Y-2.7867
X5.7483Y-2.9867
X5.8731Y-2.8518
X5.8731Y-3.0518
X5.9978Y-2.6565
X5.9978Y-2.8565
X6.1226Y-2.7216
X6.1226Y-2.9216
X6.2474Y-2.7867
X6.2474Y-2.9867
X6.3722Y-2.8518
X6.3722Y-3.0518
X6.497Y-2.6565
X6.497Y-2.8565
X6.6218Y-2.7216
X6.6218Y-2.9216
X6.7465Y-2.7867
X6.7465Y-2.9867
X6.8713Y-2.8518
X6.8713Y-3.0518
X6.9961Y-2.6565
X6.9961Y-2.8565
X7.1209Y-2.7216
X7.1209Y-2.9216
X7.2457Y-2.7867
X7.2457Y-2.9867
X7.3704Y-2.8518
X7.3704Y-3.0518
X7.4952Y-2.6565
X7.4952Y-2.8565
X7.62Y-2.7216
X7.62Y-2.9216
X7.7448Y-2.7867
X7.7448Y-2.9867
X7.8696Y-2.8518
X7.8696Y-3.0518
X7.9944Y-2.6565
X7.9944Y-2.8565
X8.1191Y-2.7216
X8.1191Y-2.9216
X8.2439Y-2.7867
X8.2439Y-2.9867
X8.3687Y-2.8518
X8.3687Y-3.0518
X8.4935Y-2.6565
X8.4935Y-2.8565
X8.6176Y-2.7216
X8.6176Y-2.9216
X8.7417Y-2.7867
X8.7417Y-2.9867
X8.8658Y-2.8518
X8.8658Y-3.0518
X8.9899Y-2.6565
X8.9899Y-2.8565
X9.1139Y-2.7216
X9.1139Y-2.9216
X9.2379Y-2.7867
X9.2379Y-2.9867
X9.362Y-2.8518
X9.362Y-3.0518
X9.486Y-2.6565
X9.486Y-2.8565
X9.6101Y-2.7216
X9.6101Y-2.9216
X9.7317Y-2.7867
X9.7317Y-2.9867
X9.8557Y-2.8518
X9.8557Y-3.0518
X9.9798Y-2.6565
X9.9798Y-2.8565
X10.1038Y-2.7216
X10.1038Y-2.9216
X10.2279Y-2.7867
X10.2279Y-2.9867
X10.3519Y-2.8518
X10.3519Y-3.0518
X10.476Y-2.6565
X10.476Y-2.8565
X10.6049Y-2.7216
X10.6049Y-2.9216
X10.7265Y-2.7867
X10.7265Y-2.9867
X10.8481Y-2.8518
X10.8481Y-3.0518
X11.1538Y-2.8804
X11.1538Y-3.0804
X11.2667Y-2.8804
X11.2667Y-3.0804
X11.8013Y-2.4074
X11.8013Y-3.0074
X11.9013Y-2.4074
X11.9013Y-3.0074
X12.0013Y-2.4074
X12.0013Y-3.0074
X12.1013Y-2.4074
X12.1013Y-3.0074
X12.2013Y-2.4074
X12.2013Y-3.0074
X12.3013Y-2.4074
X12.3013Y-3.0074
X12.4013Y-2.4074
X12.4013Y-3.0074
X12.5013Y-2.4074
X12.5013Y-3.0074
X12.6013Y-2.4074
X12.6013Y-3.0074
X12.617Y-3.0991
X12.7013Y-2.4074
X12.7013Y-3.0074
X12.8002Y-2.3199
X12.8013Y-2.4074
X12.8013Y-3.0074
X12.8138Y-3.0991
X12.9008Y-3.1302
X12.9008Y-3.2286
X12.9013Y-2.4074
X12.9013Y-3.0074
X12.9971Y-2.3199
X13.0013Y-2.4074
X13.0013Y-3.0074
X13.0855Y-3.1597
X13.1013Y-2.4074
X13.1013Y-3.0074
X13.2013Y-2.4074
X13.2013Y-3.0074
X13.2776Y-3.1597
X13.3013Y-2.4074
X13.3013Y-3.0074
X13.4013Y-2.4074
X13.4013Y-3.0074
X13.4609Y-3.1302
X13.4609Y-3.2286
X13.5013Y-2.4074
X13.5013Y-3.0074
X13.6013Y-2.4074
X13.6013Y-3.0074
X13.7013Y-2.4074
X13.7013Y-3.0074
T6
X11.1861Y-2.4398
X11.2861Y-2.4398
T7
X10.6318Y-2.3366
X10.6318Y-2.5374
X13.6447Y-3.4568
X13.6447Y-4.0277
X13.7431Y-4.0277
X13.8415Y-3.4568
X13.8415Y-4.0277
T8
X9.8509Y-2.376
X9.8509Y-2.476
X9.9509Y-2.376
X9.9509Y-2.476
X10.0509Y-2.376
X10.0509Y-2.476
T9
X8.9168Y-2.3558
X8.9168Y-2.5329
X9.1727Y-2.3558
X9.1727Y-2.5329
X9.3892Y-2.3558
X9.3892Y-2.5329
X9.6451Y-2.3558
X9.6451Y-2.5329
T11
X2.2743Y-2.4289
X2.2743Y-3.1671
X3.219Y-4.095
X3.549Y-6.023
X8.0Y-6.632
X8.091Y-3.985
X8.1186Y-2.4289
X8.1186Y-3.1671
X12.456Y-5.989
X12.696Y-4.068
X13.963Y-2.4289
X13.963Y-3.1671
T3
G00X10.7568Y-2.4579
M15
G01X10.7568Y-2.4264
M16
G05
G00X10.7568Y-2.6048
M15
G01X10.7568Y-2.5457
M16
G05
G00X11.0974Y-2.4579
M15
G01X11.0974Y-2.4264
M16
G05
G00X11.0974Y-2.6048
M15
G01X11.0974Y-2.5457
M16
G05
T10
G00X13.5226Y-3.7422
M15
G01X13.5226Y-3.7226
M16
G05
G00X13.9636Y-3.7422
M15
G01X13.9636Y-3.7226
M16
G05
T0
M30
