G04 #@! TF.GenerationSoftware,KiCad,Pcbnew,(6.0.2)*
G04 #@! TF.CreationDate,2022-04-10T20:10:07+05:30*
G04 #@! TF.ProjectId,discipline-pcb,64697363-6970-46c6-996e-652d7063622e,rev?*
G04 #@! TF.SameCoordinates,Original*
G04 #@! TF.FileFunction,Copper,L2,Bot*
G04 #@! TF.FilePolarity,Positive*
%FSLAX46Y46*%
G04 Gerber Fmt 4.6, Leading zero omitted, Abs format (unit mm)*
G04 Created by KiCad (PCBNEW (6.0.2)) date 2022-04-10 20:10:07*
%MOMM*%
%LPD*%
G01*
G04 APERTURE LIST*
G04 #@! TA.AperFunction,ComponentPad*
%ADD10C,4.400000*%
G04 #@! TD*
G04 #@! TA.AperFunction,ViaPad*
%ADD11C,0.800000*%
G04 #@! TD*
G04 APERTURE END LIST*
D10*
X57766382Y-80444750D03*
X57766382Y-61694750D03*
X354660309Y-61694750D03*
X354660309Y-80444750D03*
X90144600Y-152984200D03*
X316382400Y-152120600D03*
X81762600Y-104013000D03*
X322478400Y-103327200D03*
X206213345Y-101219000D03*
X206213345Y-80444750D03*
X206213345Y-61694750D03*
X203200000Y-168452800D03*
X330453369Y-92373872D03*
X81973322Y-92373872D03*
X206213345Y-92373872D03*
D11*
X113753900Y-119024400D03*
G04 #@! TA.AperFunction,Conductor*
G36*
X355323307Y-58204250D02*
G01*
X355338108Y-58206555D01*
X355338111Y-58206555D01*
X355346980Y-58207936D01*
X355355882Y-58206772D01*
X355355884Y-58206772D01*
X355360212Y-58206206D01*
X355364945Y-58205587D01*
X355388343Y-58204721D01*
X355659584Y-58219953D01*
X355673616Y-58221534D01*
X355821372Y-58246639D01*
X355969123Y-58271743D01*
X355982898Y-58274887D01*
X356072521Y-58300707D01*
X356270931Y-58357868D01*
X356284252Y-58362529D01*
X356561183Y-58477238D01*
X356573906Y-58483365D01*
X356836253Y-58628359D01*
X356848206Y-58635870D01*
X357092661Y-58809319D01*
X357103709Y-58818129D01*
X357327208Y-59017860D01*
X357337198Y-59027850D01*
X357492144Y-59201234D01*
X357536930Y-59251350D01*
X357545739Y-59262396D01*
X357689236Y-59464637D01*
X357719186Y-59506848D01*
X357726700Y-59518806D01*
X357871692Y-59781149D01*
X357877821Y-59793876D01*
X357992530Y-60070807D01*
X357997191Y-60084128D01*
X358012634Y-60137731D01*
X358080172Y-60372161D01*
X358083316Y-60385936D01*
X358133524Y-60681438D01*
X358135106Y-60695475D01*
X358136073Y-60712691D01*
X358149930Y-60959431D01*
X358148628Y-60985877D01*
X358147123Y-60995539D01*
X358148288Y-61004446D01*
X358151245Y-61027060D01*
X358152309Y-61043398D01*
X358152309Y-177145832D01*
X358150809Y-177165216D01*
X358147123Y-177188890D01*
X358148287Y-177197792D01*
X358148287Y-177197794D01*
X358149472Y-177206852D01*
X358150338Y-177230255D01*
X358135106Y-177501490D01*
X358133525Y-177515526D01*
X358124345Y-177569552D01*
X358083316Y-177811033D01*
X358080172Y-177824808D01*
X357997191Y-178112841D01*
X357992530Y-178126162D01*
X357877823Y-178403089D01*
X357871694Y-178415816D01*
X357736694Y-178660081D01*
X357726703Y-178678158D01*
X357719186Y-178690121D01*
X357545740Y-178934571D01*
X357536931Y-178945618D01*
X357489413Y-178998790D01*
X357337199Y-179169118D01*
X357327209Y-179179108D01*
X357169407Y-179320129D01*
X357103709Y-179378840D01*
X357092663Y-179387649D01*
X356848206Y-179561099D01*
X356836253Y-179568610D01*
X356573906Y-179713604D01*
X356561183Y-179719731D01*
X356284252Y-179834440D01*
X356270931Y-179839101D01*
X356073195Y-179896068D01*
X355982898Y-179922082D01*
X355969123Y-179925226D01*
X355821372Y-179950330D01*
X355673616Y-179975435D01*
X355659584Y-179977016D01*
X355395623Y-179991840D01*
X355369182Y-179990538D01*
X355359520Y-179989033D01*
X355327999Y-179993155D01*
X355311661Y-179994219D01*
X57125487Y-179994219D01*
X57106215Y-179992736D01*
X57091120Y-179990400D01*
X57091116Y-179990400D01*
X57082245Y-179989027D01*
X57064278Y-179991393D01*
X57040882Y-179992279D01*
X56769636Y-179977292D01*
X56755594Y-179975723D01*
X56460040Y-179925783D01*
X56446262Y-179922651D01*
X56158173Y-179839937D01*
X56144832Y-179835283D01*
X56087101Y-179811432D01*
X55867795Y-179720825D01*
X55855066Y-179714709D01*
X55592598Y-179569958D01*
X55580628Y-179562452D01*
X55336019Y-179389227D01*
X55324963Y-179380427D01*
X55101283Y-179180898D01*
X55091283Y-179170916D01*
X54937181Y-178998790D01*
X54891345Y-178947593D01*
X54882529Y-178936558D01*
X54881117Y-178934571D01*
X54708861Y-178692266D01*
X54701335Y-178680313D01*
X54700142Y-178678158D01*
X54556103Y-178418097D01*
X54549963Y-178405376D01*
X54549014Y-178403089D01*
X54435008Y-178128561D01*
X54430329Y-178115228D01*
X54347091Y-177827284D01*
X54343934Y-177813511D01*
X54293457Y-177518047D01*
X54291863Y-177504008D01*
X54276801Y-177240076D01*
X54278077Y-177213632D01*
X54278201Y-177212834D01*
X54278201Y-177212829D01*
X54279573Y-177203964D01*
X54275460Y-177172730D01*
X54274382Y-177156280D01*
X54274382Y-170539223D01*
X201478703Y-170539223D01*
X201486227Y-170549654D01*
X201625483Y-170661820D01*
X201631657Y-170666208D01*
X201902271Y-170834978D01*
X201908931Y-170838594D01*
X202197852Y-170973627D01*
X202204905Y-170976420D01*
X202507970Y-171075770D01*
X202515282Y-171077688D01*
X202828092Y-171139909D01*
X202835590Y-171140937D01*
X203153610Y-171165128D01*
X203161173Y-171165246D01*
X203479785Y-171151057D01*
X203487326Y-171150265D01*
X203801924Y-171097901D01*
X203809302Y-171096211D01*
X204115355Y-171006425D01*
X204122450Y-171003871D01*
X204415496Y-170877969D01*
X204422263Y-170874565D01*
X204698042Y-170714380D01*
X204704349Y-170710190D01*
X204914305Y-170551689D01*
X204922761Y-170540296D01*
X204916045Y-170528056D01*
X203212810Y-168824820D01*
X203198869Y-168817208D01*
X203197034Y-168817339D01*
X203190420Y-168821590D01*
X201485818Y-170526193D01*
X201478703Y-170539223D01*
X54274382Y-170539223D01*
X54274382Y-168428183D01*
X200487388Y-168428183D01*
X200503245Y-168746714D01*
X200504076Y-168754243D01*
X200558085Y-169068559D01*
X200559818Y-169075946D01*
X200651196Y-169381495D01*
X200653799Y-169388608D01*
X200781227Y-169680973D01*
X200784669Y-169687729D01*
X200946296Y-169962665D01*
X200950519Y-169968950D01*
X201101463Y-170166734D01*
X201112989Y-170175196D01*
X201125054Y-170168535D01*
X202827980Y-168465610D01*
X202834357Y-168453931D01*
X203564408Y-168453931D01*
X203564539Y-168455766D01*
X203568790Y-168462380D01*
X205273285Y-170166874D01*
X205286408Y-170174040D01*
X205296709Y-170166651D01*
X205400751Y-170038855D01*
X205405164Y-170032714D01*
X205575349Y-169762987D01*
X205579005Y-169756336D01*
X205715544Y-169468135D01*
X205718375Y-169461095D01*
X205819306Y-169158567D01*
X205821270Y-169151233D01*
X205885122Y-168838789D01*
X205886194Y-168831265D01*
X205912173Y-168511851D01*
X205912378Y-168507376D01*
X205912927Y-168455021D01*
X205912817Y-168450589D01*
X205893529Y-168130653D01*
X205892621Y-168123151D01*
X205835319Y-167809393D01*
X205833518Y-167802060D01*
X205738935Y-167497455D01*
X205736263Y-167490383D01*
X205605781Y-167199370D01*
X205602264Y-167192643D01*
X205437771Y-166919421D01*
X205433481Y-166913177D01*
X205297991Y-166739447D01*
X205286199Y-166730978D01*
X205274486Y-166737525D01*
X203572020Y-168439990D01*
X203564408Y-168453931D01*
X202834357Y-168453931D01*
X202835592Y-168451669D01*
X202835461Y-168449834D01*
X202831210Y-168443220D01*
X201126445Y-166738456D01*
X201113510Y-166731392D01*
X201102949Y-166739052D01*
X200982766Y-166889872D01*
X200978410Y-166896070D01*
X200811059Y-167167564D01*
X200807479Y-167174240D01*
X200673956Y-167463874D01*
X200671206Y-167470925D01*
X200573444Y-167774508D01*
X200571561Y-167781841D01*
X200510979Y-168094970D01*
X200509992Y-168102470D01*
X200487467Y-168420602D01*
X200487388Y-168428183D01*
X54274382Y-168428183D01*
X54274382Y-166366223D01*
X201477917Y-166366223D01*
X201484520Y-166378109D01*
X203187190Y-168080780D01*
X203201131Y-168088392D01*
X203202966Y-168088261D01*
X203209580Y-168084010D01*
X204914559Y-166379030D01*
X204921571Y-166366189D01*
X204913777Y-166355501D01*
X204751298Y-166227413D01*
X204745075Y-166223088D01*
X204472702Y-166057157D01*
X204466025Y-166053622D01*
X204175686Y-165921613D01*
X204168616Y-165918899D01*
X203864537Y-165822732D01*
X203857186Y-165820885D01*
X203543746Y-165761942D01*
X203536237Y-165760994D01*
X203217989Y-165740135D01*
X203210424Y-165740095D01*
X202891964Y-165757621D01*
X202884450Y-165758490D01*
X202570405Y-165814148D01*
X202563044Y-165815915D01*
X202257980Y-165908892D01*
X202250860Y-165911540D01*
X201959182Y-166040490D01*
X201952445Y-166043967D01*
X201678355Y-166207033D01*
X201672091Y-166211290D01*
X201486385Y-166354562D01*
X201477917Y-166366223D01*
X54274382Y-166366223D01*
X54274382Y-152955785D01*
X87431298Y-152955785D01*
X87447536Y-153281959D01*
X87448177Y-153285690D01*
X87448178Y-153285698D01*
X87472008Y-153424377D01*
X87502841Y-153603819D01*
X87503929Y-153607458D01*
X87503930Y-153607461D01*
X87590324Y-153896339D01*
X87596414Y-153916704D01*
X87597927Y-153920175D01*
X87597929Y-153920181D01*
X87615242Y-153959903D01*
X87726897Y-154216081D01*
X87728820Y-154219352D01*
X87728822Y-154219356D01*
X87771184Y-154291415D01*
X87892402Y-154497614D01*
X87894703Y-154500629D01*
X88088231Y-154754212D01*
X88088236Y-154754217D01*
X88090531Y-154757225D01*
X88318414Y-154991153D01*
X88391235Y-155049807D01*
X88569796Y-155193631D01*
X88569801Y-155193635D01*
X88572749Y-155196009D01*
X88849853Y-155368827D01*
X89145712Y-155507103D01*
X89456040Y-155608834D01*
X89776342Y-155672546D01*
X89780114Y-155672833D01*
X89780122Y-155672834D01*
X90098202Y-155697029D01*
X90098207Y-155697029D01*
X90101979Y-155697316D01*
X90428233Y-155682786D01*
X90488025Y-155672834D01*
X90746637Y-155629790D01*
X90746642Y-155629789D01*
X90750378Y-155629167D01*
X91063749Y-155537234D01*
X91067216Y-155535744D01*
X91067220Y-155535743D01*
X91360321Y-155409816D01*
X91360323Y-155409815D01*
X91363805Y-155408319D01*
X91646201Y-155244291D01*
X91906845Y-155047524D01*
X92024404Y-154934197D01*
X92139232Y-154823503D01*
X92139235Y-154823500D01*
X92141963Y-154820870D01*
X92225201Y-154718629D01*
X92345755Y-154570551D01*
X92345758Y-154570547D01*
X92348149Y-154567610D01*
X92394376Y-154494344D01*
X92520388Y-154294628D01*
X92520390Y-154294625D01*
X92522415Y-154291415D01*
X92662238Y-153996284D01*
X92675254Y-153957270D01*
X92764390Y-153690097D01*
X92764392Y-153690091D01*
X92765592Y-153686493D01*
X92830981Y-153366529D01*
X92831858Y-153355756D01*
X92856191Y-153056581D01*
X92857456Y-153041026D01*
X92858051Y-152984200D01*
X92856110Y-152951996D01*
X92838626Y-152661993D01*
X92838626Y-152661989D01*
X92838398Y-152658215D01*
X92833250Y-152630024D01*
X92780405Y-152340673D01*
X92780404Y-152340669D01*
X92779725Y-152336951D01*
X92772322Y-152313107D01*
X92703724Y-152092185D01*
X313669098Y-152092185D01*
X313669287Y-152095977D01*
X313681469Y-152340673D01*
X313685336Y-152418359D01*
X313685977Y-152422090D01*
X313685978Y-152422098D01*
X313722356Y-152633805D01*
X313740641Y-152740219D01*
X313834214Y-153053104D01*
X313964697Y-153352481D01*
X313966620Y-153355752D01*
X313966622Y-153355756D01*
X314008984Y-153427815D01*
X314130202Y-153634014D01*
X314132503Y-153637029D01*
X314326031Y-153890612D01*
X314326036Y-153890617D01*
X314328331Y-153893625D01*
X314556214Y-154127553D01*
X314666124Y-154216081D01*
X314807596Y-154330031D01*
X314807601Y-154330035D01*
X314810549Y-154332409D01*
X315087653Y-154505227D01*
X315383512Y-154643503D01*
X315693840Y-154745234D01*
X316014142Y-154808946D01*
X316017914Y-154809233D01*
X316017922Y-154809234D01*
X316336002Y-154833429D01*
X316336007Y-154833429D01*
X316339779Y-154833716D01*
X316666033Y-154819186D01*
X316725825Y-154809234D01*
X316984437Y-154766190D01*
X316984442Y-154766189D01*
X316988178Y-154765567D01*
X317301549Y-154673634D01*
X317305016Y-154672144D01*
X317305020Y-154672143D01*
X317598121Y-154546216D01*
X317598123Y-154546215D01*
X317601605Y-154544719D01*
X317884001Y-154380691D01*
X318144645Y-154183924D01*
X318379763Y-153957270D01*
X318585949Y-153704010D01*
X318587970Y-153700807D01*
X318758188Y-153431028D01*
X318758190Y-153431025D01*
X318760215Y-153427815D01*
X318900038Y-153132684D01*
X318926588Y-153053104D01*
X319002190Y-152826497D01*
X319002192Y-152826491D01*
X319003392Y-152822893D01*
X319068781Y-152502929D01*
X319075356Y-152422098D01*
X319095074Y-152179661D01*
X319095256Y-152177426D01*
X319095851Y-152120600D01*
X319093910Y-152088396D01*
X319076426Y-151798393D01*
X319076426Y-151798389D01*
X319076198Y-151794615D01*
X319071050Y-151766424D01*
X319018205Y-151477073D01*
X319018204Y-151477069D01*
X319017525Y-151473351D01*
X319010122Y-151449507D01*
X318923804Y-151171517D01*
X318920682Y-151161463D01*
X318787070Y-150863469D01*
X318618626Y-150583684D01*
X318616299Y-150580700D01*
X318616294Y-150580693D01*
X318420126Y-150329158D01*
X318420124Y-150329156D01*
X318417790Y-150326163D01*
X318187470Y-150094634D01*
X317931003Y-149892452D01*
X317652105Y-149722545D01*
X317648661Y-149720979D01*
X317648657Y-149720977D01*
X317538067Y-149670695D01*
X317354814Y-149587375D01*
X317043437Y-149488900D01*
X316825892Y-149447990D01*
X316726209Y-149429245D01*
X316726207Y-149429245D01*
X316722486Y-149428545D01*
X316396608Y-149407186D01*
X316392828Y-149407394D01*
X316392827Y-149407394D01*
X316295297Y-149412762D01*
X316070524Y-149425132D01*
X316066797Y-149425793D01*
X316066793Y-149425793D01*
X315909741Y-149453627D01*
X315748957Y-149482122D01*
X315745341Y-149483224D01*
X315745333Y-149483226D01*
X315440189Y-149576227D01*
X315436567Y-149577331D01*
X315137877Y-149709381D01*
X315112441Y-149724514D01*
X314860474Y-149874417D01*
X314860468Y-149874421D01*
X314857214Y-149876357D01*
X314598644Y-150075843D01*
X314595934Y-150078511D01*
X314378207Y-150292845D01*
X314365913Y-150304947D01*
X314363549Y-150307914D01*
X314363546Y-150307917D01*
X314164756Y-150557383D01*
X314162391Y-150560351D01*
X313991026Y-150838357D01*
X313854302Y-151134936D01*
X313853141Y-151138540D01*
X313853141Y-151138541D01*
X313844596Y-151165077D01*
X313754197Y-151445792D01*
X313753479Y-151449503D01*
X313753478Y-151449507D01*
X313692882Y-151762705D01*
X313692881Y-151762714D01*
X313692163Y-151766424D01*
X313691896Y-151770200D01*
X313691895Y-151770205D01*
X313669366Y-152088396D01*
X313669098Y-152092185D01*
X92703724Y-152092185D01*
X92684004Y-152028677D01*
X92682882Y-152025063D01*
X92549270Y-151727069D01*
X92380826Y-151447284D01*
X92378499Y-151444300D01*
X92378494Y-151444293D01*
X92182326Y-151192758D01*
X92182324Y-151192756D01*
X92179990Y-151189763D01*
X91949670Y-150958234D01*
X91693203Y-150756052D01*
X91414305Y-150586145D01*
X91410861Y-150584579D01*
X91410857Y-150584577D01*
X91300267Y-150534295D01*
X91117014Y-150450975D01*
X90805637Y-150352500D01*
X90568557Y-150307917D01*
X90488409Y-150292845D01*
X90488407Y-150292845D01*
X90484686Y-150292145D01*
X90158808Y-150270786D01*
X90155028Y-150270994D01*
X90155027Y-150270994D01*
X90057497Y-150276362D01*
X89832724Y-150288732D01*
X89828997Y-150289393D01*
X89828993Y-150289393D01*
X89724472Y-150307917D01*
X89511157Y-150345722D01*
X89507541Y-150346824D01*
X89507533Y-150346826D01*
X89202389Y-150439827D01*
X89198767Y-150440931D01*
X88900077Y-150572981D01*
X88876619Y-150586937D01*
X88622674Y-150738017D01*
X88622668Y-150738021D01*
X88619414Y-150739957D01*
X88616412Y-150742273D01*
X88454824Y-150866938D01*
X88360844Y-150939443D01*
X88128113Y-151168547D01*
X88125749Y-151171514D01*
X88125746Y-151171517D01*
X88108820Y-151192758D01*
X87924591Y-151423951D01*
X87753226Y-151701957D01*
X87616502Y-151998536D01*
X87615341Y-152002140D01*
X87615341Y-152002141D01*
X87606796Y-152028677D01*
X87516397Y-152309392D01*
X87515679Y-152313103D01*
X87515678Y-152313107D01*
X87455082Y-152626305D01*
X87455081Y-152626314D01*
X87454363Y-152630024D01*
X87431298Y-152955785D01*
X54274382Y-152955785D01*
X54274382Y-103984585D01*
X79049298Y-103984585D01*
X79065536Y-104310759D01*
X79066177Y-104314490D01*
X79066178Y-104314498D01*
X79108768Y-104562356D01*
X79120841Y-104632619D01*
X79121929Y-104636258D01*
X79121930Y-104636261D01*
X79203021Y-104907407D01*
X79214414Y-104945504D01*
X79344897Y-105244881D01*
X79346820Y-105248152D01*
X79346822Y-105248156D01*
X79389184Y-105320215D01*
X79510402Y-105526414D01*
X79512703Y-105529429D01*
X79706231Y-105783012D01*
X79706236Y-105783017D01*
X79708531Y-105786025D01*
X79769385Y-105848493D01*
X79800306Y-105880234D01*
X79936414Y-106019953D01*
X80009235Y-106078607D01*
X80187796Y-106222431D01*
X80187801Y-106222435D01*
X80190749Y-106224809D01*
X80467853Y-106397627D01*
X80763712Y-106535903D01*
X81074040Y-106637634D01*
X81394342Y-106701346D01*
X81398114Y-106701633D01*
X81398122Y-106701634D01*
X81716202Y-106725829D01*
X81716207Y-106725829D01*
X81719979Y-106726116D01*
X82046233Y-106711586D01*
X82106025Y-106701634D01*
X82364637Y-106658590D01*
X82364642Y-106658589D01*
X82368378Y-106657967D01*
X82681749Y-106566034D01*
X82685216Y-106564544D01*
X82685220Y-106564543D01*
X82978321Y-106438616D01*
X82978323Y-106438615D01*
X82981805Y-106437119D01*
X83264201Y-106273091D01*
X83524845Y-106076324D01*
X83728258Y-105880234D01*
X83757232Y-105852303D01*
X83757235Y-105852300D01*
X83759963Y-105849670D01*
X83966149Y-105596410D01*
X84094613Y-105392807D01*
X84138388Y-105323428D01*
X84138390Y-105323425D01*
X84140415Y-105320215D01*
X84280238Y-105025084D01*
X84306788Y-104945504D01*
X84382390Y-104718897D01*
X84382392Y-104718891D01*
X84383592Y-104715293D01*
X84448981Y-104395329D01*
X84453540Y-104339284D01*
X84475274Y-104072061D01*
X84475456Y-104069826D01*
X84476051Y-104013000D01*
X84474110Y-103980796D01*
X84456626Y-103690793D01*
X84456626Y-103690789D01*
X84456398Y-103687015D01*
X84451250Y-103658824D01*
X84398405Y-103369473D01*
X84398404Y-103369469D01*
X84397725Y-103365751D01*
X84390322Y-103341907D01*
X84341279Y-103183964D01*
X84300882Y-103053863D01*
X84167270Y-102755869D01*
X83998826Y-102476084D01*
X83996499Y-102473100D01*
X83996494Y-102473093D01*
X83800326Y-102221558D01*
X83800324Y-102221556D01*
X83797990Y-102218563D01*
X83567670Y-101987034D01*
X83311203Y-101784852D01*
X83032305Y-101614945D01*
X83028861Y-101613379D01*
X83028857Y-101613377D01*
X82851555Y-101532763D01*
X82735014Y-101479775D01*
X82423637Y-101381300D01*
X82206092Y-101340390D01*
X82106409Y-101321645D01*
X82106407Y-101321645D01*
X82102686Y-101320945D01*
X81776808Y-101299586D01*
X81773028Y-101299794D01*
X81773027Y-101299794D01*
X81698058Y-101303920D01*
X81450724Y-101317532D01*
X81446997Y-101318193D01*
X81446993Y-101318193D01*
X81289940Y-101346027D01*
X81129157Y-101374522D01*
X81125541Y-101375624D01*
X81125533Y-101375626D01*
X80820389Y-101468627D01*
X80816767Y-101469731D01*
X80518077Y-101601781D01*
X80492641Y-101616914D01*
X80240674Y-101766817D01*
X80240668Y-101766821D01*
X80237414Y-101768757D01*
X80234412Y-101771073D01*
X80039700Y-101921293D01*
X79978844Y-101968243D01*
X79746113Y-102197347D01*
X79743749Y-102200314D01*
X79743746Y-102200317D01*
X79633959Y-102338091D01*
X79542591Y-102452751D01*
X79371226Y-102730757D01*
X79369637Y-102734204D01*
X79248262Y-102997489D01*
X79234502Y-103027336D01*
X79233341Y-103030940D01*
X79233341Y-103030941D01*
X79225378Y-103055670D01*
X79134397Y-103338192D01*
X79133679Y-103341903D01*
X79133678Y-103341907D01*
X79073082Y-103655105D01*
X79073081Y-103655114D01*
X79072363Y-103658824D01*
X79072096Y-103662600D01*
X79072095Y-103662605D01*
X79054030Y-103917755D01*
X79049298Y-103984585D01*
X54274382Y-103984585D01*
X54274382Y-101190585D01*
X203500043Y-101190585D01*
X203505685Y-101303920D01*
X203516022Y-101511547D01*
X203516281Y-101516759D01*
X203516922Y-101520490D01*
X203516923Y-101520498D01*
X203563840Y-101793537D01*
X203571586Y-101838619D01*
X203572674Y-101842258D01*
X203572675Y-101842261D01*
X203640805Y-102070069D01*
X203665159Y-102151504D01*
X203666672Y-102154975D01*
X203666674Y-102154981D01*
X203695692Y-102221558D01*
X203795642Y-102450881D01*
X203797565Y-102454152D01*
X203797567Y-102454156D01*
X203839929Y-102526215D01*
X203961147Y-102732414D01*
X203963448Y-102735429D01*
X204156976Y-102989012D01*
X204156981Y-102989017D01*
X204159276Y-102992025D01*
X204387159Y-103225953D01*
X204512860Y-103327200D01*
X204638541Y-103428431D01*
X204638546Y-103428435D01*
X204641494Y-103430809D01*
X204918598Y-103603627D01*
X205214457Y-103741903D01*
X205524785Y-103843634D01*
X205845087Y-103907346D01*
X205848859Y-103907633D01*
X205848867Y-103907634D01*
X206166947Y-103931829D01*
X206166952Y-103931829D01*
X206170724Y-103932116D01*
X206496978Y-103917586D01*
X206556770Y-103907634D01*
X206815382Y-103864590D01*
X206815387Y-103864589D01*
X206819123Y-103863967D01*
X207132494Y-103772034D01*
X207135961Y-103770544D01*
X207135965Y-103770543D01*
X207429066Y-103644616D01*
X207429068Y-103644615D01*
X207432550Y-103643119D01*
X207714946Y-103479091D01*
X207953785Y-103298785D01*
X319765098Y-103298785D01*
X319765287Y-103302577D01*
X319773961Y-103476807D01*
X319781336Y-103624959D01*
X319781977Y-103628690D01*
X319781978Y-103628698D01*
X319834115Y-103932116D01*
X319836641Y-103946819D01*
X319837729Y-103950458D01*
X319837730Y-103950461D01*
X319874097Y-104072061D01*
X319930214Y-104259704D01*
X320060697Y-104559081D01*
X320062620Y-104562352D01*
X320062622Y-104562356D01*
X320103928Y-104632619D01*
X320226202Y-104840614D01*
X320228503Y-104843629D01*
X320422031Y-105097212D01*
X320422036Y-105097217D01*
X320424331Y-105100225D01*
X320652214Y-105334153D01*
X320725035Y-105392807D01*
X320903596Y-105536631D01*
X320903601Y-105536635D01*
X320906549Y-105539009D01*
X321183653Y-105711827D01*
X321479512Y-105850103D01*
X321789840Y-105951834D01*
X322110142Y-106015546D01*
X322113914Y-106015833D01*
X322113922Y-106015834D01*
X322432002Y-106040029D01*
X322432007Y-106040029D01*
X322435779Y-106040316D01*
X322762033Y-106025786D01*
X322821825Y-106015834D01*
X323080437Y-105972790D01*
X323080442Y-105972789D01*
X323084178Y-105972167D01*
X323397549Y-105880234D01*
X323401016Y-105878744D01*
X323401020Y-105878743D01*
X323694121Y-105752816D01*
X323694123Y-105752815D01*
X323697605Y-105751319D01*
X323980001Y-105587291D01*
X324240645Y-105390524D01*
X324358204Y-105277197D01*
X324473032Y-105166503D01*
X324473035Y-105166500D01*
X324475763Y-105163870D01*
X324681949Y-104910610D01*
X324856215Y-104634415D01*
X324996038Y-104339284D01*
X324997240Y-104335682D01*
X325098190Y-104033097D01*
X325098192Y-104033091D01*
X325099392Y-104029493D01*
X325164781Y-103709529D01*
X325166613Y-103687015D01*
X325183710Y-103476807D01*
X325191256Y-103384026D01*
X325191851Y-103327200D01*
X325189910Y-103294996D01*
X325172426Y-103004993D01*
X325172426Y-103004989D01*
X325172198Y-103001215D01*
X325171016Y-102994739D01*
X325114205Y-102683673D01*
X325114204Y-102683669D01*
X325113525Y-102679951D01*
X325106122Y-102656107D01*
X325042397Y-102450881D01*
X325016682Y-102368063D01*
X324883070Y-102070069D01*
X324714626Y-101790284D01*
X324712299Y-101787300D01*
X324712294Y-101787293D01*
X324516126Y-101535758D01*
X324516124Y-101535756D01*
X324513790Y-101532763D01*
X324283470Y-101301234D01*
X324027003Y-101099052D01*
X323748105Y-100929145D01*
X323744661Y-100927579D01*
X323744657Y-100927577D01*
X323598459Y-100861105D01*
X323450814Y-100793975D01*
X323139437Y-100695500D01*
X322921892Y-100654590D01*
X322822209Y-100635845D01*
X322822207Y-100635845D01*
X322818486Y-100635145D01*
X322492608Y-100613786D01*
X322488828Y-100613994D01*
X322488827Y-100613994D01*
X322391297Y-100619362D01*
X322166524Y-100631732D01*
X322162797Y-100632393D01*
X322162793Y-100632393D01*
X322005741Y-100660227D01*
X321844957Y-100688722D01*
X321841341Y-100689824D01*
X321841333Y-100689826D01*
X321536189Y-100782827D01*
X321532567Y-100783931D01*
X321233877Y-100915981D01*
X321208441Y-100931114D01*
X320956474Y-101081017D01*
X320956468Y-101081021D01*
X320953214Y-101082957D01*
X320950212Y-101085273D01*
X320700324Y-101278061D01*
X320694644Y-101282443D01*
X320461913Y-101511547D01*
X320459549Y-101514514D01*
X320459546Y-101514517D01*
X320391233Y-101600245D01*
X320258391Y-101766951D01*
X320087026Y-102044957D01*
X319950302Y-102341536D01*
X319949141Y-102345140D01*
X319949141Y-102345141D01*
X319940596Y-102371677D01*
X319850197Y-102652392D01*
X319849479Y-102656103D01*
X319849478Y-102656107D01*
X319788882Y-102969305D01*
X319788881Y-102969314D01*
X319788163Y-102973024D01*
X319787896Y-102976800D01*
X319787895Y-102976805D01*
X319770086Y-103228335D01*
X319765098Y-103298785D01*
X207953785Y-103298785D01*
X207975590Y-103282324D01*
X208210708Y-103055670D01*
X208416894Y-102802410D01*
X208464141Y-102727528D01*
X208589133Y-102529428D01*
X208589135Y-102529425D01*
X208591160Y-102526215D01*
X208616328Y-102473093D01*
X208729354Y-102234522D01*
X208730983Y-102231084D01*
X208734161Y-102221558D01*
X208833135Y-101924897D01*
X208833137Y-101924891D01*
X208834337Y-101921293D01*
X208899726Y-101601329D01*
X208905060Y-101535758D01*
X208924248Y-101299834D01*
X208926201Y-101275826D01*
X208926796Y-101219000D01*
X208924855Y-101186796D01*
X208907371Y-100896793D01*
X208907371Y-100896789D01*
X208907143Y-100893015D01*
X208901995Y-100864824D01*
X208849150Y-100575473D01*
X208849149Y-100575469D01*
X208848470Y-100571751D01*
X208841067Y-100547907D01*
X208752749Y-100263477D01*
X208751627Y-100259863D01*
X208618015Y-99961869D01*
X208449571Y-99682084D01*
X208447244Y-99679100D01*
X208447239Y-99679093D01*
X208251071Y-99427558D01*
X208251069Y-99427556D01*
X208248735Y-99424563D01*
X208018415Y-99193034D01*
X207761948Y-98990852D01*
X207483050Y-98820945D01*
X207479606Y-98819379D01*
X207479602Y-98819377D01*
X207369012Y-98769095D01*
X207185759Y-98685775D01*
X206874382Y-98587300D01*
X206656837Y-98546390D01*
X206557154Y-98527645D01*
X206557152Y-98527645D01*
X206553431Y-98526945D01*
X206227553Y-98505586D01*
X206223773Y-98505794D01*
X206223772Y-98505794D01*
X206126242Y-98511162D01*
X205901469Y-98523532D01*
X205897742Y-98524193D01*
X205897738Y-98524193D01*
X205740685Y-98552027D01*
X205579902Y-98580522D01*
X205576286Y-98581624D01*
X205576278Y-98581626D01*
X205271134Y-98674627D01*
X205267512Y-98675731D01*
X204968822Y-98807781D01*
X204943386Y-98822914D01*
X204691419Y-98972817D01*
X204691413Y-98972821D01*
X204688159Y-98974757D01*
X204429589Y-99174243D01*
X204196858Y-99403347D01*
X204194494Y-99406314D01*
X204194491Y-99406317D01*
X204177565Y-99427558D01*
X203993336Y-99658751D01*
X203821971Y-99936757D01*
X203685247Y-100233336D01*
X203684086Y-100236940D01*
X203684086Y-100236941D01*
X203675541Y-100263477D01*
X203585142Y-100544192D01*
X203584424Y-100547903D01*
X203584423Y-100547907D01*
X203523827Y-100861105D01*
X203523826Y-100861114D01*
X203523108Y-100864824D01*
X203522841Y-100868600D01*
X203522840Y-100868605D01*
X203519486Y-100915981D01*
X203500043Y-101190585D01*
X54274382Y-101190585D01*
X54274382Y-92345457D01*
X79260020Y-92345457D01*
X79276258Y-92671631D01*
X79276899Y-92675362D01*
X79276900Y-92675370D01*
X79291431Y-92759932D01*
X79331563Y-92993491D01*
X79425136Y-93306376D01*
X79555619Y-93605753D01*
X79557542Y-93609024D01*
X79557544Y-93609028D01*
X79599906Y-93681087D01*
X79721124Y-93887286D01*
X79723425Y-93890301D01*
X79916953Y-94143884D01*
X79916958Y-94143889D01*
X79919253Y-94146897D01*
X80147136Y-94380825D01*
X80219957Y-94439479D01*
X80398518Y-94583303D01*
X80398523Y-94583307D01*
X80401471Y-94585681D01*
X80678575Y-94758499D01*
X80974434Y-94896775D01*
X81284762Y-94998506D01*
X81605064Y-95062218D01*
X81608836Y-95062505D01*
X81608844Y-95062506D01*
X81926924Y-95086701D01*
X81926929Y-95086701D01*
X81930701Y-95086988D01*
X82256955Y-95072458D01*
X82316747Y-95062506D01*
X82575359Y-95019462D01*
X82575364Y-95019461D01*
X82579100Y-95018839D01*
X82892471Y-94926906D01*
X82895938Y-94925416D01*
X82895942Y-94925415D01*
X83189043Y-94799488D01*
X83189045Y-94799487D01*
X83192527Y-94797991D01*
X83474923Y-94633963D01*
X83735567Y-94437196D01*
X83970685Y-94210542D01*
X84176871Y-93957282D01*
X84351137Y-93681087D01*
X84490960Y-93385956D01*
X84517510Y-93306376D01*
X84593112Y-93079769D01*
X84593114Y-93079763D01*
X84594314Y-93076165D01*
X84659703Y-92756201D01*
X84666278Y-92675370D01*
X84685996Y-92432933D01*
X84686178Y-92430698D01*
X84686773Y-92373872D01*
X84685060Y-92345457D01*
X203500043Y-92345457D01*
X203516281Y-92671631D01*
X203516922Y-92675362D01*
X203516923Y-92675370D01*
X203531454Y-92759932D01*
X203571586Y-92993491D01*
X203665159Y-93306376D01*
X203795642Y-93605753D01*
X203797565Y-93609024D01*
X203797567Y-93609028D01*
X203839929Y-93681087D01*
X203961147Y-93887286D01*
X203963448Y-93890301D01*
X204156976Y-94143884D01*
X204156981Y-94143889D01*
X204159276Y-94146897D01*
X204387159Y-94380825D01*
X204459980Y-94439479D01*
X204638541Y-94583303D01*
X204638546Y-94583307D01*
X204641494Y-94585681D01*
X204918598Y-94758499D01*
X205214457Y-94896775D01*
X205524785Y-94998506D01*
X205845087Y-95062218D01*
X205848859Y-95062505D01*
X205848867Y-95062506D01*
X206166947Y-95086701D01*
X206166952Y-95086701D01*
X206170724Y-95086988D01*
X206496978Y-95072458D01*
X206556770Y-95062506D01*
X206815382Y-95019462D01*
X206815387Y-95019461D01*
X206819123Y-95018839D01*
X207132494Y-94926906D01*
X207135961Y-94925416D01*
X207135965Y-94925415D01*
X207429066Y-94799488D01*
X207429068Y-94799487D01*
X207432550Y-94797991D01*
X207714946Y-94633963D01*
X207975590Y-94437196D01*
X208210708Y-94210542D01*
X208416894Y-93957282D01*
X208591160Y-93681087D01*
X208730983Y-93385956D01*
X208757533Y-93306376D01*
X208833135Y-93079769D01*
X208833137Y-93079763D01*
X208834337Y-93076165D01*
X208899726Y-92756201D01*
X208906301Y-92675370D01*
X208926019Y-92432933D01*
X208926201Y-92430698D01*
X208926796Y-92373872D01*
X208925083Y-92345457D01*
X327740067Y-92345457D01*
X327756305Y-92671631D01*
X327756946Y-92675362D01*
X327756947Y-92675370D01*
X327771478Y-92759932D01*
X327811610Y-92993491D01*
X327905183Y-93306376D01*
X328035666Y-93605753D01*
X328037589Y-93609024D01*
X328037591Y-93609028D01*
X328079953Y-93681087D01*
X328201171Y-93887286D01*
X328203472Y-93890301D01*
X328397000Y-94143884D01*
X328397005Y-94143889D01*
X328399300Y-94146897D01*
X328627183Y-94380825D01*
X328700004Y-94439479D01*
X328878565Y-94583303D01*
X328878570Y-94583307D01*
X328881518Y-94585681D01*
X329158622Y-94758499D01*
X329454481Y-94896775D01*
X329764809Y-94998506D01*
X330085111Y-95062218D01*
X330088883Y-95062505D01*
X330088891Y-95062506D01*
X330406971Y-95086701D01*
X330406976Y-95086701D01*
X330410748Y-95086988D01*
X330737002Y-95072458D01*
X330796794Y-95062506D01*
X331055406Y-95019462D01*
X331055411Y-95019461D01*
X331059147Y-95018839D01*
X331372518Y-94926906D01*
X331375985Y-94925416D01*
X331375989Y-94925415D01*
X331669090Y-94799488D01*
X331669092Y-94799487D01*
X331672574Y-94797991D01*
X331954970Y-94633963D01*
X332215614Y-94437196D01*
X332450732Y-94210542D01*
X332656918Y-93957282D01*
X332831184Y-93681087D01*
X332971007Y-93385956D01*
X332997557Y-93306376D01*
X333073159Y-93079769D01*
X333073161Y-93079763D01*
X333074361Y-93076165D01*
X333139750Y-92756201D01*
X333146325Y-92675370D01*
X333166043Y-92432933D01*
X333166225Y-92430698D01*
X333166820Y-92373872D01*
X333164879Y-92341668D01*
X333147395Y-92051665D01*
X333147395Y-92051661D01*
X333147167Y-92047887D01*
X333142019Y-92019696D01*
X333089174Y-91730345D01*
X333089173Y-91730341D01*
X333088494Y-91726623D01*
X333081091Y-91702779D01*
X332992773Y-91418349D01*
X332991651Y-91414735D01*
X332858039Y-91116741D01*
X332689595Y-90836956D01*
X332687268Y-90833972D01*
X332687263Y-90833965D01*
X332491095Y-90582430D01*
X332491093Y-90582428D01*
X332488759Y-90579435D01*
X332258439Y-90347906D01*
X332001972Y-90145724D01*
X331723074Y-89975817D01*
X331719630Y-89974251D01*
X331719626Y-89974249D01*
X331609036Y-89923967D01*
X331425783Y-89840647D01*
X331114406Y-89742172D01*
X330896861Y-89701262D01*
X330797178Y-89682517D01*
X330797176Y-89682517D01*
X330793455Y-89681817D01*
X330467577Y-89660458D01*
X330463797Y-89660666D01*
X330463796Y-89660666D01*
X330366266Y-89666034D01*
X330141493Y-89678404D01*
X330137766Y-89679065D01*
X330137762Y-89679065D01*
X329980710Y-89706899D01*
X329819926Y-89735394D01*
X329816310Y-89736496D01*
X329816302Y-89736498D01*
X329511158Y-89829499D01*
X329507536Y-89830603D01*
X329208846Y-89962653D01*
X329183410Y-89977786D01*
X328931443Y-90127689D01*
X328931437Y-90127693D01*
X328928183Y-90129629D01*
X328669613Y-90329115D01*
X328436882Y-90558219D01*
X328434518Y-90561186D01*
X328434515Y-90561189D01*
X328417589Y-90582430D01*
X328233360Y-90813623D01*
X328061995Y-91091629D01*
X327925271Y-91388208D01*
X327924110Y-91391812D01*
X327924110Y-91391813D01*
X327915565Y-91418349D01*
X327825166Y-91699064D01*
X327824448Y-91702775D01*
X327824447Y-91702779D01*
X327763851Y-92015977D01*
X327763850Y-92015986D01*
X327763132Y-92019696D01*
X327740067Y-92345457D01*
X208925083Y-92345457D01*
X208924855Y-92341668D01*
X208907371Y-92051665D01*
X208907371Y-92051661D01*
X208907143Y-92047887D01*
X208901995Y-92019696D01*
X208849150Y-91730345D01*
X208849149Y-91730341D01*
X208848470Y-91726623D01*
X208841067Y-91702779D01*
X208752749Y-91418349D01*
X208751627Y-91414735D01*
X208618015Y-91116741D01*
X208449571Y-90836956D01*
X208447244Y-90833972D01*
X208447239Y-90833965D01*
X208251071Y-90582430D01*
X208251069Y-90582428D01*
X208248735Y-90579435D01*
X208018415Y-90347906D01*
X207761948Y-90145724D01*
X207483050Y-89975817D01*
X207479606Y-89974251D01*
X207479602Y-89974249D01*
X207369012Y-89923967D01*
X207185759Y-89840647D01*
X206874382Y-89742172D01*
X206656837Y-89701262D01*
X206557154Y-89682517D01*
X206557152Y-89682517D01*
X206553431Y-89681817D01*
X206227553Y-89660458D01*
X206223773Y-89660666D01*
X206223772Y-89660666D01*
X206126242Y-89666034D01*
X205901469Y-89678404D01*
X205897742Y-89679065D01*
X205897738Y-89679065D01*
X205740686Y-89706899D01*
X205579902Y-89735394D01*
X205576286Y-89736496D01*
X205576278Y-89736498D01*
X205271134Y-89829499D01*
X205267512Y-89830603D01*
X204968822Y-89962653D01*
X204943386Y-89977786D01*
X204691419Y-90127689D01*
X204691413Y-90127693D01*
X204688159Y-90129629D01*
X204429589Y-90329115D01*
X204196858Y-90558219D01*
X204194494Y-90561186D01*
X204194491Y-90561189D01*
X204177565Y-90582430D01*
X203993336Y-90813623D01*
X203821971Y-91091629D01*
X203685247Y-91388208D01*
X203684086Y-91391812D01*
X203684086Y-91391813D01*
X203675541Y-91418349D01*
X203585142Y-91699064D01*
X203584424Y-91702775D01*
X203584423Y-91702779D01*
X203523827Y-92015977D01*
X203523826Y-92015986D01*
X203523108Y-92019696D01*
X203500043Y-92345457D01*
X84685060Y-92345457D01*
X84684832Y-92341668D01*
X84667348Y-92051665D01*
X84667348Y-92051661D01*
X84667120Y-92047887D01*
X84661972Y-92019696D01*
X84609127Y-91730345D01*
X84609126Y-91730341D01*
X84608447Y-91726623D01*
X84601044Y-91702779D01*
X84512726Y-91418349D01*
X84511604Y-91414735D01*
X84377992Y-91116741D01*
X84209548Y-90836956D01*
X84207221Y-90833972D01*
X84207216Y-90833965D01*
X84011048Y-90582430D01*
X84011046Y-90582428D01*
X84008712Y-90579435D01*
X83778392Y-90347906D01*
X83521925Y-90145724D01*
X83243027Y-89975817D01*
X83239583Y-89974251D01*
X83239579Y-89974249D01*
X83128989Y-89923967D01*
X82945736Y-89840647D01*
X82634359Y-89742172D01*
X82416814Y-89701262D01*
X82317131Y-89682517D01*
X82317129Y-89682517D01*
X82313408Y-89681817D01*
X81987530Y-89660458D01*
X81983750Y-89660666D01*
X81983749Y-89660666D01*
X81886219Y-89666034D01*
X81661446Y-89678404D01*
X81657719Y-89679065D01*
X81657715Y-89679065D01*
X81500663Y-89706899D01*
X81339879Y-89735394D01*
X81336263Y-89736496D01*
X81336255Y-89736498D01*
X81031111Y-89829499D01*
X81027489Y-89830603D01*
X80728799Y-89962653D01*
X80703363Y-89977786D01*
X80451396Y-90127689D01*
X80451390Y-90127693D01*
X80448136Y-90129629D01*
X80189566Y-90329115D01*
X79956835Y-90558219D01*
X79954471Y-90561186D01*
X79954468Y-90561189D01*
X79937542Y-90582430D01*
X79753313Y-90813623D01*
X79581948Y-91091629D01*
X79445224Y-91388208D01*
X79444063Y-91391812D01*
X79444063Y-91391813D01*
X79435518Y-91418349D01*
X79345119Y-91699064D01*
X79344401Y-91702775D01*
X79344400Y-91702779D01*
X79283804Y-92015977D01*
X79283803Y-92015986D01*
X79283085Y-92019696D01*
X79260020Y-92345457D01*
X54274382Y-92345457D01*
X54274382Y-80416335D01*
X55053080Y-80416335D01*
X55069318Y-80742509D01*
X55069959Y-80746240D01*
X55069960Y-80746248D01*
X55084491Y-80830810D01*
X55124623Y-81064369D01*
X55218196Y-81377254D01*
X55348679Y-81676631D01*
X55350602Y-81679902D01*
X55350604Y-81679906D01*
X55392966Y-81751965D01*
X55514184Y-81958164D01*
X55516485Y-81961179D01*
X55710013Y-82214762D01*
X55710018Y-82214767D01*
X55712313Y-82217775D01*
X55940196Y-82451703D01*
X56013017Y-82510357D01*
X56191578Y-82654181D01*
X56191583Y-82654185D01*
X56194531Y-82656559D01*
X56471635Y-82829377D01*
X56767494Y-82967653D01*
X57077822Y-83069384D01*
X57398124Y-83133096D01*
X57401896Y-83133383D01*
X57401904Y-83133384D01*
X57719984Y-83157579D01*
X57719989Y-83157579D01*
X57723761Y-83157866D01*
X58050015Y-83143336D01*
X58109807Y-83133384D01*
X58368419Y-83090340D01*
X58368424Y-83090339D01*
X58372160Y-83089717D01*
X58685531Y-82997784D01*
X58688998Y-82996294D01*
X58689002Y-82996293D01*
X58982103Y-82870366D01*
X58982105Y-82870365D01*
X58985587Y-82868869D01*
X59267983Y-82704841D01*
X59528627Y-82508074D01*
X59763745Y-82281420D01*
X59969931Y-82028160D01*
X60144197Y-81751965D01*
X60284020Y-81456834D01*
X60310570Y-81377254D01*
X60386172Y-81150647D01*
X60386174Y-81150641D01*
X60387374Y-81147043D01*
X60452763Y-80827079D01*
X60459338Y-80746248D01*
X60479056Y-80503811D01*
X60479238Y-80501576D01*
X60479833Y-80444750D01*
X60478120Y-80416335D01*
X203500043Y-80416335D01*
X203516281Y-80742509D01*
X203516922Y-80746240D01*
X203516923Y-80746248D01*
X203531454Y-80830810D01*
X203571586Y-81064369D01*
X203665159Y-81377254D01*
X203795642Y-81676631D01*
X203797565Y-81679902D01*
X203797567Y-81679906D01*
X203839929Y-81751965D01*
X203961147Y-81958164D01*
X203963448Y-81961179D01*
X204156976Y-82214762D01*
X204156981Y-82214767D01*
X204159276Y-82217775D01*
X204387159Y-82451703D01*
X204459980Y-82510357D01*
X204638541Y-82654181D01*
X204638546Y-82654185D01*
X204641494Y-82656559D01*
X204918598Y-82829377D01*
X205214457Y-82967653D01*
X205524785Y-83069384D01*
X205845087Y-83133096D01*
X205848859Y-83133383D01*
X205848867Y-83133384D01*
X206166947Y-83157579D01*
X206166952Y-83157579D01*
X206170724Y-83157866D01*
X206496978Y-83143336D01*
X206556770Y-83133384D01*
X206815382Y-83090340D01*
X206815387Y-83090339D01*
X206819123Y-83089717D01*
X207132494Y-82997784D01*
X207135961Y-82996294D01*
X207135965Y-82996293D01*
X207429066Y-82870366D01*
X207429068Y-82870365D01*
X207432550Y-82868869D01*
X207714946Y-82704841D01*
X207975590Y-82508074D01*
X208210708Y-82281420D01*
X208416894Y-82028160D01*
X208591160Y-81751965D01*
X208730983Y-81456834D01*
X208757533Y-81377254D01*
X208833135Y-81150647D01*
X208833137Y-81150641D01*
X208834337Y-81147043D01*
X208899726Y-80827079D01*
X208906301Y-80746248D01*
X208926019Y-80503811D01*
X208926201Y-80501576D01*
X208926796Y-80444750D01*
X208925083Y-80416335D01*
X351947007Y-80416335D01*
X351963245Y-80742509D01*
X351963886Y-80746240D01*
X351963887Y-80746248D01*
X351978418Y-80830810D01*
X352018550Y-81064369D01*
X352112123Y-81377254D01*
X352242606Y-81676631D01*
X352244529Y-81679902D01*
X352244531Y-81679906D01*
X352286893Y-81751965D01*
X352408111Y-81958164D01*
X352410412Y-81961179D01*
X352603940Y-82214762D01*
X352603945Y-82214767D01*
X352606240Y-82217775D01*
X352834123Y-82451703D01*
X352906944Y-82510357D01*
X353085505Y-82654181D01*
X353085510Y-82654185D01*
X353088458Y-82656559D01*
X353365562Y-82829377D01*
X353661421Y-82967653D01*
X353971749Y-83069384D01*
X354292051Y-83133096D01*
X354295823Y-83133383D01*
X354295831Y-83133384D01*
X354613911Y-83157579D01*
X354613916Y-83157579D01*
X354617688Y-83157866D01*
X354943942Y-83143336D01*
X355003734Y-83133384D01*
X355262346Y-83090340D01*
X355262351Y-83090339D01*
X355266087Y-83089717D01*
X355579458Y-82997784D01*
X355582925Y-82996294D01*
X355582929Y-82996293D01*
X355876030Y-82870366D01*
X355876032Y-82870365D01*
X355879514Y-82868869D01*
X356161910Y-82704841D01*
X356422554Y-82508074D01*
X356657672Y-82281420D01*
X356863858Y-82028160D01*
X357038124Y-81751965D01*
X357177947Y-81456834D01*
X357204497Y-81377254D01*
X357280099Y-81150647D01*
X357280101Y-81150641D01*
X357281301Y-81147043D01*
X357346690Y-80827079D01*
X357353265Y-80746248D01*
X357372983Y-80503811D01*
X357373165Y-80501576D01*
X357373760Y-80444750D01*
X357371819Y-80412546D01*
X357354335Y-80122543D01*
X357354335Y-80122539D01*
X357354107Y-80118765D01*
X357348959Y-80090574D01*
X357296114Y-79801223D01*
X357296113Y-79801219D01*
X357295434Y-79797501D01*
X357288031Y-79773657D01*
X357199713Y-79489227D01*
X357198591Y-79485613D01*
X357064979Y-79187619D01*
X356896535Y-78907834D01*
X356894208Y-78904850D01*
X356894203Y-78904843D01*
X356698035Y-78653308D01*
X356698033Y-78653306D01*
X356695699Y-78650313D01*
X356465379Y-78418784D01*
X356208912Y-78216602D01*
X355930014Y-78046695D01*
X355926570Y-78045129D01*
X355926566Y-78045127D01*
X355815976Y-77994845D01*
X355632723Y-77911525D01*
X355321346Y-77813050D01*
X355103801Y-77772140D01*
X355004118Y-77753395D01*
X355004116Y-77753395D01*
X355000395Y-77752695D01*
X354674517Y-77731336D01*
X354670737Y-77731544D01*
X354670736Y-77731544D01*
X354573206Y-77736912D01*
X354348433Y-77749282D01*
X354344706Y-77749943D01*
X354344702Y-77749943D01*
X354187649Y-77777777D01*
X354026866Y-77806272D01*
X354023250Y-77807374D01*
X354023242Y-77807376D01*
X353718098Y-77900377D01*
X353714476Y-77901481D01*
X353415786Y-78033531D01*
X353390350Y-78048664D01*
X353138383Y-78198567D01*
X353138377Y-78198571D01*
X353135123Y-78200507D01*
X352876553Y-78399993D01*
X352643822Y-78629097D01*
X352641458Y-78632064D01*
X352641455Y-78632067D01*
X352624529Y-78653308D01*
X352440300Y-78884501D01*
X352268935Y-79162507D01*
X352132211Y-79459086D01*
X352131050Y-79462690D01*
X352131050Y-79462691D01*
X352122505Y-79489227D01*
X352032106Y-79769942D01*
X352031388Y-79773653D01*
X352031387Y-79773657D01*
X351970791Y-80086855D01*
X351970790Y-80086864D01*
X351970072Y-80090574D01*
X351947007Y-80416335D01*
X208925083Y-80416335D01*
X208924855Y-80412546D01*
X208907371Y-80122543D01*
X208907371Y-80122539D01*
X208907143Y-80118765D01*
X208901995Y-80090574D01*
X208849150Y-79801223D01*
X208849149Y-79801219D01*
X208848470Y-79797501D01*
X208841067Y-79773657D01*
X208752749Y-79489227D01*
X208751627Y-79485613D01*
X208618015Y-79187619D01*
X208449571Y-78907834D01*
X208447244Y-78904850D01*
X208447239Y-78904843D01*
X208251071Y-78653308D01*
X208251069Y-78653306D01*
X208248735Y-78650313D01*
X208018415Y-78418784D01*
X207761948Y-78216602D01*
X207483050Y-78046695D01*
X207479606Y-78045129D01*
X207479602Y-78045127D01*
X207369012Y-77994845D01*
X207185759Y-77911525D01*
X206874382Y-77813050D01*
X206656837Y-77772140D01*
X206557154Y-77753395D01*
X206557152Y-77753395D01*
X206553431Y-77752695D01*
X206227553Y-77731336D01*
X206223773Y-77731544D01*
X206223772Y-77731544D01*
X206126242Y-77736912D01*
X205901469Y-77749282D01*
X205897742Y-77749943D01*
X205897738Y-77749943D01*
X205740685Y-77777777D01*
X205579902Y-77806272D01*
X205576286Y-77807374D01*
X205576278Y-77807376D01*
X205271134Y-77900377D01*
X205267512Y-77901481D01*
X204968822Y-78033531D01*
X204943386Y-78048664D01*
X204691419Y-78198567D01*
X204691413Y-78198571D01*
X204688159Y-78200507D01*
X204429589Y-78399993D01*
X204196858Y-78629097D01*
X204194494Y-78632064D01*
X204194491Y-78632067D01*
X204177565Y-78653308D01*
X203993336Y-78884501D01*
X203821971Y-79162507D01*
X203685247Y-79459086D01*
X203684086Y-79462690D01*
X203684086Y-79462691D01*
X203675541Y-79489227D01*
X203585142Y-79769942D01*
X203584424Y-79773653D01*
X203584423Y-79773657D01*
X203523827Y-80086855D01*
X203523826Y-80086864D01*
X203523108Y-80090574D01*
X203500043Y-80416335D01*
X60478120Y-80416335D01*
X60477892Y-80412546D01*
X60460408Y-80122543D01*
X60460408Y-80122539D01*
X60460180Y-80118765D01*
X60455032Y-80090574D01*
X60402187Y-79801223D01*
X60402186Y-79801219D01*
X60401507Y-79797501D01*
X60394104Y-79773657D01*
X60305786Y-79489227D01*
X60304664Y-79485613D01*
X60171052Y-79187619D01*
X60002608Y-78907834D01*
X60000281Y-78904850D01*
X60000276Y-78904843D01*
X59804108Y-78653308D01*
X59804106Y-78653306D01*
X59801772Y-78650313D01*
X59571452Y-78418784D01*
X59314985Y-78216602D01*
X59036087Y-78046695D01*
X59032643Y-78045129D01*
X59032639Y-78045127D01*
X58922049Y-77994845D01*
X58738796Y-77911525D01*
X58427419Y-77813050D01*
X58209874Y-77772140D01*
X58110191Y-77753395D01*
X58110189Y-77753395D01*
X58106468Y-77752695D01*
X57780590Y-77731336D01*
X57776810Y-77731544D01*
X57776809Y-77731544D01*
X57679279Y-77736912D01*
X57454506Y-77749282D01*
X57450779Y-77749943D01*
X57450775Y-77749943D01*
X57293723Y-77777777D01*
X57132939Y-77806272D01*
X57129323Y-77807374D01*
X57129315Y-77807376D01*
X56824171Y-77900377D01*
X56820549Y-77901481D01*
X56521859Y-78033531D01*
X56496423Y-78048664D01*
X56244456Y-78198567D01*
X56244450Y-78198571D01*
X56241196Y-78200507D01*
X55982626Y-78399993D01*
X55749895Y-78629097D01*
X55747531Y-78632064D01*
X55747528Y-78632067D01*
X55730602Y-78653308D01*
X55546373Y-78884501D01*
X55375008Y-79162507D01*
X55238284Y-79459086D01*
X55237123Y-79462690D01*
X55237123Y-79462691D01*
X55228578Y-79489227D01*
X55138179Y-79769942D01*
X55137461Y-79773653D01*
X55137460Y-79773657D01*
X55076864Y-80086855D01*
X55076863Y-80086864D01*
X55076145Y-80090574D01*
X55053080Y-80416335D01*
X54274382Y-80416335D01*
X54274382Y-61666335D01*
X55053080Y-61666335D01*
X55069318Y-61992509D01*
X55069959Y-61996240D01*
X55069960Y-61996248D01*
X55084491Y-62080810D01*
X55124623Y-62314369D01*
X55218196Y-62627254D01*
X55348679Y-62926631D01*
X55350602Y-62929902D01*
X55350604Y-62929906D01*
X55392966Y-63001965D01*
X55514184Y-63208164D01*
X55516485Y-63211179D01*
X55710013Y-63464762D01*
X55710018Y-63464767D01*
X55712313Y-63467775D01*
X55940196Y-63701703D01*
X56013017Y-63760357D01*
X56191578Y-63904181D01*
X56191583Y-63904185D01*
X56194531Y-63906559D01*
X56471635Y-64079377D01*
X56767494Y-64217653D01*
X57077822Y-64319384D01*
X57398124Y-64383096D01*
X57401896Y-64383383D01*
X57401904Y-64383384D01*
X57719984Y-64407579D01*
X57719989Y-64407579D01*
X57723761Y-64407866D01*
X58050015Y-64393336D01*
X58109807Y-64383384D01*
X58368419Y-64340340D01*
X58368424Y-64340339D01*
X58372160Y-64339717D01*
X58685531Y-64247784D01*
X58688998Y-64246294D01*
X58689002Y-64246293D01*
X58982103Y-64120366D01*
X58982105Y-64120365D01*
X58985587Y-64118869D01*
X59267983Y-63954841D01*
X59528627Y-63758074D01*
X59763745Y-63531420D01*
X59969931Y-63278160D01*
X60144197Y-63001965D01*
X60284020Y-62706834D01*
X60310570Y-62627254D01*
X60386172Y-62400647D01*
X60386174Y-62400641D01*
X60387374Y-62397043D01*
X60452763Y-62077079D01*
X60459338Y-61996248D01*
X60479056Y-61753811D01*
X60479238Y-61751576D01*
X60479833Y-61694750D01*
X60478120Y-61666335D01*
X203500043Y-61666335D01*
X203516281Y-61992509D01*
X203516922Y-61996240D01*
X203516923Y-61996248D01*
X203531454Y-62080810D01*
X203571586Y-62314369D01*
X203665159Y-62627254D01*
X203795642Y-62926631D01*
X203797565Y-62929902D01*
X203797567Y-62929906D01*
X203839929Y-63001965D01*
X203961147Y-63208164D01*
X203963448Y-63211179D01*
X204156976Y-63464762D01*
X204156981Y-63464767D01*
X204159276Y-63467775D01*
X204387159Y-63701703D01*
X204459980Y-63760357D01*
X204638541Y-63904181D01*
X204638546Y-63904185D01*
X204641494Y-63906559D01*
X204918598Y-64079377D01*
X205214457Y-64217653D01*
X205524785Y-64319384D01*
X205845087Y-64383096D01*
X205848859Y-64383383D01*
X205848867Y-64383384D01*
X206166947Y-64407579D01*
X206166952Y-64407579D01*
X206170724Y-64407866D01*
X206496978Y-64393336D01*
X206556770Y-64383384D01*
X206815382Y-64340340D01*
X206815387Y-64340339D01*
X206819123Y-64339717D01*
X207132494Y-64247784D01*
X207135961Y-64246294D01*
X207135965Y-64246293D01*
X207429066Y-64120366D01*
X207429068Y-64120365D01*
X207432550Y-64118869D01*
X207714946Y-63954841D01*
X207975590Y-63758074D01*
X208210708Y-63531420D01*
X208416894Y-63278160D01*
X208591160Y-63001965D01*
X208730983Y-62706834D01*
X208757533Y-62627254D01*
X208833135Y-62400647D01*
X208833137Y-62400641D01*
X208834337Y-62397043D01*
X208899726Y-62077079D01*
X208906301Y-61996248D01*
X208926019Y-61753811D01*
X208926201Y-61751576D01*
X208926796Y-61694750D01*
X208925083Y-61666335D01*
X351947007Y-61666335D01*
X351963245Y-61992509D01*
X351963886Y-61996240D01*
X351963887Y-61996248D01*
X351978418Y-62080810D01*
X352018550Y-62314369D01*
X352112123Y-62627254D01*
X352242606Y-62926631D01*
X352244529Y-62929902D01*
X352244531Y-62929906D01*
X352286893Y-63001965D01*
X352408111Y-63208164D01*
X352410412Y-63211179D01*
X352603940Y-63464762D01*
X352603945Y-63464767D01*
X352606240Y-63467775D01*
X352834123Y-63701703D01*
X352906944Y-63760357D01*
X353085505Y-63904181D01*
X353085510Y-63904185D01*
X353088458Y-63906559D01*
X353365562Y-64079377D01*
X353661421Y-64217653D01*
X353971749Y-64319384D01*
X354292051Y-64383096D01*
X354295823Y-64383383D01*
X354295831Y-64383384D01*
X354613911Y-64407579D01*
X354613916Y-64407579D01*
X354617688Y-64407866D01*
X354943942Y-64393336D01*
X355003734Y-64383384D01*
X355262346Y-64340340D01*
X355262351Y-64340339D01*
X355266087Y-64339717D01*
X355579458Y-64247784D01*
X355582925Y-64246294D01*
X355582929Y-64246293D01*
X355876030Y-64120366D01*
X355876032Y-64120365D01*
X355879514Y-64118869D01*
X356161910Y-63954841D01*
X356422554Y-63758074D01*
X356657672Y-63531420D01*
X356863858Y-63278160D01*
X357038124Y-63001965D01*
X357177947Y-62706834D01*
X357204497Y-62627254D01*
X357280099Y-62400647D01*
X357280101Y-62400641D01*
X357281301Y-62397043D01*
X357346690Y-62077079D01*
X357353265Y-61996248D01*
X357372983Y-61753811D01*
X357373165Y-61751576D01*
X357373760Y-61694750D01*
X357371819Y-61662546D01*
X357354335Y-61372543D01*
X357354335Y-61372539D01*
X357354107Y-61368765D01*
X357348959Y-61340574D01*
X357296114Y-61051223D01*
X357296113Y-61051219D01*
X357295434Y-61047501D01*
X357288031Y-61023657D01*
X357199713Y-60739227D01*
X357198591Y-60735613D01*
X357064979Y-60437619D01*
X356896535Y-60157834D01*
X356894208Y-60154850D01*
X356894203Y-60154843D01*
X356698035Y-59903308D01*
X356698033Y-59903306D01*
X356695699Y-59900313D01*
X356465379Y-59668784D01*
X356208912Y-59466602D01*
X355930014Y-59296695D01*
X355926570Y-59295129D01*
X355926566Y-59295127D01*
X355720058Y-59201234D01*
X355632723Y-59161525D01*
X355321346Y-59063050D01*
X355081038Y-59017860D01*
X355004118Y-59003395D01*
X355004116Y-59003395D01*
X355000395Y-59002695D01*
X354674517Y-58981336D01*
X354670737Y-58981544D01*
X354670736Y-58981544D01*
X354573206Y-58986912D01*
X354348433Y-58999282D01*
X354344706Y-58999943D01*
X354344702Y-58999943D01*
X354243606Y-59017860D01*
X354026866Y-59056272D01*
X354023250Y-59057374D01*
X354023242Y-59057376D01*
X353718098Y-59150377D01*
X353714476Y-59151481D01*
X353415786Y-59283531D01*
X353390350Y-59298664D01*
X353138383Y-59448567D01*
X353138377Y-59448571D01*
X353135123Y-59450507D01*
X353132121Y-59452823D01*
X353046589Y-59518811D01*
X352876553Y-59649993D01*
X352643822Y-59879097D01*
X352641458Y-59882064D01*
X352641455Y-59882067D01*
X352624529Y-59903308D01*
X352440300Y-60134501D01*
X352268935Y-60412507D01*
X352132211Y-60709086D01*
X352131050Y-60712690D01*
X352131050Y-60712691D01*
X352122505Y-60739227D01*
X352032106Y-61019942D01*
X352031388Y-61023653D01*
X352031387Y-61023657D01*
X351970791Y-61336855D01*
X351970790Y-61336864D01*
X351970072Y-61340574D01*
X351947007Y-61666335D01*
X208925083Y-61666335D01*
X208924855Y-61662546D01*
X208907371Y-61372543D01*
X208907371Y-61372539D01*
X208907143Y-61368765D01*
X208901995Y-61340574D01*
X208849150Y-61051223D01*
X208849149Y-61051219D01*
X208848470Y-61047501D01*
X208841067Y-61023657D01*
X208752749Y-60739227D01*
X208751627Y-60735613D01*
X208618015Y-60437619D01*
X208449571Y-60157834D01*
X208447244Y-60154850D01*
X208447239Y-60154843D01*
X208251071Y-59903308D01*
X208251069Y-59903306D01*
X208248735Y-59900313D01*
X208018415Y-59668784D01*
X207761948Y-59466602D01*
X207483050Y-59296695D01*
X207479606Y-59295129D01*
X207479602Y-59295127D01*
X207273094Y-59201234D01*
X207185759Y-59161525D01*
X206874382Y-59063050D01*
X206634074Y-59017860D01*
X206557154Y-59003395D01*
X206557152Y-59003395D01*
X206553431Y-59002695D01*
X206227553Y-58981336D01*
X206223773Y-58981544D01*
X206223772Y-58981544D01*
X206126242Y-58986912D01*
X205901469Y-58999282D01*
X205897742Y-58999943D01*
X205897738Y-58999943D01*
X205796642Y-59017860D01*
X205579902Y-59056272D01*
X205576286Y-59057374D01*
X205576278Y-59057376D01*
X205271134Y-59150377D01*
X205267512Y-59151481D01*
X204968822Y-59283531D01*
X204943386Y-59298664D01*
X204691419Y-59448567D01*
X204691413Y-59448571D01*
X204688159Y-59450507D01*
X204685157Y-59452823D01*
X204599625Y-59518811D01*
X204429589Y-59649993D01*
X204196858Y-59879097D01*
X204194494Y-59882064D01*
X204194491Y-59882067D01*
X204177565Y-59903308D01*
X203993336Y-60134501D01*
X203821971Y-60412507D01*
X203685247Y-60709086D01*
X203684086Y-60712690D01*
X203684086Y-60712691D01*
X203675541Y-60739227D01*
X203585142Y-61019942D01*
X203584424Y-61023653D01*
X203584423Y-61023657D01*
X203523827Y-61336855D01*
X203523826Y-61336864D01*
X203523108Y-61340574D01*
X203500043Y-61666335D01*
X60478120Y-61666335D01*
X60477892Y-61662546D01*
X60460408Y-61372543D01*
X60460408Y-61372539D01*
X60460180Y-61368765D01*
X60455032Y-61340574D01*
X60402187Y-61051223D01*
X60402186Y-61051219D01*
X60401507Y-61047501D01*
X60394104Y-61023657D01*
X60305786Y-60739227D01*
X60304664Y-60735613D01*
X60171052Y-60437619D01*
X60002608Y-60157834D01*
X60000281Y-60154850D01*
X60000276Y-60154843D01*
X59804108Y-59903308D01*
X59804106Y-59903306D01*
X59801772Y-59900313D01*
X59571452Y-59668784D01*
X59314985Y-59466602D01*
X59036087Y-59296695D01*
X59032643Y-59295129D01*
X59032639Y-59295127D01*
X58826131Y-59201234D01*
X58738796Y-59161525D01*
X58427419Y-59063050D01*
X58187111Y-59017860D01*
X58110191Y-59003395D01*
X58110189Y-59003395D01*
X58106468Y-59002695D01*
X57780590Y-58981336D01*
X57776810Y-58981544D01*
X57776809Y-58981544D01*
X57679279Y-58986912D01*
X57454506Y-58999282D01*
X57450779Y-58999943D01*
X57450775Y-58999943D01*
X57349679Y-59017860D01*
X57132939Y-59056272D01*
X57129323Y-59057374D01*
X57129315Y-59057376D01*
X56824171Y-59150377D01*
X56820549Y-59151481D01*
X56521859Y-59283531D01*
X56496423Y-59298664D01*
X56244456Y-59448567D01*
X56244450Y-59448571D01*
X56241196Y-59450507D01*
X56238194Y-59452823D01*
X56152662Y-59518811D01*
X55982626Y-59649993D01*
X55749895Y-59879097D01*
X55747531Y-59882064D01*
X55747528Y-59882067D01*
X55730602Y-59903308D01*
X55546373Y-60134501D01*
X55375008Y-60412507D01*
X55238284Y-60709086D01*
X55237123Y-60712690D01*
X55237123Y-60712691D01*
X55228578Y-60739227D01*
X55138179Y-61019942D01*
X55137461Y-61023653D01*
X55137460Y-61023657D01*
X55076864Y-61336855D01*
X55076863Y-61336864D01*
X55076145Y-61340574D01*
X55053080Y-61666335D01*
X54274382Y-61666335D01*
X54274382Y-61051137D01*
X54275882Y-61031752D01*
X54278187Y-61016951D01*
X54278187Y-61016948D01*
X54279568Y-61008079D01*
X54277219Y-60990114D01*
X54276353Y-60966714D01*
X54289331Y-60735613D01*
X54291585Y-60695475D01*
X54293167Y-60681438D01*
X54343375Y-60385936D01*
X54346519Y-60372161D01*
X54414057Y-60137731D01*
X54429500Y-60084128D01*
X54434161Y-60070807D01*
X54548870Y-59793876D01*
X54554999Y-59781149D01*
X54699991Y-59518806D01*
X54707505Y-59506848D01*
X54737456Y-59464637D01*
X54880952Y-59262396D01*
X54889761Y-59251350D01*
X54934548Y-59201234D01*
X55089493Y-59027850D01*
X55099483Y-59017860D01*
X55322982Y-58818129D01*
X55334030Y-58809319D01*
X55578485Y-58635870D01*
X55590438Y-58628359D01*
X55852785Y-58483365D01*
X55865508Y-58477238D01*
X56142439Y-58362529D01*
X56155760Y-58357868D01*
X56354170Y-58300707D01*
X56443793Y-58274887D01*
X56457568Y-58271743D01*
X56605319Y-58246639D01*
X56753075Y-58221534D01*
X56767107Y-58219953D01*
X57031068Y-58205129D01*
X57057509Y-58206431D01*
X57067171Y-58207936D01*
X57098693Y-58203814D01*
X57115030Y-58202750D01*
X355303922Y-58202750D01*
X355323307Y-58204250D01*
G37*
G04 #@! TD.AperFunction*
M02*
